<?xml version="1.0" standalone="no"?>
<!DOCTYPE svg PUBLIC "-//W3C//DTD SVG 1.1//EN" "http://www.w3.org/Graphics/SVG/1.1/DTD/svg11.dtd" >
<svg xmlns="http://www.w3.org/2000/svg" xmlns:xlink="http://www.w3.org/1999/xlink" version="1.1">
<metadata>
Created by FontForge 20161003 at Thu Jan 10 10:20:33 2019
 By www-data
Copyright (c) 2007 by Christian Schwartz, under exclusive license to House Industries/Brand Design Co, Greek by P. Haratzopoulos.. All rights reserved.
</metadata>
<defs>
<font id="NeutrafaceTwoTextGreekBook" horiz-adv-x="807" >
  <font-face 
    font-family="NeutrafaceTwoTextGreekBook"
    font-weight="400"
    font-stretch="normal"
    units-per-em="1000"
    panose-1="2 11 5 3 2 2 2 2 1 2"
    ascent="780"
    descent="-220"
    x-height="414"
    cap-height="680"
    bbox="-303 -256 1083 942"
    underline-thickness="20"
    underline-position="-153"
    unicode-range="U+0020-FB04"
  />
<missing-glyph horiz-adv-x="237" 
 />
    <glyph glyph-name="ff" unicode="ff" horiz-adv-x="572" 
d="M101 0v355h-67v59h67v168q0 67 30.5 100t83.5 33q68 0 102 -44l-45 -44q-20 25 -50 25q-51 0 -51 -70v-168h186v188q0 67 31 100t84 33q70 0 105 -51l-46 -41q-22 29 -53 29q-51 0 -51 -70v-188h111v-59h-111v-355h-70v355h-186v-355h-70z" />
    <glyph glyph-name="fi" unicode="fi" horiz-adv-x="503" 
d="M392 534q-20 0 -35 14t-15 35t15 35.5t35 14.5t35 -14.5t15 -35.5t-15 -35t-35 -14zM101 0v355h-67v59h67v188q0 67 31 100t85 33q64 0 100 -45l-44 -42q-22 24 -51 24q-51 0 -51 -70v-188h256v-414h-70v355h-186v-355h-70z" />
    <glyph glyph-name="fl" unicode="fl" horiz-adv-x="507" 
d="M101 0v355h-67v59h67v188q0 67 30.5 100t82.5 33q59 0 96 -41l-44 -44q-19 22 -46 22q-49 0 -49 -70v-188h106v-59h-106v-355h-70zM357 0v722h70v-722h-70z" />
    <glyph glyph-name="ffi" unicode="ffi" horiz-adv-x="759" 
d="M648 534q-20 0 -35 14t-15 35t15 35.5t35 14.5t35 -14.5t15 -35.5t-15 -35t-35 -14zM101 0v355h-67v59h67v168q0 67 30.5 100t83.5 33q68 0 102 -44l-45 -44q-20 25 -50 25q-51 0 -51 -70v-168h186v188q0 67 31 100t85 33q64 0 100 -45l-44 -42q-22 24 -51 24
q-51 0 -51 -70v-188h256v-414h-70v355h-186v-355h-70v355h-186v-355h-70z" />
    <glyph glyph-name="ffl" unicode="ffl" horiz-adv-x="763" 
d="M101 0v355h-67v59h67v168q0 67 30.5 100t83.5 33q68 0 102 -44l-45 -44q-20 25 -50 25q-51 0 -51 -70v-168h186v188q0 67 30.5 100t82.5 33q59 0 96 -41l-44 -44q-19 22 -46 22q-49 0 -49 -70v-188h107v-59h-107v-355h-70v355h-186v-355h-70zM613 0v722h70v-722h-70z" />
    <glyph glyph-name=".notdef" horiz-adv-x="237" 
 />
    <glyph glyph-name=".null" horiz-adv-x="0" 
 />
    <glyph glyph-name="nonmarkingreturn" horiz-adv-x="333" 
 />
    <glyph glyph-name="space" unicode=" " horiz-adv-x="237" 
 />
    <glyph glyph-name="exclam" unicode="!" horiz-adv-x="244" 
d="M95 190l-12 490h78l-12 -490h-54zM122 -7q-21 0 -37 15.5t-16 37.5q0 23 16 38.5t37 15.5t37 -15.5t16 -38.5q0 -22 -16 -37.5t-37 -15.5z" />
    <glyph glyph-name="quotedbl" unicode="&#x22;" horiz-adv-x="283" 
d="M178 470l-9 210h74l-8 -210h-57zM48 470l-8 210h74l-8 -210h-58z" />
    <glyph glyph-name="numbersign" unicode="#" horiz-adv-x="461" 
d="M68 176l28 108h-67v56h80l27 108h-72v56h86l27 109h58l-27 -109h99l28 109h58l-27 -109h66v-56h-80l-27 -108h71v-56h-86l-26 -108h-59l27 108h-99l-26 -108h-59zM167 340h100l27 108h-99z" />
    <glyph glyph-name="dollar" unicode="$" horiz-adv-x="436" 
d="M191 -6q-63 6 -108 37.5t-65 72.5l54 29q39 -71 119 -83v187q-75 21 -110.5 55t-35.5 89q0 53 40 89.5t106 40.5v106h51v-107q47 -7 82 -31.5t53 -55.5l-50 -32q-29 51 -85 63v-166l6 -2q80 -24 118 -59.5t38 -92.5q0 -62 -42.5 -99.5t-119.5 -41.5v-112h-51v113z
M191 456q-80 -8 -80 -72q0 -31 18 -48.5t62 -31.5v152zM242 49q47 4 71 25t24 55q0 36 -21 56t-74 36v-172z" />
    <glyph glyph-name="percent" unicode="%" horiz-adv-x="766" 
d="M178 218q-61 0 -105.5 42t-44.5 105t44.5 105t105.5 42t105 -42t44 -105t-44 -105t-105 -42zM191 0l315 504h70l-315 -504h-70zM589 -8q-61 0 -105 41.5t-44 104.5t44 105t105 42t105 -42t44 -105t-44 -104.5t-105 -41.5zM178 273q37 0 62.5 26t25.5 66q0 41 -25.5 66.5
t-62.5 25.5t-63 -25.5t-26 -66.5q0 -40 26 -66t63 -26zM589 46q37 0 62.5 26t25.5 66t-25.5 66t-62.5 26t-62.5 -26t-25.5 -66t25.5 -66t62.5 -26z" />
    <glyph glyph-name="ampersand" unicode="&#x26;" horiz-adv-x="654" 
d="M316 385l150 -182q29 70 29 165h69q0 -126 -51 -222l120 -146h-87l-73 88q-85 -96 -214 -96q-99 0 -157.5 50.5t-58.5 134.5q0 77 43.5 124.5t131.5 95.5l-12 15q-55 68 -55 136q0 60 40 100t106 40q64 0 104 -39.5t40 -99.5q0 -92 -125 -164zM279 430q96 56 96 119
q0 36 -21.5 57.5t-55.5 21.5q-36 0 -57 -21t-21 -58q0 -48 40 -96zM430 140l-176 213q-68 -37 -102 -75.5t-34 -96.5q0 -59 37 -92t104 -33q107 0 171 84z" />
    <glyph glyph-name="quotesingle" unicode="'" horiz-adv-x="154" 
d="M48 470l-8 210h74l-8 -210h-58z" />
    <glyph glyph-name="parenleft" unicode="(" horiz-adv-x="288" 
d="M216 -136q-172 176 -172 427t172 427l44 -36q-143 -167 -143 -391t143 -391z" />
    <glyph glyph-name="parenright" unicode=")" horiz-adv-x="288" 
d="M71 -136l-43 36q142 166 142 391t-142 391l43 36q173 -177 173 -427t-173 -427z" />
    <glyph glyph-name="asterisk" unicode="*" horiz-adv-x="394" 
d="M165 375l15 125l-98 -73l-31 54l117 47l-117 47l31 54l98 -72l-15 123h63l-15 -123l99 72l31 -54l-118 -47l117 -47l-30 -54l-99 73l15 -125h-63z" />
    <glyph glyph-name="plus" unicode="+" horiz-adv-x="373" 
d="M154 96v125h-115v62h115v125h64v-125h116v-62h-116v-125h-64z" />
    <glyph glyph-name="comma" unicode="," horiz-adv-x="202" 
d="M44 -112l39 111q-36 12 -36 49q0 22 16.5 38t37.5 16q22 0 38 -16t16 -38q0 -18 -12 -40l-60 -120h-39z" />
    <glyph glyph-name="hyphen" unicode="-" horiz-adv-x="286" 
d="M46 200v63h193v-63h-193z" />
    <glyph glyph-name="period" unicode="." horiz-adv-x="202" 
d="M101 -7q-21 0 -37.5 16t-16.5 39t16 38.5t38 15.5t38 -15.5t16 -38.5t-16 -39t-38 -16z" />
    <glyph glyph-name="slash" unicode="/" horiz-adv-x="428" 
d="M15 -128l300 850h70l-300 -850h-70z" />
    <glyph glyph-name="zero" unicode="0" horiz-adv-x="611" 
d="M305 -8q-108 0 -186 75t-78 185q0 112 78 186t186 74q109 0 187 -74t78 -186q0 -110 -78.5 -185t-186.5 -75zM305 55q81 0 136.5 56t55.5 141q0 86 -55.5 141.5t-136.5 55.5t-135.5 -55t-54.5 -142q0 -85 54.5 -141t135.5 -56z" />
    <glyph glyph-name="one" unicode="1" horiz-adv-x="284" 
d="M135 0v444h-111v60h182v-504h-71z" />
    <glyph glyph-name="two" unicode="2" horiz-adv-x="471" 
d="M29 0v9l203 185q56 51 81 86.5t25 74.5q0 45 -27 69t-71 24q-91 0 -125 -102l-64 18q18 69 68.5 108.5t119.5 39.5q79 0 125 -42t46 -112q0 -48 -31 -94.5t-91 -101.5l-76 -69q-8 -8 -21 -16.5t-22 -13.5l-9 -5q37 3 56 3h207v-61h-394z" />
    <glyph glyph-name="three" unicode="3" horiz-adv-x="494" 
d="M238 -103q-76 0 -132 35t-84 95l61 31q45 -98 155 -98q61 0 101.5 36.5t40.5 102.5q0 64 -41 96.5t-111 32.5q-47 0 -85 -18l-7 10l161 195l30 33q-25 -4 -48 -4h-206v60h364v-7l-156 -188q-19 -25 -32 -29q88 0 146.5 -49.5t58.5 -132.5q0 -89 -61 -145t-155 -56z" />
    <glyph glyph-name="four" unicode="4" horiz-adv-x="522" 
d="M413 80h75v-59h-75v-115h-70v115h-322v34l382 459h10v-434zM343 80v227l3 53q-16 -24 -30 -42l-166 -205l-36 -36q26 3 48 3h181z" />
    <glyph glyph-name="five" unicode="5" horiz-adv-x="485" 
d="M231 -103q-72 0 -123.5 30.5t-76.5 78.5l59 32q44 -78 141 -78q64 0 102.5 37.5t38.5 98.5q0 63 -36 98.5t-106 35.5q-80 0 -143 -53l-9 3v324h335v-60h-274v-181q41 28 106 28q91 0 146 -54.5t55 -141.5q0 -86 -59.5 -142t-155.5 -56z" />
    <glyph glyph-name="six" unicode="6" horiz-adv-x="508" 
d="M255 -8q-91 0 -152 56.5t-61 144.5q0 70 65 166l170 251h79l-137 -203q-7 -9 -19 -22t-20 -21l-9 -9q45 36 100 36q84 0 139.5 -55.5t55.5 -141.5q0 -88 -60 -145t-151 -57zM254 54q62 0 101.5 40t39.5 100q0 63 -38 101.5t-103 38.5q-63 0 -102 -40.5t-39 -99.5
q0 -61 38.5 -100.5t102.5 -39.5z" />
    <glyph glyph-name="seven" unicode="7" horiz-adv-x="451" 
d="M76 -94l252 538h-295v60h390v-9l-275 -589h-72z" />
    <glyph glyph-name="eight" unicode="8" horiz-adv-x="521" 
d="M259 -9q-97 0 -158 52t-61 134q0 59 35.5 101.5t95.5 60.5q-41 16 -64.5 48.5t-23.5 76.5q0 67 49.5 110.5t126.5 43.5q79 0 128 -43.5t49 -110.5q0 -90 -88 -126q60 -18 95.5 -60t35.5 -101q0 -82 -61 -134t-159 -52zM259 55q66 0 107 34.5t41 91.5q0 58 -41 93t-107 35
t-107 -35t-41 -93t40.5 -92t107.5 -34zM259 366q47 0 76.5 27t29.5 70t-29.5 69.5t-76.5 26.5t-76.5 -26.5t-29.5 -69.5q0 -44 29 -70.5t77 -26.5z" />
    <glyph glyph-name="nine" unicode="9" horiz-adv-x="514" 
d="M171 -94l128 191q14 21 40 44q-42 -32 -96 -32q-87 0 -144 55.5t-57 143.5q0 87 61.5 145.5t153.5 58.5t153.5 -56.5t61.5 -146.5q0 -42 -16 -80t-50 -89l-156 -234h-79zM256 165q64 0 104 41.5t40 101.5q0 61 -39.5 101t-103.5 40t-104 -39.5t-40 -101.5
q0 -64 39 -103.5t104 -39.5z" />
    <glyph glyph-name="colon" unicode=":" horiz-adv-x="212" 
d="M106 217q-21 0 -37.5 16t-16.5 39t16 38.5t38 15.5t38 -15.5t16 -38.5t-16 -39t-38 -16zM106 -7q-21 0 -37.5 16t-16.5 39t16 38.5t38 15.5t38 -15.5t16 -38.5t-16 -39t-38 -16z" />
    <glyph glyph-name="semicolon" unicode=";" horiz-adv-x="212" 
d="M106 217q-21 0 -37.5 16t-16.5 39t16 38.5t38 15.5t38 -15.5t16 -38.5t-16 -39t-38 -16zM49 -112l39 111q-36 12 -36 49q0 22 16.5 38t37.5 16q22 0 38 -16t16 -38q0 -18 -12 -40l-60 -120h-39z" />
    <glyph glyph-name="less" unicode="&#x3c;" horiz-adv-x="356" 
d="M307 94l-271 145v10l271 143v-64l-168 -84l168 -85v-65z" />
    <glyph glyph-name="equal" unicode="=" horiz-adv-x="371" 
d="M42 282v61h287v-61h-287zM42 152v62h287v-62h-287z" />
    <glyph glyph-name="greater" unicode="&#x3e;" horiz-adv-x="356" 
d="M49 94v64l168 84l-168 85v65l271 -145v-10z" />
    <glyph glyph-name="question" unicode="?" horiz-adv-x="469" 
d="M174 187v176h33q65 0 102.5 38t37.5 96q0 59 -34.5 93.5t-90.5 34.5q-50 0 -82 -21t-55 -67l-58 30q25 59 75.5 90t119.5 31q88 0 142.5 -52.5t54.5 -138.5q0 -79 -49.5 -131t-129.5 -58v-121h-66zM206 -7q-21 0 -37 15.5t-16 37.5q0 23 16 38.5t37 15.5t37 -15.5
t16 -38.5q0 -22 -16 -37.5t-37 -15.5z" />
    <glyph glyph-name="at" unicode="@" horiz-adv-x="886" 
d="M448 -206q-170 0 -284.5 109.5t-114.5 285.5q0 170 116.5 283.5t281.5 113.5q169 0 279.5 -105.5t110.5 -263.5q0 -111 -42.5 -167t-112.5 -56q-100 0 -116 94q-43 -96 -144 -96q-75 0 -125 54t-50 137t50 138.5t124 55.5q92 0 133 -86l-2 76h69v-231q0 -44 14.5 -66
t48.5 -22q41 0 66 41.5t25 126.5q0 138 -89.5 226t-238.5 88q-145 0 -238.5 -97.5t-93.5 -243.5q0 -148 91.5 -244t241.5 -96q90 0 164 40l26 -50q-81 -45 -190 -45zM436 50q50 0 84 38.5t34 94.5t-34 95.5t-84 39.5q-52 0 -85 -39t-33 -96t33 -95t85 -38z" />
    <glyph glyph-name="A" unicode="A" horiz-adv-x="656" 
d="M194 215h262l-105 260q-6 14 -12.5 34t-10 33t-3.5 14l-4 -14q-4 -13 -10.5 -32.5t-12.5 -33.5zM37 0l282 687h12l288 -687h-76l-62 153h-312l-61 -153h-71z" />
    <glyph glyph-name="B" unicode="B" horiz-adv-x="609" 
d="M93 0v680h225q95 0 145 -48t50 -125q0 -113 -99 -145q133 -30 133 -171q0 -87 -53 -139t-158 -52h-243zM165 64h166q143 0 143 131q0 63 -37 97t-110 34h-162v-262zM165 389h157q61 0 90 30.5t29 82.5q0 53 -31 83.5t-98 30.5h-147v-227z" />
    <glyph glyph-name="C" unicode="C" horiz-adv-x="726" 
d="M403 -8q-147 0 -248 98t-101 250t101 250t248 98q182 0 270 -132l-55 -40q-72 107 -215 107q-119 0 -196.5 -80.5t-77.5 -202.5t77.5 -202.5t196.5 -80.5q145 0 224 114l56 -39q-46 -67 -118 -103.5t-162 -36.5z" />
    <glyph glyph-name="D" unicode="D" horiz-adv-x="680" 
d="M93 0v680h165q170 0 269 -92.5t99 -247.5t-99 -247.5t-269 -92.5h-165zM165 65h88q146 0 221.5 74.5t75.5 200.5t-75.5 200.5t-221.5 74.5h-88v-550z" />
    <glyph glyph-name="E" unicode="E" horiz-adv-x="580" 
d="M93 0v680h414v-64h-342v-243h305v-63h-305v-246h356v-64h-428z" />
    <glyph glyph-name="F" unicode="F" horiz-adv-x="556" 
d="M93 0v680h409v-64h-337v-260h306v-65h-306v-291h-72z" />
    <glyph glyph-name="G" unicode="G" horiz-adv-x="743" 
d="M410 -8q-153 0 -254.5 97.5t-101.5 250.5q0 152 100 250t250 98q155 0 237 -88l-49 -49q-69 72 -188 72q-120 0 -197.5 -80.5t-77.5 -202.5t79 -202.5t202 -80.5q124 0 201 62v143h-202v64h270v-240q-96 -94 -269 -94z" />
    <glyph glyph-name="H" unicode="H" horiz-adv-x="694" 
d="M93 0v680h72v-317h364v317h72v-680h-72v298h-364v-298h-72z" />
    <glyph glyph-name="I" unicode="I" horiz-adv-x="265" 
d="M96 0v680h73v-680h-73z" />
    <glyph glyph-name="J" unicode="J" horiz-adv-x="483" 
d="M209 -8q-121 0 -176 102l59 37q43 -74 114 -74q52 0 82 30.5t30 93.5v499h73v-501q0 -91 -50 -139t-132 -48z" />
    <glyph glyph-name="K" unicode="K" horiz-adv-x="607" 
d="M93 0v680h72v-305q0 -36 -5 -89q22 45 47 77l260 317h82l-247 -304l275 -376h-88l-234 323l-90 -107v-216h-72z" />
    <glyph glyph-name="L" unicode="L" horiz-adv-x="527" 
d="M93 0v680h72v-616h321v-64h-393z" />
    <glyph glyph-name="M" unicode="M" horiz-adv-x="837" 
d="M93 0v688h10l316 -395l314 395h11v-688h-70v449q0 13 1 32t1 32l1 13q-1 -1 -8.5 -12.5t-19 -29t-20.5 -28.5l-206 -260h-12l-203 260q-35 41 -49 70l1 -6q0 -5 0.5 -13t1 -18t1 -21t0.5 -19v-449h-70z" />
    <glyph glyph-name="N" unicode="N" horiz-adv-x="713" 
d="M608 -7l-406 480q-33 38 -47 62q0 -1 1.5 -15t3 -31.5t1.5 -29.5v-459h-68v687h12l406 -480q6 -8 14.5 -19t14.5 -19.5t12 -16t6 -8.5l-1 14q-1 13 -2.5 31.5t-1.5 31.5v459h67v-687h-12z" />
    <glyph glyph-name="O" unicode="O" 
d="M403 -8q-147 0 -248 98t-101 250t101 250t248 98q148 0 249 -98t101 -250t-101 -250t-249 -98zM403 57q119 0 197 80.5t78 202.5t-78 202.5t-197 80.5q-118 0 -196 -80.5t-78 -202.5t78 -202.5t196 -80.5z" />
    <glyph glyph-name="P" unicode="P" horiz-adv-x="584" 
d="M93 0v680h199q112 0 177 -54t65 -157q0 -102 -65 -156.5t-177 -54.5h-127v-258h-72zM165 322h123q172 0 172 147t-172 147h-123v-294z" />
    <glyph glyph-name="Q" unicode="Q" 
d="M651 89l103 -110l-50 -42l-104 112q-89 -57 -197 -57q-147 0 -248 98t-101 250t101 250t248 98q148 0 249 -98t101 -250q0 -151 -102 -251zM554 99l-103 112l49 42l104 -113q74 79 74 200q0 122 -78 202.5t-197 80.5q-118 0 -196 -80.5t-78 -202.5t78 -202.5t196 -80.5
q86 0 151 42z" />
    <glyph glyph-name="R" unicode="R" horiz-adv-x="596" 
d="M93 0v680h204q111 0 176.5 -53t65.5 -155q0 -73 -37.5 -122t-105.5 -70l166 -280h-85l-156 268q-10 -1 -32 -1h-124v-267h-72zM165 329h128q171 0 171 143q0 144 -171 144h-128v-287z" />
    <glyph glyph-name="S" unicode="S" horiz-adv-x="531" 
d="M266 -8q-168 0 -237 138l60 32q28 -49 68.5 -77.5t106.5 -28.5q61 0 101 31.5t40 84.5q0 49 -30 80.5t-98 61.5l-54 25q-78 35 -114 76.5t-36 109.5q0 73 50.5 118t128.5 45q123 0 184 -102l-58 -36q-46 74 -126 74q-50 0 -79 -26.5t-29 -70.5q0 -43 24 -68.5t84 -53.5
l54 -25q89 -39 130 -86.5t41 -121.5q0 -83 -59 -131.5t-152 -48.5z" />
    <glyph glyph-name="T" unicode="T" horiz-adv-x="556" 
d="M242 0v616h-209v64h490v-64h-209v-616h-72z" />
    <glyph glyph-name="U" unicode="U" horiz-adv-x="662" 
d="M331 -8q-108 0 -176 62.5t-68 177.5v448h72v-443q0 -89 45.5 -135t126.5 -46t126.5 46t45.5 135v443h72v-448q0 -115 -68 -177.5t-176 -62.5z" />
    <glyph glyph-name="V" unicode="V" horiz-adv-x="656" 
d="M324 -7l-287 687h78l187 -461l29 -92q15 58 29 92l186 461h73l-283 -687h-12z" />
    <glyph glyph-name="W" unicode="W" horiz-adv-x="953" 
d="M260 -7l-225 687h77l143 -453q5 -19 19 -74q12 50 22 74l177 460h12l177 -460q12 -33 22 -74q17 67 19 74l142 453h73l-224 -687h-12l-183 484q-4 9 -7.5 21t-6 21t-4.5 17l-2 7l-2 -7q-2 -8 -5 -17l-7 -21l-7 -21l-186 -484h-12z" />
    <glyph glyph-name="X" unicode="X" horiz-adv-x="635" 
d="M43 0l233 370l-196 310h82l135 -212l22 -47q10 30 21 47l134 212h79l-195 -310l235 -370h-82l-173 272q-19 30 -23 47l-3 -8q-4 -8 -9 -20t-9 -19l-172 -272h-79z" />
    <glyph glyph-name="Y" unicode="Y" horiz-adv-x="616" 
d="M274 0v250l-237 430h82l164 -301q6 -11 13 -27.5t11.5 -28.5t4.5 -13q7 28 29 69l163 301h75l-231 -428v-252h-74z" />
    <glyph glyph-name="Z" unicode="Z" horiz-adv-x="581" 
d="M39 0v11l380 605h-326v64h438v-11l-379 -605h381v-64h-494z" />
    <glyph glyph-name="bracketleft" unicode="[" horiz-adv-x="305" 
d="M76 -128v850h193v-60h-123v-730h123v-60h-193z" />
    <glyph glyph-name="backslash" unicode="\" horiz-adv-x="429" 
d="M344 -128l-301 850h70l301 -850h-70z" />
    <glyph glyph-name="bracketright" unicode="]" horiz-adv-x="305" 
d="M36 -128v60h123v730h-123v60h194v-850h-194z" />
    <glyph glyph-name="asciicircum" unicode="^" horiz-adv-x="417" 
d="M68 463l136 225h9l136 -225h-58l-82 126l-83 -126h-58z" />
    <glyph glyph-name="underscore" unicode="_" horiz-adv-x="256" 
d="M-2 -128v62h260v-62h-260z" />
    <glyph glyph-name="grave" unicode="`" horiz-adv-x="500" 
d="M224 498l-93 193h80l68 -193h-55z" />
    <glyph glyph-name="a" unicode="a" horiz-adv-x="471" 
d="M331 243v10q0 111 -97 111q-76 0 -121 -60l-43 39q59 80 169 80q72 0 117 -43t45 -126v-254h-70l3 62q-47 -70 -137 -70q-69 0 -110.5 32t-41.5 94q0 61 44 93t113 32h129zM331 190h-124q-94 0 -94 -69q0 -72 100 -72q49 0 83.5 24.5t34.5 64.5v52z" />
    <glyph glyph-name="b" unicode="b" horiz-adv-x="551" 
d="M302 -8q-54 0 -96 26.5t-64 70.5l2 -89h-69v722h69v-393q51 94 159 94q85 0 142.5 -61.5t57.5 -153.5q0 -93 -58 -154.5t-143 -61.5zM288 53q65 0 104 43.5t39 111.5q0 67 -39 110t-104 43q-66 0 -106.5 -43t-40.5 -110q0 -68 40.5 -111.5t106.5 -43.5z" />
    <glyph glyph-name="c" unicode="c" horiz-adv-x="467" 
d="M263 -8q-91 0 -153 62t-62 153t62 153.5t153 62.5q102 0 163 -74l-50 -41q-40 53 -113 53q-65 0 -104 -43.5t-39 -110.5t39 -110.5t104 -43.5q74 0 119 54l48 -41q-61 -74 -167 -74z" />
    <glyph glyph-name="d" unicode="d" horiz-adv-x="551" 
d="M249 -8q-85 0 -143 61.5t-58 154.5q0 92 58 153.5t142 61.5q108 0 159 -94v393h69v-722h-69l2 89q-22 -44 -64 -70.5t-96 -26.5zM263 53q66 0 106.5 43.5t40.5 111.5q0 67 -40.5 110t-106.5 43q-65 0 -104 -43t-39 -110q0 -68 39 -111.5t104 -43.5z" />
    <glyph glyph-name="e" unicode="e" horiz-adv-x="516" 
d="M118 184q7 -61 47 -97t107 -36q82 0 131 55l43 -42q-64 -72 -174 -72q-100 0 -162 61.5t-62 153.5q0 91 61.5 153.5t152.5 62.5q98 0 155 -67.5t53 -171.5h-352zM119 237h281q-5 56 -40.5 91.5t-97.5 35.5q-58 0 -96.5 -34.5t-46.5 -92.5z" />
    <glyph glyph-name="f" unicode="f" horiz-adv-x="318" 
d="M101 0v355h-67v59h67v188q0 67 31 100t84 33q70 0 105 -51l-46 -41q-22 29 -53 29q-51 0 -51 -70v-188h111v-59h-111v-355h-70z" />
    <glyph glyph-name="g" unicode="g" horiz-adv-x="552" 
d="M268 -223q-143 0 -210 115l52 36q55 -91 156 -91q141 0 141 155v94q-21 -42 -62.5 -68t-95.5 -26q-85 0 -143 61.5t-58 154.5q0 92 58 153.5t142 61.5q111 0 161 -98l-2 89h70v-427q0 -106 -56 -158t-153 -52zM263 53q66 0 106.5 43.5t40.5 111.5q0 67 -40.5 110
t-106.5 43q-65 0 -104 -43t-39 -110q0 -68 39 -111.5t104 -43.5z" />
    <glyph glyph-name="h" unicode="h" horiz-adv-x="516" 
d="M74 0v722h70v-389q20 42 58.5 66t88.5 24q70 0 112.5 -45.5t42.5 -125.5v-252h-70v244q0 115 -103 115q-58 0 -93.5 -35t-35.5 -96v-228h-70z" />
    <glyph glyph-name="i" unicode="i" horiz-adv-x="222" 
d="M111 534q-20 0 -35 14t-15 35t15 35.5t35 14.5t35 -14.5t15 -35.5t-15 -35t-35 -14zM76 0v414h70v-414h-70z" />
    <glyph glyph-name="j" unicode="j" horiz-adv-x="222" 
d="M111 534q-20 0 -35 14t-15 35t15 35.5t35 14.5t35 -14.5t15 -35.5t-15 -35t-35 -14zM35 -222q-55 0 -92 41l39 42q25 -23 48 -23q46 0 46 63v513h70v-512q0 -60 -30 -92t-81 -32z" />
    <glyph glyph-name="k" unicode="k" horiz-adv-x="463" 
d="M144 126v-126h-70v722h70v-463q0 -31 -5 -59l197 214h81l-159 -174l184 -240h-83l-150 194z" />
    <glyph glyph-name="l" unicode="l" horiz-adv-x="228" 
d="M79 0v722h70v-722h-70z" />
    <glyph glyph-name="m" unicode="m" horiz-adv-x="757" 
d="M74 0v414h70l-2 -78q42 87 130 87q95 0 125 -87q48 87 143 87q68 0 107.5 -42.5t39.5 -115.5v-265h-69v256q0 103 -91 103q-51 0 -81 -33.5t-30 -93.5v-232h-70v256q0 103 -90 103q-51 0 -81.5 -33.5t-30.5 -93.5v-232h-70z" />
    <glyph glyph-name="n" unicode="n" horiz-adv-x="516" 
d="M74 0v414h70l-2 -85q20 44 59.5 69t89.5 25q70 0 112.5 -45.5t42.5 -125.5v-252h-70v244q0 115 -103 115q-58 0 -93.5 -35t-35.5 -96v-228h-70z" />
    <glyph glyph-name="o" unicode="o" horiz-adv-x="534" 
d="M268 -8q-93 0 -156.5 62t-63.5 153t63.5 153.5t156.5 62.5q92 0 155 -62.5t63 -153.5t-63 -153t-155 -62zM268 52q65 0 106 44t41 111t-41 111t-106 44q-66 0 -107.5 -44t-41.5 -111t41.5 -111t107.5 -44z" />
    <glyph glyph-name="p" unicode="p" horiz-adv-x="551" 
d="M75 -212v626h69l-2 -89q50 98 161 98q85 0 142.5 -61.5t57.5 -153.5q0 -93 -58 -154.5t-143 -61.5q-54 0 -95.5 26t-62.5 68v-298h-69zM288 53q65 0 104 43.5t39 111.5q0 67 -39 110t-104 43q-66 0 -106.5 -43t-40.5 -110q0 -68 40.5 -111.5t106.5 -43.5z" />
    <glyph glyph-name="q" unicode="q" horiz-adv-x="552" 
d="M407 -212v298q-21 -42 -62.5 -68t-95.5 -26q-85 0 -143 61.5t-58 154.5q0 92 58 153.5t142 61.5q111 0 161 -98l-2 89h70v-626h-70zM263 53q66 0 106.5 43.5t40.5 111.5q0 67 -40.5 110t-106.5 43q-65 0 -104 -43t-39 -110q0 -68 39 -111.5t104 -43.5z" />
    <glyph glyph-name="r" unicode="r" horiz-adv-x="357" 
d="M74 0v414h70l-2 -81q37 89 121 89q43 0 72 -20l-27 -61q-23 16 -57 16q-47 0 -77 -35t-30 -104v-218h-70z" />
    <glyph glyph-name="s" unicode="s" horiz-adv-x="410" 
d="M213 -8q-64 0 -109.5 27t-67.5 69l54 31q42 -70 120 -70q42 0 65 16.5t23 45.5q0 31 -22.5 44.5t-85.5 31.5q-60 17 -92.5 43.5t-32.5 79.5q0 52 38.5 82.5t97.5 30.5q91 0 138 -67l-48 -37q-34 47 -90 47q-33 0 -52.5 -14.5t-19.5 -38.5q0 -28 20 -41t78 -30
q64 -17 100.5 -45t36.5 -82q0 -55 -38 -89t-113 -34z" />
    <glyph glyph-name="t" unicode="t" horiz-adv-x="336" 
d="M209 -9q-51 0 -81 32t-30 102v230h-64v59h64v142h69v-142h116v-59h-116v-231q0 -72 49 -72q33 0 59 26l34 -47q-40 -40 -100 -40z" />
    <glyph glyph-name="u" unicode="u" horiz-adv-x="515" 
d="M225 -9q-70 0 -112.5 45.5t-42.5 123.5v254h70v-247q0 -112 102 -112q59 0 94 35.5t35 95.5v228h70v-414h-70l2 84q-20 -44 -59 -68.5t-89 -24.5z" />
    <glyph glyph-name="v" unicode="v" horiz-adv-x="462" 
d="M226 -8l-201 422h77l110 -239q12 -27 23 -71q13 53 22 71l108 239h72l-198 -422h-13z" />
    <glyph glyph-name="w" unicode="w" horiz-adv-x="683" 
d="M195 -9l-170 423h76l89 -228q4 -11 8.5 -25t7.5 -25.5t3 -12.5q7 33 21 63l108 234h9l110 -233q13 -30 22 -65q0 20 19 65l89 227h71l-172 -423h-10l-114 249q-4 8 -8 18.5t-6 18.5t-4 15l-2 8l-2 -8q-2 -7 -4.5 -15t-6.5 -18.5t-7 -18.5l-117 -249h-10z" />
    <glyph glyph-name="x" unicode="x" horiz-adv-x="470" 
d="M31 0l164 220l-142 194h83l78 -108q8 -11 24 -43q0 1 2.5 8t7.5 17.5t10 17.5l79 108h77l-140 -189l165 -225h-84l-98 136q-14 21 -26 45l-4 -8l-9.5 -19t-10.5 -18l-99 -136h-77z" />
    <glyph glyph-name="y" unicode="y" horiz-adv-x="462" 
d="M95 -212l106 247l-176 379h77l117 -257q5 -12 9.5 -29.5t7.5 -29.5l2 -11q7 44 19 70l108 257h72l-270 -626h-72z" />
    <glyph glyph-name="z" unicode="z" horiz-adv-x="417" 
d="M32 0v10l239 346h-213v58h326v-11l-241 -345h236v-58h-347z" />
    <glyph glyph-name="braceleft" unicode="{" horiz-adv-x="367" 
d="M274 -128q-133 0 -133 144v185q0 38 -14.5 53.5t-43.5 15.5h-58v60h58q29 0 43.5 16t14.5 54v178q0 144 133 144h57v-60h-53q-33 0 -49.5 -19t-16.5 -66v-185q0 -76 -65 -92q65 -12 65 -92v-191q0 -47 16.5 -66t49.5 -19h53v-60h-57z" />
    <glyph glyph-name="bar" unicode="|" horiz-adv-x="237" 
d="M85 -128v850h67v-850h-67z" />
    <glyph glyph-name="braceright" unicode="}" horiz-adv-x="366" 
d="M36 -128v60h53q33 0 49.5 19t16.5 66v191q0 78 65 92q-65 12 -65 93v184q0 47 -16.5 66t-49.5 19h-53v60h57q132 0 132 -144v-178q0 -38 15 -54t44 -16h57v-60h-57q-29 0 -44 -15.5t-15 -53.5v-185q0 -144 -132 -144h-57z" />
    <glyph glyph-name="asciitilde" unicode="~" horiz-adv-x="393" 
d="M103 224l-52 5q2 53 25.5 82t60.5 29q33 0 69 -33q30 -25 41 -27q3 -1 7 -1q30 0 36 59l52 -5q-2 -53 -24.5 -81.5t-60.5 -28.5q-33 0 -69 33q-21 17 -29 22t-20 5q-30 0 -36 -59z" />
    <glyph glyph-name="uni00A0" unicode="&#xa0;" horiz-adv-x="182" 
 />
    <glyph glyph-name="sterling" unicode="&#xa3;" horiz-adv-x="544" 
d="M165 260h-95v56h71q-31 78 -31 131q0 73 52 122t137 49q66 0 113.5 -31t70.5 -80l-58 -32q-21 41 -50 60.5t-76 19.5q-54 0 -85 -29.5t-31 -81.5q0 -50 29 -128h162v-56h-141q31 -89 31 -148v-5q25 -18 39 -27t37 -17.5t45 -8.5q53 0 91 43l42 -43q-50 -62 -131 -62
q-68 0 -142 60q-18 -27 -48 -43.5t-65 -16.5q-47 0 -75.5 25.5t-28.5 65.5q0 39 27.5 63t70.5 24q35 0 76 -22q-7 42 -37 112zM201 88q-45 34 -70 34q-21 0 -33.5 -11.5t-12.5 -29.5t12.5 -29.5t33.5 -11.5q23 0 42.5 13.5t27.5 34.5z" />
    <glyph glyph-name="yen" unicode="&#xa5;" horiz-adv-x="558" 
d="M223 0v128h-171v56h169l-39 69h-130v56h99l-110 195h79l114 -212q7 -13 14 -30t10 -28l4 -10q12 39 28 68l120 212h73l-115 -195h97v-56h-129l-41 -69h170v-56h-171v-128h-71z" />
    <glyph glyph-name="section" unicode="&#xa7;" horiz-adv-x="495" 
d="M113 405q-20 32 -20 74q0 61 44.5 100t111.5 39q115 0 160 -101l-57 -26q-34 69 -101 69q-41 0 -65.5 -21t-24.5 -58q0 -32 16 -52t55 -36l98 -39q70 -27 101.5 -62t31.5 -83q0 -72 -80 -104q23 -32 23 -74q0 -61 -43 -97.5t-120 -36.5q-64 0 -113 30t-71 78l56 28
q39 -77 126 -77q44 0 69.5 20.5t25.5 54.5q0 29 -19 47.5t-63 35.5l-89 35q-70 27 -101.5 61t-31.5 87q0 73 81 108zM349 138q48 21 48 62q0 31 -18.5 51t-68.5 40l-98 39q-43 18 -72 42q-41 -20 -41 -67q0 -34 18.5 -54t65.5 -39l91 -35q47 -18 75 -39z" />
    <glyph glyph-name="dieresis" unicode="&#xa8;" horiz-adv-x="500" 
d="M333 537q-18 0 -32 13.5t-14 32.5t14 32.5t32 13.5t32 -13.5t14 -32.5t-14 -32.5t-32 -13.5zM163 537q-18 0 -32 13.5t-14 32.5t14 32.5t32 13.5t32 -13.5t14 -32.5t-14 -32.5t-32 -13.5z" />
    <glyph glyph-name="copyright" unicode="&#xa9;" horiz-adv-x="598" 
d="M300 -7q-108 0 -184.5 74.5t-76.5 184.5q0 111 76.5 185.5t184.5 74.5q107 0 183 -74.5t76 -185.5q0 -110 -76 -184.5t-183 -74.5zM300 33q92 0 154.5 62t62.5 157q0 96 -62.5 158t-154.5 62q-93 0 -156 -62t-63 -158q0 -95 63 -157t156 -62zM303 103q-63 0 -105.5 42.5
t-42.5 106.5t42 107t104 43q67 0 115 -51l-41 -38q-26 34 -70 34q-38 0 -62 -27t-24 -68q0 -40 24 -67t62 -27q44 0 73 36l41 -38q-46 -53 -116 -53z" />
    <glyph glyph-name="ordfeminine" unicode="&#xaa;" horiz-adv-x="402" 
d="M284 363q0 53 -21 74t-61 21q-60 0 -101 -50l-40 35q49 69 146 69q64 0 103 -36t39 -111v-211h-65l1 46q-38 -54 -114 -54q-58 0 -95 28t-37 81q0 52 39.5 80t99.5 28h106zM284 314h-99q-81 0 -81 -57q0 -59 82 -59q42 0 70 20.5t28 55.5v40z" />
    <glyph glyph-name="guillemotleft" unicode="&#xab;" horiz-adv-x="397" 
d="M287 37l-94 159v8l94 157h72l-96 -161l96 -163h-72zM132 37l-94 159v8l94 157h72l-96 -161l96 -163h-72z" />
    <glyph glyph-name="registered" unicode="&#xae;" horiz-adv-x="514" 
d="M178 362v237h84q43 0 66.5 -20.5t23.5 -55.5q0 -55 -49 -70l55 -91h-48l-50 85h-39v-85h-43zM255 265q-90 0 -153.5 61.5t-63.5 152.5q0 93 63 154t154 61q92 0 156.5 -61.5t64.5 -153.5q0 -91 -64.5 -152.5t-156.5 -61.5zM255 300q80 0 130.5 49.5t50.5 129.5
q0 81 -50.5 130.5t-130.5 49.5q-77 0 -126.5 -49.5t-49.5 -130.5q0 -80 49.5 -129.5t126.5 -49.5zM221 480h41q46 0 46 42q0 40 -46 40h-41v-82z" />
    <glyph glyph-name="macron" unicode="&#xaf;" horiz-adv-x="500" 
d="M145 539v55h230v-55h-230z" />
    <glyph glyph-name="degree" unicode="&#xb0;" horiz-adv-x="325" 
d="M163 286q-49 0 -83 33t-34 80q0 48 34 80.5t83 32.5q48 0 82 -32.5t34 -80.5q0 -47 -34 -80t-82 -33zM163 332q28 0 46 19t18 48t-18 48t-46 19q-29 0 -47 -19t-18 -48t18 -48t47 -19z" />
    <glyph glyph-name="two.superscript" unicode="&#xb2;" horiz-adv-x="327" 
d="M16 300v8l163 162q54 54 54 103q0 29 -17.5 46t-48.5 17q-61 0 -84 -67l-50 16q32 101 134 101q55 0 88.5 -32t33.5 -81q0 -62 -68 -130l-60 -61q-7 -7 -18.5 -16.5t-20.5 -15.5l-8 -6q37 5 55 5h121v-49h-274z" />
    <glyph glyph-name="three.superscript" unicode="&#xb3;" horiz-adv-x="323" 
d="M152 293q-101 0 -141 81l48 25q29 -55 92 -55q41 0 63.5 21.5t22.5 58.5q0 38 -24 58.5t-68 20.5q-36 0 -54 -10l-5 8l87 105l30 29q-31 -3 -44 -3h-113v48h240v-5l-87 -106q-16 -21 -30 -28q56 -2 90.5 -33.5t34.5 -84.5q0 -61 -39.5 -95.5t-102.5 -34.5z" />
    <glyph glyph-name="acute" unicode="&#xb4;" horiz-adv-x="500" 
d="M221 498l68 193h80l-93 -193h-55z" />
    <glyph glyph-name="mu" unicode="&#xb5;" horiz-adv-x="540" 
d="M381 78v5q-18 -40 -53.5 -65t-80.5 -25q-75 0 -111 53q9 -42 9 -95v-163h-70v626h70v-243q0 -116 104 -116q55 0 91 35.5t36 100.5v223h70v-301q0 -57 44 -57h18v-57q-12 -2 -36 -2q-42 0 -66.5 23t-24.5 58z" />
    <glyph glyph-name="paragraph" unicode="&#xb6;" horiz-adv-x="625" 
d="M266 0v304h-22q-89 0 -141 53.5t-52 133.5t53.5 134.5t143.5 54.5h237v-680h-69v618h-80v-618h-70z" />
    <glyph glyph-name="periodcentered" unicode="&#xb7;" horiz-adv-x="202" 
d="M101 189q-21 0 -37.5 16t-16.5 39t16 38.5t38 15.5t38 -15.5t16 -38.5t-16 -39t-38 -16z" />
    <glyph glyph-name="cedilla" unicode="&#xb8;" horiz-adv-x="500" 
d="M256 -232q-72 0 -101 59l40 25q20 -39 57 -39q20 0 33.5 12.5t13.5 34.5q0 21 -14 34.5t-41 13.5h-21v92h46v-53q35 -5 59 -29t24 -62q0 -40 -28.5 -64t-67.5 -24z" />
    <glyph glyph-name="one.superscript" unicode="&#xb9;" horiz-adv-x="210" 
d="M93 300v331h-76v49h132v-380h-56z" />
    <glyph glyph-name="ordmasculine" unicode="&#xba;" horiz-adv-x="454" 
d="M227 146q-77 0 -131 52.5t-54 130.5q0 77 54 130t131 53t131 -53t54 -130q0 -78 -54 -130.5t-131 -52.5zM227 201q53 0 86 36t33 92t-33 91.5t-86 35.5t-85.5 -35.5t-32.5 -91.5q0 -57 32.5 -92.5t85.5 -35.5z" />
    <glyph glyph-name="guillemotright" unicode="&#xbb;" horiz-adv-x="397" 
d="M193 37l96 162l-96 162h72l94 -158v-8l-94 -158h-72zM38 37l96 162l-96 162h72l94 -158v-8l-94 -158h-72z" />
    <glyph glyph-name="Adieresis" unicode="&#xc4;" horiz-adv-x="656" 
d="M194 215h262l-105 260q-6 14 -12.5 34t-10 33t-3.5 14l-4 -14q-4 -13 -10.5 -32.5t-12.5 -33.5zM37 0l282 687h12l288 -687h-76l-62 153h-312l-61 -153h-71zM410 759q-18 0 -32 13.5t-14 32.5t14 32.5t32 13.5t32 -13.5t14 -32.5t-14 -32.5t-32 -13.5zM240 759
q-18 0 -32 13.5t-14 32.5t14 32.5t32 13.5t32 -13.5t14 -32.5t-14 -32.5t-32 -13.5z" />
    <glyph glyph-name="Eacute" unicode="&#xc9;" horiz-adv-x="580" 
d="M280 749l68 193h80l-93 -193h-55zM93 0v680h414v-64h-342v-243h305v-63h-305v-246h356v-64h-428z" />
    <glyph glyph-name="Odieresis" unicode="&#xd6;" 
d="M488 759q-18 0 -32 13.5t-14 32.5t14 32.5t32 13.5t32 -13.5t14 -32.5t-14 -32.5t-32 -13.5zM318 759q-18 0 -32 13.5t-14 32.5t14 32.5t32 13.5t32 -13.5t14 -32.5t-14 -32.5t-32 -13.5zM403 -8q-147 0 -248 98t-101 250t101 250t248 98q148 0 249 -98t101 -250
t-101 -250t-249 -98zM403 57q119 0 197 80.5t78 202.5t-78 202.5t-197 80.5q-118 0 -196 -80.5t-78 -202.5t78 -202.5t196 -80.5z" />
    <glyph glyph-name="multiply" unicode="&#xd7;" horiz-adv-x="370" 
d="M185 207l-100 -100l-44 44l100 100l-100 100l44 44l100 -100l100 100l44 -44l-100 -100l100 -100l-44 -44z" />
    <glyph glyph-name="Udieresis" unicode="&#xdc;" horiz-adv-x="662" 
d="M415 759q-18 0 -32 13.5t-14 32.5t14 32.5t32 13.5t32 -13.5t14 -32.5t-14 -32.5t-32 -13.5zM245 759q-18 0 -32 13.5t-14 32.5t14 32.5t32 13.5t32 -13.5t14 -32.5t-14 -32.5t-32 -13.5zM331 -8q-108 0 -176 62.5t-68 177.5v448h72v-443q0 -89 45.5 -135t126.5 -46
t126.5 46t45.5 135v443h72v-448q0 -115 -68 -177.5t-176 -62.5z" />
    <glyph glyph-name="germandbls" unicode="&#xdf;" horiz-adv-x="540" 
d="M283 -5q-44 0 -76 13l15 57q21 -9 54 -9q70 0 107 41.5t37 112.5q0 75 -47 116.5t-133 40.5v58q55 6 86 41t31 92q0 59 -29.5 88.5t-75.5 29.5q-48 0 -78 -31.5t-30 -99.5v-545h-70v546q0 93 51 141t127 48q74 0 122.5 -46t48.5 -129q0 -113 -96 -154q75 -15 120 -66.5
t45 -130.5q0 -95 -55.5 -154.5t-153.5 -59.5z" />
    <glyph glyph-name="agrave" unicode="&#xe0;" horiz-adv-x="471" 
d="M331 243v10q0 111 -97 111q-76 0 -121 -60l-43 39q59 80 169 80q72 0 117 -43t45 -126v-254h-70l3 62q-47 -70 -137 -70q-69 0 -110.5 32t-41.5 94q0 61 44 93t113 32h129zM331 190h-124q-94 0 -94 -69q0 -72 100 -72q49 0 83.5 24.5t34.5 64.5v52zM205 498l-93 193h80
l68 -193h-55z" />
    <glyph glyph-name="acircumflex" unicode="&#xe2;" horiz-adv-x="471" 
d="M331 243v10q0 111 -97 111q-76 0 -121 -60l-43 39q59 80 169 80q72 0 117 -43t45 -126v-254h-70l3 62q-47 -70 -137 -70q-69 0 -110.5 32t-41.5 94q0 61 44 93t113 32h129zM331 190h-124q-94 0 -94 -69q0 -72 100 -72q49 0 83.5 24.5t34.5 64.5v52zM101 503l128 193h9
l128 -193h-58l-74 101l-75 -101h-58z" />
    <glyph glyph-name="adieresis" unicode="&#xe4;" horiz-adv-x="471" 
d="M331 243v10q0 111 -97 111q-76 0 -121 -60l-43 39q59 80 169 80q72 0 117 -43t45 -126v-254h-70l3 62q-47 -70 -137 -70q-69 0 -110.5 32t-41.5 94q0 61 44 93t113 32h129zM331 190h-124q-94 0 -94 -69q0 -72 100 -72q49 0 83.5 24.5t34.5 64.5v52zM318 537
q-18 0 -32 13.5t-14 32.5t14 32.5t32 13.5t32 -13.5t14 -32.5t-14 -32.5t-32 -13.5zM148 537q-18 0 -32 13.5t-14 32.5t14 32.5t32 13.5t32 -13.5t14 -32.5t-14 -32.5t-32 -13.5z" />
    <glyph glyph-name="ccedilla" unicode="&#xe7;" horiz-adv-x="467" 
d="M217 -3q-75 15 -122 73.5t-47 136.5q0 91 62 153.5t153 62.5q102 0 163 -74l-50 -41q-40 53 -113 53q-65 0 -104 -43.5t-39 -110.5t39 -110.5t104 -43.5q74 0 119 54l48 -41q-61 -74 -165 -74v-45q34 -5 58 -29t24 -62q0 -40 -28.5 -64t-67.5 -24q-71 0 -101 59l43 25
q8 -13 13 -19.5t15.5 -12t25.5 -5.5q19 0 32 12t13 33t-13.5 34t-39.5 13h-22v90z" />
    <glyph glyph-name="egrave" unicode="&#xe8;" horiz-adv-x="516" 
d="M118 184q7 -61 47 -97t107 -36q82 0 131 55l43 -42q-64 -72 -174 -72q-100 0 -162 61.5t-62 153.5q0 91 61.5 153.5t152.5 62.5q98 0 155 -67.5t53 -171.5h-352zM119 237h281q-5 56 -40.5 91.5t-97.5 35.5q-58 0 -96.5 -34.5t-46.5 -92.5zM231 498l-93 193h80l68 -193
h-55z" />
    <glyph glyph-name="eacute" unicode="&#xe9;" horiz-adv-x="516" 
d="M232 498l68 193h80l-93 -193h-55zM118 184q7 -61 47 -97t107 -36q82 0 131 55l43 -42q-64 -72 -174 -72q-100 0 -162 61.5t-62 153.5q0 91 61.5 153.5t152.5 62.5q98 0 155 -67.5t53 -171.5h-352zM119 237h281q-5 56 -40.5 91.5t-97.5 35.5q-58 0 -96.5 -34.5
t-46.5 -92.5z" />
    <glyph glyph-name="ecircumflex" unicode="&#xea;" horiz-adv-x="516" 
d="M126 503l128 193h9l128 -193h-58l-74 101l-75 -101h-58zM118 184q7 -61 47 -97t107 -36q82 0 131 55l43 -42q-64 -72 -174 -72q-100 0 -162 61.5t-62 153.5q0 91 61.5 153.5t152.5 62.5q98 0 155 -67.5t53 -171.5h-352zM119 237h281q-5 56 -40.5 91.5t-97.5 35.5
q-58 0 -96.5 -34.5t-46.5 -92.5z" />
    <glyph glyph-name="edieresis" unicode="&#xeb;" horiz-adv-x="516" 
d="M344 537q-18 0 -32 13.5t-14 32.5t14 32.5t32 13.5t32 -13.5t14 -32.5t-14 -32.5t-32 -13.5zM174 537q-18 0 -32 13.5t-14 32.5t14 32.5t32 13.5t32 -13.5t14 -32.5t-14 -32.5t-32 -13.5zM118 184q7 -61 47 -97t107 -36q82 0 131 55l43 -42q-64 -72 -174 -72
q-100 0 -162 61.5t-62 153.5q0 91 61.5 153.5t152.5 62.5q98 0 155 -67.5t53 -171.5h-352zM119 237h281q-5 56 -40.5 91.5t-97.5 35.5q-58 0 -96.5 -34.5t-46.5 -92.5z" />
    <glyph glyph-name="icircumflex" unicode="&#xee;" horiz-adv-x="222" 
d="M-22 503l128 193h9l128 -193h-58l-74 101l-75 -101h-58zM75 0v414h70v-414h-70z" />
    <glyph glyph-name="idieresis" unicode="&#xef;" horiz-adv-x="222" 
d="M65 0v414h70v-414h-70zM176 537q-18 0 -32 13.5t-14 32.5t14 32.5t32 13.5t32 -13.5t14 -32.5t-14 -32.5t-32 -13.5zM24 537q-18 0 -32 13.5t-14 32.5t14 32.5t32 13.5t32 -13.5t14 -32.5t-14 -32.5t-32 -13.5z" />
    <glyph glyph-name="ocircumflex" unicode="&#xf4;" horiz-adv-x="534" 
d="M133 503l128 193h9l128 -193h-58l-74 101l-75 -101h-58zM268 -8q-93 0 -156.5 62t-63.5 153t63.5 153.5t156.5 62.5q92 0 155 -62.5t63 -153.5t-63 -153t-155 -62zM268 52q65 0 106 44t41 111t-41 111t-106 44q-66 0 -107.5 -44t-41.5 -111t41.5 -111t107.5 -44z" />
    <glyph glyph-name="odieresis" unicode="&#xf6;" horiz-adv-x="534" 
d="M351 537q-18 0 -32 13.5t-14 32.5t14 32.5t32 13.5t32 -13.5t14 -32.5t-14 -32.5t-32 -13.5zM181 537q-18 0 -32 13.5t-14 32.5t14 32.5t32 13.5t32 -13.5t14 -32.5t-14 -32.5t-32 -13.5zM268 -8q-93 0 -156.5 62t-63.5 153t63.5 153.5t156.5 62.5q92 0 155 -62.5
t63 -153.5t-63 -153t-155 -62zM268 52q65 0 106 44t41 111t-41 111t-106 44q-66 0 -107.5 -44t-41.5 -111t41.5 -111t107.5 -44z" />
    <glyph glyph-name="divide" unicode="&#xf7;" horiz-adv-x="373" 
d="M334 221h-295v62h295v-62zM186 343q-21 0 -36 15t-15 37t15 36.5t36 14.5t36.5 -14.5t15.5 -36.5t-15.5 -37t-36.5 -15zM186 57q-20 0 -35.5 15.5t-15.5 36.5q0 22 15 36.5t36 14.5t36.5 -14.5t15.5 -36.5t-15.5 -37t-36.5 -15z" />
    <glyph glyph-name="ugrave" unicode="&#xf9;" horiz-adv-x="515" 
d="M225 -9q-70 0 -112.5 45.5t-42.5 123.5v254h70v-247q0 -112 102 -112q59 0 94 35.5t35 95.5v228h70v-414h-70l2 84q-20 -44 -59 -68.5t-89 -24.5zM228 498l-93 193h80l68 -193h-55z" />
    <glyph glyph-name="ucircumflex" unicode="&#xfb;" horiz-adv-x="515" 
d="M123 503l128 193h9l128 -193h-58l-74 101l-75 -101h-58zM225 -9q-70 0 -112.5 45.5t-42.5 123.5v254h70v-247q0 -112 102 -112q59 0 94 35.5t35 95.5v228h70v-414h-70l2 84q-20 -44 -59 -68.5t-89 -24.5z" />
    <glyph glyph-name="udieresis" unicode="&#xfc;" horiz-adv-x="515" 
d="M341 537q-18 0 -32 13.5t-14 32.5t14 32.5t32 13.5t32 -13.5t14 -32.5t-14 -32.5t-32 -13.5zM171 537q-18 0 -32 13.5t-14 32.5t14 32.5t32 13.5t32 -13.5t14 -32.5t-14 -32.5t-32 -13.5zM225 -9q-70 0 -112.5 45.5t-42.5 123.5v254h70v-247q0 -112 102 -112
q59 0 94 35.5t35 95.5v228h70v-414h-70l2 84q-20 -44 -59 -68.5t-89 -24.5z" />
    <glyph glyph-name="oe" unicode="&#x153;" horiz-adv-x="881" 
d="M482 184q7 -61 47 -97t107 -36q82 0 131 55l43 -42q-64 -72 -173 -72q-68 0 -116.5 31t-71.5 84q-23 -52 -71 -83.5t-110 -31.5q-93 0 -156.5 62t-63.5 153t63.5 153.5t156.5 62.5q63 0 110.5 -31.5t70.5 -84.5q22 53 69 84.5t108 31.5q98 0 155 -67.5t53 -171.5h-352z
M483 237h281q-5 56 -40.5 91.5t-97.5 35.5q-58 0 -96.5 -34.5t-46.5 -92.5zM268 52q65 0 106 44t41 111t-41 111t-106 44q-66 0 -107.5 -44t-41.5 -111t41.5 -111t107.5 -44z" />
    <glyph glyph-name="florin" unicode="&#x192;" horiz-adv-x="358" 
d="M174 203l-47 -415h-68l47 415h-68v57h74l26 224q14 134 123 134q70 0 103 -54l-48 -39q-23 33 -52 33q-50 0 -58 -71l-26 -227h94v-57h-100z" />
    <glyph glyph-name="circumflex" unicode="&#x2c6;" horiz-adv-x="500" 
d="M117 503l128 193h9l128 -193h-58l-74 101l-75 -101h-58z" />
    <glyph glyph-name="caron" unicode="&#x2c7;" horiz-adv-x="500" 
d="M246 495l-128 192h58l74 -101l75 101h58l-128 -192h-9z" />
    <glyph glyph-name="breve" unicode="&#x2d8;" horiz-adv-x="500" 
d="M250 499q-56 0 -89.5 32t-41.5 85l56 9q16 -71 75 -71t75 71l56 -9q-8 -53 -41.5 -85t-89.5 -32z" />
    <glyph glyph-name="uni0374" unicode="&#x374;" horiz-adv-x="500" 
d="M171 463l71 217h86l-104 -217h-53z" />
    <glyph glyph-name="uni0375" unicode="&#x375;" horiz-adv-x="500" 
d="M328 65l-71 -217h-86l104 217h53z" />
    <glyph glyph-name="uni037E" unicode="&#x37e;" horiz-adv-x="212" 
d="M106 217q-21 0 -37.5 16t-16.5 39t16 38.5t38 15.5t38 -15.5t16 -38.5t-16 -39t-38 -16zM49 -112l39 111q-36 12 -36 49q0 22 16.5 38t37.5 16q22 0 38 -16t16 -38q0 -18 -12 -40l-60 -120h-39z" />
    <glyph glyph-name="tonos" unicode="&#x384;" horiz-adv-x="500" 
d="M221 498l64 182h81l-90 -182h-55z" />
    <glyph glyph-name="dieresistonos" unicode="&#x385;" horiz-adv-x="500" 
d="M168 546q-17 0 -29.5 12t-12.5 29t12.5 29t29.5 12t29 -12t12 -29t-12 -29t-29 -12zM374 546q-17 0 -29.5 12t-12.5 29t12.5 29t29.5 12t29 -12t12 -29t-12 -29t-29 -12zM235 550l54 160h71l-80 -160h-45z" />
    <glyph glyph-name="Alphatonos" unicode="&#x386;" horiz-adv-x="656" 
d="M194 215h262l-105 260q-6 14 -12.5 34t-10 33t-3.5 14l-4 -14q-4 -13 -10.5 -32.5t-12.5 -33.5zM37 0l282 687h12l288 -687h-76l-62 153h-312l-61 -153h-71zM11 498l64 182h81l-90 -182h-55z" />
    <glyph glyph-name="anoteleia" unicode="&#x387;" horiz-adv-x="202" 
d="M101 189q-21 0 -37.5 16t-16.5 39t16 38.5t38 15.5t38 -15.5t16 -38.5t-16 -39t-38 -16z" />
    <glyph glyph-name="Epsilontonos" unicode="&#x388;" horiz-adv-x="580" 
d="M93 0v680h414v-64h-342v-243h305v-63h-305v-246h356v-64h-428zM-111 498l64 182h81l-90 -182h-55z" />
    <glyph glyph-name="Etatonos" unicode="&#x389;" horiz-adv-x="694" 
d="M93 0v680h72v-317h364v317h72v-680h-72v298h-364v-298h-72zM-111 498l64 182h81l-90 -182h-55z" />
    <glyph glyph-name="Iotatonos" unicode="&#x38a;" horiz-adv-x="265" 
d="M96 0v680h73v-680h-73zM-111 498l64 182h81l-90 -182h-55z" />
    <glyph glyph-name="Omicrontonos" unicode="&#x38c;" 
d="M403 -8q-147 0 -248 98t-101 250t101 250t248 98q148 0 249 -98t101 -250t-101 -250t-249 -98zM403 57q119 0 197 80.5t78 202.5t-78 202.5t-197 80.5q-118 0 -196 -80.5t-78 -202.5t78 -202.5t196 -80.5zM-68 498l64 182h81l-90 -182h-55z" />
    <glyph glyph-name="Upsilontonos" unicode="&#x38e;" horiz-adv-x="616" 
d="M274 0v250l-237 430h82l164 -301q6 -11 13 -27.5t11.5 -28.5t4.5 -13q7 28 29 69l163 301h75l-231 -428v-252h-74zM-135 498l64 182h81l-90 -182h-55z" />
    <glyph glyph-name="Omegatonos" unicode="&#x38f;" 
d="M753 340q0 -86 -43.5 -161t-113.5 -115h152v-64h-271v60q89 33 145 108t56 172q0 120 -78.5 201.5t-196.5 81.5t-196 -81t-78 -202q0 -97 55.5 -172t144.5 -108v-60h-271v64h152q-70 41 -113 115.5t-43 160.5q0 150 100 249t249 99q150 0 250 -99t100 -249zM-68 498
l64 182h81l-90 -182h-55z" />
    <glyph glyph-name="iotadieresistonos" unicode="&#x390;" horiz-adv-x="243" 
d="M76 103v311h70v-302q0 -56 44 -56h18v-57q-11 -1 -36 -1q-45 0 -70.5 26.5t-25.5 78.5zM30 546q-17 0 -29.5 12t-12.5 29t12.5 29t29.5 12t29 -12t12 -29t-12 -29t-29 -12zM236 546q-17 0 -29.5 12t-12.5 29t12.5 29t29.5 12t29 -12t12 -29t-12 -29t-29 -12zM97 550
l54 160h71l-80 -160h-45z" />
    <glyph glyph-name="Alpha" unicode="&#x391;" horiz-adv-x="656" 
d="M194 215h262l-105 260q-6 14 -12.5 34t-10 33t-3.5 14l-4 -14q-4 -13 -10.5 -32.5t-12.5 -33.5zM37 0l282 687h12l288 -687h-76l-62 153h-312l-61 -153h-71z" />
    <glyph glyph-name="Beta" unicode="&#x392;" horiz-adv-x="609" 
d="M93 0v680h225q95 0 145 -48t50 -125q0 -113 -99 -145q133 -30 133 -171q0 -87 -53 -139t-158 -52h-243zM165 64h166q143 0 143 131q0 63 -37 97t-110 34h-162v-262zM165 389h157q61 0 90 30.5t29 82.5q0 53 -31 83.5t-98 30.5h-147v-227z" />
    <glyph glyph-name="Gamma" unicode="&#x393;" horiz-adv-x="518" 
d="M93 0v680h392v-64h-320v-616h-72z" />
    <glyph glyph-name="uni0394" unicode="&#x394;" horiz-adv-x="655" 
d="M614 0h-573v11l278 676h12l283 -676v-11zM298 477l-165 -415h384l-166 415q-16 40 -26 80q-25 -75 -27 -80z" />
    <glyph glyph-name="Epsilon" unicode="&#x395;" horiz-adv-x="580" 
d="M93 0v680h414v-64h-342v-243h305v-63h-305v-246h356v-64h-428z" />
    <glyph glyph-name="Zeta" unicode="&#x396;" horiz-adv-x="581" 
d="M39 0v11l380 605h-326v64h438v-11l-379 -605h381v-64h-494z" />
    <glyph glyph-name="Eta" unicode="&#x397;" horiz-adv-x="694" 
d="M93 0v680h72v-317h364v317h72v-680h-72v298h-364v-298h-72z" />
    <glyph glyph-name="Theta" unicode="&#x398;" horiz-adv-x="806" 
d="M403 -8q-147 0 -248 98t-101 250t101 250t248 98t248 -98t101 -250t-101 -250t-248 -98zM403 57q118 0 196 80.5t78 202.5q0 121 -78 201.5t-196 80.5q-119 0 -196.5 -80.5t-77.5 -201.5q0 -122 77.5 -202.5t196.5 -80.5zM254 310v63h297v-63h-297z" />
    <glyph glyph-name="Iota" unicode="&#x399;" horiz-adv-x="265" 
d="M96 0v680h73v-680h-73z" />
    <glyph glyph-name="Kappa" unicode="&#x39a;" horiz-adv-x="607" 
d="M93 0v680h72v-305q0 -36 -5 -89q22 45 47 77l260 317h82l-247 -304l275 -376h-88l-234 323l-90 -107v-216h-72z" />
    <glyph glyph-name="Lambda" unicode="&#x39b;" horiz-adv-x="647" 
d="M327 687l281 -687h-78l-181 460l-29 93q-17 -59 -30 -93l-178 -460h-73l276 687h12z" />
    <glyph glyph-name="Mu" unicode="&#x39c;" horiz-adv-x="837" 
d="M93 0v688h10l316 -395l314 395h11v-688h-70v449q0 13 1 32t1 32l1 13q-1 -1 -8.5 -12.5t-19 -29t-20.5 -28.5l-206 -260h-12l-203 260q-35 41 -49 70l1 -6q0 -5 0.5 -13t1 -18t1 -21t0.5 -19v-449h-70z" />
    <glyph glyph-name="Nu" unicode="&#x39d;" horiz-adv-x="713" 
d="M608 -7l-406 480q-33 38 -47 62q0 -1 1.5 -15t3 -31.5t1.5 -29.5v-459h-68v687h12l406 -480q6 -8 14.5 -19t14.5 -19.5t12 -16t6 -8.5l-1 14q-1 13 -2.5 31.5t-1.5 31.5v459h67v-687h-12z" />
    <glyph glyph-name="Xi" unicode="&#x39e;" horiz-adv-x="611" 
d="M61 0v64h209v246h-176v63h176v243h-209v64h489v-64h-209v-243h176v-63h-176v-246h209v-64h-489z" />
    <glyph glyph-name="Omicron" unicode="&#x39f;" 
d="M403 -8q-147 0 -248 98t-101 250t101 250t248 98q148 0 249 -98t101 -250t-101 -250t-249 -98zM403 57q119 0 197 80.5t78 202.5t-78 202.5t-197 80.5q-118 0 -196 -80.5t-78 -202.5t78 -202.5t196 -80.5z" />
    <glyph glyph-name="Pi" unicode="&#x3a0;" horiz-adv-x="674" 
d="M93 0v680h488v-680h-72v616h-344v-616h-72z" />
    <glyph glyph-name="Rho" unicode="&#x3a1;" horiz-adv-x="584" 
d="M93 0v680h199q112 0 177 -54t65 -157q0 -102 -65 -156.5t-177 -54.5h-127v-258h-72zM165 322h123q172 0 172 147t-172 147h-123v-294z" />
    <glyph glyph-name="Sigma" unicode="&#x3a3;" horiz-adv-x="562" 
d="M164 616l179 -257v-10l-196 -285h359v-64h-471v11l232 340l-220 318v11h446v-64h-329z" />
    <glyph glyph-name="Tau" unicode="&#x3a4;" horiz-adv-x="556" 
d="M242 0v616h-209v64h490v-64h-209v-616h-72z" />
    <glyph glyph-name="Upsilon" unicode="&#x3a5;" horiz-adv-x="616" 
d="M274 0v250l-237 430h82l164 -301q6 -11 13 -27.5t11.5 -28.5t4.5 -13q7 28 29 69l163 301h75l-231 -428v-252h-74z" />
    <glyph glyph-name="Phi" unicode="&#x3a6;" horiz-adv-x="870" 
d="M399 -40v73q-158 4 -252 92.5t-94 214.5t93.5 214t252.5 93v73h72v-73q159 -5 252.5 -93t93.5 -214t-94 -214.5t-252 -92.5v-73h-72zM127 340q0 -103 71.5 -171.5t200.5 -73.5v490q-128 -5 -200 -74t-72 -171zM743 340q0 102 -72 171t-200 74v-490q129 5 200.5 73.5
t71.5 171.5z" />
    <glyph glyph-name="Chi" unicode="&#x3a7;" horiz-adv-x="635" 
d="M43 0l233 370l-196 310h82l135 -212l22 -47q10 30 21 47l134 212h79l-195 -310l235 -370h-82l-173 272q-19 30 -23 47l-3 -8q-4 -8 -9 -20t-9 -19l-172 -272h-79z" />
    <glyph glyph-name="Psi" unicode="&#x3a8;" horiz-adv-x="745" 
d="M322 0v178q-120 6 -186.5 71.5t-66.5 182.5v248h73v-246q0 -181 180 -193v479h73v-479q180 14 180 193v246h73v-248q0 -115 -67 -181t-186 -73v-178h-73z" />
    <glyph glyph-name="uni03A9" unicode="&#x3a9;" 
d="M753 340q0 -86 -43.5 -161t-113.5 -115h152v-64h-271v60q89 33 145 108t56 172q0 120 -78.5 201.5t-196.5 81.5t-196 -81t-78 -202q0 -97 55.5 -172t144.5 -108v-60h-271v64h152q-70 41 -113 115.5t-43 160.5q0 150 100 249t249 99q150 0 250 -99t100 -249z" />
    <glyph glyph-name="Iotadieresis" unicode="&#x3aa;" horiz-adv-x="265" 
d="M96 0v680h73v-680h-73zM216 761q-18 0 -32 13.5t-14 32.5t14 32.5t32 13.5t32 -13.5t14 -32.5t-14 -32.5t-32 -13.5zM46 761q-18 0 -32 13.5t-14 32.5t14 32.5t32 13.5t32 -13.5t14 -32.5t-14 -32.5t-32 -13.5z" />
    <glyph glyph-name="Upsilondieresis" unicode="&#x3ab;" horiz-adv-x="616" 
d="M274 0v250l-237 430h82l164 -301q6 -11 13 -27.5t11.5 -28.5t4.5 -13q7 28 29 69l163 301h75l-231 -428v-252h-74zM394 762q-18 0 -32 13.5t-14 32.5t14 32.5t32 13.5t32 -13.5t14 -32.5t-14 -32.5t-32 -13.5zM224 762q-18 0 -32 13.5t-14 32.5t14 32.5t32 13.5t32 -13.5
t14 -32.5t-14 -32.5t-32 -13.5z" />
    <glyph glyph-name="alphatonos" unicode="&#x3ac;" horiz-adv-x="570" 
d="M263 54q66 0 106.5 43t40.5 111q0 67 -40.5 110t-106.5 43q-64 0 -103 -42.5t-39 -110.5t38.5 -111t103.5 -43zM503 -3q-43 0 -68 24.5t-25 63.5v6q-21 -45 -65 -72t-98 -27q-85 0 -142 61.5t-57 154.5q0 92 57 153.5t141 61.5q56 0 98 -26.5t65 -71.5l-2 89h70v-301
q0 -57 43 -57h18v-57q-10 -2 -35 -2zM254 498l64 182h81l-90 -182h-55z" />
    <glyph glyph-name="epsilontonos" unicode="&#x3ad;" horiz-adv-x="470" 
d="M146 219q-34 7 -56 31.5t-22 54.5q0 58 50 88t125 30q113 0 184 -71l-40 -44q-56 56 -140 56q-108 0 -108 -69q0 -23 22.5 -39.5t46.5 -16.5h92v-47h-92q-33 0 -59 -16t-26 -50q0 -75 115 -75q93 0 159 61l38 -44q-79 -76 -208 -76q-82 0 -129 31.5t-47 88.5
q0 42 25.5 69.5t69.5 37.5zM228 498l64 182h81l-90 -182h-55z" />
    <glyph glyph-name="etatonos" unicode="&#x3ae;" horiz-adv-x="516" 
d="M74 0v414h70l-2 -84q20 44 59.5 68.5t90.5 24.5q69 0 111.5 -45.5t42.5 -125.5v-464h-70v456q0 115 -103 115q-58 0 -93.5 -35t-35.5 -96v-228h-70zM247 498l64 182h81l-90 -182h-55z" />
    <glyph glyph-name="iotatonos" unicode="&#x3af;" horiz-adv-x="243" 
d="M76 103v311h70v-302q0 -56 44 -56h18v-57q-11 -1 -36 -1q-45 0 -70.5 26.5t-25.5 78.5zM87 498l64 182h81l-90 -182h-55z" />
    <glyph glyph-name="upsilondieresistonos" unicode="&#x3b0;" horiz-adv-x="487" 
d="M241 -9q-85 0 -133 50.5t-48 141.5v231h70v-228q0 -133 113 -133t113 133v228h70v-231q0 -90 -49.5 -141t-135.5 -51zM143 546q-17 0 -29.5 12t-12.5 29t12.5 29t29.5 12t29 -12t12 -29t-12 -29t-29 -12zM349 546q-17 0 -29.5 12t-12.5 29t12.5 29t29.5 12t29 -12t12 -29
t-12 -29t-29 -12zM210 550l54 160h71l-80 -160h-45z" />
    <glyph glyph-name="alpha" unicode="&#x3b1;" horiz-adv-x="570" 
d="M263 54q66 0 106.5 43t40.5 111q0 67 -40.5 110t-106.5 43q-64 0 -103 -42.5t-39 -110.5t38.5 -111t103.5 -43zM503 -3q-43 0 -68 24.5t-25 63.5v6q-21 -45 -65 -72t-98 -27q-85 0 -142 61.5t-57 154.5q0 92 57 153.5t141 61.5q56 0 98 -26.5t65 -71.5l-2 89h70v-301
q0 -57 43 -57h18v-57q-10 -2 -35 -2z" />
    <glyph glyph-name="beta" unicode="&#x3b2;" horiz-adv-x="552" 
d="M145 69v-281h-70v740q0 96 56 151.5t142 55.5q89 0 142.5 -48.5t53.5 -133.5q0 -53 -33.5 -99t-91.5 -61q74 -10 117 -60.5t43 -125.5q0 -91 -56.5 -153t-152.5 -62q-99 0 -150 77zM145 527v-348q0 -57 41.5 -91.5t98.5 -34.5q71 0 109 43t38 112t-40.5 108t-117.5 39
h-49v59h49q51 0 88 37.5t37 98.5t-32.5 92t-93.5 31t-94.5 -37.5t-33.5 -108.5z" />
    <glyph glyph-name="gamma" unicode="&#x3b3;" horiz-adv-x="462" 
d="M255 131l112 283h70l-171 -413v-213h-69v213l-172 413h76l113 -283l21 -72q9 44 20 72z" />
    <glyph glyph-name="delta" unicode="&#x3b4;" horiz-adv-x="534" 
d="M329 399l-205 312v11h328v-63h-218l209 -319q43 -65 43 -133q0 -90 -63 -152.5t-155 -62.5q-93 0 -156.5 62.5t-63.5 152.5t62 150t147 60q43 0 72 -18zM268 52q65 0 106 44t41 111q0 68 -41 111.5t-106 43.5t-107 -43.5t-42 -111.5q0 -67 41.5 -111t107.5 -44z" />
    <glyph glyph-name="epsilon" unicode="&#x3b5;" horiz-adv-x="470" 
d="M146 219q-34 7 -56 31.5t-22 54.5q0 58 50 88t125 30q113 0 184 -71l-40 -44q-56 56 -140 56q-108 0 -108 -69q0 -23 22.5 -39.5t46.5 -16.5h92v-47h-92q-33 0 -59 -16t-26 -50q0 -75 115 -75q93 0 159 61l38 -44q-79 -76 -208 -76q-82 0 -129 31.5t-47 88.5
q0 42 25.5 69.5t69.5 37.5z" />
    <glyph glyph-name="zeta" unicode="&#x3b6;" horiz-adv-x="431" 
d="M364 -45q0 45 -55 45h-22q-118 0 -178 46t-60 144q0 63 26 129t73 127t94 110t107 102h-253v64h345v-52q-64 -55 -114 -105t-100 -112.5t-77.5 -127.5t-27.5 -127q0 -74 41 -105.5t136 -31.5h19q113 0 113 -100q0 -47 -33.5 -78.5t-93.5 -36.5l-9 58q69 4 69 51z" />
    <glyph glyph-name="eta" unicode="&#x3b7;" horiz-adv-x="516" 
d="M74 0v414h70l-2 -84q20 44 59.5 68.5t90.5 24.5q69 0 111.5 -45.5t42.5 -125.5v-464h-70v456q0 115 -103 115q-58 0 -93.5 -35t-35.5 -96v-228h-70z" />
    <glyph glyph-name="theta" unicode="&#x3b8;" horiz-adv-x="514" 
d="M165 355v-192q0 -111 91 -111q49 0 70 27.5t21 83.5v192h-182zM96 414v141q0 180 160 180q161 0 161 -180v-141h64v-59h-64v-184q0 -85 -36.5 -132t-124.5 -47q-87 0 -123.5 47t-36.5 132v184h-64v59h64zM165 563v-149h182v149q0 57 -21 84.5t-70 27.5q-91 0 -91 -112z
" />
    <glyph glyph-name="iota" unicode="&#x3b9;" horiz-adv-x="243" 
d="M76 103v311h70v-302q0 -56 44 -56h18v-57q-11 -1 -36 -1q-45 0 -70.5 26.5t-25.5 78.5z" />
    <glyph glyph-name="kappa" unicode="&#x3ba;" horiz-adv-x="464" 
d="M144 126v-126h-70v414h70v-155q0 -29 -4 -59l198 214h80l-160 -173l184 -241h-83l-151 193z" />
    <glyph glyph-name="lambda" unicode="&#x3bb;" horiz-adv-x="477" 
d="M236 362q-7 -45 -18 -72l-117 -290h-76l180 414l-73 195q-11 27 -23 38.5t-39 11.5h-27v63h38q44 0 71 -19.5t44 -65.5l209 -556q8 -24 36 -24h22v-57q-16 -2 -44 -2q-58 0 -79 59l-88 234z" />
    <glyph glyph-name="uni03BC" unicode="&#x3bc;" horiz-adv-x="540" 
d="M381 78v5q-18 -40 -53.5 -65t-80.5 -25q-75 0 -111 53q9 -42 9 -95v-163h-70v626h70v-243q0 -116 104 -116q55 0 91 35.5t36 100.5v223h70v-301q0 -57 44 -57h18v-57q-12 -2 -36 -2q-42 0 -66.5 23t-24.5 58z" />
    <glyph glyph-name="nu" unicode="&#x3bd;" horiz-adv-x="462" 
d="M226 -8l-201 422h77l110 -239q6 -12 11.5 -30t8.5 -29l3 -12q9 43 22 71l108 239h72l-198 -422h-13z" />
    <glyph glyph-name="xi" unicode="&#x3be;" horiz-adv-x="438" 
d="M305 0h-54q-102 0 -153 54t-51 140q0 71 40.5 124.5t113.5 70.5q-63 17 -94 62.5t-31 100.5q0 79 55.5 131t142.5 52q128 0 176 -94l-58 -32q-33 64 -116 64q-57 0 -91.5 -33.5t-34.5 -93.5q0 -59 38.5 -95.5t91.5 -36.5h95v-60h-94q-70 0 -115 -39t-45 -115
q0 -65 35 -102t104 -37h53q113 0 113 -100q0 -48 -33 -79t-94 -36l-9 58q69 4 69 51q0 45 -54 45z" />
    <glyph glyph-name="omicron" unicode="&#x3bf;" horiz-adv-x="534" 
d="M268 -8q-93 0 -157 62t-64 153t64 153.5t157 62.5q92 0 155 -62.5t63 -153.5t-63 -153t-155 -62zM268 52q65 0 105.5 44t40.5 111q0 68 -40.5 111.5t-105.5 43.5q-66 0 -107.5 -44t-41.5 -111t41.5 -111t107.5 -44z" />
    <glyph glyph-name="pi" unicode="&#x3c0;" horiz-adv-x="512" 
d="M476 414v-58h-53v-244q0 -56 43 -56h10v-56q-4 0 -15 -0.5t-16 -0.5q-93 0 -93 106v250h-193v-355h-70v356h-54v58h441z" />
    <glyph glyph-name="rho" unicode="&#x3c1;" horiz-adv-x="534" 
d="M128 76v-288h-70v420q0 95 61.5 155t150.5 60q92 0 154 -62t62 -154q0 -93 -60 -154.5t-145 -61.5q-46 0 -87.5 22t-65.5 63zM126 207q0 -69 39.5 -112t104.5 -43q63 0 103.5 43.5t40.5 111.5t-40 111.5t-103 43.5t-104 -43.5t-41 -111.5z" />
    <glyph glyph-name="uni03C2" unicode="&#x3c2;" horiz-adv-x="469" 
d="M329 -45q0 19 -15 31.5t-40 13.5q-108 3 -167 56t-59 150q0 92 61 154t146 62q128 0 183 -104q-20 -9 -60 -29q-35 71 -121 71q-59 0 -98 -44t-39 -112q0 -62 37 -100.5t110 -42.5q129 -6 129 -99q0 -49 -33.5 -80t-93.5 -35l-9 57q69 6 69 51z" />
    <glyph glyph-name="sigma" unicode="&#x3c3;" horiz-adv-x="549" 
d="M378 355q104 -40 104 -156q0 -90 -63.5 -148.5t-152.5 -58.5q-90 0 -154.5 60.5t-64.5 152.5t62.5 150.5t156.5 58.5h246v-59h-134zM266 51q61 0 103.5 43.5t42.5 110.5q0 68 -40.5 109t-105.5 41t-106 -42t-41 -110q0 -67 42.5 -109.5t104.5 -42.5z" />
    <glyph glyph-name="tau" unicode="&#x3c4;" horiz-adv-x="408" 
d="M276 -9q-51 0 -81 32t-30 102v230h-135v59h341v-59h-137v-231q0 -71 49 -71q35 0 58 17q5 -9 15 -25t14 -25q-32 -29 -94 -29z" />
    <glyph glyph-name="upsilon" unicode="&#x3c5;" horiz-adv-x="486" 
d="M241 -9q-85 0 -133 50.5t-48 141.5v231h70v-228q0 -133 113 -133t113 133v228h70v-231q0 -90 -49.5 -141t-135.5 -51z" />
    <glyph glyph-name="phi" unicode="&#x3c6;" horiz-adv-x="635" 
d="M283 49v372q18 3 39 3q129 0 197 -62t68 -156t-65.5 -154.5t-169.5 -62.5v-200h-69v200q-106 2 -170.5 60t-64.5 155q0 89 50 143.5t133 73.5v-61q-113 -35 -113 -157q0 -71 45 -112t120 -42zM515 205q0 69 -44 112.5t-119 44.5v-313q74 1 118.5 44t44.5 112z" />
    <glyph glyph-name="chi" unicode="&#x3c7;" horiz-adv-x="475" 
d="M109 -212h-79q21 38 85 151.5t98 176.5l-102 197q-13 26 -23 34t-35 8h-23v59h25q54 0 77.5 -17.5t48.5 -68.5l56 -116l16 -46q8 25 19 46l104 202h78l-166 -296l128 -250q12 -24 41 -24h19v-57q-11 -1 -34 -1q-21 0 -38 7.5t-30.5 23t-21.5 28.5t-18 34l-71 142l-16 41
q-7 -26 -15 -41z" />
    <glyph glyph-name="psi" unicode="&#x3c8;" horiz-adv-x="637" 
d="M129 414v-190q0 -77 39.5 -123t114.5 -53v508h70v-508q75 7 114.5 53t39.5 123v190h70v-192q0 -104 -57.5 -165t-166.5 -67v-202h-70v202q-109 6 -166 67t-57 165v192h69z" />
    <glyph glyph-name="omega" unicode="&#x3c9;" horiz-adv-x="635" 
d="M318 80q-12 -40 -42.5 -64t-70.5 -24q-79 0 -118 57.5t-39 139.5q0 87 47 153.5t137 80.5v-61q-58 -16 -85 -62.5t-27 -109.5q0 -58 21.5 -98t70.5 -40q30 0 50.5 23.5t20.5 59.5v146h70v-146q0 -36 21 -59.5t50 -23.5q49 0 70.5 40t21.5 98q0 63 -27.5 109.5t-84.5 62.5
v61q89 -14 136 -80.5t47 -153.5q0 -82 -38.5 -139.5t-117.5 -57.5q-41 0 -71 24t-42 64z" />
    <glyph glyph-name="iotadieresis" unicode="&#x3ca;" horiz-adv-x="243" 
d="M76 103v311h70v-302q0 -56 44 -56h18v-57q-11 -1 -36 -1q-45 0 -70.5 26.5t-25.5 78.5zM201 537q-18 0 -32 13.5t-14 32.5t14 32.5t32 13.5t32 -13.5t14 -32.5t-14 -32.5t-32 -13.5zM31 537q-18 0 -32 13.5t-14 32.5t14 32.5t32 13.5t32 -13.5t14 -32.5t-14 -32.5
t-32 -13.5z" />
    <glyph glyph-name="upsilondieresis" unicode="&#x3cb;" horiz-adv-x="487" 
d="M241 -9q-85 0 -133 50.5t-48 141.5v231h70v-228q0 -133 113 -133t113 133v228h70v-231q0 -90 -49.5 -141t-135.5 -51zM331 537q-18 0 -32 13.5t-14 32.5t14 32.5t32 13.5t32 -13.5t14 -32.5t-14 -32.5t-32 -13.5zM161 537q-18 0 -32 13.5t-14 32.5t14 32.5t32 13.5
t32 -13.5t14 -32.5t-14 -32.5t-32 -13.5z" />
    <glyph glyph-name="omicrontonos" unicode="&#x3cc;" horiz-adv-x="534" 
d="M268 -8q-93 0 -157 62t-64 153t64 153.5t157 62.5q92 0 155 -62.5t63 -153.5t-63 -153t-155 -62zM268 52q65 0 105.5 44t40.5 111q0 68 -40.5 111.5t-105.5 43.5q-66 0 -107.5 -44t-41.5 -111t41.5 -111t107.5 -44zM240 498l64 182h81l-90 -182h-55z" />
    <glyph glyph-name="upsilontonos" unicode="&#x3cd;" horiz-adv-x="487" 
d="M241 -9q-85 0 -133 50.5t-48 141.5v231h70v-228q0 -133 113 -133t113 133v228h70v-231q0 -90 -49.5 -141t-135.5 -51zM219 498l64 182h81l-90 -182h-55z" />
    <glyph glyph-name="omegatonos" unicode="&#x3ce;" horiz-adv-x="635" 
d="M318 80q-12 -40 -42.5 -64t-70.5 -24q-79 0 -118 57.5t-39 139.5q0 87 47 153.5t137 80.5v-61q-58 -16 -85 -62.5t-27 -109.5q0 -58 21.5 -98t70.5 -40q30 0 50.5 23.5t20.5 59.5v146h70v-146q0 -36 21 -59.5t50 -23.5q49 0 70.5 40t21.5 98q0 63 -27.5 109.5t-84.5 62.5
v61q89 -14 136 -80.5t47 -153.5q0 -82 -38.5 -139.5t-117.5 -57.5q-41 0 -71 24t-42 64zM297 498l64 182h81l-90 -182h-55z" />
    <glyph glyph-name="uni03D7" unicode="&#x3d7;" horiz-adv-x="868" 
d="M504 68l-76 102l-60 -64v-106h-69v367h69v-131q0 -22 -2 -48l164 179h79l-138 -150l75 -102q49 -68 102 -68q52 0 80.5 48.5t28.5 119.5q0 137 -82.5 226t-228.5 89q-145 0 -238 -97.5t-93 -243.5q0 -148 91.5 -244t241.5 -96q90 0 164 40l26 -50q-84 -45 -190 -45
q-171 0 -285 110t-114 284q0 171 116 284.5t281 113.5q167 0 270 -106t103 -264q0 -99 -48.5 -162t-119.5 -63q-90 0 -147 77z" />
    <glyph glyph-name="uni03D8" unicode="&#x3d8;" 
d="M361 -186v181q-132 14 -219.5 109.5t-87.5 235.5q0 152 101 250t248 98q148 0 249 -98t101 -250q0 -143 -91 -239.5t-228 -107.5v-179h-73zM403 57q119 0 197 80.5t78 202.5t-78 202.5t-197 80.5q-118 0 -196 -80.5t-78 -202.5t78 -202.5t196 -80.5z" />
    <glyph glyph-name="uni03D9" unicode="&#x3d9;" horiz-adv-x="534" 
d="M230 -138v134q-79 12 -130.5 71t-51.5 140q0 91 63.5 153.5t156.5 62.5q92 0 155 -62.5t63 -153.5q0 -82 -52.5 -141.5t-133.5 -70.5v-133h-70zM268 52q65 0 106 44t41 111t-41 111t-106 44q-66 0 -107.5 -44t-41.5 -111t41.5 -111t107.5 -44z" />
    <glyph glyph-name="uni03DA" unicode="&#x3da;" horiz-adv-x="737" 
d="M124 383q0 -190 143 -235l90 -29q72 -23 97.5 -44t25.5 -60q0 -18 -25 -93l-30 -88h-62l33 102q17 55 17 70q0 20 -21.5 32t-65.5 25l-73 22q-23 7 -45.5 18t-51.5 35t-50.5 55.5t-36.5 81t-15 108.5q0 53 14 102.5t44 94.5t85.5 72.5t129.5 27.5h252q23 0 36.5 8
t35.5 38l43 -33q-23 -42 -51.5 -59.5t-76.5 -17.5h-245q-95 0 -146 -69.5t-51 -163.5z" />
    <glyph glyph-name="uni03DB" unicode="&#x3db;" horiz-adv-x="605" 
d="M119 206q0 -112 110 -146l69 -21q46 -14 66.5 -31t20.5 -50q0 -20 -13 -59l-36 -100h-51l30 96q12 36 12 51q0 12 -12 20t-44 18l-63 18q-67 20 -113.5 70t-46.5 134q0 91 59 149.5t147 58.5h202q23 0 35 7.5t27 26.5l38 -29q-43 -64 -100 -64h-203q-61 0 -97.5 -45
t-36.5 -104z" />
    <glyph glyph-name="uni03DC" unicode="&#x3dc;" horiz-adv-x="556" 
d="M93 0v680h409v-64h-337v-260h306v-65h-306v-291h-72z" />
    <glyph glyph-name="uni03DD" unicode="&#x3dd;" horiz-adv-x="357" 
d="M75 -209v623h256v-58h-186v-229h154v-59h-154v-277h-70z" />
    <glyph glyph-name="uni03DE" unicode="&#x3de;" horiz-adv-x="468" 
d="M418 202l-257 -429l-65 37l250 377l-273 -93l-33 50l151 254q-40 11 -40 55q0 23 17 40t41 17t41.5 -16t17.5 -38q0 -21 -18 -51l-138 -231l273 80z" />
    <glyph glyph-name="uni03DF" unicode="&#x3df;" horiz-adv-x="449" 
d="M179 371q0 20 12.5 36.5t39.5 16.5q26 0 40 -15.5t14 -37.5q0 -23 -36 -57l-133 -127h274l19 -41l-266 -257l-62 35l234 207h-280l-5 35l177 165q-28 11 -28 40z" />
    <glyph glyph-name="uni03E0" unicode="&#x3e0;" horiz-adv-x="765" 
d="M623 -211v28q0 178 -39 311l-277 -247l-44 50l300 255q-31 75 -75 125l-292 -260l-44 50l295 251q-120 102 -344 102h-43v58h37q142 0 248 -35t172 -94.5t106.5 -150t56 -188.5t15.5 -223v-32h-72z" />
    <glyph glyph-name="uni03E1" unicode="&#x3e1;" horiz-adv-x="664" 
d="M536 -207v44q0 142 -31 251l-245 -209l-35 42l260 221q-25 59 -62 103l-260 -222l-35 42l256 218q-103 84 -293 84h-41v56h37q123 0 215 -30.5t149 -82t92 -129.5t48 -163t13 -193v-32h-68z" />
    <glyph glyph-name="uni1F00" unicode="&#x1f00;" horiz-adv-x="570" 
d="M263 54q66 0 106.5 43t40.5 111q0 67 -40.5 110t-106.5 43q-64 0 -103 -42.5t-39 -110.5t38.5 -111t103.5 -43zM503 -3q-43 0 -68 24.5t-25 63.5v6q-21 -45 -65 -72t-98 -27q-85 0 -142 61.5t-57 154.5q0 92 57 153.5t141 61.5q56 0 98 -26.5t65 -71.5l-2 89h70v-301
q0 -57 43 -57h18v-57q-10 -2 -35 -2zM247 615q-16 0 -27 9.5t-11 26.5q0 18 12.5 28t30.5 10q33 0 54.5 -25t21.5 -64q0 -73 -90 -102l-12 35q54 18 54 57q0 17 -15 32q-11 -7 -18 -7z" />
    <glyph glyph-name="uni1F01" unicode="&#x1f01;" horiz-adv-x="570" 
d="M263 54q66 0 106.5 43t40.5 111q0 67 -40.5 110t-106.5 43q-64 0 -103 -42.5t-39 -110.5t38.5 -111t103.5 -43zM503 -3q-43 0 -68 24.5t-25 63.5v6q-21 -45 -65 -72t-98 -27q-85 0 -142 61.5t-57 154.5q0 92 57 153.5t141 61.5q56 0 98 -26.5t65 -71.5l-2 89h70v-301
q0 -57 43 -57h18v-57q-10 -2 -35 -2zM275 614q-7 0 -18 7q-15 -15 -15 -32q0 -39 54 -57l-12 -35q-90 29 -90 102q0 39 21.5 64t54.5 25q18 0 30.5 -10t12.5 -28q0 -17 -11 -26.5t-27 -9.5z" />
    <glyph glyph-name="uni1F02" unicode="&#x1f02;" horiz-adv-x="570" 
d="M263 54q66 0 106.5 43t40.5 111q0 67 -40.5 110t-106.5 43q-64 0 -103 -42.5t-39 -110.5t38.5 -111t103.5 -43zM503 -3q-43 0 -68 24.5t-25 63.5v6q-21 -45 -65 -72t-98 -27q-85 0 -142 61.5t-57 154.5q0 92 57 153.5t141 61.5q56 0 98 -26.5t65 -71.5l-2 89h70v-301
q0 -57 43 -57h18v-57q-10 -2 -35 -2zM163 613q-16 0 -27 9.5t-11 26.5q0 18 12.5 28t30.5 10q33 0 54.5 -25t21.5 -64q0 -73 -90 -102l-12 35q54 18 54 57q0 17 -15 32q-11 -7 -18 -7zM402 502l-64 182h-81l90 -182h55z" />
    <glyph glyph-name="uni1F03" unicode="&#x1f03;" horiz-adv-x="570" 
d="M263 54q66 0 106.5 43t40.5 111q0 67 -40.5 110t-106.5 43q-64 0 -103 -42.5t-39 -110.5t38.5 -111t103.5 -43zM503 -3q-43 0 -68 24.5t-25 63.5v6q-21 -45 -65 -72t-98 -27q-85 0 -142 61.5t-57 154.5q0 92 57 153.5t141 61.5q56 0 98 -26.5t65 -71.5l-2 89h70v-301
q0 -57 43 -57h18v-57q-10 -2 -35 -2zM198 613q-8 0 -18 7q-15 -15 -15 -32q0 -39 54 -57l-12 -35q-90 29 -90 102q0 39 21.5 64t54.5 25q18 0 30.5 -10t12.5 -28q0 -17 -11 -26.5t-27 -9.5zM403 502l-64 182h-81l90 -182h55z" />
    <glyph glyph-name="uni1F04" unicode="&#x1f04;" horiz-adv-x="570" 
d="M263 54q66 0 106.5 43t40.5 111q0 67 -40.5 110t-106.5 43q-64 0 -103 -42.5t-39 -110.5t38.5 -111t103.5 -43zM503 -3q-43 0 -68 24.5t-25 63.5v6q-21 -45 -65 -72t-98 -27q-85 0 -142 61.5t-57 154.5q0 92 57 153.5t141 61.5q56 0 98 -26.5t65 -71.5l-2 89h70v-301
q0 -57 43 -57h18v-57q-10 -2 -35 -2zM212 613q-16 0 -27 9.5t-11 26.5q0 18 12.5 28t30.5 10q33 0 54.5 -25t21.5 -64q0 -73 -90 -102l-12 35q54 18 54 57q0 17 -15 32q-11 -7 -18 -7zM370 684l-64 -182h55l90 182h-81z" />
    <glyph glyph-name="uni1F05" unicode="&#x1f05;" horiz-adv-x="570" 
d="M263 54q66 0 106.5 43t40.5 111q0 67 -40.5 110t-106.5 43q-64 0 -103 -42.5t-39 -110.5t38.5 -111t103.5 -43zM503 -3q-43 0 -68 24.5t-25 63.5v6q-21 -45 -65 -72t-98 -27q-85 0 -142 61.5t-57 154.5q0 92 57 153.5t141 61.5q56 0 98 -26.5t65 -71.5l-2 89h70v-301
q0 -57 43 -57h18v-57q-10 -2 -35 -2zM240 614q-8 0 -18 7q-15 -15 -15 -32q0 -39 54 -57l-12 -35q-90 29 -90 102q0 39 21.5 64t54.5 25q18 0 30.5 -10t12.5 -28q0 -17 -11 -26.5t-27 -9.5zM353 685l-64 -182h55l90 182h-81z" />
    <glyph glyph-name="uni1F06" unicode="&#x1f06;" horiz-adv-x="570" 
d="M263 54q66 0 106.5 43t40.5 111q0 67 -40.5 110t-106.5 43q-64 0 -103 -42.5t-39 -110.5t38.5 -111t103.5 -43zM503 -3q-43 0 -68 24.5t-25 63.5v6q-21 -45 -65 -72t-98 -27q-85 0 -142 61.5t-57 154.5q0 92 57 153.5t141 61.5q56 0 98 -26.5t65 -71.5l-2 89h70v-301
q0 -57 43 -57h18v-57q-10 -2 -35 -2zM249 615q-16 0 -27 9.5t-11 26.5q0 18 12.5 28t30.5 10q33 0 54.5 -25t21.5 -64q0 -73 -90 -102l-12 35q54 18 54 57q0 17 -15 32q-11 -7 -18 -7zM316 765q25 0 42 26l32 -25q-26 -47 -75 -47q-20 0 -49 11q-31 11 -49 11q-27 0 -42 -26
l-34 25q27 48 77 48q17 0 48 -11q34 -12 50 -12z" />
    <glyph glyph-name="uni1F07" unicode="&#x1f07;" horiz-adv-x="570" 
d="M263 54q66 0 106.5 43t40.5 111q0 67 -40.5 110t-106.5 43q-64 0 -103 -42.5t-39 -110.5t38.5 -111t103.5 -43zM503 -3q-43 0 -68 24.5t-25 63.5v6q-21 -45 -65 -72t-98 -27q-85 0 -142 61.5t-57 154.5q0 92 57 153.5t141 61.5q56 0 98 -26.5t65 -71.5l-2 89h70v-301
q0 -57 43 -57h18v-57q-10 -2 -35 -2zM286 614q-8 0 -18 7q-15 -15 -15 -32q0 -39 54 -57l-12 -35q-90 29 -90 102q0 39 21.5 64t54.5 25q18 0 30.5 -10t12.5 -28q0 -17 -11 -26.5t-27 -9.5zM315 764q25 0 42 26l32 -25q-26 -47 -75 -47q-20 0 -49 11q-31 11 -49 11
q-27 0 -42 -26l-34 25q27 48 77 48q17 0 48 -11q34 -12 50 -12z" />
    <glyph glyph-name="uni1F08" unicode="&#x1f08;" horiz-adv-x="656" 
d="M194 215h262l-105 260q-6 14 -12.5 34t-10 33t-3.5 14l-4 -14q-4 -13 -10.5 -32.5t-12.5 -33.5zM37 0l282 687h12l288 -687h-76l-62 153h-312l-61 -153h-71zM73 606q-16 0 -27 9.5t-11 26.5q0 18 12.5 28t30.5 10q33 0 54.5 -25t21.5 -64q0 -73 -90 -102l-12 35
q54 18 54 57q0 17 -15 32q-11 -7 -18 -7z" />
    <glyph glyph-name="uni1F09" unicode="&#x1f09;" horiz-adv-x="656" 
d="M194 215h262l-105 260q-6 14 -12.5 34t-10 33t-3.5 14l-4 -14q-4 -13 -10.5 -32.5t-12.5 -33.5zM37 0l282 687h12l288 -687h-76l-62 153h-312l-61 -153h-71zM116 606q-8 0 -18 7q-15 -15 -15 -32q0 -39 54 -57l-12 -35q-90 29 -90 102q0 39 21.5 64t54.5 25
q18 0 30.5 -10t12.5 -28q0 -17 -11 -26.5t-27 -9.5z" />
    <glyph glyph-name="uni1F0A" unicode="&#x1f0a;" horiz-adv-x="656" 
d="M194 215h262l-105 260q-6 14 -12.5 34t-10 33t-3.5 14l-4 -14q-4 -13 -10.5 -32.5t-12.5 -33.5zM37 0l282 687h12l288 -687h-76l-62 153h-312l-61 -153h-71zM-94 606q-16 0 -27 9.5t-11 26.5q0 18 12.5 28t30.5 10q33 0 54.5 -25t21.5 -64q0 -73 -90 -102l-12 35
q54 18 54 57q0 17 -15 32q-10 -7 -18 -7zM145 495l-64 182h-81l90 -182h55z" />
    <glyph glyph-name="uni1F0B" unicode="&#x1f0b;" horiz-adv-x="656" 
d="M194 215h262l-105 260q-6 14 -12.5 34t-10 33t-3.5 14l-4 -14q-4 -13 -10.5 -32.5t-12.5 -33.5zM37 0l282 687h12l288 -687h-76l-62 153h-312l-61 -153h-71zM-58 606q-8 0 -18 7q-15 -15 -15 -32q0 -39 54 -57l-12 -35q-90 29 -90 102q0 39 21.5 64t54.5 25
q18 0 30.5 -10t12.5 -28q0 -17 -11 -26.5t-27 -9.5zM147 495l-64 182h-81l90 -182h55z" />
    <glyph glyph-name="uni1F0C" unicode="&#x1f0c;" horiz-adv-x="656" 
d="M194 215h262l-105 260q-6 14 -12.5 34t-10 33t-3.5 14l-4 -14q-4 -13 -10.5 -32.5t-12.5 -33.5zM37 0l282 687h12l288 -687h-76l-62 153h-312l-61 -153h-71zM-47 606q-16 0 -27 9.5t-11 26.5q0 18 12.5 28t30.5 10q33 0 54.5 -25t21.5 -64q0 -73 -90 -102l-12 35
q54 18 54 57q0 17 -15 32q-11 -7 -18 -7zM111 677l-64 -182h55l90 182h-81z" />
    <glyph glyph-name="uni1F0D" unicode="&#x1f0d;" horiz-adv-x="656" 
d="M194 215h262l-105 260q-6 14 -12.5 34t-10 33t-3.5 14l-4 -14q-4 -13 -10.5 -32.5t-12.5 -33.5zM37 0l282 687h12l288 -687h-76l-62 153h-312l-61 -153h-71zM-22 606q-7 0 -18 7q-15 -15 -15 -32q0 -39 54 -57l-12 -35q-90 29 -90 102q0 39 21.5 64t54.5 25
q18 0 30.5 -10t12.5 -28q0 -17 -11 -26.5t-27 -9.5zM91 677l-64 -182h55l90 182h-81z" />
    <glyph glyph-name="uni1F0E" unicode="&#x1f0e;" horiz-adv-x="656" 
d="M194 215h262l-105 260q-6 14 -12.5 34t-10 33t-3.5 14l-4 -14q-4 -13 -10.5 -32.5t-12.5 -33.5zM37 0l282 687h12l288 -687h-76l-62 153h-312l-61 -153h-71zM32 507q-16 0 -27 9.5t-11 26.5q0 18 12.5 28t30.5 10q33 0 54.5 -25t21.5 -64q0 -73 -90 -102l-12 35
q54 18 54 57q0 17 -15 32q-11 -7 -18 -7zM99 657q25 0 42 26l32 -25q-26 -47 -75 -47q-20 0 -49 11q-31 11 -49 11q-27 0 -42 -26l-34 25q27 48 77 48q17 0 48 -11q34 -12 50 -12z" />
    <glyph glyph-name="uni1F0F" unicode="&#x1f0f;" horiz-adv-x="656" 
d="M194 215h262l-105 260q-6 14 -12.5 34t-10 33t-3.5 14l-4 -14q-4 -13 -10.5 -32.5t-12.5 -33.5zM37 0l282 687h12l288 -687h-76l-62 153h-312l-61 -153h-71zM70 508q-8 0 -18 7q-15 -15 -15 -32q0 -39 54 -57l-12 -35q-90 29 -90 102q0 39 21.5 64t54.5 25q18 0 30.5 -10
t12.5 -28q0 -17 -11 -26.5t-27 -9.5zM99 658q25 0 42 26l32 -25q-26 -47 -75 -47q-20 0 -49 11q-31 11 -49 11q-27 0 -42 -26l-34 25q27 48 77 48q17 0 48 -11q34 -12 50 -12z" />
    <glyph glyph-name="uni1F10" unicode="&#x1f10;" horiz-adv-x="470" 
d="M146 219q-34 7 -56 31.5t-22 54.5q0 58 50 88t125 30q113 0 184 -71l-40 -44q-56 56 -140 56q-108 0 -108 -69q0 -23 22.5 -39.5t46.5 -16.5h92v-47h-92q-33 0 -59 -16t-26 -50q0 -75 115 -75q93 0 159 61l38 -44q-79 -76 -208 -76q-82 0 -129 31.5t-47 88.5
q0 42 25.5 69.5t69.5 37.5zM231 615q-16 0 -27 9.5t-11 26.5q0 18 12.5 28t30.5 10q33 0 54.5 -25t21.5 -64q0 -73 -90 -102l-12 35q54 18 54 57q0 17 -15 32q-11 -7 -18 -7z" />
    <glyph glyph-name="uni1F11" unicode="&#x1f11;" horiz-adv-x="470" 
d="M146 219q-34 7 -56 31.5t-22 54.5q0 58 50 88t125 30q113 0 184 -71l-40 -44q-56 56 -140 56q-108 0 -108 -69q0 -23 22.5 -39.5t46.5 -16.5h92v-47h-92q-33 0 -59 -16t-26 -50q0 -75 115 -75q93 0 159 61l38 -44q-79 -76 -208 -76q-82 0 -129 31.5t-47 88.5
q0 42 25.5 69.5t69.5 37.5zM272 614q-8 0 -18 7q-15 -15 -15 -32q0 -39 54 -57l-12 -35q-90 29 -90 102q0 39 21.5 64t54.5 25q18 0 30.5 -10t12.5 -28q0 -17 -11 -26.5t-27 -9.5z" />
    <glyph glyph-name="uni1F12" unicode="&#x1f12;" horiz-adv-x="470" 
d="M146 219q-34 7 -56 31.5t-22 54.5q0 58 50 88t125 30q113 0 184 -71l-40 -44q-56 56 -140 56q-108 0 -108 -69q0 -23 22.5 -39.5t46.5 -16.5h92v-47h-92q-33 0 -59 -16t-26 -50q0 -75 115 -75q93 0 159 61l38 -44q-79 -76 -208 -76q-82 0 -129 31.5t-47 88.5
q0 42 25.5 69.5t69.5 37.5zM140 613q-16 0 -27 9.5t-11 26.5q0 18 12.5 28t30.5 10q33 0 54.5 -25t21.5 -64q0 -73 -90 -102l-12 35q54 18 54 57q0 17 -15 32q-10 -7 -18 -7zM379 502l-64 182h-81l90 -182h55z" />
    <glyph glyph-name="uni1F13" unicode="&#x1f13;" horiz-adv-x="470" 
d="M146 219q-34 7 -56 31.5t-22 54.5q0 58 50 88t125 30q113 0 184 -71l-40 -44q-56 56 -140 56q-108 0 -108 -69q0 -23 22.5 -39.5t46.5 -16.5h92v-47h-92q-33 0 -59 -16t-26 -50q0 -75 115 -75q93 0 159 61l38 -44q-79 -76 -208 -76q-82 0 -129 31.5t-47 88.5
q0 42 25.5 69.5t69.5 37.5zM175 613q-7 0 -18 7q-15 -15 -15 -32q0 -39 54 -57l-12 -35q-90 29 -90 102q0 39 21.5 64t54.5 25q18 0 30.5 -10t12.5 -28q0 -17 -11 -26.5t-27 -9.5zM380 502l-64 182h-81l90 -182h55z" />
    <glyph glyph-name="uni1F14" unicode="&#x1f14;" horiz-adv-x="470" 
d="M146 219q-34 7 -56 31.5t-22 54.5q0 58 50 88t125 30q113 0 184 -71l-40 -44q-56 56 -140 56q-108 0 -108 -69q0 -23 22.5 -39.5t46.5 -16.5h92v-47h-92q-33 0 -59 -16t-26 -50q0 -75 115 -75q93 0 159 61l38 -44q-79 -76 -208 -76q-82 0 -129 31.5t-47 88.5
q0 42 25.5 69.5t69.5 37.5zM179 613q-16 0 -27 9.5t-11 26.5q0 18 12.5 28t30.5 10q33 0 54.5 -25t21.5 -64q0 -73 -90 -102l-12 35q54 18 54 57q0 17 -15 32q-11 -7 -18 -7zM337 684l-64 -182h55l90 182h-81z" />
    <glyph glyph-name="uni1F15" unicode="&#x1f15;" horiz-adv-x="470" 
d="M146 219q-34 7 -56 31.5t-22 54.5q0 58 50 88t125 30q113 0 184 -71l-40 -44q-56 56 -140 56q-108 0 -108 -69q0 -23 22.5 -39.5t46.5 -16.5h92v-47h-92q-33 0 -59 -16t-26 -50q0 -75 115 -75q93 0 159 61l38 -44q-79 -76 -208 -76q-82 0 -129 31.5t-47 88.5
q0 42 25.5 69.5t69.5 37.5zM217 614q-7 0 -18 7q-15 -15 -15 -32q0 -39 54 -57l-12 -35q-90 29 -90 102q0 39 21.5 64t54.5 25q18 0 30.5 -10t12.5 -28q0 -17 -11 -26.5t-27 -9.5zM330 685l-64 -182h55l90 182h-81z" />
    <glyph glyph-name="uni1F18" unicode="&#x1f18;" horiz-adv-x="580" 
d="M93 0v680h414v-64h-342v-243h305v-63h-305v-246h356v-64h-428zM-67 606q-16 0 -27 9.5t-11 26.5q0 18 12.5 28t30.5 10q33 0 54.5 -25t21.5 -64q0 -73 -90 -102l-12 35q54 18 54 57q0 17 -15 32q-10 -7 -18 -7z" />
    <glyph glyph-name="uni1F19" unicode="&#x1f19;" horiz-adv-x="580" 
d="M93 0v680h414v-64h-342v-243h305v-63h-305v-246h356v-64h-428zM-24 606q-8 0 -18 7q-15 -15 -15 -32q0 -39 54 -57l-12 -35q-90 29 -90 102q0 39 21.5 64t54.5 25q18 0 30.5 -10t12.5 -28q0 -17 -11 -26.5t-27 -9.5z" />
    <glyph glyph-name="uni1F1A" unicode="&#x1f1a;" horiz-adv-x="580" 
d="M93 0v680h414v-64h-342v-243h305v-63h-305v-246h356v-64h-428zM-224 606q-16 0 -27 9.5t-11 26.5q0 18 12.5 28t30.5 10q33 0 54.5 -25t21.5 -64q0 -73 -90 -102l-12 35q54 18 54 57q0 17 -15 32q-10 -7 -18 -7zM15 495l-64 182h-81l90 -182h55z" />
    <glyph glyph-name="uni1F1B" unicode="&#x1f1b;" horiz-adv-x="580" 
d="M93 0v680h414v-64h-342v-243h305v-63h-305v-246h356v-64h-428zM-188 606q-7 0 -18 7q-15 -15 -15 -32q0 -39 54 -57l-12 -35q-90 29 -90 102q0 39 21.5 64t54.5 25q18 0 30.5 -10t12.5 -28q0 -17 -11 -26.5t-27 -9.5zM17 495l-64 182h-81l90 -182h55z" />
    <glyph glyph-name="uni1F1C" unicode="&#x1f1c;" horiz-adv-x="580" 
d="M93 0v680h414v-64h-342v-243h305v-63h-305v-246h356v-64h-428zM-227 606q-16 0 -27 9.5t-11 26.5q0 18 12.5 28t30.5 10q33 0 54.5 -25t21.5 -64q0 -73 -90 -102l-12 35q54 18 54 57q0 17 -15 32q-10 -7 -18 -7zM-69 677l-64 -182h55l90 182h-81z" />
    <glyph glyph-name="uni1F1D" unicode="&#x1f1d;" horiz-adv-x="580" 
d="M93 0v680h414v-64h-342v-243h305v-63h-305v-246h356v-64h-428zM-182 606q-7 0 -18 7q-15 -15 -15 -32q0 -39 54 -57l-12 -35q-90 29 -90 102q0 39 21.5 64t54.5 25q18 0 30.5 -10t12.5 -28q0 -17 -11 -26.5t-27 -9.5zM-69 677l-64 -182h55l90 182h-81z" />
    <glyph glyph-name="uni1F20" unicode="&#x1f20;" horiz-adv-x="516" 
d="M74 0v414h70l-2 -84q20 44 59.5 68.5t90.5 24.5q69 0 111.5 -45.5t42.5 -125.5v-464h-70v456q0 115 -103 115q-58 0 -93.5 -35t-35.5 -96v-228h-70zM218 615q-16 0 -27 9.5t-11 26.5q0 18 12.5 28t30.5 10q33 0 54.5 -25t21.5 -64q0 -73 -90 -102l-12 35q54 18 54 57
q0 17 -15 32q-11 -7 -18 -7z" />
    <glyph glyph-name="uni1F21" unicode="&#x1f21;" horiz-adv-x="516" 
d="M74 0v414h70l-2 -84q20 44 59.5 68.5t90.5 24.5q69 0 111.5 -45.5t42.5 -125.5v-464h-70v456q0 115 -103 115q-58 0 -93.5 -35t-35.5 -96v-228h-70zM259 614q-7 0 -18 7q-15 -15 -15 -32q0 -39 54 -57l-12 -35q-90 29 -90 102q0 39 21.5 64t54.5 25q18 0 30.5 -10
t12.5 -28q0 -17 -11 -26.5t-27 -9.5z" />
    <glyph glyph-name="uni1F22" unicode="&#x1f22;" horiz-adv-x="516" 
d="M74 0v414h70l-2 -84q20 44 59.5 68.5t90.5 24.5q69 0 111.5 -45.5t42.5 -125.5v-464h-70v456q0 115 -103 115q-58 0 -93.5 -35t-35.5 -96v-228h-70zM147 613q-16 0 -27 9.5t-11 26.5q0 18 12.5 28t30.5 10q33 0 54.5 -25t21.5 -64q0 -73 -90 -102l-12 35q54 18 54 57
q0 17 -15 32q-11 -7 -18 -7zM386 502l-64 182h-81l90 -182h55z" />
    <glyph glyph-name="uni1F23" unicode="&#x1f23;" horiz-adv-x="516" 
d="M74 0v414h70l-2 -84q20 44 59.5 68.5t90.5 24.5q69 0 111.5 -45.5t42.5 -125.5v-464h-70v456q0 115 -103 115q-58 0 -93.5 -35t-35.5 -96v-228h-70zM172 613q-8 0 -18 7q-15 -15 -15 -32q0 -39 54 -57l-12 -35q-90 29 -90 102q0 39 21.5 64t54.5 25q18 0 30.5 -10
t12.5 -28q0 -17 -11 -26.5t-27 -9.5zM377 502l-64 182h-81l90 -182h55z" />
    <glyph glyph-name="uni1F24" unicode="&#x1f24;" horiz-adv-x="516" 
d="M74 0v414h70l-2 -84q20 44 59.5 68.5t90.5 24.5q69 0 111.5 -45.5t42.5 -125.5v-464h-70v456q0 115 -103 115q-58 0 -93.5 -35t-35.5 -96v-228h-70zM166 613q-16 0 -27 9.5t-11 26.5q0 18 12.5 28t30.5 10q33 0 54.5 -25t21.5 -64q0 -73 -90 -102l-12 35q54 18 54 57
q0 17 -15 32q-11 -7 -18 -7zM324 684l-64 -182h55l90 182h-81z" />
    <glyph glyph-name="uni1F25" unicode="&#x1f25;" horiz-adv-x="516" 
d="M74 0v414h70l-2 -84q20 44 59.5 68.5t90.5 24.5q69 0 111.5 -45.5t42.5 -125.5v-464h-70v456q0 115 -103 115q-58 0 -93.5 -35t-35.5 -96v-228h-70zM204 614q-8 0 -18 7q-15 -15 -15 -32q0 -39 54 -57l-12 -35q-90 29 -90 102q0 39 21.5 64t54.5 25q18 0 30.5 -10
t12.5 -28q0 -17 -11 -26.5t-27 -9.5zM317 685l-64 -182h55l90 182h-81z" />
    <glyph glyph-name="uni1F26" unicode="&#x1f26;" horiz-adv-x="516" 
d="M74 0v414h70l-2 -84q20 44 59.5 68.5t90.5 24.5q69 0 111.5 -45.5t42.5 -125.5v-464h-70v456q0 115 -103 115q-58 0 -93.5 -35t-35.5 -96v-228h-70zM215 615q-16 0 -27 9.5t-11 26.5q0 18 12.5 28t30.5 10q33 0 54.5 -25t21.5 -64q0 -73 -90 -102l-12 35q54 18 54 57
q0 17 -15 32q-11 -7 -18 -7zM282 765q25 0 42 26l32 -25q-26 -47 -75 -47q-20 0 -49 11q-31 11 -49 11q-27 0 -42 -26l-34 25q27 48 77 48q17 0 48 -11q34 -12 50 -12z" />
    <glyph glyph-name="uni1F27" unicode="&#x1f27;" horiz-adv-x="516" 
d="M74 0v414h70l-2 -84q20 44 59.5 68.5t90.5 24.5q69 0 111.5 -45.5t42.5 -125.5v-464h-70v456q0 115 -103 115q-58 0 -93.5 -35t-35.5 -96v-228h-70zM257 614q-8 0 -18 7q-15 -15 -15 -32q0 -39 54 -57l-12 -35q-90 29 -90 102q0 39 21.5 64t54.5 25q18 0 30.5 -10
t12.5 -28q0 -17 -11 -26.5t-27 -9.5zM286 764q25 0 42 26l32 -25q-26 -47 -75 -47q-20 0 -49 11q-31 11 -49 11q-27 0 -42 -26l-34 25q27 48 77 48q17 0 48 -11q34 -12 50 -12z" />
    <glyph glyph-name="uni1F28" unicode="&#x1f28;" horiz-adv-x="694" 
d="M93 0v680h72v-317h364v317h72v-680h-72v298h-364v-298h-72zM-67 606q-16 0 -27 9.5t-11 26.5q0 18 12.5 28t30.5 10q33 0 54.5 -25t21.5 -64q0 -73 -90 -102l-12 35q54 18 54 57q0 17 -15 32q-10 -7 -18 -7z" />
    <glyph glyph-name="uni1F29" unicode="&#x1f29;" horiz-adv-x="694" 
d="M93 0v680h72v-317h364v317h72v-680h-72v298h-364v-298h-72zM-24 606q-8 0 -18 7q-15 -15 -15 -32q0 -39 54 -57l-12 -35q-90 29 -90 102q0 39 21.5 64t54.5 25q18 0 30.5 -10t12.5 -28q0 -17 -11 -26.5t-27 -9.5z" />
    <glyph glyph-name="uni1F2A" unicode="&#x1f2a;" horiz-adv-x="694" 
d="M93 0v680h72v-317h364v317h72v-680h-72v298h-364v-298h-72zM-224 606q-16 0 -27 9.5t-11 26.5q0 18 12.5 28t30.5 10q33 0 54.5 -25t21.5 -64q0 -73 -90 -102l-12 35q54 18 54 57q0 17 -15 32q-10 -7 -18 -7zM15 495l-64 182h-81l90 -182h55z" />
    <glyph glyph-name="uni1F2B" unicode="&#x1f2b;" horiz-adv-x="694" 
d="M93 0v680h72v-317h364v317h72v-680h-72v298h-364v-298h-72zM-188 606q-7 0 -18 7q-15 -15 -15 -32q0 -39 54 -57l-12 -35q-90 29 -90 102q0 39 21.5 64t54.5 25q18 0 30.5 -10t12.5 -28q0 -17 -11 -26.5t-27 -9.5zM17 495l-64 182h-81l90 -182h55z" />
    <glyph glyph-name="uni1F2C" unicode="&#x1f2c;" horiz-adv-x="694" 
d="M93 0v680h72v-317h364v317h72v-680h-72v298h-364v-298h-72zM-227 606q-16 0 -27 9.5t-11 26.5q0 18 12.5 28t30.5 10q33 0 54.5 -25t21.5 -64q0 -73 -90 -102l-12 35q54 18 54 57q0 17 -15 32q-10 -7 -18 -7zM-69 677l-64 -182h55l90 182h-81z" />
    <glyph glyph-name="uni1F2D" unicode="&#x1f2d;" horiz-adv-x="694" 
d="M93 0v680h72v-317h364v317h72v-680h-72v298h-364v-298h-72zM-182 606q-7 0 -18 7q-15 -15 -15 -32q0 -39 54 -57l-12 -35q-90 29 -90 102q0 39 21.5 64t54.5 25q18 0 30.5 -10t12.5 -28q0 -17 -11 -26.5t-27 -9.5zM-69 677l-64 -182h55l90 182h-81z" />
    <glyph glyph-name="uni1F2E" unicode="&#x1f2e;" horiz-adv-x="694" 
d="M93 0v680h72v-317h364v317h72v-680h-72v298h-364v-298h-72zM-128 507q-16 0 -27 9.5t-11 26.5q0 18 12.5 28t30.5 10q33 0 54.5 -25t21.5 -64q0 -73 -90 -102l-12 35q54 18 54 57q0 17 -15 32q-11 -7 -18 -7zM-61 657q25 0 42 26l32 -25q-26 -47 -75 -47q-20 0 -49 11
q-31 11 -49 11q-27 0 -42 -26l-34 25q27 48 77 48q17 0 48 -11q34 -12 50 -12z" />
    <glyph glyph-name="uni1F2F" unicode="&#x1f2f;" horiz-adv-x="694" 
d="M93 0v680h72v-317h364v317h72v-680h-72v298h-364v-298h-72zM-90 508q-8 0 -18 7q-15 -15 -15 -32q0 -39 54 -57l-12 -35q-90 29 -90 102q0 39 21.5 64t54.5 25q18 0 30.5 -10t12.5 -28q0 -17 -11 -26.5t-27 -9.5zM-61 658q25 0 42 26l32 -25q-26 -47 -75 -47
q-20 0 -49 11q-31 11 -49 11q-27 0 -42 -26l-34 25q27 48 77 48q17 0 48 -11q34 -12 50 -12z" />
    <glyph glyph-name="uni1F30" unicode="&#x1f30;" horiz-adv-x="243" 
d="M76 103v311h70v-302q0 -56 44 -56h18v-57q-11 -1 -36 -1q-45 0 -70.5 26.5t-25.5 78.5zM92 615q-16 0 -27 9.5t-11 26.5q0 18 12.5 28t30.5 10q33 0 54.5 -25t21.5 -64q0 -73 -90 -102l-12 35q54 18 54 57q0 17 -15 32q-10 -7 -18 -7z" />
    <glyph glyph-name="uni1F31" unicode="&#x1f31;" horiz-adv-x="243" 
d="M76 103v311h70v-302q0 -56 44 -56h18v-57q-11 -1 -36 -1q-45 0 -70.5 26.5t-25.5 78.5zM133 614q-8 0 -18 7q-15 -15 -15 -32q0 -39 54 -57l-12 -35q-90 29 -90 102q0 39 21.5 64t54.5 25q18 0 30.5 -10t12.5 -28q0 -17 -11 -26.5t-27 -9.5z" />
    <glyph glyph-name="uni1F32" unicode="&#x1f32;" horiz-adv-x="243" 
d="M76 103v311h70v-302q0 -56 44 -56h18v-57q-11 -1 -36 -1q-45 0 -70.5 26.5t-25.5 78.5zM8 613q-16 0 -27 9.5t-11 26.5q0 18 12.5 28t30.5 10q33 0 54.5 -25t21.5 -64q0 -73 -90 -102l-12 35q54 18 54 57q0 17 -15 32q-10 -7 -18 -7zM247 502l-64 182h-81l90 -182h55z
" />
    <glyph glyph-name="uni1F33" unicode="&#x1f33;" horiz-adv-x="243" 
d="M76 103v311h70v-302q0 -56 44 -56h18v-57q-11 -1 -36 -1q-45 0 -70.5 26.5t-25.5 78.5zM46 613q-8 0 -18 7q-15 -15 -15 -32q0 -39 54 -57l-12 -35q-90 29 -90 102q0 39 21.5 64t54.5 25q18 0 30.5 -10t12.5 -28q0 -17 -11 -26.5t-27 -9.5zM251 502l-64 182h-81l90 -182
h55z" />
    <glyph glyph-name="uni1F34" unicode="&#x1f34;" horiz-adv-x="243" 
d="M76 103v311h70v-302q0 -56 44 -56h18v-57q-11 -1 -36 -1q-45 0 -70.5 26.5t-25.5 78.5zM40 613q-16 0 -27 9.5t-11 26.5q0 18 12.5 28t30.5 10q33 0 54.5 -25t21.5 -64q0 -73 -90 -102l-12 35q54 18 54 57q0 17 -15 32q-11 -7 -18 -7zM198 684l-64 -182h55l90 182h-81z
" />
    <glyph glyph-name="uni1F35" unicode="&#x1f35;" horiz-adv-x="243" 
d="M76 103v311h70v-302q0 -56 44 -56h18v-57q-11 -1 -36 -1q-45 0 -70.5 26.5t-25.5 78.5zM78 614q-8 0 -18 7q-15 -15 -15 -32q0 -39 54 -57l-12 -35q-90 29 -90 102q0 39 21.5 64t54.5 25q18 0 30.5 -10t12.5 -28q0 -17 -11 -26.5t-27 -9.5zM191 685l-64 -182h55l90 182
h-81z" />
    <glyph glyph-name="uni1F36" unicode="&#x1f36;" horiz-adv-x="243" 
d="M76 103v311h70v-302q0 -56 44 -56h18v-57q-11 -1 -36 -1q-45 0 -70.5 26.5t-25.5 78.5zM99 615q-16 0 -27 9.5t-11 26.5q0 18 12.5 28t30.5 10q33 0 54.5 -25t21.5 -64q0 -73 -90 -102l-12 35q54 18 54 57q0 17 -15 32q-11 -7 -18 -7zM166 765q25 0 42 26l32 -25
q-26 -47 -75 -47q-20 0 -49 11q-31 11 -49 11q-27 0 -42 -26l-34 25q27 48 77 48q17 0 48 -11q34 -12 50 -12z" />
    <glyph glyph-name="uni1F37" unicode="&#x1f37;" horiz-adv-x="243" 
d="M76 103v311h70v-302q0 -56 44 -56h18v-57q-11 -1 -36 -1q-45 0 -70.5 26.5t-25.5 78.5zM131 614q-7 0 -18 7q-15 -15 -15 -32q0 -39 54 -57l-12 -35q-90 29 -90 102q0 39 21.5 64t54.5 25q18 0 30.5 -10t12.5 -28q0 -17 -11 -26.5t-27 -9.5zM160 764q25 0 42 26l32 -25
q-26 -47 -75 -47q-20 0 -49 11q-31 11 -49 11q-27 0 -42 -26l-34 25q27 48 77 48q17 0 48 -11q34 -12 50 -12z" />
    <glyph glyph-name="uni1F38" unicode="&#x1f38;" horiz-adv-x="265" 
d="M96 0v680h73v-680h-73zM-67 606q-16 0 -27 9.5t-11 26.5q0 18 12.5 28t30.5 10q33 0 54.5 -25t21.5 -64q0 -73 -90 -102l-12 35q54 18 54 57q0 17 -15 32q-10 -7 -18 -7z" />
    <glyph glyph-name="uni1F39" unicode="&#x1f39;" horiz-adv-x="265" 
d="M96 0v680h73v-680h-73zM-24 606q-8 0 -18 7q-15 -15 -15 -32q0 -39 54 -57l-12 -35q-90 29 -90 102q0 39 21.5 64t54.5 25q18 0 30.5 -10t12.5 -28q0 -17 -11 -26.5t-27 -9.5z" />
    <glyph glyph-name="uni1F3A" unicode="&#x1f3a;" horiz-adv-x="265" 
d="M96 0v680h73v-680h-73zM-224 606q-16 0 -27 9.5t-11 26.5q0 18 12.5 28t30.5 10q33 0 54.5 -25t21.5 -64q0 -73 -90 -102l-12 35q54 18 54 57q0 17 -15 32q-10 -7 -18 -7zM15 495l-64 182h-81l90 -182h55z" />
    <glyph glyph-name="uni1F3B" unicode="&#x1f3b;" horiz-adv-x="265" 
d="M96 0v680h73v-680h-73zM-188 606q-7 0 -18 7q-15 -15 -15 -32q0 -39 54 -57l-12 -35q-90 29 -90 102q0 39 21.5 64t54.5 25q18 0 30.5 -10t12.5 -28q0 -17 -11 -26.5t-27 -9.5zM17 495l-64 182h-81l90 -182h55z" />
    <glyph glyph-name="uni1F3C" unicode="&#x1f3c;" horiz-adv-x="265" 
d="M96 0v680h73v-680h-73zM-227 606q-16 0 -27 9.5t-11 26.5q0 18 12.5 28t30.5 10q33 0 54.5 -25t21.5 -64q0 -73 -90 -102l-12 35q54 18 54 57q0 17 -15 32q-10 -7 -18 -7zM-69 677l-64 -182h55l90 182h-81z" />
    <glyph glyph-name="uni1F3D" unicode="&#x1f3d;" horiz-adv-x="265" 
d="M96 0v680h73v-680h-73zM-182 606q-7 0 -18 7q-15 -15 -15 -32q0 -39 54 -57l-12 -35q-90 29 -90 102q0 39 21.5 64t54.5 25q18 0 30.5 -10t12.5 -28q0 -17 -11 -26.5t-27 -9.5zM-69 677l-64 -182h55l90 182h-81z" />
    <glyph glyph-name="uni1F3E" unicode="&#x1f3e;" horiz-adv-x="265" 
d="M96 0v680h73v-680h-73zM-128 507q-16 0 -27 9.5t-11 26.5q0 18 12.5 28t30.5 10q33 0 54.5 -25t21.5 -64q0 -73 -90 -102l-12 35q54 18 54 57q0 17 -15 32q-11 -7 -18 -7zM-61 657q25 0 42 26l32 -25q-26 -47 -75 -47q-20 0 -49 11q-31 11 -49 11q-27 0 -42 -26l-34 25
q27 48 77 48q17 0 48 -11q34 -12 50 -12z" />
    <glyph glyph-name="uni1F3F" unicode="&#x1f3f;" horiz-adv-x="265" 
d="M96 0v680h73v-680h-73zM-90 508q-8 0 -18 7q-15 -15 -15 -32q0 -39 54 -57l-12 -35q-90 29 -90 102q0 39 21.5 64t54.5 25q18 0 30.5 -10t12.5 -28q0 -17 -11 -26.5t-27 -9.5zM-61 658q25 0 42 26l32 -25q-26 -47 -75 -47q-20 0 -49 11q-31 11 -49 11q-27 0 -42 -26
l-34 25q27 48 77 48q17 0 48 -11q34 -12 50 -12z" />
    <glyph glyph-name="uni1F40" unicode="&#x1f40;" horiz-adv-x="534" 
d="M268 -8q-93 0 -157 62t-64 153t64 153.5t157 62.5q92 0 155 -62.5t63 -153.5t-63 -153t-155 -62zM268 52q65 0 105.5 44t40.5 111q0 68 -40.5 111.5t-105.5 43.5q-66 0 -107.5 -44t-41.5 -111t41.5 -111t107.5 -44zM244 615q-16 0 -27 9.5t-11 26.5q0 18 12.5 28t30.5 10
q33 0 54.5 -25t21.5 -64q0 -73 -90 -102l-12 35q54 18 54 57q0 17 -15 32q-11 -7 -18 -7z" />
    <glyph glyph-name="uni1F41" unicode="&#x1f41;" horiz-adv-x="534" 
d="M268 -8q-93 0 -157 62t-64 153t64 153.5t157 62.5q92 0 155 -62.5t63 -153.5t-63 -153t-155 -62zM268 52q65 0 105.5 44t40.5 111q0 68 -40.5 111.5t-105.5 43.5q-66 0 -107.5 -44t-41.5 -111t41.5 -111t107.5 -44zM270 614q-8 0 -18 7q-15 -15 -15 -32q0 -39 54 -57
l-12 -35q-90 29 -90 102q0 39 21.5 64t54.5 25q18 0 30.5 -10t12.5 -28q0 -17 -11 -26.5t-27 -9.5z" />
    <glyph glyph-name="uni1F42" unicode="&#x1f42;" horiz-adv-x="534" 
d="M268 -8q-93 0 -157 62t-64 153t64 153.5t157 62.5q92 0 155 -62.5t63 -153.5t-63 -153t-155 -62zM268 52q65 0 105.5 44t40.5 111q0 68 -40.5 111.5t-105.5 43.5q-66 0 -107.5 -44t-41.5 -111t41.5 -111t107.5 -44zM157 613q-16 0 -27 9.5t-11 26.5q0 18 12.5 28t30.5 10
q33 0 54.5 -25t21.5 -64q0 -73 -90 -102l-12 35q54 18 54 57q0 17 -15 32q-11 -7 -18 -7zM396 502l-64 182h-81l90 -182h55z" />
    <glyph glyph-name="uni1F43" unicode="&#x1f43;" horiz-adv-x="534" 
d="M268 -8q-93 0 -157 62t-64 153t64 153.5t157 62.5q92 0 155 -62.5t63 -153.5t-63 -153t-155 -62zM268 52q65 0 105.5 44t40.5 111q0 68 -40.5 111.5t-105.5 43.5q-66 0 -107.5 -44t-41.5 -111t41.5 -111t107.5 -44zM187 613q-7 0 -18 7q-15 -15 -15 -32q0 -39 54 -57
l-12 -35q-90 29 -90 102q0 39 21.5 64t54.5 25q18 0 30.5 -10t12.5 -28q0 -17 -11 -26.5t-27 -9.5zM392 502l-64 182h-81l90 -182h55z" />
    <glyph glyph-name="uni1F44" unicode="&#x1f44;" horiz-adv-x="534" 
d="M268 -8q-93 0 -157 62t-64 153t64 153.5t157 62.5q92 0 155 -62.5t63 -153.5t-63 -153t-155 -62zM268 52q65 0 105.5 44t40.5 111q0 68 -40.5 111.5t-105.5 43.5q-66 0 -107.5 -44t-41.5 -111t41.5 -111t107.5 -44zM192 613q-16 0 -27 9.5t-11 26.5q0 18 12.5 28t30.5 10
q33 0 54.5 -25t21.5 -64q0 -73 -90 -102l-12 35q54 18 54 57q0 17 -15 32q-10 -7 -18 -7zM350 684l-64 -182h55l90 182h-81z" />
    <glyph glyph-name="uni1F45" unicode="&#x1f45;" horiz-adv-x="534" 
d="M268 -8q-93 0 -157 62t-64 153t64 153.5t157 62.5q92 0 155 -62.5t63 -153.5t-63 -153t-155 -62zM268 52q65 0 105.5 44t40.5 111q0 68 -40.5 111.5t-105.5 43.5q-66 0 -107.5 -44t-41.5 -111t41.5 -111t107.5 -44zM230 614q-8 0 -18 7q-15 -15 -15 -32q0 -39 54 -57
l-12 -35q-90 29 -90 102q0 39 21.5 64t54.5 25q18 0 30.5 -10t12.5 -28q0 -17 -11 -26.5t-27 -9.5zM343 685l-64 -182h55l90 182h-81z" />
    <glyph glyph-name="uni1F48" unicode="&#x1f48;" 
d="M403 -8q-147 0 -248 98t-101 250t101 250t248 98q148 0 249 -98t101 -250t-101 -250t-249 -98zM403 57q119 0 197 80.5t78 202.5t-78 202.5t-197 80.5q-118 0 -196 -80.5t-78 -202.5t78 -202.5t196 -80.5zM-54 606q-16 0 -27 9.5t-11 26.5q0 18 12.5 28t30.5 10
q33 0 54.5 -25t21.5 -64q0 -73 -90 -102l-12 35q54 18 54 57q0 17 -15 32q-10 -7 -18 -7z" />
    <glyph glyph-name="uni1F49" unicode="&#x1f49;" 
d="M403 -8q-147 0 -248 98t-101 250t101 250t248 98q148 0 249 -98t101 -250t-101 -250t-249 -98zM403 57q119 0 197 80.5t78 202.5t-78 202.5t-197 80.5q-118 0 -196 -80.5t-78 -202.5t78 -202.5t196 -80.5zM-11 606q-7 0 -18 7q-15 -15 -15 -32q0 -39 54 -57l-12 -35
q-90 29 -90 102q0 39 21.5 64t54.5 25q18 0 30.5 -10t12.5 -28q0 -17 -11 -26.5t-27 -9.5z" />
    <glyph glyph-name="uni1F4A" unicode="&#x1f4a;" 
d="M403 -8q-147 0 -248 98t-101 250t101 250t248 98q148 0 249 -98t101 -250t-101 -250t-249 -98zM403 57q119 0 197 80.5t78 202.5t-78 202.5t-197 80.5q-118 0 -196 -80.5t-78 -202.5t78 -202.5t196 -80.5zM-211 606q-16 0 -27 9.5t-11 26.5q0 18 12.5 28t30.5 10
q33 0 54.5 -25t21.5 -64q0 -73 -90 -102l-12 35q54 18 54 57q0 17 -15 32q-10 -7 -18 -7zM28 495l-64 182h-81l90 -182h55z" />
    <glyph glyph-name="uni1F4B" unicode="&#x1f4b;" 
d="M403 -8q-147 0 -248 98t-101 250t101 250t248 98q148 0 249 -98t101 -250t-101 -250t-249 -98zM403 57q119 0 197 80.5t78 202.5t-78 202.5t-197 80.5q-118 0 -196 -80.5t-78 -202.5t78 -202.5t196 -80.5zM-175 606q-7 0 -18 7q-15 -15 -15 -32q0 -39 54 -57l-12 -35
q-90 29 -90 102q0 39 21.5 64t54.5 25q18 0 30.5 -10t12.5 -28q0 -17 -11 -26.5t-27 -9.5zM30 495l-64 182h-81l90 -182h55z" />
    <glyph glyph-name="uni1F4C" unicode="&#x1f4c;" 
d="M403 -8q-147 0 -248 98t-101 250t101 250t248 98q148 0 249 -98t101 -250t-101 -250t-249 -98zM403 57q119 0 197 80.5t78 202.5t-78 202.5t-197 80.5q-118 0 -196 -80.5t-78 -202.5t78 -202.5t196 -80.5zM-214 606q-16 0 -27 9.5t-11 26.5q0 18 12.5 28t30.5 10
q33 0 54.5 -25t21.5 -64q0 -73 -90 -102l-12 35q54 18 54 57q0 17 -15 32q-10 -7 -18 -7zM-56 677l-64 -182h55l90 182h-81z" />
    <glyph glyph-name="uni1F4D" unicode="&#x1f4d;" 
d="M403 -8q-147 0 -248 98t-101 250t101 250t248 98q148 0 249 -98t101 -250t-101 -250t-249 -98zM403 57q119 0 197 80.5t78 202.5t-78 202.5t-197 80.5q-118 0 -196 -80.5t-78 -202.5t78 -202.5t196 -80.5zM-169 606q-7 0 -18 7q-15 -15 -15 -32q0 -39 54 -57l-12 -35
q-90 29 -90 102q0 39 21.5 64t54.5 25q18 0 30.5 -10t12.5 -28q0 -17 -11 -26.5t-27 -9.5zM-56 677l-64 -182h55l90 182h-81z" />
    <glyph glyph-name="uni1F50" unicode="&#x1f50;" horiz-adv-x="486" 
d="M241 -9q-85 0 -133 50.5t-48 141.5v231h70v-228q0 -133 113 -133t113 133v228h70v-231q0 -90 -49.5 -141t-135.5 -51zM234 615q-16 0 -27 9.5t-11 26.5q0 18 12.5 28t30.5 10q33 0 54.5 -25t21.5 -64q0 -73 -90 -102l-12 35q54 18 54 57q0 17 -15 32q-10 -7 -18 -7z" />
    <glyph glyph-name="uni1F51" unicode="&#x1f51;" horiz-adv-x="486" 
d="M241 -9q-85 0 -133 50.5t-48 141.5v231h70v-228q0 -133 113 -133t113 133v228h70v-231q0 -90 -49.5 -141t-135.5 -51zM251 614q-8 0 -18 7q-15 -15 -15 -32q0 -39 54 -57l-12 -35q-90 29 -90 102q0 39 21.5 64t54.5 25q18 0 30.5 -10t12.5 -28q0 -17 -11 -26.5t-27 -9.5z
" />
    <glyph glyph-name="uni1F52" unicode="&#x1f52;" horiz-adv-x="486" 
d="M241 -9q-85 0 -133 50.5t-48 141.5v231h70v-228q0 -133 113 -133t113 133v228h70v-231q0 -90 -49.5 -141t-135.5 -51zM129 613q-16 0 -27 9.5t-11 26.5q0 18 12.5 28t30.5 10q33 0 54.5 -25t21.5 -64q0 -73 -90 -102l-12 35q54 18 54 57q0 17 -15 32q-11 -7 -18 -7z
M368 502l-64 182h-81l90 -182h55z" />
    <glyph glyph-name="uni1F53" unicode="&#x1f53;" horiz-adv-x="486" 
d="M241 -9q-85 0 -133 50.5t-48 141.5v231h70v-228q0 -133 113 -133t113 133v228h70v-231q0 -90 -49.5 -141t-135.5 -51zM165 613q-7 0 -18 7q-15 -15 -15 -32q0 -39 54 -57l-12 -35q-90 29 -90 102q0 39 21.5 64t54.5 25q18 0 30.5 -10t12.5 -28q0 -17 -11 -26.5t-27 -9.5z
M370 502l-64 182h-81l90 -182h55z" />
    <glyph glyph-name="uni1F54" unicode="&#x1f54;" horiz-adv-x="486" 
d="M241 -9q-85 0 -133 50.5t-48 141.5v231h70v-228q0 -133 113 -133t113 133v228h70v-231q0 -90 -49.5 -141t-135.5 -51zM169 613q-16 0 -27 9.5t-11 26.5q0 18 12.5 28t30.5 10q33 0 54.5 -25t21.5 -64q0 -73 -90 -102l-12 35q54 18 54 57q0 17 -15 32q-11 -7 -18 -7z
M327 684l-64 -182h55l90 182h-81z" />
    <glyph glyph-name="uni1F55" unicode="&#x1f55;" horiz-adv-x="486" 
d="M241 -9q-85 0 -133 50.5t-48 141.5v231h70v-228q0 -133 113 -133t113 133v228h70v-231q0 -90 -49.5 -141t-135.5 -51zM207 614q-7 0 -18 7q-15 -15 -15 -32q0 -39 54 -57l-12 -35q-90 29 -90 102q0 39 21.5 64t54.5 25q18 0 30.5 -10t12.5 -28q0 -17 -11 -26.5t-27 -9.5z
M320 685l-64 -182h55l90 182h-81z" />
    <glyph glyph-name="uni1F56" unicode="&#x1f56;" horiz-adv-x="486" 
d="M241 -9q-85 0 -133 50.5t-48 141.5v231h70v-228q0 -133 113 -133t113 133v228h70v-231q0 -90 -49.5 -141t-135.5 -51zM218 615q-16 0 -27 9.5t-11 26.5q0 18 12.5 28t30.5 10q33 0 54.5 -25t21.5 -64q0 -73 -90 -102l-12 35q54 18 54 57q0 17 -15 32q-11 -7 -18 -7z
M285 765q25 0 42 26l32 -25q-26 -47 -75 -47q-20 0 -49 11q-31 11 -49 11q-27 0 -42 -26l-34 25q27 48 77 48q17 0 48 -11q34 -12 50 -12z" />
    <glyph glyph-name="uni1F57" unicode="&#x1f57;" horiz-adv-x="486" 
d="M241 -9q-85 0 -133 50.5t-48 141.5v231h70v-228q0 -133 113 -133t113 133v228h70v-231q0 -90 -49.5 -141t-135.5 -51zM260 614q-8 0 -18 7q-15 -15 -15 -32q0 -39 54 -57l-12 -35q-90 29 -90 102q0 39 21.5 64t54.5 25q18 0 30.5 -10t12.5 -28q0 -17 -11 -26.5t-27 -9.5z
M289 764q25 0 42 26l32 -25q-26 -47 -75 -47q-20 0 -49 11q-31 11 -49 11q-27 0 -42 -26l-34 25q27 48 77 48q17 0 48 -11q34 -12 50 -12z" />
    <glyph glyph-name="uni1F59" unicode="&#x1f59;" horiz-adv-x="616" 
d="M274 0v250l-237 430h82l164 -301q6 -11 13 -27.5t11.5 -28.5t4.5 -13q7 28 29 69l163 301h75l-231 -428v-252h-74zM-58 606q-8 0 -18 7q-15 -15 -15 -32q0 -39 54 -57l-12 -35q-90 29 -90 102q0 39 21.5 64t54.5 25q18 0 30.5 -10t12.5 -28q0 -17 -11 -26.5t-27 -9.5z
" />
    <glyph glyph-name="uni1F5B" unicode="&#x1f5b;" horiz-adv-x="616" 
d="M274 0v250l-237 430h82l164 -301q6 -11 13 -27.5t11.5 -28.5t4.5 -13q7 28 29 69l163 301h75l-231 -428v-252h-74zM-222 606q-8 0 -18 7q-15 -15 -15 -32q0 -39 54 -57l-12 -35q-90 29 -90 102q0 39 21.5 64t54.5 25q18 0 30.5 -10t12.5 -28q0 -17 -11 -26.5t-27 -9.5z
M-17 495l-64 182h-81l90 -182h55z" />
    <glyph glyph-name="uni1F5D" unicode="&#x1f5d;" horiz-adv-x="616" 
d="M274 0v250l-237 430h82l164 -301q6 -11 13 -27.5t11.5 -28.5t4.5 -13q7 28 29 69l163 301h75l-231 -428v-252h-74zM-216 606q-8 0 -18 7q-15 -15 -15 -32q0 -39 54 -57l-12 -35q-90 29 -90 102q0 39 21.5 64t54.5 25q18 0 30.5 -10t12.5 -28q0 -17 -11 -26.5t-27 -9.5z
M-103 677l-64 -182h55l90 182h-81z" />
    <glyph glyph-name="uni1F5F" unicode="&#x1f5f;" horiz-adv-x="616" 
d="M274 0v250l-237 430h82l164 -301q6 -11 13 -27.5t11.5 -28.5t4.5 -13q7 28 29 69l163 301h75l-231 -428v-252h-74zM-124 508q-8 0 -18 7q-15 -15 -15 -32q0 -39 54 -57l-12 -35q-90 29 -90 102q0 39 21.5 64t54.5 25q18 0 30.5 -10t12.5 -28q0 -17 -11 -26.5t-27 -9.5z
M-95 658q25 0 42 26l32 -25q-26 -47 -75 -47q-20 0 -49 11q-31 11 -49 11q-27 0 -42 -26l-34 25q27 48 77 48q17 0 48 -11q34 -12 50 -12z" />
    <glyph glyph-name="uni1F60" unicode="&#x1f60;" horiz-adv-x="635" 
d="M318 80q-12 -40 -42.5 -64t-70.5 -24q-79 0 -118 57.5t-39 139.5q0 87 47 153.5t137 80.5v-61q-58 -16 -85 -62.5t-27 -109.5q0 -58 21.5 -98t70.5 -40q30 0 50.5 23.5t20.5 59.5v146h70v-146q0 -36 21 -59.5t50 -23.5q49 0 70.5 40t21.5 98q0 63 -27.5 109.5t-84.5 62.5
v61q89 -14 136 -80.5t47 -153.5q0 -82 -38.5 -139.5t-117.5 -57.5q-41 0 -71 24t-42 64zM295 615q-16 0 -27 9.5t-11 26.5q0 18 12.5 28t30.5 10q33 0 54.5 -25t21.5 -64q0 -73 -90 -102l-12 35q54 18 54 57q0 17 -15 32q-11 -7 -18 -7z" />
    <glyph glyph-name="uni1F61" unicode="&#x1f61;" horiz-adv-x="635" 
d="M318 80q-12 -40 -42.5 -64t-70.5 -24q-79 0 -118 57.5t-39 139.5q0 87 47 153.5t137 80.5v-61q-58 -16 -85 -62.5t-27 -109.5q0 -58 21.5 -98t70.5 -40q30 0 50.5 23.5t20.5 59.5v146h70v-146q0 -36 21 -59.5t50 -23.5q49 0 70.5 40t21.5 98q0 63 -27.5 109.5t-84.5 62.5
v61q89 -14 136 -80.5t47 -153.5q0 -82 -38.5 -139.5t-117.5 -57.5q-41 0 -71 24t-42 64zM336 614q-8 0 -18 7q-15 -15 -15 -32q0 -39 54 -57l-12 -35q-90 29 -90 102q0 39 21.5 64t54.5 25q18 0 30.5 -10t12.5 -28q0 -17 -11 -26.5t-27 -9.5z" />
    <glyph glyph-name="uni1F62" unicode="&#x1f62;" horiz-adv-x="635" 
d="M318 80q-12 -40 -42.5 -64t-70.5 -24q-79 0 -118 57.5t-39 139.5q0 87 47 153.5t137 80.5v-61q-58 -16 -85 -62.5t-27 -109.5q0 -58 21.5 -98t70.5 -40q30 0 50.5 23.5t20.5 59.5v146h70v-146q0 -36 21 -59.5t50 -23.5q49 0 70.5 40t21.5 98q0 63 -27.5 109.5t-84.5 62.5
v61q89 -14 136 -80.5t47 -153.5q0 -82 -38.5 -139.5t-117.5 -57.5q-41 0 -71 24t-42 64zM211 613q-16 0 -27 9.5t-11 26.5q0 18 12.5 28t30.5 10q33 0 54.5 -25t21.5 -64q0 -73 -90 -102l-12 35q54 18 54 57q0 17 -15 32q-11 -7 -18 -7zM450 502l-64 182h-81l90 -182h55z
" />
    <glyph glyph-name="uni1F63" unicode="&#x1f63;" horiz-adv-x="635" 
d="M318 80q-12 -40 -42.5 -64t-70.5 -24q-79 0 -118 57.5t-39 139.5q0 87 47 153.5t137 80.5v-61q-58 -16 -85 -62.5t-27 -109.5q0 -58 21.5 -98t70.5 -40q30 0 50.5 23.5t20.5 59.5v146h70v-146q0 -36 21 -59.5t50 -23.5q49 0 70.5 40t21.5 98q0 63 -27.5 109.5t-84.5 62.5
v61q89 -14 136 -80.5t47 -153.5q0 -82 -38.5 -139.5t-117.5 -57.5q-41 0 -71 24t-42 64zM249 613q-7 0 -18 7q-15 -15 -15 -32q0 -39 54 -57l-12 -35q-90 29 -90 102q0 39 21.5 64t54.5 25q18 0 30.5 -10t12.5 -28q0 -17 -11 -26.5t-27 -9.5zM454 502l-64 182h-81l90 -182
h55z" />
    <glyph glyph-name="uni1F64" unicode="&#x1f64;" horiz-adv-x="635" 
d="M318 80q-12 -40 -42.5 -64t-70.5 -24q-79 0 -118 57.5t-39 139.5q0 87 47 153.5t137 80.5v-61q-58 -16 -85 -62.5t-27 -109.5q0 -58 21.5 -98t70.5 -40q30 0 50.5 23.5t20.5 59.5v146h70v-146q0 -36 21 -59.5t50 -23.5q49 0 70.5 40t21.5 98q0 63 -27.5 109.5t-84.5 62.5
v61q89 -14 136 -80.5t47 -153.5q0 -82 -38.5 -139.5t-117.5 -57.5q-41 0 -71 24t-42 64zM243 613q-16 0 -27 9.5t-11 26.5q0 18 12.5 28t30.5 10q33 0 54.5 -25t21.5 -64q0 -73 -90 -102l-12 35q54 18 54 57q0 17 -15 32q-11 -7 -18 -7zM401 684l-64 -182h55l90 182h-81z
" />
    <glyph glyph-name="uni1F65" unicode="&#x1f65;" horiz-adv-x="635" 
d="M318 80q-12 -40 -42.5 -64t-70.5 -24q-79 0 -118 57.5t-39 139.5q0 87 47 153.5t137 80.5v-61q-58 -16 -85 -62.5t-27 -109.5q0 -58 21.5 -98t70.5 -40q30 0 50.5 23.5t20.5 59.5v146h70v-146q0 -36 21 -59.5t50 -23.5q49 0 70.5 40t21.5 98q0 63 -27.5 109.5t-84.5 62.5
v61q89 -14 136 -80.5t47 -153.5q0 -82 -38.5 -139.5t-117.5 -57.5q-41 0 -71 24t-42 64zM281 614q-7 0 -18 7q-15 -15 -15 -32q0 -39 54 -57l-12 -35q-90 29 -90 102q0 39 21.5 64t54.5 25q18 0 30.5 -10t12.5 -28q0 -17 -11 -26.5t-27 -9.5zM394 685l-64 -182h55l90 182
h-81z" />
    <glyph glyph-name="uni1F66" unicode="&#x1f66;" horiz-adv-x="635" 
d="M318 80q-12 -40 -42.5 -64t-70.5 -24q-79 0 -118 57.5t-39 139.5q0 87 47 153.5t137 80.5v-61q-58 -16 -85 -62.5t-27 -109.5q0 -58 21.5 -98t70.5 -40q30 0 50.5 23.5t20.5 59.5v146h70v-146q0 -36 21 -59.5t50 -23.5q49 0 70.5 40t21.5 98q0 63 -27.5 109.5t-84.5 62.5
v61q89 -14 136 -80.5t47 -153.5q0 -82 -38.5 -139.5t-117.5 -57.5q-41 0 -71 24t-42 64zM292 615q-16 0 -27 9.5t-11 26.5q0 18 12.5 28t30.5 10q33 0 54.5 -25t21.5 -64q0 -73 -90 -102l-12 35q54 18 54 57q0 17 -15 32q-11 -7 -18 -7zM359 765q25 0 42 26l32 -25
q-26 -47 -75 -47q-20 0 -49 11q-31 11 -49 11q-27 0 -42 -26l-34 25q27 48 77 48q17 0 48 -11q34 -12 50 -12z" />
    <glyph glyph-name="uni1F67" unicode="&#x1f67;" horiz-adv-x="635" 
d="M318 80q-12 -40 -42.5 -64t-70.5 -24q-79 0 -118 57.5t-39 139.5q0 87 47 153.5t137 80.5v-61q-58 -16 -85 -62.5t-27 -109.5q0 -58 21.5 -98t70.5 -40q30 0 50.5 23.5t20.5 59.5v146h70v-146q0 -36 21 -59.5t50 -23.5q49 0 70.5 40t21.5 98q0 63 -27.5 109.5t-84.5 62.5
v61q89 -14 136 -80.5t47 -153.5q0 -82 -38.5 -139.5t-117.5 -57.5q-41 0 -71 24t-42 64zM334 614q-8 0 -18 7q-15 -15 -15 -32q0 -39 54 -57l-12 -35q-90 29 -90 102q0 39 21.5 64t54.5 25q18 0 30.5 -10t12.5 -28q0 -17 -11 -26.5t-27 -9.5zM363 764q25 0 42 26l32 -25
q-26 -47 -75 -47q-20 0 -49 11q-31 11 -49 11q-27 0 -42 -26l-34 25q27 48 77 48q17 0 48 -11q34 -12 50 -12z" />
    <glyph glyph-name="uni1F68" unicode="&#x1f68;" 
d="M753 340q0 -86 -43.5 -161t-113.5 -115h152v-64h-271v60q89 33 145 108t56 172q0 120 -78.5 201.5t-196.5 81.5t-196 -81t-78 -202q0 -97 55.5 -172t144.5 -108v-60h-271v64h152q-70 41 -113 115.5t-43 160.5q0 150 100 249t249 99q150 0 250 -99t100 -249zM-54 606
q-16 0 -27 9.5t-11 26.5q0 18 12.5 28t30.5 10q33 0 54.5 -25t21.5 -64q0 -73 -90 -102l-12 35q54 18 54 57q0 17 -15 32q-10 -7 -18 -7z" />
    <glyph glyph-name="uni1F69" unicode="&#x1f69;" 
d="M753 340q0 -86 -43.5 -161t-113.5 -115h152v-64h-271v60q89 33 145 108t56 172q0 120 -78.5 201.5t-196.5 81.5t-196 -81t-78 -202q0 -97 55.5 -172t144.5 -108v-60h-271v64h152q-70 41 -113 115.5t-43 160.5q0 150 100 249t249 99q150 0 250 -99t100 -249zM-11 606
q-7 0 -18 7q-15 -15 -15 -32q0 -39 54 -57l-12 -35q-90 29 -90 102q0 39 21.5 64t54.5 25q18 0 30.5 -10t12.5 -28q0 -17 -11 -26.5t-27 -9.5z" />
    <glyph glyph-name="uni1F6A" unicode="&#x1f6a;" 
d="M753 340q0 -86 -43.5 -161t-113.5 -115h152v-64h-271v60q89 33 145 108t56 172q0 120 -78.5 201.5t-196.5 81.5t-196 -81t-78 -202q0 -97 55.5 -172t144.5 -108v-60h-271v64h152q-70 41 -113 115.5t-43 160.5q0 150 100 249t249 99q150 0 250 -99t100 -249zM-211 606
q-16 0 -27 9.5t-11 26.5q0 18 12.5 28t30.5 10q33 0 54.5 -25t21.5 -64q0 -73 -90 -102l-12 35q54 18 54 57q0 17 -15 32q-10 -7 -18 -7zM28 495l-64 182h-81l90 -182h55z" />
    <glyph glyph-name="uni1F6B" unicode="&#x1f6b;" 
d="M753 340q0 -86 -43.5 -161t-113.5 -115h152v-64h-271v60q89 33 145 108t56 172q0 120 -78.5 201.5t-196.5 81.5t-196 -81t-78 -202q0 -97 55.5 -172t144.5 -108v-60h-271v64h152q-70 41 -113 115.5t-43 160.5q0 150 100 249t249 99q150 0 250 -99t100 -249zM-175 606
q-7 0 -18 7q-15 -15 -15 -32q0 -39 54 -57l-12 -35q-90 29 -90 102q0 39 21.5 64t54.5 25q18 0 30.5 -10t12.5 -28q0 -17 -11 -26.5t-27 -9.5zM30 495l-64 182h-81l90 -182h55z" />
    <glyph glyph-name="uni1F6C" unicode="&#x1f6c;" 
d="M753 340q0 -86 -43.5 -161t-113.5 -115h152v-64h-271v60q89 33 145 108t56 172q0 120 -78.5 201.5t-196.5 81.5t-196 -81t-78 -202q0 -97 55.5 -172t144.5 -108v-60h-271v64h152q-70 41 -113 115.5t-43 160.5q0 150 100 249t249 99q150 0 250 -99t100 -249zM-214 606
q-16 0 -27 9.5t-11 26.5q0 18 12.5 28t30.5 10q33 0 54.5 -25t21.5 -64q0 -73 -90 -102l-12 35q54 18 54 57q0 17 -15 32q-10 -7 -18 -7zM-56 677l-64 -182h55l90 182h-81z" />
    <glyph glyph-name="uni1F6D" unicode="&#x1f6d;" 
d="M753 340q0 -86 -43.5 -161t-113.5 -115h152v-64h-271v60q89 33 145 108t56 172q0 120 -78.5 201.5t-196.5 81.5t-196 -81t-78 -202q0 -97 55.5 -172t144.5 -108v-60h-271v64h152q-70 41 -113 115.5t-43 160.5q0 150 100 249t249 99q150 0 250 -99t100 -249zM-169 606
q-7 0 -18 7q-15 -15 -15 -32q0 -39 54 -57l-12 -35q-90 29 -90 102q0 39 21.5 64t54.5 25q18 0 30.5 -10t12.5 -28q0 -17 -11 -26.5t-27 -9.5zM-56 677l-64 -182h55l90 182h-81z" />
    <glyph glyph-name="uni1F6E" unicode="&#x1f6e;" 
d="M753 340q0 -86 -43.5 -161t-113.5 -115h152v-64h-271v60q89 33 145 108t56 172q0 120 -78.5 201.5t-196.5 81.5t-196 -81t-78 -202q0 -97 55.5 -172t144.5 -108v-60h-271v64h152q-70 41 -113 115.5t-43 160.5q0 150 100 249t249 99q150 0 250 -99t100 -249zM-115 507
q-16 0 -27 9.5t-11 26.5q0 18 12.5 28t30.5 10q33 0 54.5 -25t21.5 -64q0 -73 -90 -102l-12 35q54 18 54 57q0 17 -15 32q-10 -7 -18 -7zM-48 657q25 0 42 26l32 -25q-26 -47 -75 -47q-20 0 -49 11q-31 11 -49 11q-27 0 -42 -26l-34 25q27 48 77 48q17 0 48 -11
q34 -12 50 -12z" />
    <glyph glyph-name="uni1F6F" unicode="&#x1f6f;" 
d="M753 340q0 -86 -43.5 -161t-113.5 -115h152v-64h-271v60q89 33 145 108t56 172q0 120 -78.5 201.5t-196.5 81.5t-196 -81t-78 -202q0 -97 55.5 -172t144.5 -108v-60h-271v64h152q-70 41 -113 115.5t-43 160.5q0 150 100 249t249 99q150 0 250 -99t100 -249zM-77 508
q-7 0 -18 7q-15 -15 -15 -32q0 -39 54 -57l-12 -35q-90 29 -90 102q0 39 21.5 64t54.5 25q18 0 30.5 -10t12.5 -28q0 -17 -11 -26.5t-27 -9.5zM-48 658q25 0 42 26l32 -25q-26 -47 -75 -47q-20 0 -49 11q-31 11 -49 11q-27 0 -42 -26l-34 25q27 48 77 48q17 0 48 -11
q34 -12 50 -12z" />
    <glyph glyph-name="uni1F70" unicode="&#x1f70;" horiz-adv-x="570" 
d="M263 54q66 0 106.5 43t40.5 111q0 67 -40.5 110t-106.5 43q-64 0 -103 -42.5t-39 -110.5t38.5 -111t103.5 -43zM503 -3q-43 0 -68 24.5t-25 63.5v6q-21 -45 -65 -72t-98 -27q-85 0 -142 61.5t-57 154.5q0 92 57 153.5t141 61.5q56 0 98 -26.5t65 -71.5l-2 89h70v-301
q0 -57 43 -57h18v-57q-10 -2 -35 -2zM240 681l64 -182h-55l-90 182h81z" />
    <glyph glyph-name="uni1F71" unicode="&#x1f71;" horiz-adv-x="570" 
d="M263 54q66 0 106.5 43t40.5 111q0 67 -40.5 110t-106.5 43q-64 0 -103 -42.5t-39 -110.5t38.5 -111t103.5 -43zM503 -3q-43 0 -68 24.5t-25 63.5v6q-21 -45 -65 -72t-98 -27q-85 0 -142 61.5t-57 154.5q0 92 57 153.5t141 61.5q56 0 98 -26.5t65 -71.5l-2 89h70v-301
q0 -57 43 -57h18v-57q-10 -2 -35 -2zM234 498l64 182h81l-90 -182h-55z" />
    <glyph glyph-name="uni1F72" unicode="&#x1f72;" horiz-adv-x="470" 
d="M146 219q-34 7 -56 31.5t-22 54.5q0 58 50 88t125 30q113 0 184 -71l-40 -44q-56 56 -140 56q-108 0 -108 -69q0 -23 22.5 -39.5t46.5 -16.5h92v-47h-92q-33 0 -59 -16t-26 -50q0 -75 115 -75q93 0 159 61l38 -44q-79 -76 -208 -76q-82 0 -129 31.5t-47 88.5
q0 42 25.5 69.5t69.5 37.5zM198 681l64 -182h-55l-90 182h81z" />
    <glyph glyph-name="uni1F73" unicode="&#x1f73;" horiz-adv-x="470" 
d="M146 219q-34 7 -56 31.5t-22 54.5q0 58 50 88t125 30q113 0 184 -71l-40 -44q-56 56 -140 56q-108 0 -108 -69q0 -23 22.5 -39.5t46.5 -16.5h92v-47h-92q-33 0 -59 -16t-26 -50q0 -75 115 -75q93 0 159 61l38 -44q-79 -76 -208 -76q-82 0 -129 31.5t-47 88.5
q0 42 25.5 69.5t69.5 37.5zM220 498l64 182h81l-90 -182h-55z" />
    <glyph glyph-name="uni1F74" unicode="&#x1f74;" horiz-adv-x="516" 
d="M74 0v414h70l-2 -84q20 44 59.5 68.5t90.5 24.5q69 0 111.5 -45.5t42.5 -125.5v-464h-70v456q0 115 -103 115q-58 0 -93.5 -35t-35.5 -96v-228h-70zM203 681l64 -182h-55l-90 182h81z" />
    <glyph glyph-name="uni1F75" unicode="&#x1f75;" horiz-adv-x="516" 
d="M74 0v414h70l-2 -84q20 44 59.5 68.5t90.5 24.5q69 0 111.5 -45.5t42.5 -125.5v-464h-70v456q0 115 -103 115q-58 0 -93.5 -35t-35.5 -96v-228h-70zM220 498l64 182h81l-90 -182h-55z" />
    <glyph glyph-name="uni1F76" unicode="&#x1f76;" horiz-adv-x="243" 
d="M76 103v311h70v-302q0 -56 44 -56h18v-57q-11 -1 -36 -1q-45 0 -70.5 26.5t-25.5 78.5zM77 681l64 -182h-55l-90 182h81z" />
    <glyph glyph-name="uni1F77" unicode="&#x1f77;" horiz-adv-x="243" 
d="M76 103v311h70v-302q0 -56 44 -56h18v-57q-11 -1 -36 -1q-45 0 -70.5 26.5t-25.5 78.5zM91 498l64 182h81l-90 -182h-55z" />
    <glyph glyph-name="uni1F78" unicode="&#x1f78;" horiz-adv-x="534" 
d="M268 -8q-93 0 -157 62t-64 153t64 153.5t157 62.5q92 0 155 -62.5t63 -153.5t-63 -153t-155 -62zM268 52q65 0 105.5 44t40.5 111q0 68 -40.5 111.5t-105.5 43.5q-66 0 -107.5 -44t-41.5 -111t41.5 -111t107.5 -44zM229 681l64 -182h-55l-90 182h81z" />
    <glyph glyph-name="uni1F79" unicode="&#x1f79;" horiz-adv-x="534" 
d="M268 -8q-93 0 -157 62t-64 153t64 153.5t157 62.5q92 0 155 -62.5t63 -153.5t-63 -153t-155 -62zM268 52q65 0 105.5 44t40.5 111q0 68 -40.5 111.5t-105.5 43.5q-66 0 -107.5 -44t-41.5 -111t41.5 -111t107.5 -44zM237 498l64 182h81l-90 -182h-55z" />
    <glyph glyph-name="uni1F7A" unicode="&#x1f7a;" horiz-adv-x="486" 
d="M241 -9q-85 0 -133 50.5t-48 141.5v231h70v-228q0 -133 113 -133t113 133v228h70v-231q0 -90 -49.5 -141t-135.5 -51zM206 681l64 -182h-55l-90 182h81z" />
    <glyph glyph-name="uni1F7B" unicode="&#x1f7b;" horiz-adv-x="486" 
d="M241 -9q-85 0 -133 50.5t-48 141.5v231h70v-228q0 -133 113 -133t113 133v228h70v-231q0 -90 -49.5 -141t-135.5 -51zM215 498l64 182h81l-90 -182h-55z" />
    <glyph glyph-name="uni1F7C" unicode="&#x1f7c;" horiz-adv-x="635" 
d="M318 80q-12 -40 -42.5 -64t-70.5 -24q-79 0 -118 57.5t-39 139.5q0 87 47 153.5t137 80.5v-61q-58 -16 -85 -62.5t-27 -109.5q0 -58 21.5 -98t70.5 -40q30 0 50.5 23.5t20.5 59.5v146h70v-146q0 -36 21 -59.5t50 -23.5q49 0 70.5 40t21.5 98q0 63 -27.5 109.5t-84.5 62.5
v61q89 -14 136 -80.5t47 -153.5q0 -82 -38.5 -139.5t-117.5 -57.5q-41 0 -71 24t-42 64zM280 681l64 -182h-55l-90 182h81z" />
    <glyph glyph-name="uni1F7D" unicode="&#x1f7d;" horiz-adv-x="635" 
d="M318 80q-12 -40 -42.5 -64t-70.5 -24q-79 0 -118 57.5t-39 139.5q0 87 47 153.5t137 80.5v-61q-58 -16 -85 -62.5t-27 -109.5q0 -58 21.5 -98t70.5 -40q30 0 50.5 23.5t20.5 59.5v146h70v-146q0 -36 21 -59.5t50 -23.5q49 0 70.5 40t21.5 98q0 63 -27.5 109.5t-84.5 62.5
v61q89 -14 136 -80.5t47 -153.5q0 -82 -38.5 -139.5t-117.5 -57.5q-41 0 -71 24t-42 64zM284 498l64 182h81l-90 -182h-55z" />
    <glyph glyph-name="uni1F80" unicode="&#x1f80;" horiz-adv-x="570" 
d="M263 54q66 0 106.5 43t40.5 111q0 67 -40.5 110t-106.5 43q-64 0 -103 -42.5t-39 -110.5t38.5 -111t103.5 -43zM503 -3q-43 0 -68 24.5t-25 63.5v6q-21 -45 -65 -72t-98 -27q-85 0 -142 61.5t-57 154.5q0 92 57 153.5t141 61.5q56 0 98 -26.5t65 -71.5l-2 89h70v-301
q0 -57 43 -57h18v-57q-10 -2 -35 -2zM231 -118v60h67v-38q0 -31 11.5 -44t36.5 -13h13v-59h-28q-100 0 -100 94zM250 615q-16 0 -27 9.5t-11 26.5q0 18 12.5 28t30.5 10q33 0 54.5 -25t21.5 -64q0 -73 -90 -102l-12 35q54 18 54 57q0 17 -15 32q-11 -7 -18 -7z" />
    <glyph glyph-name="uni1F81" unicode="&#x1f81;" horiz-adv-x="570" 
d="M263 54q66 0 106.5 43t40.5 111q0 67 -40.5 110t-106.5 43q-64 0 -103 -42.5t-39 -110.5t38.5 -111t103.5 -43zM503 -3q-43 0 -68 24.5t-25 63.5v6q-21 -45 -65 -72t-98 -27q-85 0 -142 61.5t-57 154.5q0 92 57 153.5t141 61.5q56 0 98 -26.5t65 -71.5l-2 89h70v-301
q0 -57 43 -57h18v-57q-10 -2 -35 -2zM231 -118v60h67v-38q0 -31 11.5 -44t36.5 -13h13v-59h-28q-100 0 -100 94zM275 614q-7 0 -18 7q-15 -15 -15 -32q0 -39 54 -57l-12 -35q-90 29 -90 102q0 39 21.5 64t54.5 25q18 0 30.5 -10t12.5 -28q0 -17 -11 -26.5t-27 -9.5z" />
    <glyph glyph-name="uni1F82" unicode="&#x1f82;" horiz-adv-x="570" 
d="M263 54q66 0 106.5 43t40.5 111q0 67 -40.5 110t-106.5 43q-64 0 -103 -42.5t-39 -110.5t38.5 -111t103.5 -43zM503 -3q-43 0 -68 24.5t-25 63.5v6q-21 -45 -65 -72t-98 -27q-85 0 -142 61.5t-57 154.5q0 92 57 153.5t141 61.5q56 0 98 -26.5t65 -71.5l-2 89h70v-301
q0 -57 43 -57h18v-57q-10 -2 -35 -2zM231 -118v60h67v-38q0 -31 11.5 -44t36.5 -13h13v-59h-28q-100 0 -100 94zM163 613q-16 0 -27 9.5t-11 26.5q0 18 12.5 28t30.5 10q33 0 54.5 -25t21.5 -64q0 -73 -90 -102l-12 35q54 18 54 57q0 17 -15 32q-11 -7 -18 -7zM402 502
l-64 182h-81l90 -182h55z" />
    <glyph glyph-name="uni1F83" unicode="&#x1f83;" horiz-adv-x="570" 
d="M263 54q66 0 106.5 43t40.5 111q0 67 -40.5 110t-106.5 43q-64 0 -103 -42.5t-39 -110.5t38.5 -111t103.5 -43zM503 -3q-43 0 -68 24.5t-25 63.5v6q-21 -45 -65 -72t-98 -27q-85 0 -142 61.5t-57 154.5q0 92 57 153.5t141 61.5q56 0 98 -26.5t65 -71.5l-2 89h70v-301
q0 -57 43 -57h18v-57q-10 -2 -35 -2zM231 -118v60h67v-38q0 -31 11.5 -44t36.5 -13h13v-59h-28q-100 0 -100 94zM188 613q-8 0 -18 7q-15 -15 -15 -32q0 -39 54 -57l-12 -35q-90 29 -90 102q0 39 21.5 64t54.5 25q18 0 30.5 -10t12.5 -28q0 -17 -11 -26.5t-27 -9.5zM393 502
l-64 182h-81l90 -182h55z" />
    <glyph glyph-name="uni1F84" unicode="&#x1f84;" horiz-adv-x="570" 
d="M263 54q66 0 106.5 43t40.5 111q0 67 -40.5 110t-106.5 43q-64 0 -103 -42.5t-39 -110.5t38.5 -111t103.5 -43zM503 -3q-43 0 -68 24.5t-25 63.5v6q-21 -45 -65 -72t-98 -27q-85 0 -142 61.5t-57 154.5q0 92 57 153.5t141 61.5q56 0 98 -26.5t65 -71.5l-2 89h70v-301
q0 -57 43 -57h18v-57q-10 -2 -35 -2zM231 -118v60h67v-38q0 -31 11.5 -44t36.5 -13h13v-59h-28q-100 0 -100 94zM198 613q-16 0 -27 9.5t-11 26.5q0 18 12.5 28t30.5 10q33 0 54.5 -25t21.5 -64q0 -73 -90 -102l-12 35q54 18 54 57q0 17 -15 32q-10 -7 -18 -7zM356 684
l-64 -182h55l90 182h-81z" />
    <glyph glyph-name="uni1F85" unicode="&#x1f85;" horiz-adv-x="570" 
d="M263 54q66 0 106.5 43t40.5 111q0 67 -40.5 110t-106.5 43q-64 0 -103 -42.5t-39 -110.5t38.5 -111t103.5 -43zM503 -3q-43 0 -68 24.5t-25 63.5v6q-21 -45 -65 -72t-98 -27q-85 0 -142 61.5t-57 154.5q0 92 57 153.5t141 61.5q56 0 98 -26.5t65 -71.5l-2 89h70v-301
q0 -57 43 -57h18v-57q-10 -2 -35 -2zM231 -118v60h67v-38q0 -31 11.5 -44t36.5 -13h13v-59h-28q-100 0 -100 94zM231 614q-7 0 -18 7q-15 -15 -15 -32q0 -39 54 -57l-12 -35q-90 29 -90 102q0 39 21.5 64t54.5 25q18 0 30.5 -10t12.5 -28q0 -17 -11 -26.5t-27 -9.5zM344 685
l-64 -182h55l90 182h-81z" />
    <glyph glyph-name="uni1F86" unicode="&#x1f86;" horiz-adv-x="570" 
d="M263 54q66 0 106.5 43t40.5 111q0 67 -40.5 110t-106.5 43q-64 0 -103 -42.5t-39 -110.5t38.5 -111t103.5 -43zM503 -3q-43 0 -68 24.5t-25 63.5v6q-21 -45 -65 -72t-98 -27q-85 0 -142 61.5t-57 154.5q0 92 57 153.5t141 61.5q56 0 98 -26.5t65 -71.5l-2 89h70v-301
q0 -57 43 -57h18v-57q-10 -2 -35 -2zM231 -118v60h67v-38q0 -31 11.5 -44t36.5 -13h13v-59h-28q-100 0 -100 94zM249 615q-16 0 -27 9.5t-11 26.5q0 18 12.5 28t30.5 10q33 0 54.5 -25t21.5 -64q0 -73 -90 -102l-12 35q54 18 54 57q0 17 -15 32q-11 -7 -18 -7zM316 765
q25 0 42 26l32 -25q-26 -47 -75 -47q-20 0 -49 11q-31 11 -49 11q-27 0 -42 -26l-34 25q27 48 77 48q17 0 48 -11q34 -12 50 -12z" />
    <glyph glyph-name="uni1F87" unicode="&#x1f87;" horiz-adv-x="570" 
d="M263 54q66 0 106.5 43t40.5 111q0 67 -40.5 110t-106.5 43q-64 0 -103 -42.5t-39 -110.5t38.5 -111t103.5 -43zM503 -3q-43 0 -68 24.5t-25 63.5v6q-21 -45 -65 -72t-98 -27q-85 0 -142 61.5t-57 154.5q0 92 57 153.5t141 61.5q56 0 98 -26.5t65 -71.5l-2 89h70v-301
q0 -57 43 -57h18v-57q-10 -2 -35 -2zM231 -118v60h67v-38q0 -31 11.5 -44t36.5 -13h13v-59h-28q-100 0 -100 94zM273 614q-7 0 -18 7q-15 -15 -15 -32q0 -39 54 -57l-12 -35q-90 29 -90 102q0 39 21.5 64t54.5 25q18 0 30.5 -10t12.5 -28q0 -17 -11 -26.5t-27 -9.5zM302 764
q25 0 42 26l32 -25q-26 -47 -75 -47q-20 0 -49 11q-31 11 -49 11q-27 0 -42 -26l-34 25q27 48 77 48q17 0 48 -11q34 -12 50 -12z" />
    <glyph glyph-name="uni1F88" unicode="&#x1f88;" horiz-adv-x="656" 
d="M194 215h262l-105 260q-6 14 -12.5 34t-10 33t-3.5 14l-4 -14q-4 -13 -10.5 -32.5t-12.5 -33.5zM37 0l282 687h12l288 -687h-76l-62 153h-312l-61 -153h-71zM294 -118v60h67v-38q0 -31 11.5 -44t36.5 -13h13v-59h-28q-100 0 -100 94zM73 606q-16 0 -27 9.5t-11 26.5
q0 18 12.5 28t30.5 10q33 0 54.5 -25t21.5 -64q0 -73 -90 -102l-12 35q54 18 54 57q0 17 -15 32q-11 -7 -18 -7z" />
    <glyph glyph-name="uni1F89" unicode="&#x1f89;" horiz-adv-x="656" 
d="M194 215h262l-105 260q-6 14 -12.5 34t-10 33t-3.5 14l-4 -14q-4 -13 -10.5 -32.5t-12.5 -33.5zM37 0l282 687h12l288 -687h-76l-62 153h-312l-61 -153h-71zM294 -118v60h67v-38q0 -31 11.5 -44t36.5 -13h13v-59h-28q-100 0 -100 94zM116 606q-8 0 -18 7q-15 -15 -15 -32
q0 -39 54 -57l-12 -35q-90 29 -90 102q0 39 21.5 64t54.5 25q18 0 30.5 -10t12.5 -28q0 -17 -11 -26.5t-27 -9.5z" />
    <glyph glyph-name="uni1F8A" unicode="&#x1f8a;" horiz-adv-x="656" 
d="M194 215h262l-105 260q-6 14 -12.5 34t-10 33t-3.5 14l-4 -14q-4 -13 -10.5 -32.5t-12.5 -33.5zM37 0l282 687h12l288 -687h-76l-62 153h-312l-61 -153h-71zM294 -118v60h67v-38q0 -31 11.5 -44t36.5 -13h13v-59h-28q-100 0 -100 94zM-94 606q-16 0 -27 9.5t-11 26.5
q0 18 12.5 28t30.5 10q33 0 54.5 -25t21.5 -64q0 -73 -90 -102l-12 35q54 18 54 57q0 17 -15 32q-10 -7 -18 -7zM145 495l-64 182h-81l90 -182h55z" />
    <glyph glyph-name="uni1F8B" unicode="&#x1f8b;" horiz-adv-x="656" 
d="M194 215h262l-105 260q-6 14 -12.5 34t-10 33t-3.5 14l-4 -14q-4 -13 -10.5 -32.5t-12.5 -33.5zM37 0l282 687h12l288 -687h-76l-62 153h-312l-61 -153h-71zM294 -118v60h67v-38q0 -31 11.5 -44t36.5 -13h13v-59h-28q-100 0 -100 94zM-58 606q-8 0 -18 7q-15 -15 -15 -32
q0 -39 54 -57l-12 -35q-90 29 -90 102q0 39 21.5 64t54.5 25q18 0 30.5 -10t12.5 -28q0 -17 -11 -26.5t-27 -9.5zM147 495l-64 182h-81l90 -182h55z" />
    <glyph glyph-name="uni1F8C" unicode="&#x1f8c;" horiz-adv-x="656" 
d="M194 215h262l-105 260q-6 14 -12.5 34t-10 33t-3.5 14l-4 -14q-4 -13 -10.5 -32.5t-12.5 -33.5zM37 0l282 687h12l288 -687h-76l-62 153h-312l-61 -153h-71zM294 -118v60h67v-38q0 -31 11.5 -44t36.5 -13h13v-59h-28q-100 0 -100 94zM-67 606q-16 0 -27 9.5t-11 26.5
q0 18 12.5 28t30.5 10q33 0 54.5 -25t21.5 -64q0 -73 -90 -102l-12 35q54 18 54 57q0 17 -15 32q-10 -7 -18 -7zM91 677l-64 -182h55l90 182h-81z" />
    <glyph glyph-name="uni1F8D" unicode="&#x1f8d;" horiz-adv-x="656" 
d="M192 215h262l-105 260q-6 14 -12.5 34t-10 33t-3.5 14l-4 -14q-4 -13 -10.5 -32.5t-12.5 -33.5zM35 0l282 687h12l288 -687h-76l-62 153h-312l-61 -153h-71zM292 -118v60h67v-38q0 -31 11.5 -44t36.5 -13h13v-59h-28q-100 0 -100 94zM-24 606q-8 0 -18 7q-15 -15 -15 -32
q0 -39 54 -57l-12 -35q-90 29 -90 102q0 39 21.5 64t54.5 25q18 0 30.5 -10t12.5 -28q0 -17 -11 -26.5t-27 -9.5zM89 677l-64 -182h55l90 182h-81z" />
    <glyph glyph-name="uni1F8E" unicode="&#x1f8e;" horiz-adv-x="656" 
d="M194 215h262l-105 260q-6 14 -12.5 34t-10 33t-3.5 14l-4 -14q-4 -13 -10.5 -32.5t-12.5 -33.5zM37 0l282 687h12l288 -687h-76l-62 153h-312l-61 -153h-71zM294 -118v60h67v-38q0 -31 11.5 -44t36.5 -13h13v-59h-28q-100 0 -100 94zM32 507q-16 0 -27 9.5t-11 26.5
q0 18 12.5 28t30.5 10q33 0 54.5 -25t21.5 -64q0 -73 -90 -102l-12 35q54 18 54 57q0 17 -15 32q-11 -7 -18 -7zM99 657q25 0 42 26l32 -25q-26 -47 -75 -47q-20 0 -49 11q-31 11 -49 11q-27 0 -42 -26l-34 25q27 48 77 48q17 0 48 -11q34 -12 50 -12z" />
    <glyph glyph-name="uni1F8F" unicode="&#x1f8f;" horiz-adv-x="656" 
d="M194 215h262l-105 260q-6 14 -12.5 34t-10 33t-3.5 14l-4 -14q-4 -13 -10.5 -32.5t-12.5 -33.5zM37 0l282 687h12l288 -687h-76l-62 153h-312l-61 -153h-71zM294 -118v60h67v-38q0 -31 11.5 -44t36.5 -13h13v-59h-28q-100 0 -100 94zM70 508q-8 0 -18 7q-15 -15 -15 -32
q0 -39 54 -57l-12 -35q-90 29 -90 102q0 39 21.5 64t54.5 25q18 0 30.5 -10t12.5 -28q0 -17 -11 -26.5t-27 -9.5zM99 658q25 0 42 26l32 -25q-26 -47 -75 -47q-20 0 -49 11q-31 11 -49 11q-27 0 -42 -26l-34 25q27 48 77 48q17 0 48 -11q34 -12 50 -12z" />
    <glyph glyph-name="uni1F90" unicode="&#x1f90;" horiz-adv-x="516" 
d="M74 0v414h70l-2 -84q20 44 59.5 68.5t90.5 24.5q69 0 111.5 -45.5t42.5 -125.5v-464h-70v456q0 115 -103 115q-58 0 -93.5 -35t-35.5 -96v-228h-70zM75 -118v60h67v-38q0 -31 11.5 -44t36.5 -13h13v-59h-28q-100 0 -100 94zM218 615q-16 0 -27 9.5t-11 26.5q0 18 12.5 28
t30.5 10q33 0 54.5 -25t21.5 -64q0 -73 -90 -102l-12 35q54 18 54 57q0 17 -15 32q-11 -7 -18 -7z" />
    <glyph glyph-name="uni1F91" unicode="&#x1f91;" horiz-adv-x="516" 
d="M74 0v414h70l-2 -84q20 44 59.5 68.5t90.5 24.5q69 0 111.5 -45.5t42.5 -125.5v-464h-70v456q0 115 -103 115q-58 0 -93.5 -35t-35.5 -96v-228h-70zM75 -118v60h67v-38q0 -31 11.5 -44t36.5 -13h13v-59h-28q-100 0 -100 94zM259 614q-7 0 -18 7q-15 -15 -15 -32
q0 -39 54 -57l-12 -35q-90 29 -90 102q0 39 21.5 64t54.5 25q18 0 30.5 -10t12.5 -28q0 -17 -11 -26.5t-27 -9.5z" />
    <glyph glyph-name="uni1F92" unicode="&#x1f92;" horiz-adv-x="516" 
d="M74 0v414h70l-2 -84q20 44 59.5 68.5t90.5 24.5q69 0 111.5 -45.5t42.5 -125.5v-464h-70v456q0 115 -103 115q-58 0 -93.5 -35t-35.5 -96v-228h-70zM75 -118v60h67v-38q0 -31 11.5 -44t36.5 -13h13v-59h-28q-100 0 -100 94zM147 613q-16 0 -27 9.5t-11 26.5q0 18 12.5 28
t30.5 10q33 0 54.5 -25t21.5 -64q0 -73 -90 -102l-12 35q54 18 54 57q0 17 -15 32q-11 -7 -18 -7zM386 502l-64 182h-81l90 -182h55z" />
    <glyph glyph-name="uni1F93" unicode="&#x1f93;" horiz-adv-x="516" 
d="M74 0v414h70l-2 -84q20 44 59.5 68.5t90.5 24.5q69 0 111.5 -45.5t42.5 -125.5v-464h-70v456q0 115 -103 115q-58 0 -93.5 -35t-35.5 -96v-228h-70zM75 -118v60h67v-38q0 -31 11.5 -44t36.5 -13h13v-59h-28q-100 0 -100 94zM172 613q-8 0 -18 7q-15 -15 -15 -32
q0 -39 54 -57l-12 -35q-90 29 -90 102q0 39 21.5 64t54.5 25q18 0 30.5 -10t12.5 -28q0 -17 -11 -26.5t-27 -9.5zM377 502l-64 182h-81l90 -182h55z" />
    <glyph glyph-name="uni1F94" unicode="&#x1f94;" horiz-adv-x="516" 
d="M74 0v414h70l-2 -84q20 44 59.5 68.5t90.5 24.5q69 0 111.5 -45.5t42.5 -125.5v-464h-70v456q0 115 -103 115q-58 0 -93.5 -35t-35.5 -96v-228h-70zM75 -118v60h67v-38q0 -31 11.5 -44t36.5 -13h13v-59h-28q-100 0 -100 94zM166 613q-16 0 -27 9.5t-11 26.5q0 18 12.5 28
t30.5 10q33 0 54.5 -25t21.5 -64q0 -73 -90 -102l-12 35q54 18 54 57q0 17 -15 32q-11 -7 -18 -7zM324 684l-64 -182h55l90 182h-81z" />
    <glyph glyph-name="uni1F95" unicode="&#x1f95;" horiz-adv-x="516" 
d="M74 0v414h70l-2 -84q20 44 59.5 68.5t90.5 24.5q69 0 111.5 -45.5t42.5 -125.5v-464h-70v456q0 115 -103 115q-58 0 -93.5 -35t-35.5 -96v-228h-70zM75 -118v60h67v-38q0 -31 11.5 -44t36.5 -13h13v-59h-28q-100 0 -100 94zM204 614q-8 0 -18 7q-15 -15 -15 -32
q0 -39 54 -57l-12 -35q-90 29 -90 102q0 39 21.5 64t54.5 25q18 0 30.5 -10t12.5 -28q0 -17 -11 -26.5t-27 -9.5zM317 685l-64 -182h55l90 182h-81z" />
    <glyph glyph-name="uni1F96" unicode="&#x1f96;" horiz-adv-x="516" 
d="M74 0v414h70l-2 -84q20 44 59.5 68.5t90.5 24.5q69 0 111.5 -45.5t42.5 -125.5v-464h-70v456q0 115 -103 115q-58 0 -93.5 -35t-35.5 -96v-228h-70zM75 -118v60h67v-38q0 -31 11.5 -44t36.5 -13h13v-59h-28q-100 0 -100 94zM215 615q-16 0 -27 9.5t-11 26.5q0 18 12.5 28
t30.5 10q33 0 54.5 -25t21.5 -64q0 -73 -90 -102l-12 35q54 18 54 57q0 17 -15 32q-11 -7 -18 -7zM282 765q25 0 42 26l32 -25q-26 -47 -75 -47q-20 0 -49 11q-31 11 -49 11q-27 0 -42 -26l-34 25q27 48 77 48q17 0 48 -11q34 -12 50 -12z" />
    <glyph glyph-name="uni1F97" unicode="&#x1f97;" horiz-adv-x="516" 
d="M74 0v414h70l-2 -84q20 44 59.5 68.5t90.5 24.5q69 0 111.5 -45.5t42.5 -125.5v-464h-70v456q0 115 -103 115q-58 0 -93.5 -35t-35.5 -96v-228h-70zM75 -118v60h67v-38q0 -31 11.5 -44t36.5 -13h13v-59h-28q-100 0 -100 94zM257 614q-8 0 -18 7q-15 -15 -15 -32
q0 -39 54 -57l-12 -35q-90 29 -90 102q0 39 21.5 64t54.5 25q18 0 30.5 -10t12.5 -28q0 -17 -11 -26.5t-27 -9.5zM286 764q25 0 42 26l32 -25q-26 -47 -75 -47q-20 0 -49 11q-31 11 -49 11q-27 0 -42 -26l-34 25q27 48 77 48q17 0 48 -11q34 -12 50 -12z" />
    <glyph glyph-name="uni1F98" unicode="&#x1f98;" horiz-adv-x="694" 
d="M93 0v680h72v-317h364v317h72v-680h-72v298h-364v-298h-72zM307 -118v60h67v-38q0 -31 11.5 -44t36.5 -13h13v-59h-28q-100 0 -100 94zM-67 606q-16 0 -27 9.5t-11 26.5q0 18 12.5 28t30.5 10q33 0 54.5 -25t21.5 -64q0 -73 -90 -102l-12 35q54 18 54 57q0 17 -15 32
q-10 -7 -18 -7z" />
    <glyph glyph-name="uni1F99" unicode="&#x1f99;" horiz-adv-x="694" 
d="M93 0v680h72v-317h364v317h72v-680h-72v298h-364v-298h-72zM307 -118v60h67v-38q0 -31 11.5 -44t36.5 -13h13v-59h-28q-100 0 -100 94zM-24 606q-8 0 -18 7q-15 -15 -15 -32q0 -39 54 -57l-12 -35q-90 29 -90 102q0 39 21.5 64t54.5 25q18 0 30.5 -10t12.5 -28
q0 -17 -11 -26.5t-27 -9.5z" />
    <glyph glyph-name="uni1F9A" unicode="&#x1f9a;" horiz-adv-x="694" 
d="M93 0v680h72v-317h364v317h72v-680h-72v298h-364v-298h-72zM307 -118v60h67v-38q0 -31 11.5 -44t36.5 -13h13v-59h-28q-100 0 -100 94zM-224 606q-16 0 -27 9.5t-11 26.5q0 18 12.5 28t30.5 10q33 0 54.5 -25t21.5 -64q0 -73 -90 -102l-12 35q54 18 54 57q0 17 -15 32
q-10 -7 -18 -7zM15 495l-64 182h-81l90 -182h55z" />
    <glyph glyph-name="uni1F9B" unicode="&#x1f9b;" horiz-adv-x="694" 
d="M93 0v680h72v-317h364v317h72v-680h-72v298h-364v-298h-72zM307 -118v60h67v-38q0 -31 11.5 -44t36.5 -13h13v-59h-28q-100 0 -100 94zM-188 606q-7 0 -18 7q-15 -15 -15 -32q0 -39 54 -57l-12 -35q-90 29 -90 102q0 39 21.5 64t54.5 25q18 0 30.5 -10t12.5 -28
q0 -17 -11 -26.5t-27 -9.5zM17 495l-64 182h-81l90 -182h55z" />
    <glyph glyph-name="uni1F9C" unicode="&#x1f9c;" horiz-adv-x="694" 
d="M93 0v680h72v-317h364v317h72v-680h-72v298h-364v-298h-72zM307 -118v60h67v-38q0 -31 11.5 -44t36.5 -13h13v-59h-28q-100 0 -100 94zM-227 606q-16 0 -27 9.5t-11 26.5q0 18 12.5 28t30.5 10q33 0 54.5 -25t21.5 -64q0 -73 -90 -102l-12 35q54 18 54 57q0 17 -15 32
q-10 -7 -18 -7zM-69 677l-64 -182h55l90 182h-81z" />
    <glyph glyph-name="uni1F9D" unicode="&#x1f9d;" horiz-adv-x="694" 
d="M91 0v680h72v-317h364v317h72v-680h-72v298h-364v-298h-72zM305 -118v60h67v-38q0 -31 11.5 -44t36.5 -13h13v-59h-28q-100 0 -100 94zM-184 606q-8 0 -18 7q-15 -15 -15 -32q0 -39 54 -57l-12 -35q-90 29 -90 102q0 39 21.5 64t54.5 25q18 0 30.5 -10t12.5 -28
q0 -17 -11 -26.5t-27 -9.5zM-71 677l-64 -182h55l90 182h-81z" />
    <glyph glyph-name="uni1F9E" unicode="&#x1f9e;" horiz-adv-x="694" 
d="M93 0v680h72v-317h364v317h72v-680h-72v298h-364v-298h-72zM307 -118v60h67v-38q0 -31 11.5 -44t36.5 -13h13v-59h-28q-100 0 -100 94zM-128 507q-16 0 -27 9.5t-11 26.5q0 18 12.5 28t30.5 10q33 0 54.5 -25t21.5 -64q0 -73 -90 -102l-12 35q54 18 54 57q0 17 -15 32
q-11 -7 -18 -7zM-61 657q25 0 42 26l32 -25q-26 -47 -75 -47q-20 0 -49 11q-31 11 -49 11q-27 0 -42 -26l-34 25q27 48 77 48q17 0 48 -11q34 -12 50 -12z" />
    <glyph glyph-name="uni1F9F" unicode="&#x1f9f;" horiz-adv-x="694" 
d="M93 0v680h72v-317h364v317h72v-680h-72v298h-364v-298h-72zM307 -118v60h67v-38q0 -31 11.5 -44t36.5 -13h13v-59h-28q-100 0 -100 94zM-90 508q-8 0 -18 7q-15 -15 -15 -32q0 -39 54 -57l-12 -35q-90 29 -90 102q0 39 21.5 64t54.5 25q18 0 30.5 -10t12.5 -28
q0 -17 -11 -26.5t-27 -9.5zM-61 658q25 0 42 26l32 -25q-26 -47 -75 -47q-20 0 -49 11q-31 11 -49 11q-27 0 -42 -26l-34 25q27 48 77 48q17 0 48 -11q34 -12 50 -12z" />
    <glyph glyph-name="uni1FA0" unicode="&#x1fa0;" horiz-adv-x="635" 
d="M318 80q-12 -40 -42.5 -64t-70.5 -24q-79 0 -118 57.5t-39 139.5q0 87 47 153.5t137 80.5v-61q-58 -16 -85 -62.5t-27 -109.5q0 -58 21.5 -98t70.5 -40q30 0 50.5 23.5t20.5 59.5v146h70v-146q0 -36 21 -59.5t50 -23.5q49 0 70.5 40t21.5 98q0 63 -27.5 109.5t-84.5 62.5
v61q89 -14 136 -80.5t47 -153.5q0 -82 -38.5 -139.5t-117.5 -57.5q-41 0 -71 24t-42 64zM279 -118v60h67v-38q0 -31 11.5 -44t36.5 -13h13v-59h-28q-100 0 -100 94zM295 615q-16 0 -27 9.5t-11 26.5q0 18 12.5 28t30.5 10q33 0 54.5 -25t21.5 -64q0 -73 -90 -102l-12 35
q54 18 54 57q0 17 -15 32q-11 -7 -18 -7z" />
    <glyph glyph-name="uni1FA1" unicode="&#x1fa1;" horiz-adv-x="635" 
d="M318 80q-12 -40 -42.5 -64t-70.5 -24q-79 0 -118 57.5t-39 139.5q0 87 47 153.5t137 80.5v-61q-58 -16 -85 -62.5t-27 -109.5q0 -58 21.5 -98t70.5 -40q30 0 50.5 23.5t20.5 59.5v146h70v-146q0 -36 21 -59.5t50 -23.5q49 0 70.5 40t21.5 98q0 63 -27.5 109.5t-84.5 62.5
v61q89 -14 136 -80.5t47 -153.5q0 -82 -38.5 -139.5t-117.5 -57.5q-41 0 -71 24t-42 64zM279 -118v60h67v-38q0 -31 11.5 -44t36.5 -13h13v-59h-28q-100 0 -100 94zM336 614q-8 0 -18 7q-15 -15 -15 -32q0 -39 54 -57l-12 -35q-90 29 -90 102q0 39 21.5 64t54.5 25
q18 0 30.5 -10t12.5 -28q0 -17 -11 -26.5t-27 -9.5z" />
    <glyph glyph-name="uni1FA2" unicode="&#x1fa2;" horiz-adv-x="635" 
d="M318 80q-12 -40 -42.5 -64t-70.5 -24q-79 0 -118 57.5t-39 139.5q0 87 47 153.5t137 80.5v-61q-58 -16 -85 -62.5t-27 -109.5q0 -58 21.5 -98t70.5 -40q30 0 50.5 23.5t20.5 59.5v146h70v-146q0 -36 21 -59.5t50 -23.5q49 0 70.5 40t21.5 98q0 63 -27.5 109.5t-84.5 62.5
v61q89 -14 136 -80.5t47 -153.5q0 -82 -38.5 -139.5t-117.5 -57.5q-41 0 -71 24t-42 64zM279 -118v60h67v-38q0 -31 11.5 -44t36.5 -13h13v-59h-28q-100 0 -100 94zM224 613q-16 0 -27 9.5t-11 26.5q0 18 12.5 28t30.5 10q33 0 54.5 -25t21.5 -64q0 -73 -90 -102l-12 35
q54 18 54 57q0 17 -15 32q-11 -7 -18 -7zM463 502l-64 182h-81l90 -182h55z" />
    <glyph glyph-name="uni1FA3" unicode="&#x1fa3;" horiz-adv-x="635" 
d="M318 80q-12 -40 -42.5 -64t-70.5 -24q-79 0 -118 57.5t-39 139.5q0 87 47 153.5t137 80.5v-61q-58 -16 -85 -62.5t-27 -109.5q0 -58 21.5 -98t70.5 -40q30 0 50.5 23.5t20.5 59.5v146h70v-146q0 -36 21 -59.5t50 -23.5q49 0 70.5 40t21.5 98q0 63 -27.5 109.5t-84.5 62.5
v61q89 -14 136 -80.5t47 -153.5q0 -82 -38.5 -139.5t-117.5 -57.5q-41 0 -71 24t-42 64zM279 -118v60h67v-38q0 -31 11.5 -44t36.5 -13h13v-59h-28q-100 0 -100 94zM249 613q-7 0 -18 7q-15 -15 -15 -32q0 -39 54 -57l-12 -35q-90 29 -90 102q0 39 21.5 64t54.5 25
q18 0 30.5 -10t12.5 -28q0 -17 -11 -26.5t-27 -9.5zM454 502l-64 182h-81l90 -182h55z" />
    <glyph glyph-name="uni1FA4" unicode="&#x1fa4;" horiz-adv-x="635" 
d="M318 80q-12 -40 -42.5 -64t-70.5 -24q-79 0 -118 57.5t-39 139.5q0 87 47 153.5t137 80.5v-61q-58 -16 -85 -62.5t-27 -109.5q0 -58 21.5 -98t70.5 -40q30 0 50.5 23.5t20.5 59.5v146h70v-146q0 -36 21 -59.5t50 -23.5q49 0 70.5 40t21.5 98q0 63 -27.5 109.5t-84.5 62.5
v61q89 -14 136 -80.5t47 -153.5q0 -82 -38.5 -139.5t-117.5 -57.5q-41 0 -71 24t-42 64zM279 -118v60h67v-38q0 -31 11.5 -44t36.5 -13h13v-59h-28q-100 0 -100 94zM243 613q-16 0 -27 9.5t-11 26.5q0 18 12.5 28t30.5 10q33 0 54.5 -25t21.5 -64q0 -73 -90 -102l-12 35
q54 18 54 57q0 17 -15 32q-11 -7 -18 -7zM401 684l-64 -182h55l90 182h-81z" />
    <glyph glyph-name="uni1FA5" unicode="&#x1fa5;" horiz-adv-x="635" 
d="M318 80q-12 -40 -42.5 -64t-70.5 -24q-79 0 -118 57.5t-39 139.5q0 87 47 153.5t137 80.5v-61q-58 -16 -85 -62.5t-27 -109.5q0 -58 21.5 -98t70.5 -40q30 0 50.5 23.5t20.5 59.5v146h70v-146q0 -36 21 -59.5t50 -23.5q49 0 70.5 40t21.5 98q0 63 -27.5 109.5t-84.5 62.5
v61q89 -14 136 -80.5t47 -153.5q0 -82 -38.5 -139.5t-117.5 -57.5q-41 0 -71 24t-42 64zM279 -118v60h67v-38q0 -31 11.5 -44t36.5 -13h13v-59h-28q-100 0 -100 94zM281 614q-7 0 -18 7q-15 -15 -15 -32q0 -39 54 -57l-12 -35q-90 29 -90 102q0 39 21.5 64t54.5 25
q18 0 30.5 -10t12.5 -28q0 -17 -11 -26.5t-27 -9.5zM394 685l-64 -182h55l90 182h-81z" />
    <glyph glyph-name="uni1FA6" unicode="&#x1fa6;" horiz-adv-x="635" 
d="M318 80q-12 -40 -42.5 -64t-70.5 -24q-79 0 -118 57.5t-39 139.5q0 87 47 153.5t137 80.5v-61q-58 -16 -85 -62.5t-27 -109.5q0 -58 21.5 -98t70.5 -40q30 0 50.5 23.5t20.5 59.5v146h70v-146q0 -36 21 -59.5t50 -23.5q49 0 70.5 40t21.5 98q0 63 -27.5 109.5t-84.5 62.5
v61q89 -14 136 -80.5t47 -153.5q0 -82 -38.5 -139.5t-117.5 -57.5q-41 0 -71 24t-42 64zM279 -118v60h67v-38q0 -31 11.5 -44t36.5 -13h13v-59h-28q-100 0 -100 94zM292 615q-16 0 -27 9.5t-11 26.5q0 18 12.5 28t30.5 10q33 0 54.5 -25t21.5 -64q0 -73 -90 -102l-12 35
q54 18 54 57q0 17 -15 32q-11 -7 -18 -7zM359 765q25 0 42 26l32 -25q-26 -47 -75 -47q-20 0 -49 11q-31 11 -49 11q-27 0 -42 -26l-34 25q27 48 77 48q17 0 48 -11q34 -12 50 -12z" />
    <glyph glyph-name="uni1FA7" unicode="&#x1fa7;" horiz-adv-x="635" 
d="M318 80q-12 -40 -42.5 -64t-70.5 -24q-79 0 -118 57.5t-39 139.5q0 87 47 153.5t137 80.5v-61q-58 -16 -85 -62.5t-27 -109.5q0 -58 21.5 -98t70.5 -40q30 0 50.5 23.5t20.5 59.5v146h70v-146q0 -36 21 -59.5t50 -23.5q49 0 70.5 40t21.5 98q0 63 -27.5 109.5t-84.5 62.5
v61q89 -14 136 -80.5t47 -153.5q0 -82 -38.5 -139.5t-117.5 -57.5q-41 0 -71 24t-42 64zM279 -118v60h67v-38q0 -31 11.5 -44t36.5 -13h13v-59h-28q-100 0 -100 94zM334 614q-8 0 -18 7q-15 -15 -15 -32q0 -39 54 -57l-12 -35q-90 29 -90 102q0 39 21.5 64t54.5 25
q18 0 30.5 -10t12.5 -28q0 -17 -11 -26.5t-27 -9.5zM363 764q25 0 42 26l32 -25q-26 -47 -75 -47q-20 0 -49 11q-31 11 -49 11q-27 0 -42 -26l-34 25q27 48 77 48q17 0 48 -11q34 -12 50 -12z" />
    <glyph glyph-name="uni1FA8" unicode="&#x1fa8;" 
d="M753 340q0 -86 -43.5 -161t-113.5 -115h152v-64h-271v60q89 33 145 108t56 172q0 120 -78.5 201.5t-196.5 81.5t-196 -81t-78 -202q0 -97 55.5 -172t144.5 -108v-60h-271v64h152q-70 41 -113 115.5t-43 160.5q0 150 100 249t249 99q150 0 250 -99t100 -249zM375 -118v60
h67v-38q0 -31 11.5 -44t36.5 -13h13v-59h-28q-100 0 -100 94zM-54 606q-16 0 -27 9.5t-11 26.5q0 18 12.5 28t30.5 10q33 0 54.5 -25t21.5 -64q0 -73 -90 -102l-12 35q54 18 54 57q0 17 -15 32q-10 -7 -18 -7z" />
    <glyph glyph-name="uni1FA9" unicode="&#x1fa9;" 
d="M753 340q0 -86 -43.5 -161t-113.5 -115h152v-64h-271v60q89 33 145 108t56 172q0 120 -78.5 201.5t-196.5 81.5t-196 -81t-78 -202q0 -97 55.5 -172t144.5 -108v-60h-271v64h152q-70 41 -113 115.5t-43 160.5q0 150 100 249t249 99q150 0 250 -99t100 -249zM375 -118v60
h67v-38q0 -31 11.5 -44t36.5 -13h13v-59h-28q-100 0 -100 94zM-11 606q-7 0 -18 7q-15 -15 -15 -32q0 -39 54 -57l-12 -35q-90 29 -90 102q0 39 21.5 64t54.5 25q18 0 30.5 -10t12.5 -28q0 -17 -11 -26.5t-27 -9.5z" />
    <glyph glyph-name="uni1FAA" unicode="&#x1faa;" 
d="M753 340q0 -86 -43.5 -161t-113.5 -115h152v-64h-271v60q89 33 145 108t56 172q0 120 -78.5 201.5t-196.5 81.5t-196 -81t-78 -202q0 -97 55.5 -172t144.5 -108v-60h-271v64h152q-70 41 -113 115.5t-43 160.5q0 150 100 249t249 99q150 0 250 -99t100 -249zM375 -118v60
h67v-38q0 -31 11.5 -44t36.5 -13h13v-59h-28q-100 0 -100 94zM-211 606q-16 0 -27 9.5t-11 26.5q0 18 12.5 28t30.5 10q33 0 54.5 -25t21.5 -64q0 -73 -90 -102l-12 35q54 18 54 57q0 17 -15 32q-10 -7 -18 -7zM28 495l-64 182h-81l90 -182h55z" />
    <glyph glyph-name="uni1FAB" unicode="&#x1fab;" 
d="M753 340q0 -86 -43.5 -161t-113.5 -115h152v-64h-271v60q89 33 145 108t56 172q0 120 -78.5 201.5t-196.5 81.5t-196 -81t-78 -202q0 -97 55.5 -172t144.5 -108v-60h-271v64h152q-70 41 -113 115.5t-43 160.5q0 150 100 249t249 99q150 0 250 -99t100 -249zM375 -118v60
h67v-38q0 -31 11.5 -44t36.5 -13h13v-59h-28q-100 0 -100 94zM-175 606q-7 0 -18 7q-15 -15 -15 -32q0 -39 54 -57l-12 -35q-90 29 -90 102q0 39 21.5 64t54.5 25q18 0 30.5 -10t12.5 -28q0 -17 -11 -26.5t-27 -9.5zM30 495l-64 182h-81l90 -182h55z" />
    <glyph glyph-name="uni1FAC" unicode="&#x1fac;" 
d="M753 340q0 -86 -43.5 -161t-113.5 -115h152v-64h-271v60q89 33 145 108t56 172q0 120 -78.5 201.5t-196.5 81.5t-196 -81t-78 -202q0 -97 55.5 -172t144.5 -108v-60h-271v64h152q-70 41 -113 115.5t-43 160.5q0 150 100 249t249 99q150 0 250 -99t100 -249zM375 -118v60
h67v-38q0 -31 11.5 -44t36.5 -13h13v-59h-28q-100 0 -100 94zM-214 606q-16 0 -27 9.5t-11 26.5q0 18 12.5 28t30.5 10q33 0 54.5 -25t21.5 -64q0 -73 -90 -102l-12 35q54 18 54 57q0 17 -15 32q-10 -7 -18 -7zM-56 677l-64 -182h55l90 182h-81z" />
    <glyph glyph-name="uni1FAD" unicode="&#x1fad;" 
d="M751 340q0 -86 -43.5 -161t-113.5 -115h152v-64h-271v60q89 33 145 108t56 172q0 120 -78.5 201.5t-196.5 81.5t-196 -81t-78 -202q0 -97 55.5 -172t144.5 -108v-60h-271v64h152q-70 41 -113 115.5t-43 160.5q0 150 100 249t249 99q150 0 250 -99t100 -249zM373 -118v60
h67v-38q0 -31 11.5 -44t36.5 -13h13v-59h-28q-100 0 -100 94zM-171 609q-7 0 -18 7q-15 -15 -15 -32q0 -39 54 -57l-12 -35q-90 29 -90 102q0 39 21.5 64t54.5 25q18 0 30.5 -10t12.5 -28q0 -17 -11 -26.5t-27 -9.5zM-58 680l-64 -182h55l90 182h-81z" />
    <glyph glyph-name="uni1FAE" unicode="&#x1fae;" 
d="M753 340q0 -86 -43.5 -161t-113.5 -115h152v-64h-271v60q89 33 145 108t56 172q0 120 -78.5 201.5t-196.5 81.5t-196 -81t-78 -202q0 -97 55.5 -172t144.5 -108v-60h-271v64h152q-70 41 -113 115.5t-43 160.5q0 150 100 249t249 99q150 0 250 -99t100 -249zM375 -118v60
h67v-38q0 -31 11.5 -44t36.5 -13h13v-59h-28q-100 0 -100 94zM-115 507q-16 0 -27 9.5t-11 26.5q0 18 12.5 28t30.5 10q33 0 54.5 -25t21.5 -64q0 -73 -90 -102l-12 35q54 18 54 57q0 17 -15 32q-10 -7 -18 -7zM-48 657q25 0 42 26l32 -25q-26 -47 -75 -47q-20 0 -49 11
q-31 11 -49 11q-27 0 -42 -26l-34 25q27 48 77 48q17 0 48 -11q34 -12 50 -12z" />
    <glyph glyph-name="uni1FAF" unicode="&#x1faf;" 
d="M753 340q0 -86 -43.5 -161t-113.5 -115h152v-64h-271v60q89 33 145 108t56 172q0 120 -78.5 201.5t-196.5 81.5t-196 -81t-78 -202q0 -97 55.5 -172t144.5 -108v-60h-271v64h152q-70 41 -113 115.5t-43 160.5q0 150 100 249t249 99q150 0 250 -99t100 -249zM375 -118v60
h67v-38q0 -31 11.5 -44t36.5 -13h13v-59h-28q-100 0 -100 94zM-77 508q-7 0 -18 7q-15 -15 -15 -32q0 -39 54 -57l-12 -35q-90 29 -90 102q0 39 21.5 64t54.5 25q18 0 30.5 -10t12.5 -28q0 -17 -11 -26.5t-27 -9.5zM-48 658q25 0 42 26l32 -25q-26 -47 -75 -47q-20 0 -49 11
q-31 11 -49 11q-27 0 -42 -26l-34 25q27 48 77 48q17 0 48 -11q34 -12 50 -12z" />
    <glyph glyph-name="uni1FB0" unicode="&#x1fb0;" horiz-adv-x="570" 
d="M263 54q66 0 106.5 43t40.5 111q0 67 -40.5 110t-106.5 43q-64 0 -103 -42.5t-39 -110.5t38.5 -111t103.5 -43zM503 -3q-43 0 -68 24.5t-25 63.5v6q-21 -45 -65 -72t-98 -27q-85 0 -142 61.5t-57 154.5q0 92 57 153.5t141 61.5q56 0 98 -26.5t65 -71.5l-2 89h70v-301
q0 -57 43 -57h18v-57q-10 -2 -35 -2zM256 499q-56 0 -89.5 32t-41.5 85l56 9q16 -71 75 -71t75 71l56 -9q-8 -53 -41.5 -85t-89.5 -32z" />
    <glyph glyph-name="uni1FB1" unicode="&#x1fb1;" horiz-adv-x="570" 
d="M263 54q66 0 106.5 43t40.5 111q0 67 -40.5 110t-106.5 43q-64 0 -103 -42.5t-39 -110.5t38.5 -111t103.5 -43zM503 -3q-43 0 -68 24.5t-25 63.5v6q-21 -45 -65 -72t-98 -27q-85 0 -142 61.5t-57 154.5q0 92 57 153.5t141 61.5q56 0 98 -26.5t65 -71.5l-2 89h70v-301
q0 -57 43 -57h18v-57q-10 -2 -35 -2zM169 528v55h230v-55h-230z" />
    <glyph glyph-name="uni1FB2" unicode="&#x1fb2;" horiz-adv-x="570" 
d="M263 54q66 0 106.5 43t40.5 111q0 67 -40.5 110t-106.5 43q-64 0 -103 -42.5t-39 -110.5t38.5 -111t103.5 -43zM503 -3q-43 0 -68 24.5t-25 63.5v6q-21 -45 -65 -72t-98 -27q-85 0 -142 61.5t-57 154.5q0 92 57 153.5t141 61.5q56 0 98 -26.5t65 -71.5l-2 89h70v-301
q0 -57 43 -57h18v-57q-10 -2 -35 -2zM231 -118v60h67v-38q0 -31 11.5 -44t36.5 -13h13v-59h-28q-100 0 -100 94zM219 681l64 -182h-55l-90 182h81z" />
    <glyph glyph-name="uni1FB3" unicode="&#x1fb3;" horiz-adv-x="570" 
d="M263 54q66 0 106.5 43t40.5 111q0 67 -40.5 110t-106.5 43q-64 0 -103 -42.5t-39 -110.5t38.5 -111t103.5 -43zM503 -3q-43 0 -68 24.5t-25 63.5v6q-21 -45 -65 -72t-98 -27q-85 0 -142 61.5t-57 154.5q0 92 57 153.5t141 61.5q56 0 98 -26.5t65 -71.5l-2 89h70v-301
q0 -57 43 -57h18v-57q-10 -2 -35 -2zM231 -118v60h67v-38q0 -31 11.5 -44t36.5 -13h13v-59h-28q-100 0 -100 94z" />
    <glyph glyph-name="uni1FB4" unicode="&#x1fb4;" horiz-adv-x="570" 
d="M263 54q66 0 106.5 43t40.5 111q0 67 -40.5 110t-106.5 43q-64 0 -103 -42.5t-39 -110.5t38.5 -111t103.5 -43zM503 -3q-43 0 -68 24.5t-25 63.5v6q-21 -45 -65 -72t-98 -27q-85 0 -142 61.5t-57 154.5q0 92 57 153.5t141 61.5q56 0 98 -26.5t65 -71.5l-2 89h70v-301
q0 -57 43 -57h18v-57q-10 -2 -35 -2zM231 -118v60h67v-38q0 -31 11.5 -44t36.5 -13h13v-59h-28q-100 0 -100 94zM246 498l64 182h81l-90 -182h-55z" />
    <glyph glyph-name="uni1FB6" unicode="&#x1fb6;" horiz-adv-x="570" 
d="M263 54q66 0 106.5 43t40.5 111q0 67 -40.5 110t-106.5 43q-64 0 -103 -42.5t-39 -110.5t38.5 -111t103.5 -43zM503 -3q-43 0 -68 24.5t-25 63.5v6q-21 -45 -65 -72t-98 -27q-85 0 -142 61.5t-57 154.5q0 92 57 153.5t141 61.5q56 0 98 -26.5t65 -71.5l-2 89h70v-301
q0 -57 43 -57h18v-57q-10 -2 -35 -2zM322 547q25 0 42 26l32 -25q-26 -47 -75 -47q-20 0 -49 11q-31 11 -49 11q-27 0 -42 -26l-34 25q27 48 77 48q17 0 48 -11q34 -12 50 -12z" />
    <glyph glyph-name="uni1FB7" unicode="&#x1fb7;" horiz-adv-x="570" 
d="M263 54q66 0 106.5 43t40.5 111q0 67 -40.5 110t-106.5 43q-64 0 -103 -42.5t-39 -110.5t38.5 -111t103.5 -43zM503 -3q-43 0 -68 24.5t-25 63.5v6q-21 -45 -65 -72t-98 -27q-85 0 -142 61.5t-57 154.5q0 92 57 153.5t141 61.5q56 0 98 -26.5t65 -71.5l-2 89h70v-301
q0 -57 43 -57h18v-57q-10 -2 -35 -2zM231 -118v60h67v-38q0 -31 11.5 -44t36.5 -13h13v-59h-28q-100 0 -100 94zM322 550q25 0 42 26l32 -25q-26 -47 -75 -47q-20 0 -49 11q-31 11 -49 11q-27 0 -42 -26l-34 25q27 48 77 48q17 0 48 -11q34 -12 50 -12z" />
    <glyph glyph-name="uni1FB8" unicode="&#x1fb8;" horiz-adv-x="656" 
d="M194 215h262l-105 260q-6 14 -12.5 34t-10 33t-3.5 14l-4 -14q-4 -13 -10.5 -32.5t-12.5 -33.5zM37 0l282 687h12l288 -687h-76l-62 153h-312l-61 -153h-71zM328 772q-56 0 -89.5 32t-41.5 85l56 9q16 -71 75 -71t75 71l56 -9q-8 -53 -41.5 -85t-89.5 -32z" />
    <glyph glyph-name="uni1FB9" unicode="&#x1fb9;" horiz-adv-x="656" 
d="M194 215h262l-105 260q-6 14 -12.5 34t-10 33t-3.5 14l-4 -14q-4 -13 -10.5 -32.5t-12.5 -33.5zM37 0l282 687h12l288 -687h-76l-62 153h-312l-61 -153h-71zM223 788v55h230v-55h-230z" />
    <glyph glyph-name="uni1FBA" unicode="&#x1fba;" horiz-adv-x="656" 
d="M194 215h262l-105 260q-6 14 -12.5 34t-10 33t-3.5 14l-4 -14q-4 -13 -10.5 -32.5t-12.5 -33.5zM37 0l282 687h12l288 -687h-76l-62 153h-312l-61 -153h-71zM91 680l64 -182h-55l-90 182h81z" />
    <glyph glyph-name="uni1FBB" unicode="&#x1fbb;" horiz-adv-x="656" 
d="M194 215h262l-105 260q-6 14 -12.5 34t-10 33t-3.5 14l-4 -14q-4 -13 -10.5 -32.5t-12.5 -33.5zM37 0l282 687h12l288 -687h-76l-62 153h-312l-61 -153h-71zM44 498l64 182h81l-90 -182h-55z" />
    <glyph glyph-name="uni1FBC" unicode="&#x1fbc;" horiz-adv-x="656" 
d="M194 215h262l-105 260q-6 14 -12.5 34t-10 33t-3.5 14l-4 -14q-4 -13 -10.5 -32.5t-12.5 -33.5zM37 0l282 687h12l288 -687h-76l-62 153h-312l-61 -153h-71zM294 -118v60h67v-38q0 -31 11.5 -44t36.5 -13h13v-59h-28q-100 0 -100 94z" />
    <glyph glyph-name="uni1FBD" unicode="&#x1fbd;" horiz-adv-x="500" 
d="M228 609q-16 0 -27 9.5t-11 26.5q0 18 12.5 28t30.5 10q33 0 54.5 -25t21.5 -64q0 -73 -90 -102l-12 35q54 18 54 57q0 17 -15 32q-10 -7 -18 -7z" />
    <glyph glyph-name="uni1FBE" unicode="&#x1fbe;" horiz-adv-x="500" 
d="M186 -118v60h67v-38q0 -31 11.5 -44t36.5 -13h13v-59h-28q-100 0 -100 94z" />
    <glyph glyph-name="uni1FBF" unicode="&#x1fbf;" horiz-adv-x="500" 
d="M228 609q-16 0 -27 9.5t-11 26.5q0 18 12.5 28t30.5 10q33 0 54.5 -25t21.5 -64q0 -73 -90 -102l-12 35q54 18 54 57q0 17 -15 32q-10 -7 -18 -7z" />
    <glyph glyph-name="uni1FC0" unicode="&#x1fc0;" horiz-adv-x="500" 
d="M300 538q25 0 42 26l32 -25q-26 -47 -75 -47q-20 0 -49 11q-31 11 -49 11q-27 0 -42 -26l-34 25q27 48 77 48q17 0 48 -11q34 -12 50 -12z" />
    <glyph glyph-name="uni1FC1" unicode="&#x1fc1;" horiz-adv-x="500" 
d="M300 673q25 0 42 26l32 -25q-26 -47 -75 -47q-20 0 -49 11q-31 11 -49 11q-27 0 -42 -26l-34 25q27 48 77 48q17 0 48 -11q34 -12 50 -12zM175 503q-17 0 -29 12t-12 29t12 29t29 12t29.5 -12t12.5 -29t-12.5 -29t-29.5 -12zM329 503q-17 0 -29 12t-12 29t12 29t29 12
t29.5 -12t12.5 -29t-12.5 -29t-29.5 -12z" />
    <glyph glyph-name="uni1FC2" unicode="&#x1fc2;" horiz-adv-x="516" 
d="M74 0v414h70l-2 -84q20 44 59.5 68.5t90.5 24.5q69 0 111.5 -45.5t42.5 -125.5v-464h-70v456q0 115 -103 115q-58 0 -93.5 -35t-35.5 -96v-228h-70zM75 -118v60h67v-38q0 -31 11.5 -44t36.5 -13h13v-59h-28q-100 0 -100 94zM221 681l64 -182h-55l-90 182h81z" />
    <glyph glyph-name="uni1FC3" unicode="&#x1fc3;" horiz-adv-x="516" 
d="M74 0v414h70l-2 -84q20 44 59.5 68.5t90.5 24.5q69 0 111.5 -45.5t42.5 -125.5v-464h-70v456q0 115 -103 115q-58 0 -93.5 -35t-35.5 -96v-228h-70zM75 -118v60h67v-38q0 -31 11.5 -44t36.5 -13h13v-59h-28q-100 0 -100 94z" />
    <glyph glyph-name="uni1FC4" unicode="&#x1fc4;" horiz-adv-x="516" 
d="M74 0v414h70l-2 -84q20 44 59.5 68.5t90.5 24.5q69 0 111.5 -45.5t42.5 -125.5v-464h-70v456q0 115 -103 115q-58 0 -93.5 -35t-35.5 -96v-228h-70zM75 -118v60h67v-38q0 -31 11.5 -44t36.5 -13h13v-59h-28q-100 0 -100 94zM218 498l64 182h81l-90 -182h-55z" />
    <glyph glyph-name="uni1FC6" unicode="&#x1fc6;" horiz-adv-x="516" 
d="M74 0v414h70l-2 -84q20 44 59.5 68.5t90.5 24.5q69 0 111.5 -45.5t42.5 -125.5v-464h-70v456q0 115 -103 115q-58 0 -93.5 -35t-35.5 -96v-228h-70zM309 558q25 0 42 26l32 -25q-26 -47 -75 -47q-20 0 -49 11q-31 11 -49 11q-27 0 -42 -26l-34 25q27 48 77 48
q17 0 48 -11q34 -12 50 -12z" />
    <glyph glyph-name="uni1FC7" unicode="&#x1fc7;" horiz-adv-x="516" 
d="M74 0v414h70l-2 -84q20 44 59.5 68.5t90.5 24.5q69 0 111.5 -45.5t42.5 -125.5v-464h-70v456q0 115 -103 115q-58 0 -93.5 -35t-35.5 -96v-228h-70zM75 -118v60h67v-38q0 -31 11.5 -44t36.5 -13h13v-59h-28q-100 0 -100 94zM301 558q25 0 42 26l32 -25q-26 -47 -75 -47
q-20 0 -49 11q-31 11 -49 11q-27 0 -42 -26l-34 25q27 48 77 48q17 0 48 -11q34 -12 50 -12z" />
    <glyph glyph-name="uni1FC8" unicode="&#x1fc8;" horiz-adv-x="580" 
d="M93 0v680h414v-64h-342v-243h305v-63h-305v-246h356v-64h-428zM-39 680l64 -182h-55l-90 182h81z" />
    <glyph glyph-name="uni1FC9" unicode="&#x1fc9;" horiz-adv-x="580" 
d="M93 0v680h414v-64h-342v-243h305v-63h-305v-246h356v-64h-428zM-136 498l64 182h81l-90 -182h-55z" />
    <glyph glyph-name="uni1FCA" unicode="&#x1fca;" horiz-adv-x="694" 
d="M93 0v680h72v-317h364v317h72v-680h-72v298h-364v-298h-72zM-39 680l64 -182h-55l-90 182h81z" />
    <glyph glyph-name="uni1FCB" unicode="&#x1fcb;" horiz-adv-x="694" 
d="M93 0v680h72v-317h364v317h72v-680h-72v298h-364v-298h-72zM-136 498l64 182h81l-90 -182h-55z" />
    <glyph glyph-name="uni1FCC" unicode="&#x1fcc;" horiz-adv-x="694" 
d="M93 0v680h72v-317h364v317h72v-680h-72v298h-364v-298h-72zM307 -118v60h67v-38q0 -31 11.5 -44t36.5 -13h13v-59h-28q-100 0 -100 94z" />
    <glyph glyph-name="uni1FCD" unicode="&#x1fcd;" horiz-adv-x="500" 
d="M149 609q-16 0 -27 9.5t-11 26.5q0 18 12.5 28t30.5 10q33 0 54.5 -25t21.5 -64q0 -73 -90 -102l-12 35q54 18 54 57q0 17 -15 32q-11 -7 -18 -7zM388 498l-64 182h-81l90 -182h55z" />
    <glyph glyph-name="uni1FCE" unicode="&#x1fce;" horiz-adv-x="500" 
d="M149 609q-16 0 -27 9.5t-11 26.5q0 18 12.5 28t30.5 10q33 0 54.5 -25t21.5 -64q0 -73 -90 -102l-12 35q54 18 54 57q0 17 -15 32q-11 -7 -18 -7zM307 680l-64 -182h55l90 182h-81z" />
    <glyph glyph-name="uni1FCF" unicode="&#x1fcf;" horiz-adv-x="500" 
d="M233 609q-16 0 -27 9.5t-11 26.5q0 18 12.5 28t30.5 10q33 0 54.5 -25t21.5 -64q0 -73 -90 -102l-12 35q54 18 54 57q0 17 -15 32q-11 -7 -18 -7zM300 759q25 0 42 26l32 -25q-26 -47 -75 -47q-20 0 -49 11q-31 11 -49 11q-27 0 -42 -26l-34 25q27 48 77 48q17 0 48 -11
q34 -12 50 -12z" />
    <glyph glyph-name="uni1FD0" unicode="&#x1fd0;" horiz-adv-x="243" 
d="M76 103v311h70v-302q0 -56 44 -56h18v-57q-11 -1 -36 -1q-45 0 -70.5 26.5t-25.5 78.5zM114 499q-56 0 -89.5 32t-41.5 85l56 9q16 -71 75 -71t75 71l56 -9q-8 -53 -41.5 -85t-89.5 -32z" />
    <glyph glyph-name="uni1FD1" unicode="&#x1fd1;" horiz-adv-x="243" 
d="M76 103v311h70v-302q0 -56 44 -56h18v-57q-11 -1 -36 -1q-45 0 -70.5 26.5t-25.5 78.5zM9 530v55h230v-55h-230z" />
    <glyph glyph-name="uni1FD2" unicode="&#x1fd2;" horiz-adv-x="243" 
d="M76 103v311h70v-302q0 -56 44 -56h18v-57q-11 -1 -36 -1q-45 0 -70.5 26.5t-25.5 78.5zM202 516q-17 0 -29 12t-12 29t12 29t29 12t29.5 -12t12.5 -29t-12.5 -29t-29.5 -12zM-4 516q-17 0 -29 12t-12 29t12 29t29 12t29.5 -12t12.5 -29t-12.5 -29t-29.5 -12zM81 680
l54 -160h-45l-80 160h71z" />
    <glyph glyph-name="uni1FD3" unicode="&#x1fd3;" horiz-adv-x="243" 
d="M76 103v311h70v-302q0 -56 44 -56h18v-57q-11 -1 -36 -1q-45 0 -70.5 26.5t-25.5 78.5zM24 516q-17 0 -29.5 12t-12.5 29t12.5 29t29.5 12t29 -12t12 -29t-12 -29t-29 -12zM230 516q-17 0 -29.5 12t-12.5 29t12.5 29t29.5 12t29 -12t12 -29t-12 -29t-29 -12zM91 520
l54 160h71l-80 -160h-45z" />
    <glyph glyph-name="uni1FD6" unicode="&#x1fd6;" horiz-adv-x="243" 
d="M76 103v311h70v-302q0 -56 44 -56h18v-57q-11 -1 -36 -1q-45 0 -70.5 26.5t-25.5 78.5zM162 558q25 0 42 26l32 -25q-26 -47 -75 -47q-20 0 -49 11q-31 11 -49 11q-27 0 -42 -26l-34 25q27 48 77 48q17 0 48 -11q34 -12 50 -12z" />
    <glyph glyph-name="uni1FD7" unicode="&#x1fd7;" horiz-adv-x="243" 
d="M76 103v311h70v-302q0 -56 44 -56h18v-57q-11 -1 -36 -1q-45 0 -70.5 26.5t-25.5 78.5zM160 674q25 0 42 26l32 -25q-26 -47 -75 -47q-20 0 -49 11q-31 11 -49 11q-27 0 -42 -26l-34 25q27 48 77 48q17 0 48 -11q34 -12 50 -12zM35 504q-17 0 -29 12t-12 29t12 29t29 12
t29.5 -12t12.5 -29t-12.5 -29t-29.5 -12zM189 504q-17 0 -29 12t-12 29t12 29t29 12t29.5 -12t12.5 -29t-12.5 -29t-29.5 -12z" />
    <glyph glyph-name="uni1FD8" unicode="&#x1fd8;" horiz-adv-x="265" 
d="M96 0v680h73v-680h-73zM132 772q-56 0 -89.5 32t-41.5 85l56 9q16 -71 75 -71t75 71l56 -9q-8 -53 -41.5 -85t-89.5 -32z" />
    <glyph glyph-name="uni1FD9" unicode="&#x1fd9;" horiz-adv-x="265" 
d="M96 0v680h73v-680h-73zM27 792v55h230v-55h-230z" />
    <glyph glyph-name="uni1FDA" unicode="&#x1fda;" horiz-adv-x="265" 
d="M96 0v680h73v-680h-73zM-39 680l64 -182h-55l-90 182h81z" />
    <glyph glyph-name="uni1FDB" unicode="&#x1fdb;" horiz-adv-x="265" 
d="M96 0v680h73v-680h-73zM-136 498l64 182h81l-90 -182h-55z" />
    <glyph glyph-name="uni1FDD" unicode="&#x1fdd;" horiz-adv-x="500" 
d="M188 609q-8 0 -18 7q-15 -15 -15 -32q0 -39 54 -57l-12 -35q-90 29 -90 102q0 39 21.5 64t54.5 25q18 0 30.5 -10t12.5 -28q0 -17 -11 -26.5t-27 -9.5zM393 498l-64 182h-81l90 -182h55z" />
    <glyph glyph-name="uni1FDE" unicode="&#x1fde;" horiz-adv-x="500" 
d="M193 609q-7 0 -18 7q-15 -15 -15 -32q0 -39 54 -57l-12 -35q-90 29 -90 102q0 39 21.5 64t54.5 25q18 0 30.5 -10t12.5 -28q0 -17 -11 -26.5t-27 -9.5zM306 680l-64 -182h55l90 182h-81z" />
    <glyph glyph-name="uni1FDF" unicode="&#x1fdf;" horiz-adv-x="500" 
d="M271 609q-7 0 -18 7q-15 -15 -15 -32q0 -39 54 -57l-12 -35q-90 29 -90 102q0 39 21.5 64t54.5 25q18 0 30.5 -10t12.5 -28q0 -17 -11 -26.5t-27 -9.5zM300 759q25 0 42 26l32 -25q-26 -47 -75 -47q-20 0 -49 11q-31 11 -49 11q-27 0 -42 -26l-34 25q27 48 77 48
q17 0 48 -11q34 -12 50 -12z" />
    <glyph glyph-name="uni1FE0" unicode="&#x1fe0;" horiz-adv-x="486" 
d="M241 -9q-85 0 -133 50.5t-48 141.5v231h70v-228q0 -133 113 -133t113 133v228h70v-231q0 -90 -49.5 -141t-135.5 -51zM243 499q-56 0 -89.5 32t-41.5 85l56 9q16 -71 75 -71t75 71l56 -9q-8 -53 -41.5 -85t-89.5 -32z" />
    <glyph glyph-name="uni1FE1" unicode="&#x1fe1;" horiz-adv-x="486" 
d="M241 -9q-85 0 -133 50.5t-48 141.5v231h70v-228q0 -133 113 -133t113 133v228h70v-231q0 -90 -49.5 -141t-135.5 -51zM138 523v55h230v-55h-230z" />
    <glyph glyph-name="uni1FE2" unicode="&#x1fe2;" horiz-adv-x="486" 
d="M241 -9q-85 0 -133 50.5t-48 141.5v231h70v-228q0 -133 113 -133t113 133v228h70v-231q0 -90 -49.5 -141t-135.5 -51zM331 516q-17 0 -29 12t-12 29t12 29t29 12t29.5 -12t12.5 -29t-12.5 -29t-29.5 -12zM125 516q-17 0 -29 12t-12 29t12 29t29 12t29.5 -12t12.5 -29
t-12.5 -29t-29.5 -12zM210 680l54 -160h-45l-80 160h71z" />
    <glyph glyph-name="uni1FE3" unicode="&#x1fe3;" horiz-adv-x="486" 
d="M241 -9q-85 0 -133 50.5t-48 141.5v231h70v-228q0 -133 113 -133t113 133v228h70v-231q0 -90 -49.5 -141t-135.5 -51zM141 516q-17 0 -29.5 12t-12.5 29t12.5 29t29.5 12t29 -12t12 -29t-12 -29t-29 -12zM347 516q-17 0 -29.5 12t-12.5 29t12.5 29t29.5 12t29 -12t12 -29
t-12 -29t-29 -12zM208 520l54 160h71l-80 -160h-45z" />
    <glyph glyph-name="uni1FE4" unicode="&#x1fe4;" horiz-adv-x="534" 
d="M128 76v-288h-70v420q0 95 61.5 155t150.5 60q92 0 154 -62t62 -154q0 -93 -60 -154.5t-145 -61.5q-46 0 -87.5 22t-65.5 63zM126 207q0 -69 39.5 -112t104.5 -43q63 0 103.5 43.5t40.5 111.5t-40 111.5t-103 43.5t-104 -43.5t-41 -111.5zM241 615q-16 0 -27 9.5
t-11 26.5q0 18 12.5 28t30.5 10q33 0 54.5 -25t21.5 -64q0 -73 -90 -102l-12 35q54 18 54 57q0 17 -15 32q-11 -7 -18 -7z" />
    <glyph glyph-name="uni1FE5" unicode="&#x1fe5;" horiz-adv-x="534" 
d="M128 76v-288h-70v420q0 95 61.5 155t150.5 60q92 0 154 -62t62 -154q0 -93 -60 -154.5t-145 -61.5q-46 0 -87.5 22t-65.5 63zM126 207q0 -69 39.5 -112t104.5 -43q63 0 103.5 43.5t40.5 111.5t-40 111.5t-103 43.5t-104 -43.5t-41 -111.5zM282 614q-8 0 -18 7
q-15 -15 -15 -32q0 -39 54 -57l-12 -35q-90 29 -90 102q0 39 21.5 64t54.5 25q18 0 30.5 -10t12.5 -28q0 -17 -11 -26.5t-27 -9.5z" />
    <glyph glyph-name="uni1FE6" unicode="&#x1fe6;" horiz-adv-x="486" 
d="M241 -9q-85 0 -133 50.5t-48 141.5v231h70v-228q0 -133 113 -133t113 133v228h70v-231q0 -90 -49.5 -141t-135.5 -51zM291 558q25 0 42 26l32 -25q-26 -47 -75 -47q-20 0 -49 11q-31 11 -49 11q-27 0 -42 -26l-34 25q27 48 77 48q17 0 48 -11q34 -12 50 -12z" />
    <glyph glyph-name="uni1FE7" unicode="&#x1fe7;" horiz-adv-x="486" 
d="M241 -9q-85 0 -133 50.5t-48 141.5v231h70v-228q0 -133 113 -133t113 133v228h70v-231q0 -90 -49.5 -141t-135.5 -51zM289 674q25 0 42 26l32 -25q-26 -47 -75 -47q-20 0 -49 11q-31 11 -49 11q-27 0 -42 -26l-34 25q27 48 77 48q17 0 48 -11q34 -12 50 -12zM164 504
q-17 0 -29 12t-12 29t12 29t29 12t29.5 -12t12.5 -29t-12.5 -29t-29.5 -12zM318 504q-17 0 -29 12t-12 29t12 29t29 12t29.5 -12t12.5 -29t-12.5 -29t-29.5 -12z" />
    <glyph glyph-name="uni1FE8" unicode="&#x1fe8;" horiz-adv-x="616" 
d="M274 0v250l-237 430h82l164 -301q6 -11 13 -27.5t11.5 -28.5t4.5 -13q7 28 29 69l163 301h75l-231 -428v-252h-74zM308 752q-56 0 -89.5 32t-41.5 85l56 9q16 -71 75 -71t75 71l56 -9q-8 -53 -41.5 -85t-89.5 -32z" />
    <glyph glyph-name="uni1FE9" unicode="&#x1fe9;" horiz-adv-x="616" 
d="M274 0v250l-237 430h82l164 -301q6 -11 13 -27.5t11.5 -28.5t4.5 -13q7 28 29 69l163 301h75l-231 -428v-252h-74zM203 779v55h230v-55h-230z" />
    <glyph glyph-name="uni1FEA" unicode="&#x1fea;" horiz-adv-x="616" 
d="M274 0v250l-237 430h82l164 -301q6 -11 13 -27.5t11.5 -28.5t4.5 -13q7 28 29 69l163 301h75l-231 -428v-252h-74zM-73 680l64 -182h-55l-90 182h81z" />
    <glyph glyph-name="uni1FEB" unicode="&#x1feb;" horiz-adv-x="616" 
d="M274 0v250l-237 430h82l164 -301q6 -11 13 -27.5t11.5 -28.5t4.5 -13q7 28 29 69l163 301h75l-231 -428v-252h-74zM-170 498l64 182h81l-90 -182h-55z" />
    <glyph glyph-name="uni1FEC" unicode="&#x1fec;" horiz-adv-x="584" 
d="M93 0v680h199q112 0 177 -54t65 -157q0 -102 -65 -156.5t-177 -54.5h-127v-258h-72zM165 322h123q172 0 172 147t-172 147h-123v-294zM-19 606q-7 0 -18 7q-15 -15 -15 -32q0 -39 54 -57l-12 -35q-90 29 -90 102q0 39 21.5 64t54.5 25q18 0 30.5 -10t12.5 -28
q0 -17 -11 -26.5t-27 -9.5z" />
    <glyph glyph-name="uni1FED" unicode="&#x1fed;" horiz-adv-x="500" 
d="M352 516q-17 0 -29 12t-12 29t12 29t29 12t29.5 -12t12.5 -29t-12.5 -29t-29.5 -12zM146 516q-17 0 -29 12t-12 29t12 29t29 12t29.5 -12t12.5 -29t-12.5 -29t-29.5 -12zM231 680l54 -160h-45l-80 160h71z" />
    <glyph glyph-name="uni1FEE" unicode="&#x1fee;" horiz-adv-x="500" 
d="M147 516q-17 0 -29.5 12t-12.5 29t12.5 29t29.5 12t29 -12t12 -29t-12 -29t-29 -12zM353 516q-17 0 -29.5 12t-12.5 29t12.5 29t29.5 12t29 -12t12 -29t-12 -29t-29 -12zM214 520l54 160h71l-80 -160h-45z" />
    <glyph glyph-name="uni1FEF" unicode="&#x1fef;" horiz-adv-x="500" 
d="M258 680l64 -182h-55l-90 182h81z" />
    <glyph glyph-name="uni1FF2" unicode="&#x1ff2;" horiz-adv-x="635" 
d="M318 80q-12 -40 -42.5 -64t-70.5 -24q-79 0 -118 57.5t-39 139.5q0 87 47 153.5t137 80.5v-61q-58 -16 -85 -62.5t-27 -109.5q0 -58 21.5 -98t70.5 -40q30 0 50.5 23.5t20.5 59.5v146h70v-146q0 -36 21 -59.5t50 -23.5q49 0 70.5 40t21.5 98q0 63 -27.5 109.5t-84.5 62.5
v61q89 -14 136 -80.5t47 -153.5q0 -82 -38.5 -139.5t-117.5 -57.5q-41 0 -71 24t-42 64zM279 -118v60h67v-38q0 -31 11.5 -44t36.5 -13h13v-59h-28q-100 0 -100 94zM280 681l64 -182h-55l-90 182h81z" />
    <glyph glyph-name="uni1FF3" unicode="&#x1ff3;" horiz-adv-x="635" 
d="M318 80q-12 -40 -42.5 -64t-70.5 -24q-79 0 -118 57.5t-39 139.5q0 87 47 153.5t137 80.5v-61q-58 -16 -85 -62.5t-27 -109.5q0 -58 21.5 -98t70.5 -40q30 0 50.5 23.5t20.5 59.5v146h70v-146q0 -36 21 -59.5t50 -23.5q49 0 70.5 40t21.5 98q0 63 -27.5 109.5t-84.5 62.5
v61q89 -14 136 -80.5t47 -153.5q0 -82 -38.5 -139.5t-117.5 -57.5q-41 0 -71 24t-42 64zM279 -118v60h67v-38q0 -31 11.5 -44t36.5 -13h13v-59h-28q-100 0 -100 94z" />
    <glyph glyph-name="uni1FF4" unicode="&#x1ff4;" horiz-adv-x="635" 
d="M318 80q-12 -40 -42.5 -64t-70.5 -24q-79 0 -118 57.5t-39 139.5q0 87 47 153.5t137 80.5v-61q-58 -16 -85 -62.5t-27 -109.5q0 -58 21.5 -98t70.5 -40q30 0 50.5 23.5t20.5 59.5v146h70v-146q0 -36 21 -59.5t50 -23.5q49 0 70.5 40t21.5 98q0 63 -27.5 109.5t-84.5 62.5
v61q89 -14 136 -80.5t47 -153.5q0 -82 -38.5 -139.5t-117.5 -57.5q-41 0 -71 24t-42 64zM279 -118v60h67v-38q0 -31 11.5 -44t36.5 -13h13v-59h-28q-100 0 -100 94zM284 498l64 182h81l-90 -182h-55z" />
    <glyph glyph-name="uni1FF6" unicode="&#x1ff6;" horiz-adv-x="635" 
d="M318 80q-12 -40 -42.5 -64t-70.5 -24q-79 0 -118 57.5t-39 139.5q0 87 47 153.5t137 80.5v-61q-58 -16 -85 -62.5t-27 -109.5q0 -58 21.5 -98t70.5 -40q30 0 50.5 23.5t20.5 59.5v146h70v-146q0 -36 21 -59.5t50 -23.5q49 0 70.5 40t21.5 98q0 63 -27.5 109.5t-84.5 62.5
v61q89 -14 136 -80.5t47 -153.5q0 -82 -38.5 -139.5t-117.5 -57.5q-41 0 -71 24t-42 64zM365 558q25 0 42 26l32 -25q-26 -47 -75 -47q-20 0 -49 11q-31 11 -49 11q-27 0 -42 -26l-34 25q27 48 77 48q17 0 48 -11q34 -12 50 -12z" />
    <glyph glyph-name="uni1FF7" unicode="&#x1ff7;" horiz-adv-x="635" 
d="M318 80q-12 -40 -42.5 -64t-70.5 -24q-79 0 -118 57.5t-39 139.5q0 87 47 153.5t137 80.5v-61q-58 -16 -85 -62.5t-27 -109.5q0 -58 21.5 -98t70.5 -40q30 0 50.5 23.5t20.5 59.5v146h70v-146q0 -36 21 -59.5t50 -23.5q49 0 70.5 40t21.5 98q0 63 -27.5 109.5t-84.5 62.5
v61q89 -14 136 -80.5t47 -153.5q0 -82 -38.5 -139.5t-117.5 -57.5q-41 0 -71 24t-42 64zM279 -118v60h67v-38q0 -31 11.5 -44t36.5 -13h13v-59h-28q-100 0 -100 94zM365 558q25 0 42 26l32 -25q-26 -47 -75 -47q-20 0 -49 11q-31 11 -49 11q-27 0 -42 -26l-34 25
q27 48 77 48q17 0 48 -11q34 -12 50 -12z" />
    <glyph glyph-name="uni1FF8" unicode="&#x1ff8;" 
d="M403 -8q-147 0 -248 98t-101 250t101 250t248 98q148 0 249 -98t101 -250t-101 -250t-249 -98zM403 57q119 0 197 80.5t78 202.5t-78 202.5t-197 80.5q-118 0 -196 -80.5t-78 -202.5t78 -202.5t196 -80.5zM-26 680l64 -182h-55l-90 182h81z" />
    <glyph glyph-name="uni1FF9" unicode="&#x1ff9;" 
d="M403 -8q-147 0 -248 98t-101 250t101 250t248 98q148 0 249 -98t101 -250t-101 -250t-249 -98zM403 57q119 0 197 80.5t78 202.5t-78 202.5t-197 80.5q-118 0 -196 -80.5t-78 -202.5t78 -202.5t196 -80.5zM-123 498l64 182h81l-90 -182h-55z" />
    <glyph glyph-name="uni1FFA" unicode="&#x1ffa;" 
d="M753 340q0 -86 -43.5 -161t-113.5 -115h152v-64h-271v60q89 33 145 108t56 172q0 120 -78.5 201.5t-196.5 81.5t-196 -81t-78 -202q0 -97 55.5 -172t144.5 -108v-60h-271v64h152q-70 41 -113 115.5t-43 160.5q0 150 100 249t249 99q150 0 250 -99t100 -249zM-26 680
l64 -182h-55l-90 182h81z" />
    <glyph glyph-name="uni1FFB" unicode="&#x1ffb;" 
d="M753 340q0 -86 -43.5 -161t-113.5 -115h152v-64h-271v60q89 33 145 108t56 172q0 120 -78.5 201.5t-196.5 81.5t-196 -81t-78 -202q0 -97 55.5 -172t144.5 -108v-60h-271v64h152q-70 41 -113 115.5t-43 160.5q0 150 100 249t249 99q150 0 250 -99t100 -249zM-123 498
l64 182h81l-90 -182h-55z" />
    <glyph glyph-name="uni1FFC" unicode="&#x1ffc;" 
d="M753 340q0 -86 -43.5 -161t-113.5 -115h152v-64h-271v60q89 33 145 108t56 172q0 120 -78.5 201.5t-196.5 81.5t-196 -81t-78 -202q0 -97 55.5 -172t144.5 -108v-60h-271v64h152q-70 41 -113 115.5t-43 160.5q0 150 100 249t249 99q150 0 250 -99t100 -249zM375 -118v60
h67v-38q0 -31 11.5 -44t36.5 -13h13v-59h-28q-100 0 -100 94z" />
    <glyph glyph-name="uni1FFD" unicode="&#x1ffd;" horiz-adv-x="500" 
d="M177 498l64 182h81l-90 -182h-55z" />
    <glyph glyph-name="uni1FFE" unicode="&#x1ffe;" horiz-adv-x="500" 
d="M271 609q-7 0 -18 7q-15 -15 -15 -32q0 -39 54 -57l-12 -35q-90 29 -90 102q0 39 21.5 64t54.5 25q18 0 30.5 -10t12.5 -28q0 -17 -11 -26.5t-27 -9.5z" />
    <glyph glyph-name="endash" unicode="&#x2013;" horiz-adv-x="394" 
d="M35 163v61h323v-61h-323z" />
    <glyph glyph-name="emdash" unicode="&#x2014;" horiz-adv-x="623" 
d="M35 163v61h553v-61h-553z" />
    <glyph glyph-name="quoteleft" unicode="&#x2018;" horiz-adv-x="199" 
d="M100 475q-21 0 -37 15.5t-16 36.5q0 17 13 41l55 112h38l-34 -104q13 -5 23 -18t10 -30q0 -22 -15.5 -37.5t-36.5 -15.5z" />
    <glyph glyph-name="quoteright" unicode="&#x2019;" horiz-adv-x="199" 
d="M46 482l34 104q-14 5 -23.5 18t-9.5 30q0 22 15.5 37.5t36.5 15.5t37 -15.5t16 -36.5q0 -13 -13 -41l-56 -112h-37z" />
    <glyph glyph-name="quotesinglbase" unicode="&#x201a;" horiz-adv-x="199" 
d="M46 -103l34 105q-14 4 -23.5 17t-9.5 31q0 21 15.5 36.5t36.5 15.5t37 -15.5t16 -36.5q0 -14 -13 -40l-56 -113h-37z" />
    <glyph glyph-name="quotedblleft" unicode="&#x201c;" horiz-adv-x="357" 
d="M258 475q-21 0 -37 15.5t-16 36.5q0 13 13 41l56 112h37l-34 -104q14 -5 23.5 -18t9.5 -30q0 -22 -15.5 -37.5t-36.5 -15.5zM100 475q-21 0 -37 15.5t-16 36.5q0 17 13 41l55 112h38l-34 -104q13 -5 23 -18t10 -30q0 -22 -15.5 -37.5t-36.5 -15.5z" />
    <glyph glyph-name="quotedblright" unicode="&#x201d;" horiz-adv-x="357" 
d="M204 482l34 104q-13 5 -23 18t-10 30q0 22 15.5 37.5t36.5 15.5t37 -15.5t16 -36.5q0 -17 -13 -41l-55 -112h-38zM46 482l34 104q-14 5 -23.5 18t-9.5 30q0 22 15.5 37.5t36.5 15.5t37 -15.5t16 -36.5q0 -13 -13 -41l-56 -112h-37z" />
    <glyph glyph-name="quotedblbase" unicode="&#x201e;" horiz-adv-x="357" 
d="M204 -103l34 105q-13 4 -23 17.5t-10 30.5q0 21 15.5 36.5t36.5 15.5t37 -15.5t16 -36.5q0 -17 -13 -40l-55 -113h-38zM46 -103l34 105q-14 4 -23.5 17t-9.5 31q0 21 15.5 36.5t36.5 15.5t37 -15.5t16 -36.5q0 -14 -13 -40l-56 -113h-37z" />
    <glyph glyph-name="dagger" unicode="&#x2020;" horiz-adv-x="337" 
d="M136 280v238h-93v58h93v104h65v-104h93v-58h-93v-238h-65z" />
    <glyph glyph-name="daggerdbl" unicode="&#x2021;" horiz-adv-x="337" 
d="M136 280v105h-93v54h93v82h-93v55h93v104h65v-104h93v-55h-93v-82h93v-54h-93v-105h-65z" />
    <glyph glyph-name="bullet" unicode="&#x2022;" horiz-adv-x="279" 
d="M139 168q-38 0 -66 27.5t-28 66.5q0 40 27.5 67.5t66.5 27.5t67 -27.5t28 -67.5q0 -39 -28 -66.5t-67 -27.5z" />
    <glyph glyph-name="ellipsis" unicode="&#x2026;" horiz-adv-x="616" 
d="M515 -7q-21 0 -37.5 16t-16.5 39t16 38.5t38 15.5t38 -15.5t16 -38.5t-16 -39t-38 -16zM308 -7q-21 0 -37.5 16t-16.5 39t16 38.5t38 15.5t38 -15.5t16 -38.5t-16 -39t-38 -16zM101 -7q-21 0 -37.5 16t-16.5 39t16 38.5t38 15.5t38 -15.5t16 -38.5t-16 -39t-38 -16z" />
    <glyph glyph-name="perthousand" unicode="&#x2030;" horiz-adv-x="1111" 
d="M178 218q-61 0 -105.5 42t-44.5 105t44.5 105t105.5 42t105 -42t44 -105t-44 -105t-105 -42zM191 0l315 504h70l-315 -504h-70zM934 -8q-61 0 -105 42t-44 104q0 63 44 105t105 42t105 -42t44 -105t-44 -104.5t-105 -41.5zM589 -8q-61 0 -105 41.5t-44 104.5t44 105
t105 42t105 -42t44 -105t-44 -104.5t-105 -41.5zM178 273q37 0 62.5 26t25.5 66q0 41 -25.5 66.5t-62.5 25.5t-63 -25.5t-26 -66.5q0 -40 26 -66t63 -26zM934 46q37 0 62.5 26t25.5 66t-25.5 66t-62.5 26q-36 0 -62 -26t-26 -66t26 -66t62 -26zM589 46q37 0 62.5 26t25.5 66
t-25.5 66t-62.5 26t-62.5 -26t-25.5 -66t25.5 -66t62.5 -26z" />
    <glyph glyph-name="guilsinglleft" unicode="&#x2039;" horiz-adv-x="242" 
d="M132 37l-94 159v8l94 157h72l-96 -161l96 -163h-72z" />
    <glyph glyph-name="guilsinglright" unicode="&#x203a;" horiz-adv-x="242" 
d="M38 37l96 162l-96 162h72l94 -158v-8l-94 -158h-72z" />
    <glyph glyph-name="fraction" unicode="&#x2044;" horiz-adv-x="424" 
d="M-34 0l421 680h71l-420 -680h-72z" />
    <glyph glyph-name="Euro" unicode="&#x20ac;" horiz-adv-x="621" 
d="M113 283h-73v56h85q26 78 92.5 125.5t151.5 47.5q128 0 199 -94l-52 -40q-54 73 -147 73q-60 0 -105 -30t-66 -82h217v-56h-231q-2 -20 -2 -31q0 -12 2 -32h231v-56h-216q21 -52 66.5 -81.5t103.5 -29.5q97 0 154 76l51 -36q-66 -101 -205 -101q-84 0 -151 47t-93 125
h-85v56h73q-2 20 -2 32q0 11 2 31z" />
    <glyph glyph-name="trademark" unicode="&#x2122;" horiz-adv-x="725" 
d="M346 383v302h9l144 -161l143 161h9v-302h-54v187l-93 -111h-10l-94 111v-187h-54zM138 383v251h-90v46h234v-46h-90v-251h-54z" />
    <glyph glyph-name="Omega" unicode="&#x2126;" 
d="M753 340q0 -86 -43.5 -161t-113.5 -115h152v-64h-271v60q89 33 145 108t56 172q0 120 -78.5 201.5t-196.5 81.5t-196 -81t-78 -202q0 -97 55.5 -172t144.5 -108v-60h-271v64h152q-70 41 -113 115.5t-43 160.5q0 150 100 249t249 99q150 0 250 -99t100 -249z" />
    <glyph glyph-name="Delta" unicode="&#x2206;" horiz-adv-x="655" 
d="M614 0h-573v11l278 676h12l283 -676v-11zM298 477l-165 -415h384l-166 415q-16 40 -26 80q-25 -75 -27 -80z" />
    <glyph glyph-name="minus" unicode="&#x2212;" horiz-adv-x="373" 
d="M334 221h-295v62h295v-62z" />
    <glyph glyph-name="space_uni0326" horiz-adv-x="500" 
d="M200 -256l32 99q-13 5 -22.5 17.5t-9.5 29.5q0 21 15.5 36t35.5 15q21 0 36.5 -15t15.5 -36q0 -17 -12 -39l-53 -107h-38z" />
    </font>
</defs>
</svg>
