<?xml version="1.0" standalone="no"?>
<!DOCTYPE svg PUBLIC "-//W3C//DTD SVG 1.1//EN" "http://www.w3.org/Graphics/SVG/1.1/DTD/svg11.dtd" >
<svg xmlns="http://www.w3.org/2000/svg" xmlns:xlink="http://www.w3.org/1999/xlink" version="1.1">
<metadata>
Created by FontForge 20161003 at Thu Jan 10 10:23:44 2019
 By www-data
Copyright (c) 2007 by Christian Schwartz, under exclusive license to House Industries/Brand Design Co, Greek by P. Haratzopoulos.. All rights reserved.
</metadata>
<defs>
<font id="NeutrafaceTwoTextGreekDemi" horiz-adv-x="803" >
  <font-face 
    font-family="NeutrafaceTwoTextGreekDemi"
    font-weight="600"
    font-stretch="normal"
    units-per-em="1000"
    panose-1="2 11 7 3 2 2 2 2 1 2"
    ascent="780"
    descent="-220"
    x-height="420"
    cap-height="680"
    bbox="-337 -269 1139 934"
    underline-thickness="20"
    underline-position="-153"
    unicode-range="U+0020-FB04"
  />
<missing-glyph horiz-adv-x="229" 
 />
    <glyph glyph-name="ff" unicode="ff" horiz-adv-x="620" 
d="M102 0v335h-69v85h69v146q0 74 34.5 111.5t97.5 37.5q69 0 109 -44l-54 -65q-18 18 -43 18q-43 0 -43 -57v-147h170v166q0 149 135 149q76 0 119 -52l-60 -64q-21 25 -49 25q-44 0 -44 -57v-167h113v-85h-113v-335h-101v335h-170v-335h-101z" />
    <glyph glyph-name="fi" unicode="fi" horiz-adv-x="542" 
d="M424 516q-28 0 -47.5 19t-19.5 48q0 28 20 47t47 19t47 -19t20 -47q0 -29 -19.5 -48t-47.5 -19zM102 0v335h-69v85h69v166q0 149 135 149q66 0 108 -42l-56 -68q-19 19 -43 19q-43 0 -43 -57v-167h272v-420h-102v335h-170v-335h-101z" />
    <glyph glyph-name="fl" unicode="fl" horiz-adv-x="544" 
d="M102 0v335h-69v85h69v166q0 74 34 111.5t97 37.5q62 0 104 -42l-56 -67q-15 18 -38 18q-40 0 -40 -57v-167h104v-85h-104v-335h-101zM373 0v722h102v-722h-102z" />
    <glyph glyph-name="ffi" unicode="ffi" horiz-adv-x="813" 
d="M696 516q-28 0 -48 19t-20 48q0 28 20 47t48 19q27 0 46.5 -19t19.5 -47q0 -29 -19.5 -48t-46.5 -19zM102 0v335h-69v85h69v146q0 74 34.5 111.5t97.5 37.5q69 0 109 -44l-54 -65q-18 18 -43 18q-43 0 -43 -57v-147h170v166q0 149 135 149q66 0 108 -42l-56 -68
q-19 19 -43 19q-43 0 -43 -57v-167h272v-420h-102v335h-170v-335h-101v335h-170v-335h-101z" />
    <glyph glyph-name="ffl" unicode="ffl" horiz-adv-x="815" 
d="M102 0v335h-69v85h69v146q0 74 34.5 111.5t97.5 37.5q69 0 109 -44l-54 -65q-18 18 -43 18q-43 0 -43 -57v-147h170v166q0 74 34 111.5t97 37.5q62 0 104 -42l-56 -67q-15 18 -38 18q-40 0 -40 -57v-167h104v-85h-104v-335h-101v335h-170v-335h-101zM644 0v722h102v-722
h-102z" />
    <glyph glyph-name=".notdef" horiz-adv-x="229" 
 />
    <glyph glyph-name=".null" horiz-adv-x="0" 
 />
    <glyph glyph-name="nonmarkingreturn" horiz-adv-x="333" 
 />
    <glyph glyph-name="space" unicode=" " horiz-adv-x="229" 
 />
    <glyph glyph-name="exclam" unicode="!" horiz-adv-x="262" 
d="M91 210l-17 470h114l-17 -470h-80zM131 -6q-28 0 -48 19.5t-20 48.5t20 48.5t48 19.5t48 -19.5t20 -48.5t-20 -48.5t-48 -19.5z" />
    <glyph glyph-name="quotedbl" unicode="&#x22;" horiz-adv-x="344" 
d="M209 452l-12 228h109l-12 -228h-85zM50 452l-12 228h108l-11 -228h-85z" />
    <glyph glyph-name="numbersign" unicode="#" horiz-adv-x="493" 
d="M65 160l26 104h-60v78h79l23 92h-63v79h82l27 103h80l-26 -103h88l26 103h81l-26 -103h60v-79h-79l-23 -92h62v-78h-82l-26 -104h-81l26 104h-88l-25 -104h-81zM191 342h88l23 92h-87z" />
    <glyph glyph-name="dollar" unicode="$" horiz-adv-x="467" 
d="M206 -8q-72 7 -120 40t-70 77l76 42q39 -67 114 -78v152q-161 40 -161 153q0 57 42.5 97.5t118.5 44.5v104h55v-106q97 -14 145 -87l-67 -49q-26 45 -78 58v-135q88 -22 131.5 -61t43.5 -100q0 -68 -44.5 -108t-130.5 -44v-109h-55v109zM206 443q-68 -6 -68 -57
q0 -25 14.5 -39.5t53.5 -25.5v122zM261 72q80 7 80 63q0 28 -17.5 45.5t-62.5 30.5v-139z" />
    <glyph glyph-name="percent" unicode="%" horiz-adv-x="809" 
d="M183 218q-64 0 -110 43t-46 108t46 108.5t110 43.5t110 -43.5t46 -108.5t-46 -108t-110 -43zM193 0l322 513h101l-322 -513h-101zM626 -9q-64 0 -110 43t-46 109q0 65 46 108.5t110 43.5t110 -43.5t46 -108.5q0 -66 -46 -109t-110 -43zM183 295q29 0 50 20.5t21 53.5
t-21 54t-50 21t-50 -21t-21 -54t21 -53.5t50 -20.5zM626 69q29 0 50 20.5t21 53.5t-21 53.5t-50 20.5t-49.5 -20.5t-20.5 -53.5t20.5 -53.5t49.5 -20.5z" />
    <glyph glyph-name="ampersand" unicode="&#x26;" horiz-adv-x="673" 
d="M345 377l130 -160q27 65 27 148h95q0 -129 -58 -226l113 -139h-125l-52 64q-84 -73 -197 -73q-111 0 -175 53t-64 140q0 74 40 120.5t126 90.5q-57 70 -57 143q0 64 44.5 107t117.5 43q72 0 116 -41t44 -107q0 -96 -125 -163zM294 439q83 47 83 101q0 30 -18 47.5
t-47 17.5q-30 0 -48.5 -18t-18.5 -48q0 -40 38 -87zM417 135l-162 199q-56 -29 -81.5 -62.5t-25.5 -80.5q0 -52 33 -80t97 -28q81 0 139 52z" />
    <glyph glyph-name="quotesingle" unicode="'" horiz-adv-x="184" 
d="M50 452l-12 228h108l-11 -228h-85z" />
    <glyph glyph-name="parenleft" unicode="(" horiz-adv-x="315" 
d="M227 -137q-181 181 -181 428t181 428l62 -51q-136 -160 -136 -377t136 -377z" />
    <glyph glyph-name="parenright" unicode=")" horiz-adv-x="315" 
d="M88 -137l-62 51q136 160 136 377t-136 377l62 51q181 -183 181 -428t-181 -428z" />
    <glyph glyph-name="asterisk" unicode="*" horiz-adv-x="409" 
d="M159 368l22 118l-90 -77l-44 76l115 39l-115 40l44 76l90 -77l-22 117h90l-22 -117l91 77l44 -76l-117 -40l117 -39l-44 -76l-91 77l22 -118h-90z" />
    <glyph glyph-name="plus" unicode="+" horiz-adv-x="391" 
d="M150 96v118h-111v89h111v118h91v-118h111v-89h-111v-118h-91z" />
    <glyph glyph-name="comma" unicode="," horiz-adv-x="225" 
d="M48 -114l38 116q-42 17 -42 62q0 28 20.5 47.5t48.5 19.5t48 -19.5t20 -48.5q0 -26 -21 -62l-59 -115h-53z" />
    <glyph glyph-name="hyphen" unicode="-" horiz-adv-x="294" 
d="M41 191v91h211v-91h-211z" />
    <glyph glyph-name="period" unicode="." horiz-adv-x="223" 
d="M112 -6q-28 0 -48.5 20t-20.5 49t20.5 48.5t48.5 19.5t48 -19.5t20 -48.5t-20 -49t-48 -20z" />
    <glyph glyph-name="slash" unicode="/" horiz-adv-x="416" 
d="M0 -128l290 850h100l-290 -850h-100z" />
    <glyph glyph-name="zero" unicode="0" horiz-adv-x="618" 
d="M308 -9q-109 0 -189.5 76.5t-80.5 189.5q0 114 80.5 189t189.5 75q111 0 191.5 -75t80.5 -189q0 -113 -81 -189.5t-191 -76.5zM308 82q71 0 118 49t47 126q0 78 -47 126t-118 48q-70 0 -116.5 -48.5t-46.5 -125.5t47 -126t116 -49z" />
    <glyph glyph-name="one" unicode="1" horiz-adv-x="307" 
d="M131 0v428h-106v85h209v-513h-103z" />
    <glyph glyph-name="two" unicode="2" horiz-adv-x="476" 
d="M25 0v10l201 198q54 53 75 82.5t21 63.5q0 35 -22.5 55t-58.5 20q-73 0 -104 -92l-96 27q19 74 72 115.5t127 41.5q88 0 137.5 -45.5t49.5 -115.5q0 -92 -111 -193l-47 -43q-35 -31 -55 -41l12 1q12 1 27 2t23 1h160v-87h-411z" />
    <glyph glyph-name="three" unicode="3" horiz-adv-x="508" 
d="M244 -103q-82 0 -139 37t-86 98l88 45q39 -89 137 -89q52 0 86 32t34 89q0 55 -37 83.5t-98 28.5q-55 0 -90 -19l-10 11l141 183l33 36q-28 -4 -54 -4h-178v85h388v-9l-143 -183q-19 -24 -30 -30q79 -6 132.5 -55t53.5 -129q0 -89 -62 -149.5t-166 -60.5z" />
    <glyph glyph-name="four" unicode="4" horiz-adv-x="537" 
d="M431 91h72v-80h-72v-105h-100v105h-308v62l396 448h12v-430zM331 91v160l4 61q-18 -27 -34 -45l-120 -142l-39 -37q25 3 50 3h139z" />
    <glyph glyph-name="five" unicode="5" horiz-adv-x="496" 
d="M235 -103q-79 0 -133 34t-78 86l87 45q37 -74 123 -74q54 0 86 31t32 82q0 53 -32 82.5t-92 29.5q-79 0 -140 -51l-10 4v347h348v-85h-263v-150q36 22 92 22q91 0 148 -56.5t57 -143.5q0 -88 -60 -145.5t-165 -57.5z" />
    <glyph glyph-name="six" unicode="6" horiz-adv-x="518" 
d="M260 -9q-94 0 -158 58t-64 147q0 81 74 186l158 227h114l-130 -186q-24 -34 -53 -55q39 26 86 26q83 0 138 -54.5t55 -141.5q0 -92 -63 -149.5t-157 -57.5zM259 81q52 0 85 33.5t33 83.5q0 51 -32 84t-86 33q-53 0 -85.5 -34.5t-32.5 -82.5q0 -50 32 -83.5t86 -33.5z" />
    <glyph glyph-name="seven" unicode="7" horiz-adv-x="468" 
d="M67 -94l237 522h-273v85h410v-10l-269 -597h-105z" />
    <glyph glyph-name="eight" unicode="8" horiz-adv-x="530" 
d="M265 -9q-98 0 -162 52.5t-64 136.5q0 54 32 95t87 61q-81 37 -81 121q0 69 51 115t137 46q88 0 138.5 -45.5t50.5 -115.5q0 -85 -81 -122q54 -20 85.5 -60.5t31.5 -94.5q0 -84 -63 -136.5t-162 -52.5zM265 82q55 0 87.5 28t32.5 77t-33 78t-87 29q-55 0 -87.5 -29
t-32.5 -78t32.5 -77t87.5 -28zM265 374q38 0 61 21.5t23 58.5t-23 58.5t-61 21.5q-39 0 -62.5 -21.5t-23.5 -58.5q0 -36 23.5 -58t62.5 -22z" />
    <glyph glyph-name="nine" unicode="9" horiz-adv-x="521" 
d="M142 -94l127 184q16 24 50 53q-35 -26 -82 -26q-86 0 -142.5 54.5t-56.5 142.5q0 91 63.5 149t158.5 58t159 -56.5t64 -148.5q0 -47 -18 -88.5t-57 -99.5l-151 -222h-115zM260 196q54 0 86.5 34.5t32.5 83.5q0 50 -32.5 83.5t-86.5 33.5q-53 0 -86 -33.5t-33 -83.5
q0 -51 32.5 -84.5t86.5 -33.5z" />
    <glyph glyph-name="colon" unicode=":" horiz-adv-x="233" 
d="M117 220q-28 0 -48.5 20t-20.5 50q0 29 20.5 49t48.5 20t48 -20t20 -49q0 -30 -20.5 -50t-47.5 -20zM117 -6q-28 0 -48.5 20t-20.5 49t20.5 49t48.5 20t48 -20t20 -49t-20 -49t-48 -20z" />
    <glyph glyph-name="semicolon" unicode=";" horiz-adv-x="235" 
d="M118 220q-28 0 -48.5 20t-20.5 50q0 29 20.5 49t48.5 20t48 -20t20 -49q0 -30 -20 -50t-48 -20zM53 -114l38 116q-42 17 -42 62q0 28 20.5 47.5t48.5 19.5t48 -19.5t20 -48.5q0 -26 -21 -62l-59 -115h-53z" />
    <glyph glyph-name="less" unicode="&#x3c;" horiz-adv-x="357" 
d="M314 84l-284 155v10l284 153v-89l-139 -70l139 -69v-90z" />
    <glyph glyph-name="equal" unicode="=" horiz-adv-x="387" 
d="M39 280v88h309v-88h-309zM39 134v88h309v-88h-309z" />
    <glyph glyph-name="greater" unicode="&#x3e;" horiz-adv-x="357" 
d="M43 84v89l138 70l-138 69v90l284 -155v-10z" />
    <glyph glyph-name="question" unicode="?" horiz-adv-x="491" 
d="M175 208v168h39q61 0 94 33t33 82q0 46 -29.5 76.5t-76.5 30.5q-81 0 -122 -78l-82 47q53 122 204 122q95 0 152.5 -56.5t57.5 -141.5q0 -80 -47 -131.5t-128 -60.5v-91h-95zM221 -6q-28 0 -48 19.5t-20 48.5t20 48.5t48 19.5t48 -19.5t20 -48.5t-20 -48.5t-48 -19.5z
" />
    <glyph glyph-name="at" unicode="@" horiz-adv-x="905" 
d="M462 -207q-181 0 -299.5 110t-118.5 290q0 116 57.5 209.5t152 144t204.5 50.5q178 0 290.5 -104t112.5 -267q0 -114 -45.5 -172.5t-124.5 -58.5q-103 0 -127 85q-42 -89 -140 -89q-74 0 -124.5 55t-50.5 140t50 141.5t124 56.5q82 0 121 -74l-2 64h98v-229
q0 -39 12.5 -57t41.5 -18q79 0 79 155q0 138 -84.5 216t-230.5 78q-141 0 -230.5 -91.5t-89.5 -234.5q0 -144 86.5 -232.5t236.5 -88.5q87 0 162 33l33 -71q-86 -41 -194 -41zM450 74q40 0 67 32.5t27 79.5q0 48 -27 81t-67 33q-44 0 -70.5 -32t-26.5 -82q0 -49 26.5 -80.5
t70.5 -31.5z" />
    <glyph glyph-name="A" unicode="A" horiz-adv-x="659" 
d="M29 0l291 687h12l298 -687h-110l-50 124h-289l-50 -124h-102zM217 212h215l-74 185q-28 68 -34 100l-2 -7q-2 -8 -5.5 -18.5t-7.5 -23t-9 -26.5t-9 -25z" />
    <glyph glyph-name="B" unicode="B" horiz-adv-x="603" 
d="M82 0v680h242q97 0 149 -49.5t52 -127.5q0 -52 -26 -90t-75 -53q133 -31 133 -167q0 -86 -56.5 -139.5t-159.5 -53.5h-259zM188 93h147q57 0 86.5 29t29.5 79q0 51 -31.5 80t-90.5 29h-141v-217zM188 399h130q52 0 77.5 25t25.5 69q0 94 -105 94h-128v-188z" />
    <glyph glyph-name="C" unicode="C" horiz-adv-x="720" 
d="M400 -9q-147 0 -248 99t-101 250q0 150 101 249t248 99q182 0 272 -135l-81 -58q-63 98 -191 98q-105 0 -173 -72t-68 -181t68 -181.5t173 -72.5q129 0 201 107l81 -57q-95 -145 -282 -145z" />
    <glyph glyph-name="D" unicode="D" horiz-adv-x="682" 
d="M82 0v680h187q163 0 263 -93.5t100 -246.5t-99.5 -246.5t-263.5 -93.5h-187zM188 93h74q128 0 194 67t66 180t-66 180t-194 67h-74v-494z" />
    <glyph glyph-name="E" unicode="E" horiz-adv-x="587" 
d="M82 0v680h432v-93h-326v-200h289v-91h-289v-203h340v-93h-446z" />
    <glyph glyph-name="F" unicode="F" horiz-adv-x="556" 
d="M82 0v680h424v-93h-318v-219h288v-94h-288v-274h-106z" />
    <glyph glyph-name="G" unicode="G" horiz-adv-x="741" 
d="M414 -9q-159 0 -261 98t-102 251q0 152 98.5 250t250.5 98q160 0 241 -91l-71 -71q-64 67 -170 67t-173.5 -72t-67.5 -181q0 -110 70 -182t185 -72q103 0 167 44v127h-183v92h280v-271q-39 -35 -108 -61t-156 -26z" />
    <glyph glyph-name="H" unicode="H" horiz-adv-x="703" 
d="M82 0v680h106v-303h327v303h106v-680h-106v283h-327v-283h-106z" />
    <glyph glyph-name="I" unicode="I" horiz-adv-x="276" 
d="M86 0v680h105v-680h-105z" />
    <glyph glyph-name="J" unicode="J" horiz-adv-x="489" 
d="M216 -9q-135 0 -193 115l86 53q41 -73 102 -73q94 0 94 106v488h106v-490q0 -98 -53 -148.5t-142 -50.5z" />
    <glyph glyph-name="K" unicode="K" horiz-adv-x="627" 
d="M82 0v680h106v-266q0 -29 -8 -101q34 65 54 91l222 276h119l-239 -301l265 -379h-127l-209 300l-77 -93v-207h-106z" />
    <glyph glyph-name="L" unicode="L" horiz-adv-x="544" 
d="M82 0v680h106v-587h314v-93h-420z" />
    <glyph glyph-name="M" unicode="M" horiz-adv-x="833" 
d="M82 0v687h11l325 -380l322 380h11v-687h-101v353q0 10 0.5 24t1 26t1 22.5t1.5 17.5v7l-10 -14q-10 -14 -24.5 -34t-26.5 -33l-171 -206h-12l-171 206q-9 10 -19.5 24.5t-18.5 25.5t-15 21l-7 10l1 -7q0 -7 0.5 -17.5t1 -22.5t1 -26t0.5 -24v-353h-101z" />
    <glyph glyph-name="N" unicode="N" horiz-adv-x="707" 
d="M612 -7l-375 404l-64 76q7 -56 7 -98v-375h-98v687h14l375 -403l63 -76q-7 60 -7 98v374h98v-687h-13z" />
    <glyph glyph-name="O" unicode="O" 
d="M402 -9q-148 0 -249.5 99t-101.5 250t101.5 250t249.5 99q147 0 248.5 -99t101.5 -250t-101.5 -250t-248.5 -99zM402 86q106 0 174 72.5t68 181.5t-68 181.5t-174 72.5t-174.5 -72.5t-68.5 -181.5t68.5 -181.5t174.5 -72.5z" />
    <glyph glyph-name="P" unicode="P" horiz-adv-x="591" 
d="M82 0v680h219q111 0 179 -55.5t68 -163.5q0 -107 -68 -163.5t-179 -56.5h-113v-241h-106zM188 334h109q143 0 143 127q0 126 -143 126h-109v-253z" />
    <glyph glyph-name="Q" unicode="Q" horiz-adv-x="802" 
d="M653 93l99 -110l-70 -59l-102 113q-80 -46 -178 -46q-148 0 -249.5 99t-101.5 250t101.5 250t249.5 99q147 0 248.5 -99t101.5 -250q0 -148 -99 -247zM514 110l-94 105l71 59l96 -107q57 68 57 173q0 109 -68 181.5t-174 72.5t-174.5 -72.5t-68.5 -181.5t68.5 -181.5
t174.5 -72.5q61 0 112 24z" />
    <glyph glyph-name="R" unicode="R" horiz-adv-x="616" 
d="M82 0v680h228q111 0 179 -54t68 -162q0 -73 -36.5 -122.5t-101.5 -72.5l160 -269h-121l-147 252h-123v-252h-106zM188 341h118q142 0 142 123t-142 123h-118v-246z" />
    <glyph glyph-name="S" unicode="S" horiz-adv-x="533" 
d="M266 -9q-91 0 -152.5 39t-92.5 102l87 48q28 -46 63.5 -70.5t92.5 -24.5q52 0 85 25.5t33 67.5q0 41 -26.5 66t-87.5 52l-45 20q-81 36 -120 80.5t-39 118.5q0 76 53.5 124.5t137.5 48.5q132 0 192 -107l-83 -51q-20 35 -45 50.5t-64 15.5q-40 0 -64 -22t-24 -57
q0 -37 22 -58.5t76 -45.5l44 -20q93 -41 135.5 -88.5t42.5 -125.5q0 -87 -61.5 -137.5t-159.5 -50.5z" />
    <glyph glyph-name="T" unicode="T" horiz-adv-x="573" 
d="M234 0v587h-202v93h509v-93h-202v-587h-105z" />
    <glyph glyph-name="U" unicode="U" horiz-adv-x="674" 
d="M337 -9q-116 0 -187.5 64t-71.5 184v441h106v-435q0 -159 153 -159q154 0 154 159v435h105v-441q0 -120 -72 -184t-187 -64z" />
    <glyph glyph-name="V" unicode="V" horiz-adv-x="659" 
d="M327 -7l-298 687h113l153 -365q9 -20 19 -50.5t16 -50.5l6 -20q19 75 40 121l151 365h103l-290 -687h-13z" />
    <glyph glyph-name="W" unicode="W" horiz-adv-x="955" 
d="M266 -7l-237 687h111l120 -362q8 -24 26 -97q30 89 33 97l156 369h13l157 -369q5 -12 11 -29.5t10 -30.5t7.5 -24.5t3.5 -12.5q0 2 4 17.5t10.5 39t12.5 40.5l120 362h103l-235 -687h-13l-169 405q-3 6 -28 82q0 -1 -5 -14.5t-12 -33.5t-13 -34l-173 -405h-13z" />
    <glyph glyph-name="X" unicode="X" horiz-adv-x="647" 
d="M35 0l228 372l-191 308h117l103 -166q7 -11 14.5 -27t13.5 -29l5 -13q7 27 31 69l101 166h114l-188 -308l230 -372h-117l-141 228q-28 45 -34 69l-5 -13q-5 -13 -12.5 -28.5t-14.5 -27.5l-140 -228h-114z" />
    <glyph glyph-name="Y" unicode="Y" horiz-adv-x="623" 
d="M264 0v249l-237 431h119l131 -245l41 -97q22 59 41 97l128 245h109l-226 -424v-256h-106z" />
    <glyph glyph-name="Z" unicode="Z" horiz-adv-x="586" 
d="M33 0v11l344 576h-289v93h454v-11l-342 -576h335v-93h-502z" />
    <glyph glyph-name="bracketleft" unicode="[" horiz-adv-x="320" 
d="M68 -128v850h219v-86h-117v-678h117v-86h-219z" />
    <glyph glyph-name="backslash" unicode="\" horiz-adv-x="416" 
d="M316 -128l-290 850h100l290 -850h-100z" />
    <glyph glyph-name="bracketright" unicode="]" horiz-adv-x="321" 
d="M33 -128v86h118v678h-118v86h220v-850h-220z" />
    <glyph glyph-name="asciicircum" unicode="^" horiz-adv-x="427" 
d="M61 455l148 232h10l147 -232h-82l-70 99l-71 -99h-82z" />
    <glyph glyph-name="underscore" unicode="_" horiz-adv-x="269" 
d="M-2 -128v90h273v-90h-273z" />
    <glyph glyph-name="grave" unicode="`" horiz-adv-x="500" 
d="M211 499l-98 190h116l60 -190h-78z" />
    <glyph glyph-name="a" unicode="a" horiz-adv-x="479" 
d="M318 250q0 95 -84 95q-66 0 -110 -50l-58 59q63 75 176 75q80 0 128.5 -46t48.5 -135v-248h-101l3 60q-46 -69 -132 -69q-67 0 -109 33t-42 100q0 63 45 94t120 32h115zM318 180h-108q-73 0 -73 -53q0 -55 80 -55q45 0 73 20.5t28 54.5v33z" />
    <glyph glyph-name="b" unicode="b" horiz-adv-x="551" 
d="M310 -9q-104 0 -147 85l3 -76h-102v722h102v-375q48 82 146 82q83 0 139 -62t56 -156t-57 -157t-140 -63zM284 80q55 0 87 36t32 95q0 57 -32.5 92.5t-86.5 35.5q-55 0 -88.5 -35.5t-33.5 -92.5q0 -59 33.5 -95t88.5 -36z" />
    <glyph glyph-name="c" unicode="c" horiz-adv-x="471" 
d="M267 -9q-96 0 -160 62.5t-64 156.5t64 156.5t160 62.5q106 0 170 -80l-72 -58q-34 49 -98 49q-55 0 -87.5 -36.5t-32.5 -93.5t32.5 -93.5t87.5 -36.5q61 0 103 47l69 -60q-66 -76 -172 -76z" />
    <glyph glyph-name="d" unicode="d" horiz-adv-x="551" 
d="M241 -9q-83 0 -140 63t-57 157t57 156t138 62q98 0 146 -82v375h102v-722h-102l3 76q-43 -85 -147 -85zM267 80q55 0 88.5 36t33.5 95q0 57 -33.5 92.5t-88.5 35.5q-54 0 -86.5 -35.5t-32.5 -92.5q0 -59 32 -95t87 -36z" />
    <glyph glyph-name="e" unicode="e" horiz-adv-x="527" 
d="M146 176q20 -100 133 -100q72 0 119 45l59 -62q-68 -68 -177 -68q-107 0 -172 61.5t-65 157.5q0 93 64.5 156t159.5 63q106 0 164 -70.5t53 -182.5h-338zM146 246h236q-16 99 -114 99q-49 0 -81 -26t-41 -73z" />
    <glyph glyph-name="f" unicode="f" horiz-adv-x="348" 
d="M102 0v335h-69v85h69v166q0 149 135 149q76 0 119 -52l-60 -64q-21 25 -49 25q-44 0 -44 -57v-167h113v-85h-113v-335h-101z" />
    <glyph glyph-name="g" unicode="g" horiz-adv-x="551" 
d="M269 -222q-77 0 -133 30t-86 80l73 54q54 -79 141 -79q122 0 122 136v73q-43 -81 -145 -81q-83 0 -140 63t-57 157t57 156t138 62q104 0 150 -87l-3 78h101v-426q0 -110 -59.5 -163t-158.5 -53zM267 80q55 0 88.5 36t33.5 95q0 57 -33.5 92.5t-88.5 35.5
q-54 0 -86.5 -35.5t-32.5 -92.5q0 -59 32 -95t87 -36z" />
    <glyph glyph-name="h" unicode="h" horiz-adv-x="522" 
d="M64 0v722h101v-376q43 83 140 83q71 0 114 -48t43 -132v-249h-101v241q0 95 -87 95q-50 0 -79.5 -28.5t-29.5 -79.5v-228h-101z" />
    <glyph glyph-name="i" unicode="i" horiz-adv-x="236" 
d="M118 516q-28 0 -47.5 19t-19.5 48q0 28 20 47t47 19t47 -19t20 -47q0 -29 -19.5 -48t-47.5 -19zM67 0v420h102v-420h-102z" />
    <glyph glyph-name="j" unicode="j" horiz-adv-x="235" 
d="M118 516q-28 0 -47.5 19t-19.5 48q0 28 20 47t47 19t47 -19t20 -47q0 -29 -19.5 -48t-47.5 -19zM38 -222q-65 0 -103 46l51 64q21 -19 42 -19q20 0 29.5 10t9.5 35v506h102v-503q0 -67 -34.5 -103t-96.5 -36z" />
    <glyph glyph-name="k" unicode="k" horiz-adv-x="478" 
d="M165 124v-124h-101v722h101v-417q0 -19 -5 -74l168 189h115l-155 -175l176 -245h-119l-127 179z" />
    <glyph glyph-name="l" unicode="l" horiz-adv-x="237" 
d="M68 0v722h101v-722h-101z" />
    <glyph glyph-name="m" unicode="m" horiz-adv-x="773" 
d="M64 0v420h101l-2 -72q43 81 125 81q88 0 123 -80q53 80 144 80q74 0 116 -46t42 -127v-256h-101v246q0 45 -18.5 67.5t-60.5 22.5q-45 0 -69.5 -27t-24.5 -79v-230h-101v246q0 45 -18 67.5t-60 22.5q-46 0 -70.5 -27t-24.5 -79v-230h-101z" />
    <glyph glyph-name="n" unicode="n" horiz-adv-x="522" 
d="M64 0v420h101l-2 -78q19 41 57 64t85 23q71 0 114 -48t43 -132v-249h-101v241q0 95 -87 95q-50 0 -79.5 -28.5t-29.5 -79.5v-228h-101z" />
    <glyph glyph-name="o" unicode="o" horiz-adv-x="539" 
d="M270 -9q-96 0 -161.5 63t-65.5 156t65.5 156t161.5 63t161 -62.5t65 -156.5t-65 -156.5t-161 -62.5zM270 78q56 0 89 37t33 95t-33 94.5t-89 36.5t-89.5 -36.5t-33.5 -94.5t33.5 -95t89.5 -37z" />
    <glyph glyph-name="p" unicode="p" horiz-adv-x="551" 
d="M64 -212v632h102l-3 -78q45 87 149 87q82 0 138.5 -62t56.5 -156t-57 -157t-140 -63q-51 0 -88 22t-56 59v-284h-102zM284 80q55 0 87 36t32 95q0 57 -32.5 92.5t-86.5 35.5q-55 0 -88.5 -35.5t-33.5 -92.5q0 -59 33.5 -95t88.5 -36z" />
    <glyph glyph-name="q" unicode="q" horiz-adv-x="551" 
d="M386 -212v284q-43 -81 -145 -81q-83 0 -140 63t-57 157t57 156t138 62q104 0 150 -87l-3 78h101v-632h-101zM267 80q55 0 88.5 36t33.5 95q0 57 -33.5 92.5t-88.5 35.5q-54 0 -86.5 -35.5t-32.5 -92.5q0 -59 32 -95t87 -36z" />
    <glyph glyph-name="r" unicode="r" horiz-adv-x="373" 
d="M64 0v420h101l-1 -79q37 87 122 87q40 0 69 -18l-34 -91q-28 14 -55 14q-101 0 -101 -129v-204h-101z" />
    <glyph glyph-name="s" unicode="s" horiz-adv-x="415" 
d="M214 -9q-67 0 -116 25t-72 62l69 48q38 -54 113 -54q74 0 74 45q0 21 -17 31t-66 23q-12 3 -19 5q-57 16 -90.5 44.5t-33.5 84.5q0 60 42 92t108 32q88 0 146 -63l-59 -58q-36 41 -87 41q-59 0 -59 -39q0 -22 18 -32t74 -24q30 -8 50.5 -16t42.5 -22.5t33.5 -38
t11.5 -55.5q0 -59 -39.5 -95t-123.5 -36z" />
    <glyph glyph-name="t" unicode="t" horiz-adv-x="358" 
d="M225 -10q-129 0 -129 152v193h-63v85h63v162h101v-162h112v-85h-112v-195q0 -63 42 -63q26 0 53 22l42 -69q-44 -40 -109 -40z" />
    <glyph glyph-name="u" unicode="u" horiz-adv-x="520" 
d="M216 -9q-70 0 -113 47.5t-43 131.5v250h101v-242q0 -95 87 -95q50 0 78.5 29t28.5 80v228h101v-420h-101l2 77q-20 -41 -56.5 -63.5t-84.5 -22.5z" />
    <glyph glyph-name="v" unicode="v" horiz-adv-x="475" 
d="M232 -9l-215 429h112l85 -186q9 -19 29 -90q10 50 27 90l85 186h103l-213 -429h-13z" />
    <glyph glyph-name="w" unicode="w" horiz-adv-x="685" 
d="M200 -10l-183 430h112l67 -172l25 -79q13 48 29 79l90 180h10l93 -188q7 -13 14.5 -33t11.5 -33l4 -13q13 48 25 79l69 180h101l-184 -430h-11l-104 204q-12 21 -24 70q-10 -39 -26 -70l-108 -204h-11z" />
    <glyph glyph-name="x" unicode="x" horiz-adv-x="492" 
d="M24 0l164 221l-143 199h120l57 -81q6 -9 12.5 -22t9.5 -21l4 -9q10 31 25 52l60 81h111l-140 -191l164 -229h-120l-75 105q-23 31 -31 57q0 -1 -4.5 -11t-11.5 -23.5t-14 -22.5l-77 -105h-111z" />
    <glyph glyph-name="y" unicode="y" horiz-adv-x="476" 
d="M80 -212l109 250l-172 382h112l88 -210q6 -14 12 -36t9 -36l3 -15q9 55 23 87l90 210h105l-275 -632h-104z" />
    <glyph glyph-name="z" unicode="z" horiz-adv-x="429" 
d="M28 0v11l216 327h-192v82h347v-11l-217 -327h206v-82h-360z" />
    <glyph glyph-name="braceleft" unicode="{" horiz-adv-x="390" 
d="M286 -128q-145 0 -145 144v171q0 37 -14 52t-44 15h-57v87h57q30 0 44 15.5t14 52.5v169q0 144 145 144h71v-86h-63q-27 0 -39 -14t-12 -47v-179q0 -84 -78 -98q78 -14 78 -99v-180q0 -33 12 -47t39 -14h63v-86h-71z" />
    <glyph glyph-name="bar" unicode="|" horiz-adv-x="257" 
d="M80 -128v850h97v-850h-97z" />
    <glyph glyph-name="braceright" unicode="}" horiz-adv-x="390" 
d="M33 -128v86h63q27 0 38.5 14t11.5 47v180q0 84 79 98q-79 16 -79 100v178q0 33 -11.5 47t-38.5 14h-63v86h71q145 0 145 -144v-169q0 -37 14 -52.5t44 -15.5h57v-87h-57q-30 0 -44 -15t-14 -52v-171q0 -144 -145 -144h-71z" />
    <glyph glyph-name="asciitilde" unicode="~" horiz-adv-x="400" 
d="M113 215l-71 7q3 60 30 92.5t68 32.5q32 0 66 -27q35 -26 49 -26q28 0 32 52l71 -7q-3 -61 -29.5 -93t-68.5 -32q-32 0 -66 27q-3 2 -9 7t-8.5 6.5t-6.5 4.5t-6 3.5t-5.5 2t-6.5 2t-6 0.5q-29 0 -33 -52z" />
    <glyph glyph-name="uni00A0" unicode="&#xa0;" horiz-adv-x="182" 
 />
    <glyph glyph-name="sterling" unicode="&#xa3;" horiz-adv-x="562" 
d="M169 253h-96v79h61q-25 64 -25 108q0 77 55 127.5t148 50.5q68 0 117.5 -31t75.5 -85l-84 -49q-19 39 -44 56.5t-65 17.5q-46 0 -73 -24t-27 -68q0 -41 23 -103h160v-79h-129q25 -71 25 -127v-9q59 -37 102 -37q50 0 86 41l61 -61q-53 -69 -143 -69q-70 0 -139 54
q-47 -54 -117 -54q-53 0 -85 28t-32 73q0 43 30 68.5t75 25.5q34 0 69 -15q-7 33 -29 82zM200 94q-37 28 -61 28q-18 0 -28.5 -9t-10.5 -24t11 -24.5t29 -9.5q43 0 60 39z" />
    <glyph glyph-name="yen" unicode="&#xa5;" horiz-adv-x="553" 
d="M223 0v120h-170v68h169l-38 66h-131v67h93l-110 192h114l96 -180q20 -39 33 -84q7 34 34 84l100 180h105l-114 -192h92v-67h-131l-38 -66h169v-68h-170v-120h-103z" />
    <glyph glyph-name="section" unicode="&#xa7;" horiz-adv-x="509" 
d="M115 392q-24 37 -24 82q0 63 46.5 103.5t117.5 40.5q117 0 168 -101l-81 -39q-30 58 -83 58q-34 0 -52.5 -16t-18.5 -43q0 -47 54 -67l101 -39q136 -51 136 -147q0 -76 -82 -112q24 -32 24 -78q0 -63 -45.5 -100t-127.5 -37q-68 0 -119 30.5t-72 76.5l81 42
q31 -66 106 -66q35 0 55.5 14.5t20.5 38.5q0 21 -14 35t-47 27l-91 35q-72 27 -105 63t-33 89q0 38 23 66.5t62 43.5zM348 156q37 15 37 51q0 27 -15.5 43.5t-54.5 31.5l-100 39q-35 13 -57 30q-33 -17 -33 -54q0 -28 14.5 -45t52.5 -32l93 -35q40 -16 63 -29z" />
    <glyph glyph-name="dieresis" unicode="&#xa8;" horiz-adv-x="500" 
d="M344 522q-24 0 -42 18t-18 42q0 25 18 43t42 18t42.5 -18t18.5 -43q0 -24 -18.5 -42t-42.5 -18zM156 522q-24 0 -42.5 18t-18.5 42q0 25 18.5 43t42.5 18t42 -18t18 -43t-18 -42.5t-42 -17.5z" />
    <glyph glyph-name="copyright" unicode="&#xa9;" horiz-adv-x="596" 
d="M299 -6q-108 0 -186.5 75.5t-78.5 187.5q0 113 78 188.5t187 75.5q108 0 185.5 -75.5t77.5 -188.5q0 -112 -77.5 -187.5t-185.5 -75.5zM299 43q89 0 150 60t61 154t-61 154.5t-150 60.5q-90 0 -151.5 -60.5t-61.5 -154.5t61.5 -154t151.5 -60zM303 109q-65 0 -107.5 42
t-42.5 106q0 65 42.5 107.5t105.5 42.5q71 0 119 -53l-56 -51q-22 28 -57 28q-30 0 -48 -20.5t-18 -53.5q0 -31 18.5 -52t48.5 -21q37 0 58 29l56 -50q-45 -54 -119 -54z" />
    <glyph glyph-name="ordfeminine" unicode="&#xaa;" horiz-adv-x="415" 
d="M272 370q-1 41 -18.5 58t-50.5 17q-52 0 -92 -42l-56 51q56 67 157 67q68 0 110.5 -38t42.5 -116v-209h-93l2 45q-38 -54 -108 -54q-57 0 -94 28.5t-37 82.5t40 82t103 28h94zM272 307h-85q-60 0 -60 -41q0 -44 62 -44q38 0 60.5 16.5t22.5 45.5v23z" />
    <glyph glyph-name="guillemotleft" unicode="&#xab;" horiz-adv-x="449" 
d="M314 35l-95 163v8l95 161h100l-97 -165l97 -167h-100zM129 35l-94 163v8l94 161h101l-97 -165l97 -167h-101z" />
    <glyph glyph-name="registered" unicode="&#xae;" horiz-adv-x="509" 
d="M172 363v227h90q42 0 66 -21t24 -55q0 -51 -44 -68l48 -83h-58l-42 75h-30v-75h-54zM253 259q-92 0 -155.5 61.5t-63.5 154.5t63.5 155t155.5 62q93 0 157.5 -62t64.5 -155t-64.5 -154.5t-157.5 -61.5zM253 300q77 0 126.5 48t49.5 126q0 80 -49.5 128t-126.5 48
q-76 0 -124.5 -48t-48.5 -128q0 -79 48.5 -126.5t124.5 -47.5zM226 479h36q36 0 36 34q0 30 -36 30h-36v-64z" />
    <glyph glyph-name="macron" unicode="&#xaf;" horiz-adv-x="500" 
d="M127 528v76h246v-76h-246z" />
    <glyph glyph-name="degree" unicode="&#xb0;" horiz-adv-x="328" 
d="M164 277q-53 0 -90.5 36t-37.5 86q0 52 37.5 87t90.5 35q54 0 91 -35t37 -87q0 -50 -37.5 -86t-90.5 -36zM164 340q26 0 42 16.5t16 42.5q0 27 -16 43.5t-42 16.5t-41.5 -16.5t-15.5 -43.5q0 -26 16 -42.5t41 -16.5z" />
    <glyph glyph-name="twosuperior" unicode="&#xb2;" horiz-adv-x="351" 
d="M13 287v10l170 171q49 49 49 93q0 24 -15.5 38.5t-42.5 14.5q-53 0 -76 -61l-73 24q39 110 150 110q63 0 101 -35t38 -90q0 -62 -65 -129l-41 -42q-7 -8 -19.5 -17t-21.5 -14l-9 -6q38 3 58 3h97v-70h-300z" />
    <glyph glyph-name="threesuperior" unicode="&#xb3;" horiz-adv-x="345" 
d="M164 281q-113 0 -154 90l71 34q24 -51 82 -51q33 0 52.5 18t19.5 49q0 67 -77 67q-37 0 -59 -9l-5 9l71 93l32 33q-34 -3 -48 -3h-99v69h264v-7l-79 -104q-19 -25 -31 -29q51 -5 82.5 -38t31.5 -85q0 -64 -44 -100t-110 -36z" />
    <glyph glyph-name="acute" unicode="&#xb4;" horiz-adv-x="500" 
d="M211 499l60 190h116l-98 -190h-78z" />
    <glyph glyph-name="mu" unicode="&#xb5;" horiz-adv-x="551" 
d="M371 70l-1 6q-16 -38 -49.5 -60.5t-71.5 -22.5q-62 0 -96 43q12 -51 12 -100v-148h-101v632h101v-239q0 -98 87 -98q49 0 78 29.5t29 85.5v222h102v-286q0 -55 42 -55h18v-80q-17 -3 -50 -3q-84 0 -100 74z" />
    <glyph glyph-name="paragraph" unicode="&#xb6;" horiz-adv-x="622" 
d="M265 0v274h-12q-101 0 -156 57t-55 144q0 85 58 145t159 60h281v-680h-101v591h-73v-591h-101z" />
    <glyph glyph-name="periodcentered" unicode="&#xb7;" horiz-adv-x="223" 
d="M112 181q-28 0 -48.5 20t-20.5 50q0 29 20.5 48.5t48.5 19.5t48 -19.5t20 -48.5q0 -30 -20 -50t-48 -20z" />
    <glyph glyph-name="cedilla" unicode="&#xb8;" horiz-adv-x="500" 
d="M258 -236q-77 0 -110 59l52 32q16 -33 50 -33q18 0 30 10.5t12 29.5t-13 30.5t-36 11.5h-27v96h57v-46q37 -7 61.5 -32t24.5 -65q0 -42 -30 -67.5t-71 -25.5z" />
    <glyph glyph-name="onesuperior" unicode="&#xb9;" horiz-adv-x="235" 
d="M98 287v321h-79v72h160v-393h-81z" />
    <glyph glyph-name="ordmasculine" unicode="&#xba;" horiz-adv-x="466" 
d="M233 149q-81 0 -137 53t-56 133q0 79 56 132.5t137 53.5t137 -53.5t56 -132.5q0 -80 -56 -133t-137 -53zM233 227q44 0 71 30t27 78t-27 77.5t-71 29.5t-70 -29.5t-26 -77.5t26 -78t70 -30z" />
    <glyph glyph-name="guillemotright" unicode="&#xbb;" horiz-adv-x="449" 
d="M219 35l97 165l-97 167h101l94 -163v-8l-94 -161h-101zM35 35l97 165l-97 167h100l95 -163v-8l-95 -161h-100z" />
    <glyph glyph-name="Adieresis" unicode="&#xc4;" horiz-adv-x="659" 
d="M29 0l291 687h12l298 -687h-110l-50 124h-289l-50 -124h-102zM217 212h215l-74 185q-28 68 -34 100l-2 -7q-2 -8 -5.5 -18.5t-7.5 -23t-9 -26.5t-9 -25zM419 749q-24 0 -42 18t-18 42q0 25 18 43t42 18t42.5 -18t18.5 -43q0 -24 -18.5 -42t-42.5 -18zM231 749
q-24 0 -42.5 18t-18.5 42q0 25 18.5 43t42.5 18t42 -18t18 -43t-18 -42.5t-42 -17.5z" />
    <glyph glyph-name="Eacute" unicode="&#xc9;" horiz-adv-x="587" 
d="M266 744l60 190h116l-98 -190h-78zM82 0v680h432v-93h-326v-200h289v-91h-289v-203h340v-93h-446z" />
    <glyph glyph-name="Odieresis" unicode="&#xd6;" 
d="M495 749q-24 0 -42 18t-18 42q0 25 18 43t42 18t42.5 -18t18.5 -43q0 -24 -18.5 -42t-42.5 -18zM307 749q-24 0 -42.5 18t-18.5 42q0 25 18.5 43t42.5 18t42 -18t18 -43t-18 -42.5t-42 -17.5zM402 -9q-148 0 -249.5 99t-101.5 250t101.5 250t249.5 99q147 0 248.5 -99
t101.5 -250t-101.5 -250t-248.5 -99zM402 86q106 0 174 72.5t68 181.5t-68 181.5t-174 72.5t-174.5 -72.5t-68.5 -181.5t68.5 -181.5t174.5 -72.5z" />
    <glyph glyph-name="multiply" unicode="&#xd7;" horiz-adv-x="388" 
d="M194 196l-94 -95l-63 63l95 94l-95 95l63 62l94 -94l95 94l62 -62l-94 -95l94 -94l-62 -63z" />
    <glyph glyph-name="Udieresis" unicode="&#xdc;" horiz-adv-x="674" 
d="M430 749q-24 0 -42 18t-18 42q0 25 18 43t42 18t42.5 -18t18.5 -43q0 -24 -18.5 -42t-42.5 -18zM242 749q-24 0 -42.5 18t-18.5 42q0 25 18.5 43t42.5 18t42 -18t18 -43t-18 -42.5t-42 -17.5zM337 -9q-116 0 -187.5 64t-71.5 184v441h106v-435q0 -159 153 -159
q154 0 154 159v435h105v-441q0 -120 -72 -184t-187 -64z" />
    <glyph glyph-name="germandbls" unicode="&#xdf;" horiz-adv-x="560" 
d="M305 -5q-52 0 -81 11l15 83q26 -8 50 -8q61 0 92.5 34.5t31.5 96.5q0 69 -43 104.5t-120 33.5v81q47 6 74.5 34.5t27.5 81.5t-24.5 78.5t-66.5 25.5q-43 0 -69.5 -29t-26.5 -88v-534h-101v532q0 98 55 150.5t142 52.5q86 0 137 -49.5t51 -134.5q0 -104 -88 -146
q73 -18 114.5 -68t41.5 -128q0 -96 -56 -155t-156 -59z" />
    <glyph glyph-name="agrave" unicode="&#xe0;" horiz-adv-x="479" 
d="M318 250q0 95 -84 95q-66 0 -110 -50l-58 59q63 75 176 75q80 0 128.5 -46t48.5 -135v-248h-101l3 60q-46 -69 -132 -69q-67 0 -109 33t-42 100q0 63 45 94t120 32h115zM318 180h-108q-73 0 -73 -53q0 -55 80 -55q45 0 73 20.5t28 54.5v33zM202 499l-98 190h116l60 -190
h-78z" />
    <glyph glyph-name="acircumflex" unicode="&#xe2;" horiz-adv-x="479" 
d="M318 250q0 95 -84 95q-66 0 -110 -50l-58 59q63 75 176 75q80 0 128.5 -46t48.5 -135v-248h-101l3 60q-46 -69 -132 -69q-67 0 -109 33t-42 100q0 63 45 94t120 32h115zM318 180h-108q-73 0 -73 -53q0 -55 80 -55q45 0 73 20.5t28 54.5v33zM91 501l143 205h11l143 -205
h-83l-65 84l-66 -84h-83z" />
    <glyph glyph-name="adieresis" unicode="&#xe4;" horiz-adv-x="479" 
d="M318 250q0 95 -84 95q-66 0 -110 -50l-58 59q63 75 176 75q80 0 128.5 -46t48.5 -135v-248h-101l3 60q-46 -69 -132 -69q-67 0 -109 33t-42 100q0 63 45 94t120 32h115zM318 180h-108q-73 0 -73 -53q0 -55 80 -55q45 0 73 20.5t28 54.5v33zM334 522q-24 0 -42 18t-18 42
q0 25 18 43t42 18t42.5 -18t18.5 -43q0 -24 -18.5 -42t-42.5 -18zM146 522q-24 0 -42.5 18t-18.5 42q0 25 18.5 43t42.5 18t42 -18t18 -43t-18 -42.5t-42 -17.5z" />
    <glyph glyph-name="ccedilla" unicode="&#xe7;" horiz-adv-x="473" 
d="M213 -3q-76 17 -123 75t-47 138q0 94 64 156.5t160 62.5q106 0 170 -80l-72 -58q-34 49 -98 49q-55 0 -87.5 -36.5t-32.5 -93.5t32.5 -93.5t87.5 -36.5q61 0 103 47l69 -60q-65 -75 -169 -76v-37q37 -7 61.5 -32t24.5 -65q0 -42 -30 -67.5t-71 -25.5q-77 0 -110 60l52 31
q17 -33 50 -33q18 0 30 10.5t12 29.5t-13 30.5t-36 11.5h-27v93z" />
    <glyph glyph-name="egrave" unicode="&#xe8;" horiz-adv-x="527" 
d="M146 176q20 -100 133 -100q72 0 119 45l59 -62q-68 -68 -177 -68q-107 0 -172 61.5t-65 157.5q0 93 64.5 156t159.5 63q106 0 164 -70.5t53 -182.5h-338zM146 246h236q-16 99 -114 99q-49 0 -81 -26t-41 -73zM225 499l-98 190h116l60 -190h-78z" />
    <glyph glyph-name="eacute" unicode="&#xe9;" horiz-adv-x="527" 
d="M225 499l60 190h116l-98 -190h-78zM146 176q20 -100 133 -100q72 0 119 45l59 -62q-68 -68 -177 -68q-107 0 -172 61.5t-65 157.5q0 93 64.5 156t159.5 63q106 0 164 -70.5t53 -182.5h-338zM146 246h236q-16 99 -114 99q-49 0 -81 -26t-41 -73z" />
    <glyph glyph-name="ecircumflex" unicode="&#xea;" horiz-adv-x="527" 
d="M114 501l143 205h11l143 -205h-83l-65 84l-66 -84h-83zM146 176q20 -100 133 -100q72 0 119 45l59 -62q-68 -68 -177 -68q-107 0 -172 61.5t-65 157.5q0 93 64.5 156t159.5 63q106 0 164 -70.5t53 -182.5h-338zM146 246h236q-16 99 -114 99q-49 0 -81 -26t-41 -73z" />
    <glyph glyph-name="edieresis" unicode="&#xeb;" horiz-adv-x="527" 
d="M358 522q-24 0 -42 18t-18 42q0 25 18 43t42 18t42.5 -18t18.5 -43q0 -24 -18.5 -42t-42.5 -18zM170 522q-24 0 -42.5 18t-18.5 42q0 25 18.5 43t42.5 18t42 -18t18 -43t-18 -42.5t-42 -17.5zM146 176q20 -100 133 -100q72 0 119 45l59 -62q-68 -68 -177 -68
q-107 0 -172 61.5t-65 157.5q0 93 64.5 156t159.5 63q106 0 164 -70.5t53 -182.5h-338zM146 246h236q-16 99 -114 99q-49 0 -81 -26t-41 -73z" />
    <glyph glyph-name="icircumflex" unicode="&#xee;" horiz-adv-x="236" 
d="M-31 501l143 205h11l143 -205h-83l-65 84l-66 -84h-83zM67 0v420h102v-420h-102z" />
    <glyph glyph-name="idieresis" unicode="&#xef;" horiz-adv-x="236" 
d="M67 0v420h102v-420h-102zM204 522q-24 0 -42.5 18t-18.5 42q0 25 18.5 43t42.5 18t42 -18t18 -43t-18 -42.5t-42 -17.5zM32 522q-24 0 -42.5 18t-18.5 42q0 25 18.5 43t42.5 18t42 -18t18 -43q0 -24 -18 -42t-42 -18z" />
    <glyph glyph-name="ocircumflex" unicode="&#xf4;" horiz-adv-x="539" 
d="M119 501l143 205h11l143 -205h-83l-65 84l-66 -84h-83zM270 -9q-96 0 -161.5 63t-65.5 156t65.5 156t161.5 63t161 -62.5t65 -156.5t-65 -156.5t-161 -62.5zM270 78q56 0 89 37t33 95t-33 94.5t-89 36.5t-89.5 -36.5t-33.5 -94.5t33.5 -95t89.5 -37z" />
    <glyph glyph-name="odieresis" unicode="&#xf6;" horiz-adv-x="539" 
d="M363 522q-24 0 -42 18t-18 42q0 25 18 43t42 18t42.5 -18t18.5 -43q0 -24 -18.5 -42t-42.5 -18zM175 522q-24 0 -42.5 18t-18.5 42q0 25 18.5 43t42.5 18t42 -18t18 -43t-18 -42.5t-42 -17.5zM270 -9q-96 0 -161.5 63t-65.5 156t65.5 156t161.5 63t161 -62.5t65 -156.5
t-65 -156.5t-161 -62.5zM270 78q56 0 89 37t33 95t-33 94.5t-89 36.5t-89.5 -36.5t-33.5 -94.5t33.5 -95t89.5 -37z" />
    <glyph glyph-name="divide" unicode="&#xf7;" horiz-adv-x="391" 
d="M352 214h-313v89h313v-89zM196 351q-27 0 -46.5 19t-19.5 47t19.5 47t46.5 19t46 -19t19 -47t-19 -47t-46 -19zM196 35q-27 0 -46.5 19t-19.5 47t19.5 46.5t46.5 18.5t46 -18.5t19 -46.5t-19 -47t-46 -19z" />
    <glyph glyph-name="ugrave" unicode="&#xf9;" horiz-adv-x="520" 
d="M216 -9q-70 0 -113 47.5t-43 131.5v250h101v-242q0 -95 87 -95q50 0 78.5 29t28.5 80v228h101v-420h-101l2 77q-20 -41 -56.5 -63.5t-84.5 -22.5zM222 499l-98 190h116l60 -190h-78z" />
    <glyph glyph-name="ucircumflex" unicode="&#xfb;" horiz-adv-x="520" 
d="M111 501l143 205h11l143 -205h-83l-65 84l-66 -84h-83zM216 -9q-70 0 -113 47.5t-43 131.5v250h101v-242q0 -95 87 -95q50 0 78.5 29t28.5 80v228h101v-420h-101l2 77q-20 -41 -56.5 -63.5t-84.5 -22.5z" />
    <glyph glyph-name="udieresis" unicode="&#xfc;" horiz-adv-x="520" 
d="M354 522q-24 0 -42 18t-18 42q0 25 18 43t42 18t42.5 -18t18.5 -43q0 -24 -18.5 -42t-42.5 -18zM166 522q-24 0 -42.5 18t-18.5 42q0 25 18.5 43t42.5 18t42 -18t18 -43t-18 -42.5t-42 -17.5zM216 -9q-70 0 -113 47.5t-43 131.5v250h101v-242q0 -95 87 -95q50 0 78.5 29
t28.5 80v228h101v-420h-101l2 77q-20 -41 -56.5 -63.5t-84.5 -22.5z" />
    <glyph glyph-name="oe" unicode="&#x153;" horiz-adv-x="875" 
d="M493 176q20 -100 133 -100q72 0 119 45l59 -62q-68 -68 -177 -68q-128 0 -183 96q-25 -45 -70 -70.5t-104 -25.5q-96 0 -161.5 63t-65.5 156t65.5 156t161.5 63q121 0 173 -95q25 44 69.5 69.5t102.5 25.5q105 0 163 -70.5t53 -182.5h-338zM493 246h236q-16 99 -114 99
q-49 0 -81 -26t-41 -73zM270 78q56 0 89 37t33 95t-33 94.5t-89 36.5t-89.5 -36.5t-33.5 -94.5t33.5 -95t89.5 -37z" />
    <glyph glyph-name="florin" unicode="&#x192;" horiz-adv-x="382" 
d="M199 193l-46 -405h-99l46 405h-65v79h74l22 196q17 150 145 150q76 0 116 -57l-64 -56q-18 27 -47 27q-43 0 -50 -58l-23 -202h100v-79h-109z" />
    <glyph glyph-name="circumflex" unicode="&#x2c6;" horiz-adv-x="500" 
d="M101 501l143 205h11l143 -205h-83l-65 84l-66 -84h-83z" />
    <glyph glyph-name="caron" unicode="&#x2c7;" horiz-adv-x="500" 
d="M245 488l-143 204h83l65 -84l66 84h83l-143 -204h-11z" />
    <glyph glyph-name="breve" unicode="&#x2d8;" horiz-adv-x="500" 
d="M250 500q-63 0 -101 35t-45 92l79 13q12 -64 67 -64t67 64l79 -13q-7 -57 -45 -92t-101 -35z" />
    <glyph glyph-name="uni0374" unicode="&#x374;" horiz-adv-x="500" 
d="M156 463l61 217h126l-104 -217h-83z" />
    <glyph glyph-name="uni0375" unicode="&#x375;" horiz-adv-x="500" 
d="M343 65l-61 -217h-126l104 217h83z" />
    <glyph glyph-name="uni037E" unicode="&#x37e;" horiz-adv-x="235" 
d="M118 220q-28 0 -48.5 20t-20.5 50q0 29 20.5 49t48.5 20t48 -20t20 -49q0 -30 -20 -50t-48 -20zM53 -114l38 116q-42 17 -42 62q0 28 20.5 47.5t48.5 19.5t48 -19.5t20 -48.5q0 -26 -21 -62l-59 -115h-53z" />
    <glyph glyph-name="tonos" unicode="&#x384;" horiz-adv-x="500" 
d="M211 499l57 181h116l-95 -181h-78z" />
    <glyph glyph-name="dieresistonos" unicode="&#x385;" horiz-adv-x="500" 
d="M162 531q-20 0 -35.5 15t-15.5 36q0 20 15.5 35t35.5 15t35.5 -15t15.5 -35q0 -21 -15 -36t-36 -15zM233 533l49 167h116l-87 -167h-78zM426 531q-20 0 -35.5 15t-15.5 36q0 20 15.5 35t35.5 15t35.5 -15t15.5 -35q0 -21 -15 -36t-36 -15z" />
    <glyph glyph-name="Alphatonos" unicode="&#x386;" horiz-adv-x="659" 
d="M29 0l291 687h12l298 -687h-110l-50 124h-289l-50 -124h-102zM217 212h215l-74 185q-28 68 -34 100l-2 -7q-2 -8 -5.5 -18.5t-7.5 -23t-9 -26.5t-9 -25zM1 499l57 181h116l-95 -181h-78z" />
    <glyph glyph-name="anoteleia" unicode="&#x387;" horiz-adv-x="223" 
d="M112 181q-28 0 -48.5 20t-20.5 50q0 29 20.5 48.5t48.5 19.5t48 -19.5t20 -48.5q0 -30 -20 -50t-48 -20z" />
    <glyph glyph-name="Epsilontonos" unicode="&#x388;" horiz-adv-x="587" 
d="M82 0v680h432v-93h-326v-200h289v-91h-289v-203h340v-93h-446zM-136 499l57 181h116l-95 -181h-78z" />
    <glyph glyph-name="Etatonos" unicode="&#x389;" horiz-adv-x="703" 
d="M82 0v680h106v-303h327v303h106v-680h-106v283h-327v-283h-106zM-136 499l57 181h116l-95 -181h-78z" />
    <glyph glyph-name="Iotatonos" unicode="&#x38a;" horiz-adv-x="276" 
d="M86 0v680h105v-680h-105zM-136 499l57 181h116l-95 -181h-78z" />
    <glyph glyph-name="Omicrontonos" unicode="&#x38c;" 
d="M402 -9q-148 0 -249.5 99t-101.5 250t101.5 250t249.5 99q147 0 248.5 -99t101.5 -250t-101.5 -250t-248.5 -99zM402 86q106 0 174 72.5t68 181.5t-68 181.5t-174 72.5t-174.5 -72.5t-68.5 -181.5t68.5 -181.5t174.5 -72.5zM-90 499l57 181h116l-95 -181h-78z" />
    <glyph glyph-name="Upsilontonos" unicode="&#x38e;" horiz-adv-x="623" 
d="M264 0v249l-237 431h119l131 -245l41 -97q22 59 41 97l128 245h109l-226 -424v-256h-106zM-155 499l57 181h116l-95 -181h-78z" />
    <glyph glyph-name="Omegatonos" unicode="&#x38f;" 
d="M752 340q0 -78 -35 -143t-95 -104h124v-93h-281v86q82 31 130.5 98t48.5 156q0 109 -68.5 181.5t-174.5 72.5q-105 0 -173.5 -72.5t-68.5 -181.5q0 -89 49 -156t131 -98v-86h-281v93h124q-61 39 -96 104t-35 143q0 150 101.5 249.5t248.5 99.5q149 0 250 -99.5
t101 -249.5zM-90 499l57 181h116l-95 -181h-78z" />
    <glyph glyph-name="iotadieresistonos" unicode="&#x390;" horiz-adv-x="261" 
d="M67 112v308h101v-287q0 -54 43 -54h18v-79q-21 -3 -50 -3q-49 0 -80.5 27t-31.5 88zM18 531q-20 0 -35.5 15t-15.5 36q0 20 15.5 35t35.5 15t35.5 -15t15.5 -35q0 -21 -15 -36t-36 -15zM89 533l49 167h116l-87 -167h-78zM282 531q-20 0 -35.5 15t-15.5 36q0 20 15.5 35
t35.5 15t35.5 -15t15.5 -35q0 -21 -15 -36t-36 -15z" />
    <glyph glyph-name="Alpha" unicode="&#x391;" horiz-adv-x="659" 
d="M29 0l291 687h12l298 -687h-110l-50 124h-289l-50 -124h-102zM217 212h215l-74 185q-28 68 -34 100l-2 -7q-2 -8 -5.5 -18.5t-7.5 -23t-9 -26.5t-9 -25z" />
    <glyph glyph-name="Beta" unicode="&#x392;" horiz-adv-x="603" 
d="M82 0v680h242q97 0 149 -49.5t52 -127.5q0 -52 -26 -90t-75 -53q133 -31 133 -167q0 -86 -56.5 -139.5t-159.5 -53.5h-259zM188 93h147q57 0 86.5 29t29.5 79q0 51 -31.5 80t-90.5 29h-141v-217zM188 399h130q52 0 77.5 25t25.5 69q0 94 -105 94h-128v-188z" />
    <glyph glyph-name="Gamma" unicode="&#x393;" horiz-adv-x="520" 
d="M82 0v680h406v-93h-300v-587h-106z" />
    <glyph glyph-name="uni0394" unicode="&#x394;" horiz-adv-x="659" 
d="M625 0h-591v11l286 676h12l293 -676v-11zM291 397l-124 -308h316l-125 308q-7 17 -15 40.5t-13.5 41t-5.5 18.5l-2 -7q-2 -8 -5.5 -18.5t-7.5 -23t-9 -26.5t-9 -25z" />
    <glyph glyph-name="Epsilon" unicode="&#x395;" horiz-adv-x="587" 
d="M82 0v680h432v-93h-326v-200h289v-91h-289v-203h340v-93h-446z" />
    <glyph glyph-name="Zeta" unicode="&#x396;" horiz-adv-x="586" 
d="M33 0v11l344 576h-289v93h454v-11l-342 -576h335v-93h-502z" />
    <glyph glyph-name="Eta" unicode="&#x397;" horiz-adv-x="703" 
d="M82 0v680h106v-303h327v303h106v-680h-106v283h-327v-283h-106z" />
    <glyph glyph-name="Theta" unicode="&#x398;" 
d="M401 -8q-147 0 -248.5 98.5t-101.5 249.5t101.5 249.5t248.5 98.5q148 0 249.5 -98.5t101.5 -249.5t-101.5 -249.5t-249.5 -98.5zM401 85q106 0 174.5 73t68.5 182t-68.5 181.5t-174.5 72.5t-174 -72.5t-68 -181.5q0 -110 68 -182.5t174 -72.5zM270 297v90h262v-90h-262z
" />
    <glyph glyph-name="Iota" unicode="&#x399;" horiz-adv-x="276" 
d="M86 0v680h105v-680h-105z" />
    <glyph glyph-name="Kappa" unicode="&#x39a;" horiz-adv-x="627" 
d="M82 0v680h106v-266q0 -29 -8 -101q34 65 54 91l222 276h119l-239 -301l265 -379h-127l-209 300l-77 -93v-207h-106z" />
    <glyph glyph-name="Lambda" unicode="&#x39b;" horiz-adv-x="649" 
d="M328 687l290 -687h-112l-146 366l-41 124q-21 -77 -39 -124l-144 -366h-105l285 687h12z" />
    <glyph glyph-name="Mu" unicode="&#x39c;" horiz-adv-x="833" 
d="M82 0v687h11l325 -380l322 380h11v-687h-101v353q0 10 0.5 24t1 26t1 22.5t1.5 17.5v7l-10 -14q-10 -14 -24.5 -34t-26.5 -33l-171 -206h-12l-171 206q-9 10 -19.5 24.5t-18.5 25.5t-15 21l-7 10l1 -7q0 -7 0.5 -17.5t1 -22.5t1 -26t0.5 -24v-353h-101z" />
    <glyph glyph-name="Nu" unicode="&#x39d;" horiz-adv-x="707" 
d="M612 -7l-375 404l-64 76q7 -56 7 -98v-375h-98v687h14l375 -403l63 -76q-7 60 -7 98v374h98v-687h-13z" />
    <glyph glyph-name="Xi" unicode="&#x39e;" horiz-adv-x="628" 
d="M61 0v93h201v203h-168v91h168v200h-201v93h506v-93h-201v-200h168v-91h-168v-203h201v-93h-506z" />
    <glyph glyph-name="Omicron" unicode="&#x39f;" 
d="M402 -9q-148 0 -249.5 99t-101.5 250t101.5 250t249.5 99q147 0 248.5 -99t101.5 -250t-101.5 -250t-248.5 -99zM402 86q106 0 174 72.5t68 181.5t-68 181.5t-174 72.5t-174.5 -72.5t-68.5 -181.5t68.5 -181.5t174.5 -72.5z" />
    <glyph glyph-name="Pi" unicode="&#x3a0;" horiz-adv-x="683" 
d="M82 0v680h518v-680h-106v585h-306v-585h-106z" />
    <glyph glyph-name="Rho" unicode="&#x3a1;" horiz-adv-x="591" 
d="M82 0v680h219q111 0 179 -55.5t68 -163.5q0 -107 -68 -163.5t-179 -56.5h-113v-241h-106zM188 334h109q143 0 143 127q0 126 -143 126h-109v-253z" />
    <glyph glyph-name="Sigma" unicode="&#x3a3;" horiz-adv-x="572" 
d="M208 587l153 -226v-12l-171 -256h325v-93h-486v11l222 338l-212 320v11h463v-93h-294z" />
    <glyph glyph-name="Tau" unicode="&#x3a4;" horiz-adv-x="573" 
d="M234 0v587h-202v93h509v-93h-202v-587h-105z" />
    <glyph glyph-name="Upsilon" unicode="&#x3a5;" horiz-adv-x="623" 
d="M264 0v249l-237 431h119l131 -245l41 -97q22 59 41 97l128 245h109l-226 -424v-256h-106z" />
    <glyph glyph-name="Phi" unicode="&#x3a6;" horiz-adv-x="875" 
d="M386 -40v71q-154 7 -245.5 96t-91.5 213t91 212.5t246 95.5v72h103v-72q155 -7 246.5 -95.5t91.5 -212.5t-91.5 -213t-246.5 -96v-71h-103zM156 340q0 -89 61 -151t169 -69v440q-108 -7 -169 -69.5t-61 -150.5zM720 340q0 88 -61.5 150.5t-169.5 69.5v-440
q108 7 169.5 69t61.5 151z" />
    <glyph glyph-name="Chi" unicode="&#x3a7;" horiz-adv-x="647" 
d="M35 0l228 372l-191 308h117l103 -166q7 -11 14.5 -27t13.5 -29l5 -13q7 27 31 69l101 166h114l-188 -308l230 -372h-117l-141 228q-28 45 -34 69l-5 -13q-5 -13 -12.5 -28.5t-14.5 -27.5l-140 -228h-114z" />
    <glyph glyph-name="Psi" unicode="&#x3a8;" horiz-adv-x="742" 
d="M319 0v168q-125 7 -189.5 75t-64.5 190v247h105v-241q0 -86 33.5 -129.5t115.5 -52.5v463h106v-462q80 9 113.5 53t33.5 128v241h105v-247q0 -120 -64.5 -188.5t-187.5 -76.5v-168h-106z" />
    <glyph glyph-name="uni03A9" unicode="&#x3a9;" 
d="M752 340q0 -78 -35 -143t-95 -104h124v-93h-281v86q82 31 130.5 98t48.5 156q0 109 -68.5 181.5t-174.5 72.5q-105 0 -173.5 -72.5t-68.5 -181.5q0 -89 49 -156t131 -98v-86h-281v93h124q-61 39 -96 104t-35 143q0 150 101.5 249.5t248.5 99.5q149 0 250 -99.5
t101 -249.5z" />
    <glyph glyph-name="Iotadieresis" unicode="&#x3aa;" horiz-adv-x="276" 
d="M86 0v680h105v-680h-105zM233 749q-24 0 -42 18t-18 42q0 25 18 43t42 18t42.5 -18t18.5 -43q0 -24 -18.5 -42t-42.5 -18zM45 749q-24 0 -42.5 18t-18.5 42q0 25 18.5 43t42.5 18t42 -18t18 -43t-18 -42.5t-42 -17.5z" />
    <glyph glyph-name="Upsilondieresis" unicode="&#x3ab;" horiz-adv-x="623" 
d="M264 0v249l-237 431h119l131 -245l41 -97q22 59 41 97l128 245h109l-226 -424v-256h-106zM412 749q-24 0 -42 18t-18 42q0 25 18 43t42 18t42.5 -18t18.5 -43q0 -24 -18.5 -42t-42.5 -18zM224 749q-24 0 -42.5 18t-18.5 42q0 25 18.5 43t42.5 18t42 -18t18 -43t-18 -42.5
t-42 -17.5z" />
    <glyph glyph-name="alphatonos" unicode="&#x3ac;" horiz-adv-x="578" 
d="M267 80q55 0 88.5 36t33.5 95q0 57 -33.5 92.5t-88.5 35.5q-54 0 -86.5 -35.5t-32.5 -92.5q0 -59 32 -95t87 -36zM498 -4q-40 0 -67.5 21.5t-35.5 58.5l-1 6q-21 -42 -61.5 -66.5t-92.5 -24.5q-82 0 -139 63t-57 157t56 156t138 62q105 0 151 -87l-3 78h101v-286
q0 -55 43 -55h18v-80q-16 -3 -50 -3zM242 499l57 181h116l-95 -181h-78z" />
    <glyph glyph-name="epsilontonos" unicode="&#x3ad;" horiz-adv-x="475" 
d="M136 224q-32 7 -53 30.5t-21 51.5q0 59 52.5 91t128.5 32q120 0 193 -71l-55 -63q-52 50 -129 50q-89 0 -89 -54q0 -18 16.5 -29.5t35.5 -11.5h90v-62h-90q-25 0 -45.5 -12t-20.5 -39q0 -60 97 -60q83 0 144 55l53 -66q-88 -75 -216 -75q-83 0 -132 33.5t-49 91.5
q0 84 90 108zM219 499l57 181h116l-95 -181h-78z" />
    <glyph glyph-name="etatonos" unicode="&#x3ae;" horiz-adv-x="523" 
d="M64 0v420h101l-2 -78q19 41 57 64t85 23q71 0 114 -48t43 -132v-461h-101v453q0 95 -87 95q-50 0 -79.5 -28.5t-29.5 -79.5v-228h-101zM239 499l57 181h116l-95 -181h-78z" />
    <glyph glyph-name="iotatonos" unicode="&#x3af;" horiz-adv-x="261" 
d="M67 112v308h101v-287q0 -54 43 -54h18v-79q-21 -3 -50 -3q-49 0 -80.5 27t-31.5 88zM84 499l57 181h116l-95 -181h-78z" />
    <glyph glyph-name="upsilondieresistonos" unicode="&#x3b0;" horiz-adv-x="497" 
d="M245 -10q-92 0 -142 52t-50 145v233h101v-230q0 -111 94 -111t94 111v230h102v-233q0 -92 -53 -144.5t-146 -52.5zM124 531q-20 0 -35.5 15t-15.5 36q0 20 15.5 35t35.5 15t35.5 -15t15.5 -35q0 -21 -15 -36t-36 -15zM195 533l49 167h116l-87 -167h-78zM388 531
q-20 0 -35.5 15t-15.5 36q0 20 15.5 35t35.5 15t35.5 -15t15.5 -35q0 -21 -15 -36t-36 -15z" />
    <glyph glyph-name="alpha" unicode="&#x3b1;" horiz-adv-x="578" 
d="M267 80q55 0 88.5 36t33.5 95q0 57 -33.5 92.5t-88.5 35.5q-54 0 -86.5 -35.5t-32.5 -92.5q0 -59 32 -95t87 -36zM498 -4q-40 0 -67.5 21.5t-35.5 58.5l-1 6q-21 -42 -61.5 -66.5t-92.5 -24.5q-82 0 -139 63t-57 157t56 156t138 62q105 0 151 -87l-3 78h101v-286
q0 -55 43 -55h18v-80q-16 -3 -50 -3z" />
    <glyph glyph-name="beta" unicode="&#x3b2;" horiz-adv-x="554" 
d="M166 59v-271h-102v732q0 100 58 157.5t149 57.5q93 0 148.5 -51.5t55.5 -138.5q0 -51 -31 -95t-87 -59q71 -13 112.5 -61t41.5 -122q0 -92 -57.5 -153.5t-153.5 -61.5q-90 0 -134 66zM166 522v-334q0 -48 34 -78t84 -30q59 0 91 35.5t32 95.5q0 63 -36 95.5t-103 32.5
h-39v81h39q45 0 76.5 32.5t31.5 87.5q0 54 -27.5 82.5t-77.5 28.5q-49 0 -77 -34t-28 -95z" />
    <glyph glyph-name="gamma" unicode="&#x3b3;" horiz-adv-x="475" 
d="M265 178l91 242h102l-169 -420v-212h-101v212l-171 420h110l92 -242q6 -16 12 -39t9 -38l3 -15q9 57 22 92z" />
    <glyph glyph-name="delta" unicode="&#x3b4;" horiz-adv-x="539" 
d="M302 410l-185 301v11h345v-90h-186l179 -289q41 -67 41 -133q0 -94 -65 -156.5t-161 -62.5t-161.5 63t-65.5 156q0 90 61.5 150t148.5 60q30 0 49 -10zM270 78q55 0 88.5 37t33.5 95t-33.5 95t-87.5 37q-55 0 -89.5 -37t-34.5 -95t33.5 -95t89.5 -37z" />
    <glyph glyph-name="epsilon" unicode="&#x3b5;" horiz-adv-x="475" 
d="M136 224q-32 7 -53 30.5t-21 51.5q0 59 52.5 91t128.5 32q120 0 193 -71l-55 -63q-52 50 -129 50q-89 0 -89 -54q0 -18 16.5 -29.5t35.5 -11.5h90v-62h-90q-25 0 -45.5 -12t-20.5 -39q0 -60 97 -60q83 0 144 55l53 -66q-88 -75 -216 -75q-83 0 -132 33.5t-49 91.5
q0 84 90 108z" />
    <glyph glyph-name="zeta" unicode="&#x3b6;" horiz-adv-x="454" 
d="M356 -37q0 37 -43 37h-24q-244 0 -244 192q0 201 276 438h-227v92h360v-78q-67 -57 -114 -103.5t-94 -104t-71 -116.5t-24 -118q0 -62 38.5 -88t123.5 -26h16q124 0 124 -115q0 -54 -37 -91.5t-109 -43.5l-13 82q62 4 62 43z" />
    <glyph glyph-name="eta" unicode="&#x3b7;" horiz-adv-x="523" 
d="M64 0v420h101l-2 -78q19 41 57 64t85 23q71 0 114 -48t43 -132v-461h-101v453q0 95 -87 95q-50 0 -79.5 -28.5t-29.5 -79.5v-228h-101z" />
    <glyph glyph-name="theta" unicode="&#x3b8;" horiz-adv-x="544" 
d="M193 335v-162q0 -96 78 -96t78 96v162h-156zM94 420v119q0 94 45.5 145t131.5 51t132 -51t46 -145v-119h63v-85h-63v-149q0 -95 -45.5 -144.5t-132.5 -49.5t-132 49.5t-45 144.5v149h-63v85h63zM193 554v-134h156v134q0 96 -78 96t-78 -96z" />
    <glyph glyph-name="iota" unicode="&#x3b9;" horiz-adv-x="261" 
d="M67 112v308h101v-287q0 -54 43 -54h18v-79q-21 -3 -50 -3q-49 0 -80.5 27t-31.5 88z" />
    <glyph glyph-name="kappa" unicode="&#x3ba;" horiz-adv-x="478" 
d="M165 124v-124h-101v420h101v-115q0 -40 -5 -75l170 190h113l-155 -174l176 -246h-119l-129 178z" />
    <glyph glyph-name="lambda" unicode="&#x3bb;" horiz-adv-x="491" 
d="M239 340q-9 -62 -21 -95l-89 -245h-112l177 420l-60 161q-10 27 -24 39t-41 12h-28v90h50q52 0 84.5 -22t50.5 -73l190 -520q11 -28 39 -28h21v-79q-23 -5 -60 -5q-38 0 -59 17.5t-34 51.5l-66 181q-5 14 -9.5 38t-6.5 41z" />
    <glyph glyph-name="uni03BC" unicode="&#x3bc;" horiz-adv-x="551" 
d="M371 70l-1 6q-16 -38 -49.5 -60.5t-71.5 -22.5q-62 0 -96 43q12 -51 12 -100v-148h-101v632h101v-239q0 -98 87 -98q49 0 78 29.5t29 85.5v222h102v-286q0 -55 42 -55h18v-80q-17 -3 -50 -3q-84 0 -100 74z" />
    <glyph glyph-name="nu" unicode="&#x3bd;" horiz-adv-x="475" 
d="M233 -9l-216 429h112l86 -190q7 -16 14.5 -39t10.5 -38l4 -15q12 57 27 92l84 190h103l-212 -429h-13z" />
    <glyph glyph-name="xi" unicode="&#x3be;" horiz-adv-x="457" 
d="M303 0h-50q-107 0 -159.5 53t-52.5 141q0 66 39 119t109 72q-61 21 -89 65t-28 98q0 81 57.5 134t146.5 53q134 0 191 -98l-83 -51q-31 58 -103 58q-46 0 -74.5 -29t-28.5 -81q0 -53 33 -83.5t83 -30.5h97v-87h-97q-64 0 -104 -30.5t-40 -97.5q0 -57 31 -87t90 -30h47
q126 0 126 -115q0 -54 -37 -91.5t-109 -43.5l-13 82q62 4 62 43q0 37 -44 37z" />
    <glyph glyph-name="omicron" unicode="&#x3bf;" horiz-adv-x="539" 
d="M270 -9q-96 0 -161.5 63t-65.5 156t65.5 156t161.5 63t161 -62.5t65 -156.5t-65 -156.5t-161 -62.5zM270 78q56 0 89 37t33 95t-33 94.5t-89 36.5t-89.5 -36.5t-33.5 -94.5t33.5 -95t89.5 -37z" />
    <glyph glyph-name="pi" unicode="&#x3c0;" horiz-adv-x="534" 
d="M500 420v-85h-52v-202q0 -54 42 -54h10v-79q-26 -2 -50 -2q-104 0 -104 118v219h-159v-335h-101v335h-53v85h467z" />
    <glyph glyph-name="rho" unicode="&#x3c1;" horiz-adv-x="537" 
d="M152 59v-271h-101v422q0 97 62 157.5t157 60.5q97 0 160.5 -62.5t63.5 -156.5q0 -93 -60.5 -155.5t-143.5 -62.5q-90 0 -138 68zM149 209q0 -59 33 -95t88 -36q53 0 86.5 36.5t33.5 94.5q0 59 -32.5 95.5t-86.5 36.5t-88 -37t-34 -95z" />
    <glyph glyph-name="uni03C2" unicode="&#x3c2;" horiz-adv-x="472" 
d="M266 0q-100 3 -162 58.5t-62 149.5t62 157t151 63q129 0 189 -109q-29 -14 -87 -44q-30 64 -98 64q-51 0 -81.5 -37.5t-30.5 -95.5q0 -50 31 -82t95 -36q58 -4 96 -31t38 -84q0 -54 -37.5 -91.5t-108.5 -43.5l-13 83q62 2 62 42q0 36 -44 37z" />
    <glyph glyph-name="sigma" unicode="&#x3c3;" horiz-adv-x="556" 
d="M402 335q90 -37 90 -136q0 -91 -65 -149.5t-158 -58.5q-95 0 -160.5 62t-65.5 155t64.5 152.5t161.5 59.5h254v-85h-121zM269 77q53 0 87.5 37t34.5 95q0 57 -33.5 91.5t-88.5 34.5t-88.5 -35t-33.5 -94q0 -57 34.5 -93t87.5 -36z" />
    <glyph glyph-name="tau" unicode="&#x3c4;" horiz-adv-x="426" 
d="M288 -9q-66 0 -97.5 37t-31.5 118v189h-130v85h360v-85h-129v-199q0 -32 11.5 -45.5t35.5 -13.5q27 0 49 16q6 -12 19 -35.5t19 -35.5q-36 -31 -106 -31z" />
    <glyph glyph-name="upsilon" unicode="&#x3c5;" horiz-adv-x="497" 
d="M245 -10q-92 0 -142 52t-50 145v233h101v-230q0 -111 94 -111t94 111v230h102v-233q0 -92 -53 -144.5t-146 -52.5z" />
    <glyph glyph-name="phi" unicode="&#x3c6;" horiz-adv-x="663" 
d="M282 74v352q38 4 59 4q140 0 209.5 -63t69.5 -159q0 -95 -66.5 -155.5t-172.5 -63.5v-200h-99v200q-111 3 -175 62t-64 157q0 90 52.5 144.5t140.5 73.5v-89q-89 -29 -89 -130q0 -60 37 -96t98 -37zM516 208q0 60 -35.5 96.5t-99.5 37.5v-268q64 3 99.5 39t35.5 95z" />
    <glyph glyph-name="chi" unicode="&#x3c7;" horiz-adv-x="500" 
d="M231 -25l-93 -187h-115q158 281 185 329l-93 177q-13 25 -23 33t-35 8h-28v85h32q65 0 90 -16t51 -60l35 -69q5 -10 10.5 -24t10 -24.5t8 -20.5t3.5 -11q20 60 30 80l72 145h114l-169 -297l119 -229q13 -27 45 -27h20v-79q-17 -4 -46 -4q-34 0 -59 15t-37 31.5t-27 45.5
l-51 99q-5 10 -11 27.5t-10 30.5l-4 13q-11 -44 -24 -71z" />
    <glyph glyph-name="psi" unicode="&#x3c8;" horiz-adv-x="656" 
d="M153 420v-196q0 -130 124 -150v508h101v-508q124 20 124 150v196h101v-199q0 -102 -57 -162.5t-168 -68.5v-202h-101v202q-111 8 -167.5 68.5t-56.5 162.5v199h100z" />
    <glyph glyph-name="omega" unicode="&#x3c9;" horiz-adv-x="663" 
d="M331 80q-14 -43 -46 -66t-74 -23q-84 0 -126 59t-42 143q0 93 52.5 160t151.5 76v-88q-101 -21 -101 -146q0 -49 18 -83t59 -34q26 0 42 19.5t16 50.5v130h101v-130q0 -31 16.5 -50.5t41.5 -19.5q41 0 59 34t18 83q0 124 -101 146v88q98 -9 151 -76t53 -160
q0 -84 -42 -143t-126 -59q-90 0 -121 89z" />
    <glyph glyph-name="iotadieresis" unicode="&#x3ca;" horiz-adv-x="261" 
d="M67 112v308h101v-287q0 -54 43 -54h18v-79q-21 -3 -50 -3q-49 0 -80.5 27t-31.5 88zM220 522q-24 0 -42 18t-18 42q0 25 18 43t42 18t42.5 -18t18.5 -43q0 -24 -18.5 -42t-42.5 -18zM32 522q-24 0 -42.5 18t-18.5 42q0 25 18.5 43t42.5 18t42 -18t18 -43t-18 -42.5
t-42 -17.5z" />
    <glyph glyph-name="upsilondieresis" unicode="&#x3cb;" horiz-adv-x="497" 
d="M245 -10q-92 0 -142 52t-50 145v233h101v-230q0 -111 94 -111t94 111v230h102v-233q0 -92 -53 -144.5t-146 -52.5zM347 522q-24 0 -42 18t-18 42q0 25 18 43t42 18t42.5 -18t18.5 -43q0 -24 -18.5 -42t-42.5 -18zM159 522q-24 0 -42.5 18t-18.5 42q0 25 18.5 43t42.5 18
t42 -18t18 -43t-18 -42.5t-42 -17.5z" />
    <glyph glyph-name="omicrontonos" unicode="&#x3cc;" horiz-adv-x="539" 
d="M270 -9q-96 0 -161.5 63t-65.5 156t65.5 156t161.5 63t161 -62.5t65 -156.5t-65 -156.5t-161 -62.5zM270 78q56 0 89 37t33 95t-33 94.5t-89 36.5t-89.5 -36.5t-33.5 -94.5t33.5 -95t89.5 -37zM235 499l57 181h116l-95 -181h-78z" />
    <glyph glyph-name="upsilontonos" unicode="&#x3cd;" horiz-adv-x="497" 
d="M245 -10q-92 0 -142 52t-50 145v233h101v-230q0 -111 94 -111t94 111v230h102v-233q0 -92 -53 -144.5t-146 -52.5zM213 499l57 181h116l-95 -181h-78z" />
    <glyph glyph-name="omegatonos" unicode="&#x3ce;" horiz-adv-x="663" 
d="M331 80q-14 -43 -46 -66t-74 -23q-84 0 -126 59t-42 143q0 93 52.5 160t151.5 76v-88q-101 -21 -101 -146q0 -49 18 -83t59 -34q26 0 42 19.5t16 50.5v130h101v-130q0 -31 16.5 -50.5t41.5 -19.5q41 0 59 34t18 83q0 124 -101 146v88q98 -9 151 -76t53 -160
q0 -84 -42 -143t-126 -59q-90 0 -121 89zM298 499l57 181h116l-95 -181h-78z" />
    <glyph glyph-name="uni03D7" unicode="&#x3d7;" horiz-adv-x="884" 
d="M656 -12q-43 0 -74.5 14.5t-46.5 31t-34 45.5l-54 80l-49 -53v-106h-99v374h99v-95q0 -9 -0.5 -26.5t-0.5 -25.5q84 98 127 147h112l-130 -147l62 -93q22 -33 42 -51t44 -18q41 0 69 44t28 118q0 131 -76.5 211t-216.5 80q-142 0 -231 -91.5t-89 -233.5
q0 -145 86.5 -232.5t236.5 -87.5q87 0 162 33l33 -72q-87 -40 -194 -40q-181 0 -299.5 109t-118.5 289q0 116 57 210t151.5 144.5t205.5 50.5q172 0 276.5 -104t104.5 -265q0 -99 -51.5 -169.5t-131.5 -70.5z" />
    <glyph glyph-name="uni03D8" unicode="&#x3d8;" 
d="M347 -186v181q-129 18 -212.5 113.5t-83.5 231.5q0 151 101.5 250t249.5 99q147 0 248.5 -99t101.5 -250q0 -137 -85 -232.5t-215 -112.5v-181h-105zM402 86q106 0 174 72.5t68 181.5t-68 181.5t-174 72.5t-174.5 -72.5t-68.5 -181.5t68.5 -181.5t174.5 -72.5z" />
    <glyph glyph-name="uni03D9" unicode="&#x3d9;" horiz-adv-x="539" 
d="M217 -137v134q-77 16 -125.5 75t-48.5 138q0 93 65.5 156t161.5 63t161 -62.5t65 -156.5q0 -81 -49.5 -140t-127.5 -74v-133h-102zM270 78q56 0 89 37t33 95t-33 94.5t-89 36.5t-89.5 -36.5t-33.5 -94.5t33.5 -95t89.5 -37z" />
    <glyph glyph-name="uni03DA" unicode="&#x3da;" horiz-adv-x="751" 
d="M159 382q0 -171 130 -214l76 -25q74 -24 101 -48t27 -68q0 -31 -16 -77l-40 -116h-93l38 115q15 43 15 59q0 10 -5.5 18.5t-19 15t-22 10t-27.5 9.5l-69 22q-31 10 -61.5 29t-65 53t-55.5 90.5t-21 126.5q0 53 14 102.5t44.5 95t87 73t131.5 27.5h246q34 0 46.5 6.5
t33.5 34.5l59 -45q-27 -49 -58 -69t-94 -20h-237q-84 0 -124.5 -59.5t-40.5 -145.5z" />
    <glyph glyph-name="uni03DB" unicode="&#x3db;" horiz-adv-x="589" 
d="M147 206q0 -98 87 -126l65 -21q26 -8 40 -14.5t28.5 -16t20.5 -23.5t6 -33q0 -27 -26 -99l-26 -74h-79l23 72q22 69 22 81q0 13 -6.5 18.5t-28.5 12.5l-66 19q-68 19 -116 70.5t-48 133.5q0 91 60.5 149.5t149.5 58.5h190q17 0 28.5 4.5t17.5 10t17 18.5l51 -38
q-27 -46 -50 -60t-64 -14h-191q-49 0 -77 -38.5t-28 -90.5z" />
    <glyph glyph-name="uni03DC" unicode="&#x3dc;" horiz-adv-x="556" 
d="M82 0v680h424v-93h-318v-219h288v-94h-288v-274h-106z" />
    <glyph glyph-name="uni03DD" unicode="&#x3dd;" horiz-adv-x="362" 
d="M64 -209v629h277v-78h-176v-199h146v-85h-146v-267h-101z" />
    <glyph glyph-name="uni03DE" unicode="&#x3de;" horiz-adv-x="484" 
d="M434 213l-264 -442l-85 49l246 360l-250 -89l-41 59l150 243q-43 13 -43 61q0 29 20.5 48.5t49.5 19.5q33 0 52 -19t19 -46q0 -26 -26 -67l-120 -188l251 75z" />
    <glyph glyph-name="uni03DF" unicode="&#x3df;" horiz-adv-x="458" 
d="M238 431q30 0 45.5 -18.5t15.5 -38.5q0 -22 -11.5 -38.5t-37.5 -40.5l-105 -96h248l25 -54l-269 -263l-83 46l223 197h-252l-7 41l178 159q-30 15 -30 47q0 23 16 41t44 18z" />
    <glyph glyph-name="uni03E0" unicode="&#x3e0;" horiz-adv-x="773" 
d="M603 -205v40q0 161 -33 279l-264 -237l-56 70l291 250q-24 55 -61 101l-287 -257l-56 70l284 244q-109 83 -304 83h-57v80h51q140 0 245.5 -34.5t170.5 -93.5t105.5 -147.5t55.5 -185t15 -218.5v-44h-100z" />
    <glyph glyph-name="uni03E1" unicode="&#x3e1;" horiz-adv-x="666" 
d="M510 -195v52q0 116 -23 211l-218 -190l-51 62l244 202q-20 49 -48 83l-240 -210l-51 62l240 198q-93 72 -258 72h-55v76h52q120 0 209.5 -29.5t145 -79.5t89.5 -125.5t47 -157.5t13 -186v-40h-96z" />
    <glyph glyph-name="uni1F00" unicode="&#x1f00;" horiz-adv-x="578" 
d="M267 80q55 0 88.5 36t33.5 95q0 57 -33.5 92.5t-88.5 35.5q-54 0 -86.5 -35.5t-32.5 -92.5q0 -59 32 -95t87 -36zM498 -4q-40 0 -67.5 21.5t-35.5 58.5l-1 6q-21 -42 -61.5 -66.5t-92.5 -24.5q-82 0 -139 63t-57 157t56 156t138 62q105 0 151 -87l-3 78h101v-286
q0 -55 43 -55h18v-80q-16 -3 -50 -3zM244 602q-14 0 -25.5 9.5t-11.5 28.5q0 23 14.5 35t36.5 12q36 0 58 -22.5t22 -61.5q0 -42 -27.5 -69t-74.5 -37l-14 41q53 19 53 51q0 14 -8 19q-12 -6 -23 -6z" />
    <glyph glyph-name="uni1F01" unicode="&#x1f01;" horiz-adv-x="578" 
d="M267 80q55 0 88.5 36t33.5 95q0 57 -33.5 92.5t-88.5 35.5q-54 0 -86.5 -35.5t-32.5 -92.5q0 -59 32 -95t87 -36zM498 -4q-40 0 -67.5 21.5t-35.5 58.5l-1 6q-21 -42 -61.5 -66.5t-92.5 -24.5q-82 0 -139 63t-57 157t56 156t138 62q105 0 151 -87l-3 78h101v-286
q0 -55 43 -55h18v-80q-16 -3 -50 -3zM290 603q-11 0 -23 6q-8 -5 -8 -19q0 -32 53 -51l-14 -41q-47 10 -74.5 37t-27.5 69q0 39 22 61.5t58 22.5q22 0 36.5 -12t14.5 -35q0 -19 -11.5 -28.5t-25.5 -9.5z" />
    <glyph glyph-name="uni1F02" unicode="&#x1f02;" horiz-adv-x="578" 
d="M267 80q55 0 88.5 36t33.5 95q0 57 -33.5 92.5t-88.5 35.5q-54 0 -86.5 -35.5t-32.5 -92.5q0 -59 32 -95t87 -36zM498 -4q-40 0 -67.5 21.5t-35.5 58.5l-1 6q-21 -42 -61.5 -66.5t-92.5 -24.5q-82 0 -139 63t-57 157t56 156t138 62q105 0 151 -87l-3 78h101v-286
q0 -55 43 -55h18v-80q-16 -3 -50 -3zM423 502l-57 181h-116l95 -181h78zM143 601q-14 0 -25.5 9.5t-11.5 28.5q0 23 14.5 35t36.5 12q36 0 58 -22.5t22 -61.5q0 -42 -27.5 -69t-74.5 -37l-14 41q53 19 53 51q0 14 -8 19q-12 -6 -23 -6z" />
    <glyph glyph-name="uni1F03" unicode="&#x1f03;" horiz-adv-x="578" 
d="M267 80q55 0 88.5 36t33.5 95q0 57 -33.5 92.5t-88.5 35.5q-54 0 -86.5 -35.5t-32.5 -92.5q0 -59 32 -95t87 -36zM498 -4q-40 0 -67.5 21.5t-35.5 58.5l-1 6q-21 -42 -61.5 -66.5t-92.5 -24.5q-82 0 -139 63t-57 157t56 156t138 62q105 0 151 -87l-3 78h101v-286
q0 -55 43 -55h18v-80q-16 -3 -50 -3zM430 502l-57 181h-116l95 -181h78zM198 601q-11 0 -23 6q-8 -5 -8 -19q0 -32 53 -51l-14 -41q-47 10 -74.5 37t-27.5 69q0 39 22 61.5t58 22.5q22 0 36.5 -12t14.5 -35q0 -19 -11.5 -28.5t-25.5 -9.5z" />
    <glyph glyph-name="uni1F04" unicode="&#x1f04;" horiz-adv-x="578" 
d="M267 80q55 0 88.5 36t33.5 95q0 57 -33.5 92.5t-88.5 35.5q-54 0 -86.5 -35.5t-32.5 -92.5q0 -59 32 -95t87 -36zM498 -4q-40 0 -67.5 21.5t-35.5 58.5l-1 6q-21 -42 -61.5 -66.5t-92.5 -24.5q-82 0 -139 63t-57 157t56 156t138 62q105 0 151 -87l-3 78h101v-286
q0 -55 43 -55h18v-80q-16 -3 -50 -3zM290 503l57 181h116l-95 -181h-78zM182 602q-14 0 -25.5 9.5t-11.5 28.5q0 23 14.5 35t36.5 12q36 0 58 -22.5t22 -61.5q0 -42 -27.5 -69t-74.5 -37l-14 41q53 19 53 51q0 14 -8 19q-12 -6 -23 -6z" />
    <glyph glyph-name="uni1F05" unicode="&#x1f05;" horiz-adv-x="578" 
d="M267 80q55 0 88.5 36t33.5 95q0 57 -33.5 92.5t-88.5 35.5q-54 0 -86.5 -35.5t-32.5 -92.5q0 -59 32 -95t87 -36zM498 -4q-40 0 -67.5 21.5t-35.5 58.5l-1 6q-21 -42 -61.5 -66.5t-92.5 -24.5q-82 0 -139 63t-57 157t56 156t138 62q105 0 151 -87l-3 78h101v-286
q0 -55 43 -55h18v-80q-16 -3 -50 -3zM273 503l57 181h116l-95 -181h-78zM224 602q-11 0 -23 6q-8 -5 -8 -19q0 -32 53 -51l-14 -41q-47 10 -74.5 37t-27.5 69q0 39 22 61.5t58 22.5q22 0 36.5 -12t14.5 -35q0 -19 -11.5 -28.5t-25.5 -9.5z" />
    <glyph glyph-name="uni1F06" unicode="&#x1f06;" horiz-adv-x="578" 
d="M267 80q55 0 88.5 36t33.5 95q0 57 -33.5 92.5t-88.5 35.5q-54 0 -86.5 -35.5t-32.5 -92.5q0 -59 32 -95t87 -36zM498 -4q-40 0 -67.5 21.5t-35.5 58.5l-1 6q-21 -42 -61.5 -66.5t-92.5 -24.5q-82 0 -139 63t-57 157t56 156t138 62q105 0 151 -87l-3 78h101v-286
q0 -55 43 -55h18v-80q-16 -3 -50 -3zM306 774q15 0 36 29l44 -34q-28 -56 -81 -56q-23 0 -52 11q-31 11 -43 11q-21 0 -37 -30l-48 37q34 55 86 55q21 0 48 -11q34 -12 47 -12zM242 598q-14 0 -25.5 9.5t-11.5 28.5q0 23 14.5 35t36.5 12q36 0 58 -22.5t22 -61.5
q0 -42 -27.5 -69t-74.5 -37l-14 41q53 19 53 51q0 14 -8 19q-12 -6 -23 -6z" />
    <glyph glyph-name="uni1F07" unicode="&#x1f07;" horiz-adv-x="578" 
d="M267 80q55 0 88.5 36t33.5 95q0 57 -33.5 92.5t-88.5 35.5q-54 0 -86.5 -35.5t-32.5 -92.5q0 -59 32 -95t87 -36zM498 -4q-40 0 -67.5 21.5t-35.5 58.5l-1 6q-21 -42 -61.5 -66.5t-92.5 -24.5q-82 0 -139 63t-57 157t56 156t138 62q105 0 151 -87l-3 78h101v-286
q0 -55 43 -55h18v-80q-16 -3 -50 -3zM310 774q15 0 36 29l44 -34q-28 -56 -81 -56q-23 0 -52 11q-31 11 -43 11q-21 0 -37 -30l-48 37q34 55 86 55q21 0 48 -11q34 -12 47 -12zM293 598q-11 0 -23 6q-8 -5 -8 -19q0 -32 53 -51l-14 -41q-47 10 -74.5 37t-27.5 69
q0 39 22 61.5t58 22.5q22 0 36.5 -12t14.5 -35q0 -19 -11.5 -28.5t-25.5 -9.5z" />
    <glyph glyph-name="uni1F08" unicode="&#x1f08;" horiz-adv-x="659" 
d="M29 0l291 687h12l298 -687h-110l-50 124h-289l-50 -124h-102zM217 212h215l-74 185q-28 68 -34 100l-2 -7q-2 -8 -5.5 -18.5t-7.5 -23t-9 -26.5t-9 -25zM46 595q-14 0 -25.5 9.5t-11.5 28.5q0 23 14.5 35t36.5 12q36 0 58 -22.5t22 -61.5q0 -42 -27.5 -69t-74.5 -37
l-14 41q53 19 53 51q0 14 -8 19q-12 -6 -23 -6z" />
    <glyph glyph-name="uni1F09" unicode="&#x1f09;" horiz-adv-x="659" 
d="M29 0l291 687h12l298 -687h-110l-50 124h-289l-50 -124h-102zM217 212h215l-74 185q-28 68 -34 100l-2 -7q-2 -8 -5.5 -18.5t-7.5 -23t-9 -26.5t-9 -25zM103 595q-11 0 -23 6q-8 -5 -8 -19q0 -32 53 -51l-14 -41q-47 10 -74.5 37t-27.5 69q0 39 22 61.5t58 22.5
q22 0 36.5 -12t14.5 -35q0 -19 -11.5 -28.5t-25.5 -9.5z" />
    <glyph glyph-name="uni1F0A" unicode="&#x1f0a;" horiz-adv-x="659" 
d="M29 0l291 687h12l298 -687h-110l-50 124h-289l-50 -124h-102zM217 212h215l-74 185q-28 68 -34 100l-2 -7q-2 -8 -5.5 -18.5t-7.5 -23t-9 -26.5t-9 -25zM141 496l-57 181h-116l95 -181h78zM-139 595q-14 0 -25.5 9.5t-11.5 28.5q0 23 14.5 35t36.5 12q36 0 58 -22.5
t22 -61.5q0 -42 -27.5 -69t-74.5 -37l-14 41q53 19 53 51q0 14 -8 19q-12 -6 -23 -6z" />
    <glyph glyph-name="uni1F0B" unicode="&#x1f0b;" horiz-adv-x="659" 
d="M29 0l291 687h12l298 -687h-110l-50 124h-289l-50 -124h-102zM217 212h215l-74 185q-28 68 -34 100l-2 -7q-2 -8 -5.5 -18.5t-7.5 -23t-9 -26.5t-9 -25zM141 496l-57 181h-116l95 -181h78zM-91 595q-11 0 -23 6q-8 -5 -8 -19q0 -32 53 -51l-14 -41q-47 10 -74.5 37
t-27.5 69q0 39 22 61.5t58 22.5q22 0 36.5 -12t14.5 -35q0 -19 -11.5 -28.5t-25.5 -9.5z" />
    <glyph glyph-name="uni1F0C" unicode="&#x1f0c;" horiz-adv-x="659" 
d="M29 0l291 687h12l298 -687h-110l-50 124h-289l-50 -124h-102zM217 212h215l-74 185q-28 68 -34 100l-2 -7q-2 -8 -5.5 -18.5t-7.5 -23t-9 -26.5t-9 -25zM-37 496l57 181h116l-95 -181h-78zM-145 595q-14 0 -25.5 9.5t-11.5 28.5q0 23 14.5 35t36.5 12q36 0 58 -22.5
t22 -61.5q0 -42 -27.5 -69t-74.5 -37l-14 41q53 19 53 51q0 14 -8 19q-12 -6 -23 -6z" />
    <glyph glyph-name="uni1F0D" unicode="&#x1f0d;" horiz-adv-x="659" 
d="M29 0l291 687h12l298 -687h-110l-50 124h-289l-50 -124h-102zM217 212h215l-74 185q-28 68 -34 100l-2 -7q-2 -8 -5.5 -18.5t-7.5 -23t-9 -26.5t-9 -25zM-35 496l57 181h116l-95 -181h-78zM-84 595q-11 0 -23 6q-8 -5 -8 -19q0 -32 53 -51l-14 -41q-47 10 -74.5 37
t-27.5 69q0 39 22 61.5t58 22.5q22 0 36.5 -12t14.5 -35q0 -19 -11.5 -28.5t-25.5 -9.5z" />
    <glyph glyph-name="uni1F0E" unicode="&#x1f0e;" horiz-adv-x="659" 
d="M29 0l291 687h12l298 -687h-110l-50 124h-289l-50 -124h-102zM217 212h215l-74 185q-28 68 -34 100l-2 -7q-2 -8 -5.5 -18.5t-7.5 -23t-9 -26.5t-9 -25zM59 657q15 0 36 29l44 -34q-28 -56 -81 -56q-23 0 -52 11q-31 11 -43 11q-21 0 -37 -30l-48 37q34 55 86 55
q21 0 48 -11q34 -12 47 -12zM-5 481q-14 0 -25.5 9.5t-11.5 28.5q0 23 14.5 35t36.5 12q36 0 58 -22.5t22 -61.5q0 -42 -27.5 -69t-74.5 -37l-14 41q53 19 53 51q0 14 -8 19q-12 -6 -23 -6z" />
    <glyph glyph-name="uni1F0F" unicode="&#x1f0f;" horiz-adv-x="659" 
d="M29 0l291 687h12l298 -687h-110l-50 124h-289l-50 -124h-102zM217 212h215l-74 185q-28 68 -34 100l-2 -7q-2 -8 -5.5 -18.5t-7.5 -23t-9 -26.5t-9 -25zM59 658q15 0 36 29l44 -34q-28 -56 -81 -56q-23 0 -52 11q-31 11 -43 11q-21 0 -37 -30l-48 37q34 55 86 55
q21 0 48 -11q34 -12 47 -12zM42 482q-11 0 -23 6q-8 -5 -8 -19q0 -32 53 -51l-14 -41q-47 10 -74.5 37t-27.5 69q0 39 22 61.5t58 22.5q22 0 36.5 -12t14.5 -35q0 -19 -11.5 -28.5t-25.5 -9.5z" />
    <glyph glyph-name="uni1F10" unicode="&#x1f10;" horiz-adv-x="475" 
d="M136 224q-32 7 -53 30.5t-21 51.5q0 59 52.5 91t128.5 32q120 0 193 -71l-55 -63q-52 50 -129 50q-89 0 -89 -54q0 -18 16.5 -29.5t35.5 -11.5h90v-62h-90q-25 0 -45.5 -12t-20.5 -39q0 -60 97 -60q83 0 144 55l53 -66q-88 -75 -216 -75q-83 0 -132 33.5t-49 91.5
q0 84 90 108zM218 602q-14 0 -25.5 9.5t-11.5 28.5q0 23 14.5 35t36.5 12q36 0 58 -22.5t22 -61.5q0 -42 -27.5 -69t-74.5 -37l-14 41q53 19 53 51q0 14 -8 19q-12 -6 -23 -6z" />
    <glyph glyph-name="uni1F11" unicode="&#x1f11;" horiz-adv-x="475" 
d="M136 224q-32 7 -53 30.5t-21 51.5q0 59 52.5 91t128.5 32q120 0 193 -71l-55 -63q-52 50 -129 50q-89 0 -89 -54q0 -18 16.5 -29.5t35.5 -11.5h90v-62h-90q-25 0 -45.5 -12t-20.5 -39q0 -60 97 -60q83 0 144 55l53 -66q-88 -75 -216 -75q-83 0 -132 33.5t-49 91.5
q0 84 90 108zM264 603q-11 0 -23 6q-8 -5 -8 -19q0 -32 53 -51l-14 -41q-47 10 -74.5 37t-27.5 69q0 39 22 61.5t58 22.5q22 0 36.5 -12t14.5 -35q0 -19 -11.5 -28.5t-25.5 -9.5z" />
    <glyph glyph-name="uni1F12" unicode="&#x1f12;" horiz-adv-x="475" 
d="M136 224q-32 7 -53 30.5t-21 51.5q0 59 52.5 91t128.5 32q120 0 193 -71l-55 -63q-52 50 -129 50q-89 0 -89 -54q0 -18 16.5 -29.5t35.5 -11.5h90v-62h-90q-25 0 -45.5 -12t-20.5 -39q0 -60 97 -60q83 0 144 55l53 -66q-88 -75 -216 -75q-83 0 -132 33.5t-49 91.5
q0 84 90 108zM397 502l-57 181h-116l95 -181h78zM117 601q-14 0 -25.5 9.5t-11.5 28.5q0 23 14.5 35t36.5 12q36 0 58 -22.5t22 -61.5q0 -42 -27.5 -69t-74.5 -37l-14 41q53 19 53 51q0 14 -8 19q-12 -6 -23 -6z" />
    <glyph glyph-name="uni1F13" unicode="&#x1f13;" horiz-adv-x="475" 
d="M136 224q-32 7 -53 30.5t-21 51.5q0 59 52.5 91t128.5 32q120 0 193 -71l-55 -63q-52 50 -129 50q-89 0 -89 -54q0 -18 16.5 -29.5t35.5 -11.5h90v-62h-90q-25 0 -45.5 -12t-20.5 -39q0 -60 97 -60q83 0 144 55l53 -66q-88 -75 -216 -75q-83 0 -132 33.5t-49 91.5
q0 84 90 108zM404 502l-57 181h-116l95 -181h78zM172 601q-11 0 -23 6q-8 -5 -8 -19q0 -32 53 -51l-14 -41q-47 10 -74.5 37t-27.5 69q0 39 22 61.5t58 22.5q22 0 36.5 -12t14.5 -35q0 -19 -11.5 -28.5t-25.5 -9.5z" />
    <glyph glyph-name="uni1F14" unicode="&#x1f14;" horiz-adv-x="475" 
d="M136 224q-32 7 -53 30.5t-21 51.5q0 59 52.5 91t128.5 32q120 0 193 -71l-55 -63q-52 50 -129 50q-89 0 -89 -54q0 -18 16.5 -29.5t35.5 -11.5h90v-62h-90q-25 0 -45.5 -12t-20.5 -39q0 -60 97 -60q83 0 144 55l53 -66q-88 -75 -216 -75q-83 0 -132 33.5t-49 91.5
q0 84 90 108zM264 503l57 181h116l-95 -181h-78zM156 602q-14 0 -25.5 9.5t-11.5 28.5q0 23 14.5 35t36.5 12q36 0 58 -22.5t22 -61.5q0 -42 -27.5 -69t-74.5 -37l-14 41q53 19 53 51q0 14 -8 19q-12 -6 -23 -6z" />
    <glyph glyph-name="uni1F15" unicode="&#x1f15;" horiz-adv-x="475" 
d="M136 224q-32 7 -53 30.5t-21 51.5q0 59 52.5 91t128.5 32q120 0 193 -71l-55 -63q-52 50 -129 50q-89 0 -89 -54q0 -18 16.5 -29.5t35.5 -11.5h90v-62h-90q-25 0 -45.5 -12t-20.5 -39q0 -60 97 -60q83 0 144 55l53 -66q-88 -75 -216 -75q-83 0 -132 33.5t-49 91.5
q0 84 90 108zM247 503l57 181h116l-95 -181h-78zM198 602q-11 0 -23 6q-8 -5 -8 -19q0 -32 53 -51l-14 -41q-47 10 -74.5 37t-27.5 69q0 39 22 61.5t58 22.5q22 0 36.5 -12t14.5 -35q0 -19 -11.5 -28.5t-25.5 -9.5z" />
    <glyph glyph-name="uni1F18" unicode="&#x1f18;" horiz-adv-x="587" 
d="M82 0v680h432v-93h-326v-200h289v-91h-289v-203h340v-93h-446zM-79 595q-14 0 -25.5 9.5t-11.5 28.5q0 23 14.5 35t36.5 12q36 0 58 -22.5t22 -61.5q0 -42 -27.5 -69t-74.5 -37l-14 41q53 19 53 51q0 14 -8 19q-12 -6 -23 -6z" />
    <glyph glyph-name="uni1F19" unicode="&#x1f19;" horiz-adv-x="587" 
d="M82 0v680h432v-93h-326v-200h289v-91h-289v-203h340v-93h-446zM-22 595q-11 0 -23 6q-8 -5 -8 -19q0 -32 53 -51l-14 -41q-47 10 -74.5 37t-27.5 69q0 39 22 61.5t58 22.5q22 0 36.5 -12t14.5 -35q0 -19 -11.5 -28.5t-25.5 -9.5z" />
    <glyph glyph-name="uni1F1A" unicode="&#x1f1a;" horiz-adv-x="587" 
d="M82 0v680h432v-93h-326v-200h289v-91h-289v-203h340v-93h-446zM16 496l-57 181h-116l95 -181h78zM-264 595q-14 0 -25.5 9.5t-11.5 28.5q0 23 14.5 35t36.5 12q36 0 58 -22.5t22 -61.5q0 -42 -27.5 -69t-74.5 -37l-14 41q53 19 53 51q0 14 -8 19q-12 -6 -23 -6z" />
    <glyph glyph-name="uni1F1B" unicode="&#x1f1b;" horiz-adv-x="587" 
d="M82 0v680h432v-93h-326v-200h289v-91h-289v-203h340v-93h-446zM16 496l-57 181h-116l95 -181h78zM-216 595q-11 0 -23 6q-8 -5 -8 -19q0 -32 53 -51l-14 -41q-47 10 -74.5 37t-27.5 69q0 39 22 61.5t58 22.5q22 0 36.5 -12t14.5 -35q0 -19 -11.5 -28.5t-25.5 -9.5z" />
    <glyph glyph-name="uni1F1C" unicode="&#x1f1c;" horiz-adv-x="587" 
d="M82 0v680h432v-93h-326v-200h289v-91h-289v-203h340v-93h-446zM-162 496l57 181h116l-95 -181h-78zM-270 595q-14 0 -25.5 9.5t-11.5 28.5q0 23 14.5 35t36.5 12q36 0 58 -22.5t22 -61.5q0 -42 -27.5 -69t-74.5 -37l-14 41q53 19 53 51q0 14 -8 19q-12 -6 -23 -6z" />
    <glyph glyph-name="uni1F1D" unicode="&#x1f1d;" horiz-adv-x="587" 
d="M82 0v680h432v-93h-326v-200h289v-91h-289v-203h340v-93h-446zM-160 496l57 181h116l-95 -181h-78zM-209 595q-11 0 -23 6q-8 -5 -8 -19q0 -32 53 -51l-14 -41q-47 10 -74.5 37t-27.5 69q0 39 22 61.5t58 22.5q22 0 36.5 -12t14.5 -35q0 -19 -11.5 -28.5t-25.5 -9.5z" />
    <glyph glyph-name="uni1F20" unicode="&#x1f20;" horiz-adv-x="523" 
d="M64 0v420h101l-2 -78q19 41 57 64t85 23q71 0 114 -48t43 -132v-461h-101v453q0 95 -87 95q-50 0 -79.5 -28.5t-29.5 -79.5v-228h-101zM230 602q-14 0 -25.5 9.5t-11.5 28.5q0 23 14.5 35t36.5 12q36 0 58 -22.5t22 -61.5q0 -42 -27.5 -69t-74.5 -37l-14 41q53 19 53 51
q0 14 -8 19q-12 -6 -23 -6z" />
    <glyph glyph-name="uni1F21" unicode="&#x1f21;" horiz-adv-x="523" 
d="M64 0v420h101l-2 -78q19 41 57 64t85 23q71 0 114 -48t43 -132v-461h-101v453q0 95 -87 95q-50 0 -79.5 -28.5t-29.5 -79.5v-228h-101zM276 603q-11 0 -23 6q-8 -5 -8 -19q0 -32 53 -51l-14 -41q-47 10 -74.5 37t-27.5 69q0 39 22 61.5t58 22.5q22 0 36.5 -12t14.5 -35
q0 -19 -11.5 -28.5t-25.5 -9.5z" />
    <glyph glyph-name="uni1F22" unicode="&#x1f22;" horiz-adv-x="523" 
d="M64 0v420h101l-2 -78q19 41 57 64t85 23q71 0 114 -48t43 -132v-461h-101v453q0 95 -87 95q-50 0 -79.5 -28.5t-29.5 -79.5v-228h-101zM409 502l-57 181h-116l95 -181h78zM129 601q-14 0 -25.5 9.5t-11.5 28.5q0 23 14.5 35t36.5 12q36 0 58 -22.5t22 -61.5
q0 -42 -27.5 -69t-74.5 -37l-14 41q53 19 53 51q0 14 -8 19q-12 -6 -23 -6z" />
    <glyph glyph-name="uni1F23" unicode="&#x1f23;" horiz-adv-x="523" 
d="M64 0v420h101l-2 -78q19 41 57 64t85 23q71 0 114 -48t43 -132v-461h-101v453q0 95 -87 95q-50 0 -79.5 -28.5t-29.5 -79.5v-228h-101zM416 502l-57 181h-116l95 -181h78zM184 601q-11 0 -23 6q-8 -5 -8 -19q0 -32 53 -51l-14 -41q-47 10 -74.5 37t-27.5 69q0 39 22 61.5
t58 22.5q22 0 36.5 -12t14.5 -35q0 -19 -11.5 -28.5t-25.5 -9.5z" />
    <glyph glyph-name="uni1F24" unicode="&#x1f24;" horiz-adv-x="523" 
d="M64 0v420h101l-2 -78q19 41 57 64t85 23q71 0 114 -48t43 -132v-461h-101v453q0 95 -87 95q-50 0 -79.5 -28.5t-29.5 -79.5v-228h-101zM276 503l57 181h116l-95 -181h-78zM168 602q-14 0 -25.5 9.5t-11.5 28.5q0 23 14.5 35t36.5 12q36 0 58 -22.5t22 -61.5
q0 -42 -27.5 -69t-74.5 -37l-14 41q53 19 53 51q0 14 -8 19q-12 -6 -23 -6z" />
    <glyph glyph-name="uni1F25" unicode="&#x1f25;" horiz-adv-x="523" 
d="M64 0v420h101l-2 -78q19 41 57 64t85 23q71 0 114 -48t43 -132v-461h-101v453q0 95 -87 95q-50 0 -79.5 -28.5t-29.5 -79.5v-228h-101zM259 503l57 181h116l-95 -181h-78zM210 602q-11 0 -23 6q-8 -5 -8 -19q0 -32 53 -51l-14 -41q-47 10 -74.5 37t-27.5 69q0 39 22 61.5
t58 22.5q22 0 36.5 -12t14.5 -35q0 -19 -11.5 -28.5t-25.5 -9.5z" />
    <glyph glyph-name="uni1F26" unicode="&#x1f26;" horiz-adv-x="523" 
d="M64 0v420h101l-2 -78q19 41 57 64t85 23q71 0 114 -48t43 -132v-461h-101v453q0 95 -87 95q-50 0 -79.5 -28.5t-29.5 -79.5v-228h-101zM292 774q15 0 36 29l44 -34q-28 -56 -81 -56q-23 0 -52 11q-31 11 -43 11q-21 0 -37 -30l-48 37q34 55 86 55q21 0 48 -11
q34 -12 47 -12zM228 598q-14 0 -25.5 9.5t-11.5 28.5q0 23 14.5 35t36.5 12q36 0 58 -22.5t22 -61.5q0 -42 -27.5 -69t-74.5 -37l-14 41q53 19 53 51q0 14 -8 19q-12 -6 -23 -6z" />
    <glyph glyph-name="uni1F27" unicode="&#x1f27;" horiz-adv-x="523" 
d="M64 0v420h101l-2 -78q19 41 57 64t85 23q71 0 114 -48t43 -132v-461h-101v453q0 95 -87 95q-50 0 -79.5 -28.5t-29.5 -79.5v-228h-101zM296 774q15 0 36 29l44 -34q-28 -56 -81 -56q-23 0 -52 11q-31 11 -43 11q-21 0 -37 -30l-48 37q34 55 86 55q21 0 48 -11
q34 -12 47 -12zM279 598q-11 0 -23 6q-8 -5 -8 -19q0 -32 53 -51l-14 -41q-47 10 -74.5 37t-27.5 69q0 39 22 61.5t58 22.5q22 0 36.5 -12t14.5 -35q0 -19 -11.5 -28.5t-25.5 -9.5z" />
    <glyph glyph-name="uni1F28" unicode="&#x1f28;" horiz-adv-x="703" 
d="M82 0v680h106v-303h327v303h106v-680h-106v283h-327v-283h-106zM-79 595q-14 0 -25.5 9.5t-11.5 28.5q0 23 14.5 35t36.5 12q36 0 58 -22.5t22 -61.5q0 -42 -27.5 -69t-74.5 -37l-14 41q53 19 53 51q0 14 -8 19q-12 -6 -23 -6z" />
    <glyph glyph-name="uni1F29" unicode="&#x1f29;" horiz-adv-x="703" 
d="M82 0v680h106v-303h327v303h106v-680h-106v283h-327v-283h-106zM-22 595q-11 0 -23 6q-8 -5 -8 -19q0 -32 53 -51l-14 -41q-47 10 -74.5 37t-27.5 69q0 39 22 61.5t58 22.5q22 0 36.5 -12t14.5 -35q0 -19 -11.5 -28.5t-25.5 -9.5z" />
    <glyph glyph-name="uni1F2A" unicode="&#x1f2a;" horiz-adv-x="703" 
d="M82 0v680h106v-303h327v303h106v-680h-106v283h-327v-283h-106zM16 496l-57 181h-116l95 -181h78zM-264 595q-14 0 -25.5 9.5t-11.5 28.5q0 23 14.5 35t36.5 12q36 0 58 -22.5t22 -61.5q0 -42 -27.5 -69t-74.5 -37l-14 41q53 19 53 51q0 14 -8 19q-12 -6 -23 -6z" />
    <glyph glyph-name="uni1F2B" unicode="&#x1f2b;" horiz-adv-x="703" 
d="M82 0v680h106v-303h327v303h106v-680h-106v283h-327v-283h-106zM16 496l-57 181h-116l95 -181h78zM-216 595q-11 0 -23 6q-8 -5 -8 -19q0 -32 53 -51l-14 -41q-47 10 -74.5 37t-27.5 69q0 39 22 61.5t58 22.5q22 0 36.5 -12t14.5 -35q0 -19 -11.5 -28.5t-25.5 -9.5z" />
    <glyph glyph-name="uni1F2C" unicode="&#x1f2c;" horiz-adv-x="703" 
d="M82 0v680h106v-303h327v303h106v-680h-106v283h-327v-283h-106zM-162 496l57 181h116l-95 -181h-78zM-270 595q-14 0 -25.5 9.5t-11.5 28.5q0 23 14.5 35t36.5 12q36 0 58 -22.5t22 -61.5q0 -42 -27.5 -69t-74.5 -37l-14 41q53 19 53 51q0 14 -8 19q-12 -6 -23 -6z" />
    <glyph glyph-name="uni1F2D" unicode="&#x1f2d;" horiz-adv-x="703" 
d="M82 0v680h106v-303h327v303h106v-680h-106v283h-327v-283h-106zM-160 496l57 181h116l-95 -181h-78zM-209 595q-11 0 -23 6q-8 -5 -8 -19q0 -32 53 -51l-14 -41q-47 10 -74.5 37t-27.5 69q0 39 22 61.5t58 22.5q22 0 36.5 -12t14.5 -35q0 -19 -11.5 -28.5t-25.5 -9.5z
" />
    <glyph glyph-name="uni1F2E" unicode="&#x1f2e;" horiz-adv-x="703" 
d="M82 0v680h106v-303h327v303h106v-680h-106v283h-327v-283h-106zM-66 657q15 0 36 29l44 -34q-28 -56 -81 -56q-23 0 -52 11q-31 11 -43 11q-21 0 -37 -30l-48 37q34 55 86 55q21 0 48 -11q34 -12 47 -12zM-130 481q-14 0 -25.5 9.5t-11.5 28.5q0 23 14.5 35t36.5 12
q36 0 58 -22.5t22 -61.5q0 -42 -27.5 -69t-74.5 -37l-14 41q53 19 53 51q0 14 -8 19q-12 -6 -23 -6z" />
    <glyph glyph-name="uni1F2F" unicode="&#x1f2f;" horiz-adv-x="703" 
d="M82 0v680h106v-303h327v303h106v-680h-106v283h-327v-283h-106zM-66 658q15 0 36 29l44 -34q-28 -56 -81 -56q-23 0 -52 11q-31 11 -43 11q-21 0 -37 -30l-48 37q34 55 86 55q21 0 48 -11q34 -12 47 -12zM-83 482q-11 0 -23 6q-8 -5 -8 -19q0 -32 53 -51l-14 -41
q-47 10 -74.5 37t-27.5 69q0 39 22 61.5t58 22.5q22 0 36.5 -12t14.5 -35q0 -19 -11.5 -28.5t-25.5 -9.5z" />
    <glyph glyph-name="uni1F30" unicode="&#x1f30;" horiz-adv-x="261" 
d="M67 112v308h101v-287q0 -54 43 -54h18v-79q-21 -3 -50 -3q-49 0 -80.5 27t-31.5 88zM94 602q-14 0 -25.5 9.5t-11.5 28.5q0 23 14.5 35t36.5 12q36 0 58 -22.5t22 -61.5q0 -42 -27.5 -69t-74.5 -37l-14 41q53 19 53 51q0 14 -8 19q-12 -6 -23 -6z" />
    <glyph glyph-name="uni1F31" unicode="&#x1f31;" horiz-adv-x="261" 
d="M67 112v308h101v-287q0 -54 43 -54h18v-79q-21 -3 -50 -3q-49 0 -80.5 27t-31.5 88zM140 603q-11 0 -23 6q-8 -5 -8 -19q0 -32 53 -51l-14 -41q-47 10 -74.5 37t-27.5 69q0 39 22 61.5t58 22.5q22 0 36.5 -12t14.5 -35q0 -19 -11.5 -28.5t-25.5 -9.5z" />
    <glyph glyph-name="uni1F32" unicode="&#x1f32;" horiz-adv-x="261" 
d="M67 112v308h101v-287q0 -54 43 -54h18v-79q-21 -3 -50 -3q-49 0 -80.5 27t-31.5 88zM273 502l-57 181h-116l95 -181h78zM-7 601q-14 0 -25.5 9.5t-11.5 28.5q0 23 14.5 35t36.5 12q36 0 58 -22.5t22 -61.5q0 -42 -27.5 -69t-74.5 -37l-14 41q53 19 53 51q0 14 -8 19
q-12 -6 -23 -6z" />
    <glyph glyph-name="uni1F33" unicode="&#x1f33;" horiz-adv-x="261" 
d="M67 112v308h101v-287q0 -54 43 -54h18v-79q-21 -3 -50 -3q-49 0 -80.5 27t-31.5 88zM280 502l-57 181h-116l95 -181h78zM48 601q-11 0 -23 6q-8 -5 -8 -19q0 -32 53 -51l-14 -41q-47 10 -74.5 37t-27.5 69q0 39 22 61.5t58 22.5q22 0 36.5 -12t14.5 -35
q0 -19 -11.5 -28.5t-25.5 -9.5z" />
    <glyph glyph-name="uni1F34" unicode="&#x1f34;" horiz-adv-x="261" 
d="M67 112v308h101v-287q0 -54 43 -54h18v-79q-21 -3 -50 -3q-49 0 -80.5 27t-31.5 88zM140 503l57 181h116l-95 -181h-78zM32 602q-14 0 -25.5 9.5t-11.5 28.5q0 23 14.5 35t36.5 12q36 0 58 -22.5t22 -61.5q0 -42 -27.5 -69t-74.5 -37l-14 41q53 19 53 51q0 14 -8 19
q-12 -6 -23 -6z" />
    <glyph glyph-name="uni1F35" unicode="&#x1f35;" horiz-adv-x="261" 
d="M67 112v308h101v-287q0 -54 43 -54h18v-79q-21 -3 -50 -3q-49 0 -80.5 27t-31.5 88zM123 503l57 181h116l-95 -181h-78zM74 602q-11 0 -23 6q-8 -5 -8 -19q0 -32 53 -51l-14 -41q-47 10 -74.5 37t-27.5 69q0 39 22 61.5t58 22.5q22 0 36.5 -12t14.5 -35
q0 -19 -11.5 -28.5t-25.5 -9.5z" />
    <glyph glyph-name="uni1F36" unicode="&#x1f36;" horiz-adv-x="261" 
d="M67 112v308h101v-287q0 -54 43 -54h18v-79q-21 -3 -50 -3q-49 0 -80.5 27t-31.5 88zM156 774q15 0 36 29l44 -34q-28 -56 -81 -56q-23 0 -52 11q-31 11 -43 11q-21 0 -37 -30l-48 37q34 55 86 55q21 0 48 -11q34 -12 47 -12zM92 598q-14 0 -25.5 9.5t-11.5 28.5
q0 23 14.5 35t36.5 12q36 0 58 -22.5t22 -61.5q0 -42 -27.5 -69t-74.5 -37l-14 41q53 19 53 51q0 14 -8 19q-12 -6 -23 -6z" />
    <glyph glyph-name="uni1F37" unicode="&#x1f37;" horiz-adv-x="261" 
d="M67 112v308h101v-287q0 -54 43 -54h18v-79q-21 -3 -50 -3q-49 0 -80.5 27t-31.5 88zM160 774q15 0 36 29l44 -34q-28 -56 -81 -56q-23 0 -52 11q-31 11 -43 11q-21 0 -37 -30l-48 37q34 55 86 55q21 0 48 -11q34 -12 47 -12zM143 598q-11 0 -23 6q-8 -5 -8 -19
q0 -32 53 -51l-14 -41q-47 10 -74.5 37t-27.5 69q0 39 22 61.5t58 22.5q22 0 36.5 -12t14.5 -35q0 -19 -11.5 -28.5t-25.5 -9.5z" />
    <glyph glyph-name="uni1F38" unicode="&#x1f38;" horiz-adv-x="276" 
d="M86 0v680h105v-680h-105zM-94 595q-14 0 -25.5 9.5t-11.5 28.5q0 23 14.5 35t36.5 12q36 0 58 -22.5t22 -61.5q0 -42 -27.5 -69t-74.5 -37l-14 41q53 19 53 51q0 14 -8 19q-12 -6 -23 -6z" />
    <glyph glyph-name="uni1F39" unicode="&#x1f39;" horiz-adv-x="276" 
d="M86 0v680h105v-680h-105zM-37 595q-11 0 -23 6q-8 -5 -8 -19q0 -32 53 -51l-14 -41q-47 10 -74.5 37t-27.5 69q0 39 22 61.5t58 22.5q22 0 36.5 -12t14.5 -35q0 -19 -11.5 -28.5t-25.5 -9.5z" />
    <glyph glyph-name="uni1F3A" unicode="&#x1f3a;" horiz-adv-x="276" 
d="M86 0v680h105v-680h-105zM1 496l-57 181h-116l95 -181h78zM-279 595q-14 0 -25.5 9.5t-11.5 28.5q0 23 14.5 35t36.5 12q36 0 58 -22.5t22 -61.5q0 -42 -27.5 -69t-74.5 -37l-14 41q53 19 53 51q0 14 -8 19q-12 -6 -23 -6z" />
    <glyph glyph-name="uni1F3B" unicode="&#x1f3b;" horiz-adv-x="276" 
d="M86 0v680h105v-680h-105zM1 496l-57 181h-116l95 -181h78zM-231 595q-11 0 -23 6q-8 -5 -8 -19q0 -32 53 -51l-14 -41q-47 10 -74.5 37t-27.5 69q0 39 22 61.5t58 22.5q22 0 36.5 -12t14.5 -35q0 -19 -11.5 -28.5t-25.5 -9.5z" />
    <glyph glyph-name="uni1F3C" unicode="&#x1f3c;" horiz-adv-x="276" 
d="M86 0v680h105v-680h-105zM-177 496l57 181h116l-95 -181h-78zM-285 595q-14 0 -25.5 9.5t-11.5 28.5q0 23 14.5 35t36.5 12q36 0 58 -22.5t22 -61.5q0 -42 -27.5 -69t-74.5 -37l-14 41q53 19 53 51q0 14 -8 19q-12 -6 -23 -6z" />
    <glyph glyph-name="uni1F3D" unicode="&#x1f3d;" horiz-adv-x="276" 
d="M86 0v680h105v-680h-105zM-175 496l57 181h116l-95 -181h-78zM-224 595q-11 0 -23 6q-8 -5 -8 -19q0 -32 53 -51l-14 -41q-47 10 -74.5 37t-27.5 69q0 39 22 61.5t58 22.5q22 0 36.5 -12t14.5 -35q0 -19 -11.5 -28.5t-25.5 -9.5z" />
    <glyph glyph-name="uni1F3E" unicode="&#x1f3e;" horiz-adv-x="276" 
d="M86 0v680h105v-680h-105zM-81 657q15 0 36 29l44 -34q-28 -56 -81 -56q-23 0 -52 11q-31 11 -43 11q-21 0 -37 -30l-48 37q34 55 86 55q21 0 48 -11q34 -12 47 -12zM-145 481q-14 0 -25.5 9.5t-11.5 28.5q0 23 14.5 35t36.5 12q36 0 58 -22.5t22 -61.5q0 -42 -27.5 -69
t-74.5 -37l-14 41q53 19 53 51q0 14 -8 19q-12 -6 -23 -6z" />
    <glyph glyph-name="uni1F3F" unicode="&#x1f3f;" horiz-adv-x="276" 
d="M86 0v680h105v-680h-105zM-81 658q15 0 36 29l44 -34q-28 -56 -81 -56q-23 0 -52 11q-31 11 -43 11q-21 0 -37 -30l-48 37q34 55 86 55q21 0 48 -11q34 -12 47 -12zM-98 482q-11 0 -23 6q-8 -5 -8 -19q0 -32 53 -51l-14 -41q-47 10 -74.5 37t-27.5 69q0 39 22 61.5
t58 22.5q22 0 36.5 -12t14.5 -35q0 -19 -11.5 -28.5t-25.5 -9.5z" />
    <glyph glyph-name="uni1F40" unicode="&#x1f40;" horiz-adv-x="539" 
d="M270 -9q-96 0 -161.5 63t-65.5 156t65.5 156t161.5 63t161 -62.5t65 -156.5t-65 -156.5t-161 -62.5zM270 78q56 0 89 37t33 95t-33 94.5t-89 36.5t-89.5 -36.5t-33.5 -94.5t33.5 -95t89.5 -37zM242 602q-14 0 -25.5 9.5t-11.5 28.5q0 23 14.5 35t36.5 12q36 0 58 -22.5
t22 -61.5q0 -42 -27.5 -69t-74.5 -37l-14 41q53 19 53 51q0 14 -8 19q-12 -6 -23 -6z" />
    <glyph glyph-name="uni1F41" unicode="&#x1f41;" horiz-adv-x="539" 
d="M270 -9q-96 0 -161.5 63t-65.5 156t65.5 156t161.5 63t161 -62.5t65 -156.5t-65 -156.5t-161 -62.5zM270 78q56 0 89 37t33 95t-33 94.5t-89 36.5t-89.5 -36.5t-33.5 -94.5t33.5 -95t89.5 -37zM288 603q-11 0 -23 6q-8 -5 -8 -19q0 -32 53 -51l-14 -41q-47 10 -74.5 37
t-27.5 69q0 39 22 61.5t58 22.5q22 0 36.5 -12t14.5 -35q0 -19 -11.5 -28.5t-25.5 -9.5z" />
    <glyph glyph-name="uni1F42" unicode="&#x1f42;" horiz-adv-x="539" 
d="M270 -9q-96 0 -161.5 63t-65.5 156t65.5 156t161.5 63t161 -62.5t65 -156.5t-65 -156.5t-161 -62.5zM270 78q56 0 89 37t33 95t-33 94.5t-89 36.5t-89.5 -36.5t-33.5 -94.5t33.5 -95t89.5 -37zM421 502l-57 181h-116l95 -181h78zM141 601q-14 0 -25.5 9.5t-11.5 28.5
q0 23 14.5 35t36.5 12q36 0 58 -22.5t22 -61.5q0 -42 -27.5 -69t-74.5 -37l-14 41q53 19 53 51q0 14 -8 19q-12 -6 -23 -6z" />
    <glyph glyph-name="uni1F43" unicode="&#x1f43;" horiz-adv-x="539" 
d="M270 -9q-96 0 -161.5 63t-65.5 156t65.5 156t161.5 63t161 -62.5t65 -156.5t-65 -156.5t-161 -62.5zM270 78q56 0 89 37t33 95t-33 94.5t-89 36.5t-89.5 -36.5t-33.5 -94.5t33.5 -95t89.5 -37zM428 502l-57 181h-116l95 -181h78zM196 601q-11 0 -23 6q-8 -5 -8 -19
q0 -32 53 -51l-14 -41q-47 10 -74.5 37t-27.5 69q0 39 22 61.5t58 22.5q22 0 36.5 -12t14.5 -35q0 -19 -11.5 -28.5t-25.5 -9.5z" />
    <glyph glyph-name="uni1F44" unicode="&#x1f44;" horiz-adv-x="539" 
d="M270 -9q-96 0 -161.5 63t-65.5 156t65.5 156t161.5 63t161 -62.5t65 -156.5t-65 -156.5t-161 -62.5zM270 78q56 0 89 37t33 95t-33 94.5t-89 36.5t-89.5 -36.5t-33.5 -94.5t33.5 -95t89.5 -37zM288 503l57 181h116l-95 -181h-78zM180 602q-14 0 -25.5 9.5t-11.5 28.5
q0 23 14.5 35t36.5 12q36 0 58 -22.5t22 -61.5q0 -42 -27.5 -69t-74.5 -37l-14 41q53 19 53 51q0 14 -8 19q-12 -6 -23 -6z" />
    <glyph glyph-name="uni1F45" unicode="&#x1f45;" horiz-adv-x="539" 
d="M270 -9q-96 0 -161.5 63t-65.5 156t65.5 156t161.5 63t161 -62.5t65 -156.5t-65 -156.5t-161 -62.5zM270 78q56 0 89 37t33 95t-33 94.5t-89 36.5t-89.5 -36.5t-33.5 -94.5t33.5 -95t89.5 -37zM271 503l57 181h116l-95 -181h-78zM222 602q-11 0 -23 6q-8 -5 -8 -19
q0 -32 53 -51l-14 -41q-47 10 -74.5 37t-27.5 69q0 39 22 61.5t58 22.5q22 0 36.5 -12t14.5 -35q0 -19 -11.5 -28.5t-25.5 -9.5z" />
    <glyph glyph-name="uni1F48" unicode="&#x1f48;" 
d="M402 -9q-148 0 -249.5 99t-101.5 250t101.5 250t249.5 99q147 0 248.5 -99t101.5 -250t-101.5 -250t-248.5 -99zM402 86q106 0 174 72.5t68 181.5t-68 181.5t-174 72.5t-174.5 -72.5t-68.5 -181.5t68.5 -181.5t174.5 -72.5zM-55 595q-14 0 -25.5 9.5t-11.5 28.5
q0 23 14.5 35t36.5 12q36 0 58 -22.5t22 -61.5q0 -42 -27.5 -69t-74.5 -37l-14 41q53 19 53 51q0 14 -8 19q-12 -6 -23 -6z" />
    <glyph glyph-name="uni1F49" unicode="&#x1f49;" 
d="M402 -9q-148 0 -249.5 99t-101.5 250t101.5 250t249.5 99q147 0 248.5 -99t101.5 -250t-101.5 -250t-248.5 -99zM402 86q106 0 174 72.5t68 181.5t-68 181.5t-174 72.5t-174.5 -72.5t-68.5 -181.5t68.5 -181.5t174.5 -72.5zM2 595q-11 0 -23 6q-8 -5 -8 -19q0 -32 53 -51
l-14 -41q-47 10 -74.5 37t-27.5 69q0 39 22 61.5t58 22.5q22 0 36.5 -12t14.5 -35q0 -19 -11.5 -28.5t-25.5 -9.5z" />
    <glyph glyph-name="uni1F4A" unicode="&#x1f4a;" 
d="M402 -9q-148 0 -249.5 99t-101.5 250t101.5 250t249.5 99q147 0 248.5 -99t101.5 -250t-101.5 -250t-248.5 -99zM402 86q106 0 174 72.5t68 181.5t-68 181.5t-174 72.5t-174.5 -72.5t-68.5 -181.5t68.5 -181.5t174.5 -72.5zM40 496l-57 181h-116l95 -181h78zM-240 595
q-14 0 -25.5 9.5t-11.5 28.5q0 23 14.5 35t36.5 12q36 0 58 -22.5t22 -61.5q0 -42 -27.5 -69t-74.5 -37l-14 41q53 19 53 51q0 14 -8 19q-12 -6 -23 -6z" />
    <glyph glyph-name="uni1F4B" unicode="&#x1f4b;" 
d="M402 -9q-148 0 -249.5 99t-101.5 250t101.5 250t249.5 99q147 0 248.5 -99t101.5 -250t-101.5 -250t-248.5 -99zM402 86q106 0 174 72.5t68 181.5t-68 181.5t-174 72.5t-174.5 -72.5t-68.5 -181.5t68.5 -181.5t174.5 -72.5zM40 496l-57 181h-116l95 -181h78zM-192 595
q-11 0 -23 6q-8 -5 -8 -19q0 -32 53 -51l-14 -41q-47 10 -74.5 37t-27.5 69q0 39 22 61.5t58 22.5q22 0 36.5 -12t14.5 -35q0 -19 -11.5 -28.5t-25.5 -9.5z" />
    <glyph glyph-name="uni1F4C" unicode="&#x1f4c;" 
d="M402 -9q-148 0 -249.5 99t-101.5 250t101.5 250t249.5 99q147 0 248.5 -99t101.5 -250t-101.5 -250t-248.5 -99zM402 86q106 0 174 72.5t68 181.5t-68 181.5t-174 72.5t-174.5 -72.5t-68.5 -181.5t68.5 -181.5t174.5 -72.5zM-108 496l57 181h116l-95 -181h-78zM-216 595
q-14 0 -25.5 9.5t-11.5 28.5q0 23 14.5 35t36.5 12q36 0 58 -22.5t22 -61.5q0 -42 -27.5 -69t-74.5 -37l-14 41q53 19 53 51q0 14 -8 19q-12 -6 -23 -6z" />
    <glyph glyph-name="uni1F4D" unicode="&#x1f4d;" 
d="M402 -9q-148 0 -249.5 99t-101.5 250t101.5 250t249.5 99q147 0 248.5 -99t101.5 -250t-101.5 -250t-248.5 -99zM402 86q106 0 174 72.5t68 181.5t-68 181.5t-174 72.5t-174.5 -72.5t-68.5 -181.5t68.5 -181.5t174.5 -72.5zM-116 496l57 181h116l-95 -181h-78zM-165 595
q-11 0 -23 6q-8 -5 -8 -19q0 -32 53 -51l-14 -41q-47 10 -74.5 37t-27.5 69q0 39 22 61.5t58 22.5q22 0 36.5 -12t14.5 -35q0 -19 -11.5 -28.5t-25.5 -9.5z" />
    <glyph glyph-name="uni1F50" unicode="&#x1f50;" horiz-adv-x="497" 
d="M245 -10q-92 0 -142 52t-50 145v233h101v-230q0 -111 94 -111t94 111v230h102v-233q0 -92 -53 -144.5t-146 -52.5zM222 602q-14 0 -25.5 9.5t-11.5 28.5q0 23 14.5 35t36.5 12q36 0 58 -22.5t22 -61.5q0 -42 -27.5 -69t-74.5 -37l-14 41q53 19 53 51q0 14 -8 19
q-12 -6 -23 -6z" />
    <glyph glyph-name="uni1F51" unicode="&#x1f51;" horiz-adv-x="497" 
d="M245 -10q-92 0 -142 52t-50 145v233h101v-230q0 -111 94 -111t94 111v230h102v-233q0 -92 -53 -144.5t-146 -52.5zM268 603q-11 0 -23 6q-8 -5 -8 -19q0 -32 53 -51l-14 -41q-47 10 -74.5 37t-27.5 69q0 39 22 61.5t58 22.5q22 0 36.5 -12t14.5 -35q0 -19 -11.5 -28.5
t-25.5 -9.5z" />
    <glyph glyph-name="uni1F52" unicode="&#x1f52;" horiz-adv-x="497" 
d="M245 -10q-92 0 -142 52t-50 145v233h101v-230q0 -111 94 -111t94 111v230h102v-233q0 -92 -53 -144.5t-146 -52.5zM401 502l-57 181h-116l95 -181h78zM121 601q-14 0 -25.5 9.5t-11.5 28.5q0 23 14.5 35t36.5 12q36 0 58 -22.5t22 -61.5q0 -42 -27.5 -69t-74.5 -37
l-14 41q53 19 53 51q0 14 -8 19q-12 -6 -23 -6z" />
    <glyph glyph-name="uni1F53" unicode="&#x1f53;" horiz-adv-x="497" 
d="M245 -10q-92 0 -142 52t-50 145v233h101v-230q0 -111 94 -111t94 111v230h102v-233q0 -92 -53 -144.5t-146 -52.5zM408 502l-57 181h-116l95 -181h78zM176 601q-11 0 -23 6q-8 -5 -8 -19q0 -32 53 -51l-14 -41q-47 10 -74.5 37t-27.5 69q0 39 22 61.5t58 22.5
q22 0 36.5 -12t14.5 -35q0 -19 -11.5 -28.5t-25.5 -9.5z" />
    <glyph glyph-name="uni1F54" unicode="&#x1f54;" horiz-adv-x="497" 
d="M245 -10q-92 0 -142 52t-50 145v233h101v-230q0 -111 94 -111t94 111v230h102v-233q0 -92 -53 -144.5t-146 -52.5zM268 503l57 181h116l-95 -181h-78zM160 602q-14 0 -25.5 9.5t-11.5 28.5q0 23 14.5 35t36.5 12q36 0 58 -22.5t22 -61.5q0 -42 -27.5 -69t-74.5 -37
l-14 41q53 19 53 51q0 14 -8 19q-12 -6 -23 -6z" />
    <glyph glyph-name="uni1F55" unicode="&#x1f55;" horiz-adv-x="497" 
d="M245 -10q-92 0 -142 52t-50 145v233h101v-230q0 -111 94 -111t94 111v230h102v-233q0 -92 -53 -144.5t-146 -52.5zM251 503l57 181h116l-95 -181h-78zM202 602q-11 0 -23 6q-8 -5 -8 -19q0 -32 53 -51l-14 -41q-47 10 -74.5 37t-27.5 69q0 39 22 61.5t58 22.5
q22 0 36.5 -12t14.5 -35q0 -19 -11.5 -28.5t-25.5 -9.5z" />
    <glyph glyph-name="uni1F56" unicode="&#x1f56;" horiz-adv-x="497" 
d="M245 -10q-92 0 -142 52t-50 145v233h101v-230q0 -111 94 -111t94 111v230h102v-233q0 -92 -53 -144.5t-146 -52.5zM284 774q15 0 36 29l44 -34q-28 -56 -81 -56q-23 0 -52 11q-31 11 -43 11q-21 0 -37 -30l-48 37q34 55 86 55q21 0 48 -11q34 -12 47 -12zM220 598
q-14 0 -25.5 9.5t-11.5 28.5q0 23 14.5 35t36.5 12q36 0 58 -22.5t22 -61.5q0 -42 -27.5 -69t-74.5 -37l-14 41q53 19 53 51q0 14 -8 19q-12 -6 -23 -6z" />
    <glyph glyph-name="uni1F57" unicode="&#x1f57;" horiz-adv-x="497" 
d="M245 -10q-92 0 -142 52t-50 145v233h101v-230q0 -111 94 -111t94 111v230h102v-233q0 -92 -53 -144.5t-146 -52.5zM288 774q15 0 36 29l44 -34q-28 -56 -81 -56q-23 0 -52 11q-31 11 -43 11q-21 0 -37 -30l-48 37q34 55 86 55q21 0 48 -11q34 -12 47 -12zM271 598
q-11 0 -23 6q-8 -5 -8 -19q0 -32 53 -51l-14 -41q-47 10 -74.5 37t-27.5 69q0 39 22 61.5t58 22.5q22 0 36.5 -12t14.5 -35q0 -19 -11.5 -28.5t-25.5 -9.5z" />
    <glyph glyph-name="uni1F59" unicode="&#x1f59;" horiz-adv-x="623" 
d="M264 0v249l-237 431h119l131 -245l41 -97q22 59 41 97l128 245h109l-226 -424v-256h-106zM-49 595q-11 0 -23 6q-8 -5 -8 -19q0 -32 53 -51l-14 -41q-47 10 -74.5 37t-27.5 69q0 39 22 61.5t58 22.5q22 0 36.5 -12t14.5 -35q0 -19 -11.5 -28.5t-25.5 -9.5z" />
    <glyph glyph-name="uni1F5B" unicode="&#x1f5b;" horiz-adv-x="623" 
d="M264 0v249l-237 431h119l131 -245l41 -97q22 59 41 97l128 245h109l-226 -424v-256h-106zM-11 496l-57 181h-116l95 -181h78zM-243 595q-11 0 -23 6q-8 -5 -8 -19q0 -32 53 -51l-14 -41q-47 10 -74.5 37t-27.5 69q0 39 22 61.5t58 22.5q22 0 36.5 -12t14.5 -35
q0 -19 -11.5 -28.5t-25.5 -9.5z" />
    <glyph glyph-name="uni1F5D" unicode="&#x1f5d;" horiz-adv-x="623" 
d="M264 0v249l-237 431h119l131 -245l41 -97q22 59 41 97l128 245h109l-226 -424v-256h-106zM-187 496l57 181h116l-95 -181h-78zM-236 595q-11 0 -23 6q-8 -5 -8 -19q0 -32 53 -51l-14 -41q-47 10 -74.5 37t-27.5 69q0 39 22 61.5t58 22.5q22 0 36.5 -12t14.5 -35
q0 -19 -11.5 -28.5t-25.5 -9.5z" />
    <glyph glyph-name="uni1F5F" unicode="&#x1f5f;" horiz-adv-x="623" 
d="M264 0v249l-237 431h119l131 -245l41 -97q22 59 41 97l128 245h109l-226 -424v-256h-106zM-93 658q15 0 36 29l44 -34q-28 -56 -81 -56q-23 0 -52 11q-31 11 -43 11q-21 0 -37 -30l-48 37q34 55 86 55q21 0 48 -11q34 -12 47 -12zM-110 482q-11 0 -23 6q-8 -5 -8 -19
q0 -32 53 -51l-14 -41q-47 10 -74.5 37t-27.5 69q0 39 22 61.5t58 22.5q22 0 36.5 -12t14.5 -35q0 -19 -11.5 -28.5t-25.5 -9.5z" />
    <glyph glyph-name="uni1F60" unicode="&#x1f60;" horiz-adv-x="663" 
d="M331 80q-14 -43 -46 -66t-74 -23q-84 0 -126 59t-42 143q0 93 52.5 160t151.5 76v-88q-101 -21 -101 -146q0 -49 18 -83t59 -34q26 0 42 19.5t16 50.5v130h101v-130q0 -31 16.5 -50.5t41.5 -19.5q41 0 59 34t18 83q0 124 -101 146v88q98 -9 151 -76t53 -160
q0 -84 -42 -143t-126 -59q-90 0 -121 89zM296 602q-14 0 -25.5 9.5t-11.5 28.5q0 23 14.5 35t36.5 12q36 0 58 -22.5t22 -61.5q0 -42 -27.5 -69t-74.5 -37l-14 41q53 19 53 51q0 14 -8 19q-12 -6 -23 -6z" />
    <glyph glyph-name="uni1F61" unicode="&#x1f61;" horiz-adv-x="663" 
d="M331 80q-14 -43 -46 -66t-74 -23q-84 0 -126 59t-42 143q0 93 52.5 160t151.5 76v-88q-101 -21 -101 -146q0 -49 18 -83t59 -34q26 0 42 19.5t16 50.5v130h101v-130q0 -31 16.5 -50.5t41.5 -19.5q41 0 59 34t18 83q0 124 -101 146v88q98 -9 151 -76t53 -160
q0 -84 -42 -143t-126 -59q-90 0 -121 89zM342 603q-11 0 -23 6q-8 -5 -8 -19q0 -32 53 -51l-14 -41q-47 10 -74.5 37t-27.5 69q0 39 22 61.5t58 22.5q22 0 36.5 -12t14.5 -35q0 -19 -11.5 -28.5t-25.5 -9.5z" />
    <glyph glyph-name="uni1F62" unicode="&#x1f62;" horiz-adv-x="663" 
d="M331 80q-14 -43 -46 -66t-74 -23q-84 0 -126 59t-42 143q0 93 52.5 160t151.5 76v-88q-101 -21 -101 -146q0 -49 18 -83t59 -34q26 0 42 19.5t16 50.5v130h101v-130q0 -31 16.5 -50.5t41.5 -19.5q41 0 59 34t18 83q0 124 -101 146v88q98 -9 151 -76t53 -160
q0 -84 -42 -143t-126 -59q-90 0 -121 89zM475 502l-57 181h-116l95 -181h78zM195 601q-14 0 -25.5 9.5t-11.5 28.5q0 23 14.5 35t36.5 12q36 0 58 -22.5t22 -61.5q0 -42 -27.5 -69t-74.5 -37l-14 41q53 19 53 51q0 14 -8 19q-12 -6 -23 -6z" />
    <glyph glyph-name="uni1F63" unicode="&#x1f63;" horiz-adv-x="663" 
d="M331 80q-14 -43 -46 -66t-74 -23q-84 0 -126 59t-42 143q0 93 52.5 160t151.5 76v-88q-101 -21 -101 -146q0 -49 18 -83t59 -34q26 0 42 19.5t16 50.5v130h101v-130q0 -31 16.5 -50.5t41.5 -19.5q41 0 59 34t18 83q0 124 -101 146v88q98 -9 151 -76t53 -160
q0 -84 -42 -143t-126 -59q-90 0 -121 89zM482 502l-57 181h-116l95 -181h78zM250 601q-11 0 -23 6q-8 -5 -8 -19q0 -32 53 -51l-14 -41q-47 10 -74.5 37t-27.5 69q0 39 22 61.5t58 22.5q22 0 36.5 -12t14.5 -35q0 -19 -11.5 -28.5t-25.5 -9.5z" />
    <glyph glyph-name="uni1F64" unicode="&#x1f64;" horiz-adv-x="663" 
d="M331 80q-14 -43 -46 -66t-74 -23q-84 0 -126 59t-42 143q0 93 52.5 160t151.5 76v-88q-101 -21 -101 -146q0 -49 18 -83t59 -34q26 0 42 19.5t16 50.5v130h101v-130q0 -31 16.5 -50.5t41.5 -19.5q41 0 59 34t18 83q0 124 -101 146v88q98 -9 151 -76t53 -160
q0 -84 -42 -143t-126 -59q-90 0 -121 89zM342 503l57 181h116l-95 -181h-78zM234 602q-14 0 -25.5 9.5t-11.5 28.5q0 23 14.5 35t36.5 12q36 0 58 -22.5t22 -61.5q0 -42 -27.5 -69t-74.5 -37l-14 41q53 19 53 51q0 14 -8 19q-12 -6 -23 -6z" />
    <glyph glyph-name="uni1F65" unicode="&#x1f65;" horiz-adv-x="663" 
d="M331 80q-14 -43 -46 -66t-74 -23q-84 0 -126 59t-42 143q0 93 52.5 160t151.5 76v-88q-101 -21 -101 -146q0 -49 18 -83t59 -34q26 0 42 19.5t16 50.5v130h101v-130q0 -31 16.5 -50.5t41.5 -19.5q41 0 59 34t18 83q0 124 -101 146v88q98 -9 151 -76t53 -160
q0 -84 -42 -143t-126 -59q-90 0 -121 89zM325 503l57 181h116l-95 -181h-78zM276 602q-11 0 -23 6q-8 -5 -8 -19q0 -32 53 -51l-14 -41q-47 10 -74.5 37t-27.5 69q0 39 22 61.5t58 22.5q22 0 36.5 -12t14.5 -35q0 -19 -11.5 -28.5t-25.5 -9.5z" />
    <glyph glyph-name="uni1F66" unicode="&#x1f66;" horiz-adv-x="663" 
d="M331 80q-14 -43 -46 -66t-74 -23q-84 0 -126 59t-42 143q0 93 52.5 160t151.5 76v-88q-101 -21 -101 -146q0 -49 18 -83t59 -34q26 0 42 19.5t16 50.5v130h101v-130q0 -31 16.5 -50.5t41.5 -19.5q41 0 59 34t18 83q0 124 -101 146v88q98 -9 151 -76t53 -160
q0 -84 -42 -143t-126 -59q-90 0 -121 89zM358 774q15 0 36 29l44 -34q-28 -56 -81 -56q-23 0 -52 11q-31 11 -43 11q-21 0 -37 -30l-48 37q34 55 86 55q21 0 48 -11q34 -12 47 -12zM294 598q-14 0 -25.5 9.5t-11.5 28.5q0 23 14.5 35t36.5 12q36 0 58 -22.5t22 -61.5
q0 -42 -27.5 -69t-74.5 -37l-14 41q53 19 53 51q0 14 -8 19q-12 -6 -23 -6z" />
    <glyph glyph-name="uni1F67" unicode="&#x1f67;" horiz-adv-x="663" 
d="M331 80q-14 -43 -46 -66t-74 -23q-84 0 -126 59t-42 143q0 93 52.5 160t151.5 76v-88q-101 -21 -101 -146q0 -49 18 -83t59 -34q26 0 42 19.5t16 50.5v130h101v-130q0 -31 16.5 -50.5t41.5 -19.5q41 0 59 34t18 83q0 124 -101 146v88q98 -9 151 -76t53 -160
q0 -84 -42 -143t-126 -59q-90 0 -121 89zM362 774q15 0 36 29l44 -34q-28 -56 -81 -56q-23 0 -52 11q-31 11 -43 11q-21 0 -37 -30l-48 37q34 55 86 55q21 0 48 -11q34 -12 47 -12zM345 598q-11 0 -23 6q-8 -5 -8 -19q0 -32 53 -51l-14 -41q-47 10 -74.5 37t-27.5 69
q0 39 22 61.5t58 22.5q22 0 36.5 -12t14.5 -35q0 -19 -11.5 -28.5t-25.5 -9.5z" />
    <glyph glyph-name="uni1F68" unicode="&#x1f68;" 
d="M752 340q0 -78 -35 -143t-95 -104h124v-93h-281v86q82 31 130.5 98t48.5 156q0 109 -68.5 181.5t-174.5 72.5q-105 0 -173.5 -72.5t-68.5 -181.5q0 -89 49 -156t131 -98v-86h-281v93h124q-61 39 -96 104t-35 143q0 150 101.5 249.5t248.5 99.5q149 0 250 -99.5
t101 -249.5zM-74 595q-14 0 -25.5 9.5t-11.5 28.5q0 23 14.5 35t36.5 12q36 0 58 -22.5t22 -61.5q0 -42 -27.5 -69t-74.5 -37l-14 41q53 19 53 51q0 14 -8 19q-12 -6 -23 -6z" />
    <glyph glyph-name="uni1F69" unicode="&#x1f69;" 
d="M752 340q0 -78 -35 -143t-95 -104h124v-93h-281v86q82 31 130.5 98t48.5 156q0 109 -68.5 181.5t-174.5 72.5q-105 0 -173.5 -72.5t-68.5 -181.5q0 -89 49 -156t131 -98v-86h-281v93h124q-61 39 -96 104t-35 143q0 150 101.5 249.5t248.5 99.5q149 0 250 -99.5
t101 -249.5zM-17 595q-11 0 -23 6q-8 -5 -8 -19q0 -32 53 -51l-14 -41q-47 10 -74.5 37t-27.5 69q0 39 22 61.5t58 22.5q22 0 36.5 -12t14.5 -35q0 -19 -11.5 -28.5t-25.5 -9.5z" />
    <glyph glyph-name="uni1F6A" unicode="&#x1f6a;" 
d="M752 340q0 -78 -35 -143t-95 -104h124v-93h-281v86q82 31 130.5 98t48.5 156q0 109 -68.5 181.5t-174.5 72.5q-105 0 -173.5 -72.5t-68.5 -181.5q0 -89 49 -156t131 -98v-86h-281v93h124q-61 39 -96 104t-35 143q0 150 101.5 249.5t248.5 99.5q149 0 250 -99.5
t101 -249.5zM21 496l-57 181h-116l95 -181h78zM-259 595q-14 0 -25.5 9.5t-11.5 28.5q0 23 14.5 35t36.5 12q36 0 58 -22.5t22 -61.5q0 -42 -27.5 -69t-74.5 -37l-14 41q53 19 53 51q0 14 -8 19q-12 -6 -23 -6z" />
    <glyph glyph-name="uni1F6B" unicode="&#x1f6b;" 
d="M752 340q0 -78 -35 -143t-95 -104h124v-93h-281v86q82 31 130.5 98t48.5 156q0 109 -68.5 181.5t-174.5 72.5q-105 0 -173.5 -72.5t-68.5 -181.5q0 -89 49 -156t131 -98v-86h-281v93h124q-61 39 -96 104t-35 143q0 150 101.5 249.5t248.5 99.5q149 0 250 -99.5
t101 -249.5zM21 496l-57 181h-116l95 -181h78zM-211 595q-11 0 -23 6q-8 -5 -8 -19q0 -32 53 -51l-14 -41q-47 10 -74.5 37t-27.5 69q0 39 22 61.5t58 22.5q22 0 36.5 -12t14.5 -35q0 -19 -11.5 -28.5t-25.5 -9.5z" />
    <glyph glyph-name="uni1F6C" unicode="&#x1f6c;" 
d="M752 340q0 -78 -35 -143t-95 -104h124v-93h-281v86q82 31 130.5 98t48.5 156q0 109 -68.5 181.5t-174.5 72.5q-105 0 -173.5 -72.5t-68.5 -181.5q0 -89 49 -156t131 -98v-86h-281v93h124q-61 39 -96 104t-35 143q0 150 101.5 249.5t248.5 99.5q149 0 250 -99.5
t101 -249.5zM-157 496l57 181h116l-95 -181h-78zM-265 595q-14 0 -25.5 9.5t-11.5 28.5q0 23 14.5 35t36.5 12q36 0 58 -22.5t22 -61.5q0 -42 -27.5 -69t-74.5 -37l-14 41q53 19 53 51q0 14 -8 19q-12 -6 -23 -6z" />
    <glyph glyph-name="uni1F6D" unicode="&#x1f6d;" 
d="M752 340q0 -78 -35 -143t-95 -104h124v-93h-281v86q82 31 130.5 98t48.5 156q0 109 -68.5 181.5t-174.5 72.5q-105 0 -173.5 -72.5t-68.5 -181.5q0 -89 49 -156t131 -98v-86h-281v93h124q-61 39 -96 104t-35 143q0 150 101.5 249.5t248.5 99.5q149 0 250 -99.5
t101 -249.5zM-115 496l57 181h116l-95 -181h-78zM-164 595q-11 0 -23 6q-8 -5 -8 -19q0 -32 53 -51l-14 -41q-47 10 -74.5 37t-27.5 69q0 39 22 61.5t58 22.5q22 0 36.5 -12t14.5 -35q0 -19 -11.5 -28.5t-25.5 -9.5z" />
    <glyph glyph-name="uni1F6E" unicode="&#x1f6e;" 
d="M752 340q0 -78 -35 -143t-95 -104h124v-93h-281v86q82 31 130.5 98t48.5 156q0 109 -68.5 181.5t-174.5 72.5q-105 0 -173.5 -72.5t-68.5 -181.5q0 -89 49 -156t131 -98v-86h-281v93h124q-61 39 -96 104t-35 143q0 150 101.5 249.5t248.5 99.5q149 0 250 -99.5
t101 -249.5zM-61 657q15 0 36 29l44 -34q-28 -56 -81 -56q-23 0 -52 11q-31 11 -43 11q-21 0 -37 -30l-48 37q34 55 86 55q21 0 48 -11q34 -12 47 -12zM-125 481q-14 0 -25.5 9.5t-11.5 28.5q0 23 14.5 35t36.5 12q36 0 58 -22.5t22 -61.5q0 -42 -27.5 -69t-74.5 -37l-14 41
q53 19 53 51q0 14 -8 19q-12 -6 -23 -6z" />
    <glyph glyph-name="uni1F6F" unicode="&#x1f6f;" 
d="M752 340q0 -78 -35 -143t-95 -104h124v-93h-281v86q82 31 130.5 98t48.5 156q0 109 -68.5 181.5t-174.5 72.5q-105 0 -173.5 -72.5t-68.5 -181.5q0 -89 49 -156t131 -98v-86h-281v93h124q-61 39 -96 104t-35 143q0 150 101.5 249.5t248.5 99.5q149 0 250 -99.5
t101 -249.5zM-61 658q15 0 36 29l44 -34q-28 -56 -81 -56q-23 0 -52 11q-31 11 -43 11q-21 0 -37 -30l-48 37q34 55 86 55q21 0 48 -11q34 -12 47 -12zM-78 482q-11 0 -23 6q-8 -5 -8 -19q0 -32 53 -51l-14 -41q-47 10 -74.5 37t-27.5 69q0 39 22 61.5t58 22.5
q22 0 36.5 -12t14.5 -35q0 -19 -11.5 -28.5t-25.5 -9.5z" />
    <glyph glyph-name="uni1F70" unicode="&#x1f70;" horiz-adv-x="578" 
d="M267 80q55 0 88.5 36t33.5 95q0 57 -33.5 92.5t-88.5 35.5q-54 0 -86.5 -35.5t-32.5 -92.5q0 -59 32 -95t87 -36zM498 -4q-40 0 -67.5 21.5t-35.5 58.5l-1 6q-21 -42 -61.5 -66.5t-92.5 -24.5q-82 0 -139 63t-57 157t56 156t138 62q105 0 151 -87l-3 78h101v-286
q0 -55 43 -55h18v-80q-16 -3 -50 -3zM249 681l57 -181h-78l-95 181h116z" />
    <glyph glyph-name="uni1F71" unicode="&#x1f71;" horiz-adv-x="578" 
d="M267 80q55 0 88.5 36t33.5 95q0 57 -33.5 92.5t-88.5 35.5q-54 0 -86.5 -35.5t-32.5 -92.5q0 -59 32 -95t87 -36zM498 -4q-40 0 -67.5 21.5t-35.5 58.5l-1 6q-21 -42 -61.5 -66.5t-92.5 -24.5q-82 0 -139 63t-57 157t56 156t138 62q105 0 151 -87l-3 78h101v-286
q0 -55 43 -55h18v-80q-16 -3 -50 -3zM230 499l57 181h116l-95 -181h-78z" />
    <glyph glyph-name="uni1F72" unicode="&#x1f72;" horiz-adv-x="475" 
d="M136 224q-32 7 -53 30.5t-21 51.5q0 59 52.5 91t128.5 32q120 0 193 -71l-55 -63q-52 50 -129 50q-89 0 -89 -54q0 -18 16.5 -29.5t35.5 -11.5h90v-62h-90q-25 0 -45.5 -12t-20.5 -39q0 -60 97 -60q83 0 144 55l53 -66q-88 -75 -216 -75q-83 0 -132 33.5t-49 91.5
q0 84 90 108zM223 681l57 -181h-78l-95 181h116z" />
    <glyph glyph-name="uni1F73" unicode="&#x1f73;" horiz-adv-x="475" 
d="M136 224q-32 7 -53 30.5t-21 51.5q0 59 52.5 91t128.5 32q120 0 193 -71l-55 -63q-52 50 -129 50q-89 0 -89 -54q0 -18 16.5 -29.5t35.5 -11.5h90v-62h-90q-25 0 -45.5 -12t-20.5 -39q0 -60 97 -60q83 0 144 55l53 -66q-88 -75 -216 -75q-83 0 -132 33.5t-49 91.5
q0 84 90 108zM204 499l57 181h116l-95 -181h-78z" />
    <glyph glyph-name="uni1F74" unicode="&#x1f74;" horiz-adv-x="523" 
d="M64 0v420h101l-2 -78q19 41 57 64t85 23q71 0 114 -48t43 -132v-461h-101v453q0 95 -87 95q-50 0 -79.5 -28.5t-29.5 -79.5v-228h-101zM235 681l57 -181h-78l-95 181h116z" />
    <glyph glyph-name="uni1F75" unicode="&#x1f75;" horiz-adv-x="523" 
d="M64 0v420h101l-2 -78q19 41 57 64t85 23q71 0 114 -48t43 -132v-461h-101v453q0 95 -87 95q-50 0 -79.5 -28.5t-29.5 -79.5v-228h-101zM216 499l57 181h116l-95 -181h-78z" />
    <glyph glyph-name="uni1F76" unicode="&#x1f76;" horiz-adv-x="261" 
d="M67 112v308h101v-287q0 -54 43 -54h18v-79q-21 -3 -50 -3q-49 0 -80.5 27t-31.5 88zM99 681l57 -181h-78l-95 181h116z" />
    <glyph glyph-name="uni1F77" unicode="&#x1f77;" horiz-adv-x="261" 
d="M67 112v308h101v-287q0 -54 43 -54h18v-79q-21 -3 -50 -3q-49 0 -80.5 27t-31.5 88zM80 499l57 181h116l-95 -181h-78z" />
    <glyph glyph-name="uni1F78" unicode="&#x1f78;" horiz-adv-x="539" 
d="M270 -9q-96 0 -161.5 63t-65.5 156t65.5 156t161.5 63t161 -62.5t65 -156.5t-65 -156.5t-161 -62.5zM270 78q56 0 89 37t33 95t-33 94.5t-89 36.5t-89.5 -36.5t-33.5 -94.5t33.5 -95t89.5 -37zM247 681l57 -181h-78l-95 181h116z" />
    <glyph glyph-name="uni1F79" unicode="&#x1f79;" horiz-adv-x="539" 
d="M270 -9q-96 0 -161.5 63t-65.5 156t65.5 156t161.5 63t161 -62.5t65 -156.5t-65 -156.5t-161 -62.5zM270 78q56 0 89 37t33 95t-33 94.5t-89 36.5t-89.5 -36.5t-33.5 -94.5t33.5 -95t89.5 -37zM228 499l57 181h116l-95 -181h-78z" />
    <glyph glyph-name="uni1F7A" unicode="&#x1f7a;" horiz-adv-x="497" 
d="M245 -10q-92 0 -142 52t-50 145v233h101v-230q0 -111 94 -111t94 111v230h102v-233q0 -92 -53 -144.5t-146 -52.5zM227 681l57 -181h-78l-95 181h116z" />
    <glyph glyph-name="uni1F7B" unicode="&#x1f7b;" horiz-adv-x="497" 
d="M245 -10q-92 0 -142 52t-50 145v233h101v-230q0 -111 94 -111t94 111v230h102v-233q0 -92 -53 -144.5t-146 -52.5zM208 499l57 181h116l-95 -181h-78z" />
    <glyph glyph-name="uni1F7C" unicode="&#x1f7c;" horiz-adv-x="663" 
d="M331 80q-14 -43 -46 -66t-74 -23q-84 0 -126 59t-42 143q0 93 52.5 160t151.5 76v-88q-101 -21 -101 -146q0 -49 18 -83t59 -34q26 0 42 19.5t16 50.5v130h101v-130q0 -31 16.5 -50.5t41.5 -19.5q41 0 59 34t18 83q0 124 -101 146v88q98 -9 151 -76t53 -160
q0 -84 -42 -143t-126 -59q-90 0 -121 89zM301 681l57 -181h-78l-95 181h116z" />
    <glyph glyph-name="uni1F7D" unicode="&#x1f7d;" horiz-adv-x="663" 
d="M331 80q-14 -43 -46 -66t-74 -23q-84 0 -126 59t-42 143q0 93 52.5 160t151.5 76v-88q-101 -21 -101 -146q0 -49 18 -83t59 -34q26 0 42 19.5t16 50.5v130h101v-130q0 -31 16.5 -50.5t41.5 -19.5q41 0 59 34t18 83q0 124 -101 146v88q98 -9 151 -76t53 -160
q0 -84 -42 -143t-126 -59q-90 0 -121 89zM282 499l57 181h116l-95 -181h-78z" />
    <glyph glyph-name="uni1F80" unicode="&#x1f80;" horiz-adv-x="578" 
d="M267 80q55 0 88.5 36t33.5 95q0 57 -33.5 92.5t-88.5 35.5q-54 0 -86.5 -35.5t-32.5 -92.5q0 -59 32 -95t87 -36zM498 -4q-40 0 -67.5 21.5t-35.5 58.5l-1 6q-21 -42 -61.5 -66.5t-92.5 -24.5q-82 0 -139 63t-57 157t56 156t138 62q105 0 151 -87l-3 78h101v-286
q0 -55 43 -55h18v-80q-16 -3 -50 -3zM212 -59h102v-24q0 -29 10.5 -37t32.5 -8h18v-80q-17 -3 -50 -3q-63 0 -88 28.5t-25 92.5v31zM244 602q-14 0 -25.5 9.5t-11.5 28.5q0 23 14.5 35t36.5 12q36 0 58 -22.5t22 -61.5q0 -42 -27.5 -69t-74.5 -37l-14 41q53 19 53 51
q0 14 -8 19q-12 -6 -23 -6z" />
    <glyph glyph-name="uni1F81" unicode="&#x1f81;" horiz-adv-x="578" 
d="M267 80q55 0 88.5 36t33.5 95q0 57 -33.5 92.5t-88.5 35.5q-54 0 -86.5 -35.5t-32.5 -92.5q0 -59 32 -95t87 -36zM498 -4q-40 0 -67.5 21.5t-35.5 58.5l-1 6q-21 -42 -61.5 -66.5t-92.5 -24.5q-82 0 -139 63t-57 157t56 156t138 62q105 0 151 -87l-3 78h101v-286
q0 -55 43 -55h18v-80q-16 -3 -50 -3zM212 -59h102v-24q0 -29 10.5 -37t32.5 -8h18v-80q-17 -3 -50 -3q-63 0 -88 28.5t-25 92.5v31zM290 603q-11 0 -23 6q-8 -5 -8 -19q0 -32 53 -51l-14 -41q-47 10 -74.5 37t-27.5 69q0 39 22 61.5t58 22.5q22 0 36.5 -12t14.5 -35
q0 -19 -11.5 -28.5t-25.5 -9.5z" />
    <glyph glyph-name="uni1F82" unicode="&#x1f82;" horiz-adv-x="578" 
d="M267 80q55 0 88.5 36t33.5 95q0 57 -33.5 92.5t-88.5 35.5q-54 0 -86.5 -35.5t-32.5 -92.5q0 -59 32 -95t87 -36zM498 -4q-40 0 -67.5 21.5t-35.5 58.5l-1 6q-21 -42 -61.5 -66.5t-92.5 -24.5q-82 0 -139 63t-57 157t56 156t138 62q105 0 151 -87l-3 78h101v-286
q0 -55 43 -55h18v-80q-16 -3 -50 -3zM212 -59h102v-24q0 -29 10.5 -37t32.5 -8h18v-80q-17 -3 -50 -3q-63 0 -88 28.5t-25 92.5v31zM423 502l-57 181h-116l95 -181h78zM143 601q-14 0 -25.5 9.5t-11.5 28.5q0 23 14.5 35t36.5 12q36 0 58 -22.5t22 -61.5q0 -42 -27.5 -69
t-74.5 -37l-14 41q53 19 53 51q0 14 -8 19q-12 -6 -23 -6z" />
    <glyph glyph-name="uni1F83" unicode="&#x1f83;" horiz-adv-x="578" 
d="M267 80q55 0 88.5 36t33.5 95q0 57 -33.5 92.5t-88.5 35.5q-54 0 -86.5 -35.5t-32.5 -92.5q0 -59 32 -95t87 -36zM498 -4q-40 0 -67.5 21.5t-35.5 58.5l-1 6q-21 -42 -61.5 -66.5t-92.5 -24.5q-82 0 -139 63t-57 157t56 156t138 62q105 0 151 -87l-3 78h101v-286
q0 -55 43 -55h18v-80q-16 -3 -50 -3zM212 -59h102v-24q0 -29 10.5 -37t32.5 -8h18v-80q-17 -3 -50 -3q-63 0 -88 28.5t-25 92.5v31zM430 502l-57 181h-116l95 -181h78zM198 601q-11 0 -23 6q-8 -5 -8 -19q0 -32 53 -51l-14 -41q-47 10 -74.5 37t-27.5 69q0 39 22 61.5
t58 22.5q22 0 36.5 -12t14.5 -35q0 -19 -11.5 -28.5t-25.5 -9.5z" />
    <glyph glyph-name="uni1F84" unicode="&#x1f84;" horiz-adv-x="578" 
d="M267 80q55 0 88.5 36t33.5 95q0 57 -33.5 92.5t-88.5 35.5q-54 0 -86.5 -35.5t-32.5 -92.5q0 -59 32 -95t87 -36zM498 -4q-40 0 -67.5 21.5t-35.5 58.5l-1 6q-21 -42 -61.5 -66.5t-92.5 -24.5q-82 0 -139 63t-57 157t56 156t138 62q105 0 151 -87l-3 78h101v-286
q0 -55 43 -55h18v-80q-16 -3 -50 -3zM212 -59h102v-24q0 -29 10.5 -37t32.5 -8h18v-80q-17 -3 -50 -3q-63 0 -88 28.5t-25 92.5v31zM290 503l57 181h116l-95 -181h-78zM182 602q-14 0 -25.5 9.5t-11.5 28.5q0 23 14.5 35t36.5 12q36 0 58 -22.5t22 -61.5q0 -42 -27.5 -69
t-74.5 -37l-14 41q53 19 53 51q0 14 -8 19q-12 -6 -23 -6z" />
    <glyph glyph-name="uni1F85" unicode="&#x1f85;" horiz-adv-x="578" 
d="M267 80q55 0 88.5 36t33.5 95q0 57 -33.5 92.5t-88.5 35.5q-54 0 -86.5 -35.5t-32.5 -92.5q0 -59 32 -95t87 -36zM498 -4q-40 0 -67.5 21.5t-35.5 58.5l-1 6q-21 -42 -61.5 -66.5t-92.5 -24.5q-82 0 -139 63t-57 157t56 156t138 62q105 0 151 -87l-3 78h101v-286
q0 -55 43 -55h18v-80q-16 -3 -50 -3zM212 -59h102v-24q0 -29 10.5 -37t32.5 -8h18v-80q-17 -3 -50 -3q-63 0 -88 28.5t-25 92.5v31zM273 503l57 181h116l-95 -181h-78zM224 602q-11 0 -23 6q-8 -5 -8 -19q0 -32 53 -51l-14 -41q-47 10 -74.5 37t-27.5 69q0 39 22 61.5
t58 22.5q22 0 36.5 -12t14.5 -35q0 -19 -11.5 -28.5t-25.5 -9.5z" />
    <glyph glyph-name="uni1F86" unicode="&#x1f86;" horiz-adv-x="578" 
d="M267 80q55 0 88.5 36t33.5 95q0 57 -33.5 92.5t-88.5 35.5q-54 0 -86.5 -35.5t-32.5 -92.5q0 -59 32 -95t87 -36zM498 -4q-40 0 -67.5 21.5t-35.5 58.5l-1 6q-21 -42 -61.5 -66.5t-92.5 -24.5q-82 0 -139 63t-57 157t56 156t138 62q105 0 151 -87l-3 78h101v-286
q0 -55 43 -55h18v-80q-16 -3 -50 -3zM212 -59h102v-24q0 -29 10.5 -37t32.5 -8h18v-80q-17 -3 -50 -3q-63 0 -88 28.5t-25 92.5v31zM306 774q15 0 36 29l44 -34q-28 -56 -81 -56q-23 0 -52 11q-31 11 -43 11q-21 0 -37 -30l-48 37q34 55 86 55q21 0 48 -11q34 -12 47 -12z
M242 598q-14 0 -25.5 9.5t-11.5 28.5q0 23 14.5 35t36.5 12q36 0 58 -22.5t22 -61.5q0 -42 -27.5 -69t-74.5 -37l-14 41q53 19 53 51q0 14 -8 19q-12 -6 -23 -6z" />
    <glyph glyph-name="uni1F87" unicode="&#x1f87;" horiz-adv-x="578" 
d="M267 80q55 0 88.5 36t33.5 95q0 57 -33.5 92.5t-88.5 35.5q-54 0 -86.5 -35.5t-32.5 -92.5q0 -59 32 -95t87 -36zM498 -4q-40 0 -67.5 21.5t-35.5 58.5l-1 6q-21 -42 -61.5 -66.5t-92.5 -24.5q-82 0 -139 63t-57 157t56 156t138 62q105 0 151 -87l-3 78h101v-286
q0 -55 43 -55h18v-80q-16 -3 -50 -3zM212 -59h102v-24q0 -29 10.5 -37t32.5 -8h18v-80q-17 -3 -50 -3q-63 0 -88 28.5t-25 92.5v31zM310 774q15 0 36 29l44 -34q-28 -56 -81 -56q-23 0 -52 11q-31 11 -43 11q-21 0 -37 -30l-48 37q34 55 86 55q21 0 48 -11q34 -12 47 -12z
M293 598q-11 0 -23 6q-8 -5 -8 -19q0 -32 53 -51l-14 -41q-47 10 -74.5 37t-27.5 69q0 39 22 61.5t58 22.5q22 0 36.5 -12t14.5 -35q0 -19 -11.5 -28.5t-25.5 -9.5z" />
    <glyph glyph-name="uni1F88" unicode="&#x1f88;" horiz-adv-x="659" 
d="M29 0l291 687h12l298 -687h-110l-50 124h-289l-50 -124h-102zM217 212h215l-74 185q-28 68 -34 100l-2 -7q-2 -8 -5.5 -18.5t-7.5 -23t-9 -26.5t-9 -25zM275 -59h102v-24q0 -29 10.5 -37t32.5 -8h18v-80q-17 -3 -50 -3q-63 0 -88 28.5t-25 92.5v31zM45 595
q-14 0 -25.5 9.5t-11.5 28.5q0 23 14.5 35t36.5 12q36 0 58 -22.5t22 -61.5q0 -42 -27.5 -69t-74.5 -37l-14 41q53 19 53 51q0 14 -8 19q-12 -6 -23 -6z" />
    <glyph glyph-name="uni1F89" unicode="&#x1f89;" horiz-adv-x="659" 
d="M29 0l291 687h12l298 -687h-110l-50 124h-289l-50 -124h-102zM217 212h215l-74 185q-28 68 -34 100l-2 -7q-2 -8 -5.5 -18.5t-7.5 -23t-9 -26.5t-9 -25zM275 -59h102v-24q0 -29 10.5 -37t32.5 -8h18v-80q-17 -3 -50 -3q-63 0 -88 28.5t-25 92.5v31zM102 595q-11 0 -23 6
q-8 -5 -8 -19q0 -32 53 -51l-14 -41q-47 10 -74.5 37t-27.5 69q0 39 22 61.5t58 22.5q22 0 36.5 -12t14.5 -35q0 -19 -11.5 -28.5t-25.5 -9.5z" />
    <glyph glyph-name="uni1F8A" unicode="&#x1f8a;" horiz-adv-x="659" 
d="M29 0l291 687h12l298 -687h-110l-50 124h-289l-50 -124h-102zM217 212h215l-74 185q-28 68 -34 100l-2 -7q-2 -8 -5.5 -18.5t-7.5 -23t-9 -26.5t-9 -25zM275 -59h102v-24q0 -29 10.5 -37t32.5 -8h18v-80q-17 -3 -50 -3q-63 0 -88 28.5t-25 92.5v31zM140 496l-57 181h-116
l95 -181h78zM-140 595q-14 0 -25.5 9.5t-11.5 28.5q0 23 14.5 35t36.5 12q36 0 58 -22.5t22 -61.5q0 -42 -27.5 -69t-74.5 -37l-14 41q53 19 53 51q0 14 -8 19q-12 -6 -23 -6z" />
    <glyph glyph-name="uni1F8B" unicode="&#x1f8b;" horiz-adv-x="659" 
d="M29 0l291 687h12l298 -687h-110l-50 124h-289l-50 -124h-102zM217 212h215l-74 185q-28 68 -34 100l-2 -7q-2 -8 -5.5 -18.5t-7.5 -23t-9 -26.5t-9 -25zM275 -59h102v-24q0 -29 10.5 -37t32.5 -8h18v-80q-17 -3 -50 -3q-63 0 -88 28.5t-25 92.5v31zM140 496l-57 181h-116
l95 -181h78zM-92 595q-11 0 -23 6q-8 -5 -8 -19q0 -32 53 -51l-14 -41q-47 10 -74.5 37t-27.5 69q0 39 22 61.5t58 22.5q22 0 36.5 -12t14.5 -35q0 -19 -11.5 -28.5t-25.5 -9.5z" />
    <glyph glyph-name="uni1F8C" unicode="&#x1f8c;" horiz-adv-x="659" 
d="M29 0l291 687h12l298 -687h-110l-50 124h-289l-50 -124h-102zM217 212h215l-74 185q-28 68 -34 100l-2 -7q-2 -8 -5.5 -18.5t-7.5 -23t-9 -26.5t-9 -25zM275 -59h102v-24q0 -29 10.5 -37t32.5 -8h18v-80q-17 -3 -50 -3q-63 0 -88 28.5t-25 92.5v31zM-38 496l57 181h116
l-95 -181h-78zM-146 595q-14 0 -25.5 9.5t-11.5 28.5q0 23 14.5 35t36.5 12q36 0 58 -22.5t22 -61.5q0 -42 -27.5 -69t-74.5 -37l-14 41q53 19 53 51q0 14 -8 19q-12 -6 -23 -6z" />
    <glyph glyph-name="uni1F8D" unicode="&#x1f8d;" horiz-adv-x="659" 
d="M29 0l291 687h12l298 -687h-110l-50 124h-289l-50 -124h-102zM217 212h215l-74 185q-28 68 -34 100l-2 -7q-2 -8 -5.5 -18.5t-7.5 -23t-9 -26.5t-9 -25zM275 -59h102v-24q0 -29 10.5 -37t32.5 -8h18v-80q-17 -3 -50 -3q-63 0 -88 28.5t-25 92.5v31zM-35 499l57 181h116
l-95 -181h-78zM-84 598q-11 0 -23 6q-8 -5 -8 -19q0 -32 53 -51l-14 -41q-47 10 -74.5 37t-27.5 69q0 39 22 61.5t58 22.5q22 0 36.5 -12t14.5 -35q0 -19 -11.5 -28.5t-25.5 -9.5z" />
    <glyph glyph-name="uni1F8E" unicode="&#x1f8e;" horiz-adv-x="659" 
d="M29 0l291 687h12l298 -687h-110l-50 124h-289l-50 -124h-102zM217 212h215l-74 185q-28 68 -34 100l-2 -7q-2 -8 -5.5 -18.5t-7.5 -23t-9 -26.5t-9 -25zM275 -59h102v-24q0 -29 10.5 -37t32.5 -8h18v-80q-17 -3 -50 -3q-63 0 -88 28.5t-25 92.5v31zM58 657q15 0 36 29
l44 -34q-28 -56 -81 -56q-23 0 -52 11q-31 11 -43 11q-21 0 -37 -30l-48 37q34 55 86 55q21 0 48 -11q34 -12 47 -12zM-6 481q-14 0 -25.5 9.5t-11.5 28.5q0 23 14.5 35t36.5 12q36 0 58 -22.5t22 -61.5q0 -42 -27.5 -69t-74.5 -37l-14 41q53 19 53 51q0 14 -8 19
q-12 -6 -23 -6z" />
    <glyph glyph-name="uni1F8F" unicode="&#x1f8f;" horiz-adv-x="659" 
d="M29 0l291 687h12l298 -687h-110l-50 124h-289l-50 -124h-102zM217 212h215l-74 185q-28 68 -34 100l-2 -7q-2 -8 -5.5 -18.5t-7.5 -23t-9 -26.5t-9 -25zM275 -59h102v-24q0 -29 10.5 -37t32.5 -8h18v-80q-17 -3 -50 -3q-63 0 -88 28.5t-25 92.5v31zM58 658q15 0 36 29
l44 -34q-28 -56 -81 -56q-23 0 -52 11q-31 11 -43 11q-21 0 -37 -30l-48 37q34 55 86 55q21 0 48 -11q34 -12 47 -12zM41 482q-11 0 -23 6q-8 -5 -8 -19q0 -32 53 -51l-14 -41q-47 10 -74.5 37t-27.5 69q0 39 22 61.5t58 22.5q22 0 36.5 -12t14.5 -35q0 -19 -11.5 -28.5
t-25.5 -9.5z" />
    <glyph glyph-name="uni1F90" unicode="&#x1f90;" horiz-adv-x="523" 
d="M64 -59h102v-24q0 -29 10.5 -37t32.5 -8h18v-80q-16 -3 -50 -3q-63 0 -88 28.5t-25 92.5v31zM64 0v420h101l-2 -78q19 41 57 64t85 23q71 0 114 -48t43 -132v-461h-101v453q0 95 -87 95q-50 0 -79.5 -28.5t-29.5 -79.5v-228h-101zM230 602q-14 0 -25.5 9.5t-11.5 28.5
q0 23 14.5 35t36.5 12q36 0 58 -22.5t22 -61.5q0 -42 -27.5 -69t-74.5 -37l-14 41q53 19 53 51q0 14 -8 19q-12 -6 -23 -6z" />
    <glyph glyph-name="uni1F91" unicode="&#x1f91;" horiz-adv-x="523" 
d="M64 -59h102v-24q0 -29 10.5 -37t32.5 -8h18v-80q-16 -3 -50 -3q-63 0 -88 28.5t-25 92.5v31zM64 0v420h101l-2 -78q19 41 57 64t85 23q71 0 114 -48t43 -132v-461h-101v453q0 95 -87 95q-50 0 -79.5 -28.5t-29.5 -79.5v-228h-101zM276 603q-11 0 -23 6q-8 -5 -8 -19
q0 -32 53 -51l-14 -41q-47 10 -74.5 37t-27.5 69q0 39 22 61.5t58 22.5q22 0 36.5 -12t14.5 -35q0 -19 -11.5 -28.5t-25.5 -9.5z" />
    <glyph glyph-name="uni1F92" unicode="&#x1f92;" horiz-adv-x="523" 
d="M64 -59h102v-24q0 -29 10.5 -37t32.5 -8h18v-80q-16 -3 -50 -3q-63 0 -88 28.5t-25 92.5v31zM64 0v420h101l-2 -78q19 41 57 64t85 23q71 0 114 -48t43 -132v-461h-101v453q0 95 -87 95q-50 0 -79.5 -28.5t-29.5 -79.5v-228h-101zM409 502l-57 181h-116l95 -181h78z
M129 601q-14 0 -25.5 9.5t-11.5 28.5q0 23 14.5 35t36.5 12q36 0 58 -22.5t22 -61.5q0 -42 -27.5 -69t-74.5 -37l-14 41q53 19 53 51q0 14 -8 19q-12 -6 -23 -6z" />
    <glyph glyph-name="uni1F93" unicode="&#x1f93;" horiz-adv-x="523" 
d="M64 -59h102v-24q0 -29 10.5 -37t32.5 -8h18v-80q-16 -3 -50 -3q-63 0 -88 28.5t-25 92.5v31zM64 0v420h101l-2 -78q19 41 57 64t85 23q71 0 114 -48t43 -132v-461h-101v453q0 95 -87 95q-50 0 -79.5 -28.5t-29.5 -79.5v-228h-101zM416 502l-57 181h-116l95 -181h78z
M184 601q-11 0 -23 6q-8 -5 -8 -19q0 -32 53 -51l-14 -41q-47 10 -74.5 37t-27.5 69q0 39 22 61.5t58 22.5q22 0 36.5 -12t14.5 -35q0 -19 -11.5 -28.5t-25.5 -9.5z" />
    <glyph glyph-name="uni1F94" unicode="&#x1f94;" horiz-adv-x="523" 
d="M64 -59h102v-24q0 -29 10.5 -37t32.5 -8h18v-80q-16 -3 -50 -3q-63 0 -88 28.5t-25 92.5v31zM64 0v420h101l-2 -78q19 41 57 64t85 23q71 0 114 -48t43 -132v-461h-101v453q0 95 -87 95q-50 0 -79.5 -28.5t-29.5 -79.5v-228h-101zM276 503l57 181h116l-95 -181h-78z
M168 602q-14 0 -25.5 9.5t-11.5 28.5q0 23 14.5 35t36.5 12q36 0 58 -22.5t22 -61.5q0 -42 -27.5 -69t-74.5 -37l-14 41q53 19 53 51q0 14 -8 19q-12 -6 -23 -6z" />
    <glyph glyph-name="uni1F95" unicode="&#x1f95;" horiz-adv-x="523" 
d="M64 -59h102v-24q0 -29 10.5 -37t32.5 -8h18v-80q-16 -3 -50 -3q-63 0 -88 28.5t-25 92.5v31zM64 0v420h101l-2 -78q19 41 57 64t85 23q71 0 114 -48t43 -132v-461h-101v453q0 95 -87 95q-50 0 -79.5 -28.5t-29.5 -79.5v-228h-101zM259 503l57 181h116l-95 -181h-78z
M210 602q-11 0 -23 6q-8 -5 -8 -19q0 -32 53 -51l-14 -41q-47 10 -74.5 37t-27.5 69q0 39 22 61.5t58 22.5q22 0 36.5 -12t14.5 -35q0 -19 -11.5 -28.5t-25.5 -9.5z" />
    <glyph glyph-name="uni1F96" unicode="&#x1f96;" horiz-adv-x="523" 
d="M64 -59h102v-24q0 -29 10.5 -37t32.5 -8h18v-80q-16 -3 -50 -3q-63 0 -88 28.5t-25 92.5v31zM64 0v420h101l-2 -78q19 41 57 64t85 23q71 0 114 -48t43 -132v-461h-101v453q0 95 -87 95q-50 0 -79.5 -28.5t-29.5 -79.5v-228h-101zM292 774q15 0 36 29l44 -34
q-28 -56 -81 -56q-23 0 -52 11q-31 11 -43 11q-21 0 -37 -30l-48 37q34 55 86 55q21 0 48 -11q34 -12 47 -12zM228 598q-14 0 -25.5 9.5t-11.5 28.5q0 23 14.5 35t36.5 12q36 0 58 -22.5t22 -61.5q0 -42 -27.5 -69t-74.5 -37l-14 41q53 19 53 51q0 14 -8 19q-12 -6 -23 -6z
" />
    <glyph glyph-name="uni1F97" unicode="&#x1f97;" horiz-adv-x="523" 
d="M64 -59h102v-24q0 -29 10.5 -37t32.5 -8h18v-80q-16 -3 -50 -3q-63 0 -88 28.5t-25 92.5v31zM64 0v420h101l-2 -78q19 41 57 64t85 23q71 0 114 -48t43 -132v-461h-101v453q0 95 -87 95q-50 0 -79.5 -28.5t-29.5 -79.5v-228h-101zM296 774q15 0 36 29l44 -34
q-28 -56 -81 -56q-23 0 -52 11q-31 11 -43 11q-21 0 -37 -30l-48 37q34 55 86 55q21 0 48 -11q34 -12 47 -12zM279 598q-11 0 -23 6q-8 -5 -8 -19q0 -32 53 -51l-14 -41q-47 10 -74.5 37t-27.5 69q0 39 22 61.5t58 22.5q22 0 36.5 -12t14.5 -35q0 -19 -11.5 -28.5
t-25.5 -9.5z" />
    <glyph glyph-name="uni1F98" unicode="&#x1f98;" horiz-adv-x="703" 
d="M82 0v680h106v-303h327v303h106v-680h-106v283h-327v-283h-106zM294 -59h102v-24q0 -29 10.5 -37t32.5 -8h18v-80q-16 -3 -50 -3q-63 0 -88 28.5t-25 92.5v31zM-79 595q-14 0 -25.5 9.5t-11.5 28.5q0 23 14.5 35t36.5 12q36 0 58 -22.5t22 -61.5q0 -42 -27.5 -69
t-74.5 -37l-14 41q53 19 53 51q0 14 -8 19q-12 -6 -23 -6z" />
    <glyph glyph-name="uni1F99" unicode="&#x1f99;" horiz-adv-x="703" 
d="M82 0v680h106v-303h327v303h106v-680h-106v283h-327v-283h-106zM294 -59h102v-24q0 -29 10.5 -37t32.5 -8h18v-80q-16 -3 -50 -3q-63 0 -88 28.5t-25 92.5v31zM-22 595q-11 0 -23 6q-8 -5 -8 -19q0 -32 53 -51l-14 -41q-47 10 -74.5 37t-27.5 69q0 39 22 61.5t58 22.5
q22 0 36.5 -12t14.5 -35q0 -19 -11.5 -28.5t-25.5 -9.5z" />
    <glyph glyph-name="uni1F9A" unicode="&#x1f9a;" horiz-adv-x="703" 
d="M82 0v680h106v-303h327v303h106v-680h-106v283h-327v-283h-106zM294 -59h102v-24q0 -29 10.5 -37t32.5 -8h18v-80q-16 -3 -50 -3q-63 0 -88 28.5t-25 92.5v31zM16 496l-57 181h-116l95 -181h78zM-264 595q-14 0 -25.5 9.5t-11.5 28.5q0 23 14.5 35t36.5 12q36 0 58 -22.5
t22 -61.5q0 -42 -27.5 -69t-74.5 -37l-14 41q53 19 53 51q0 14 -8 19q-12 -6 -23 -6z" />
    <glyph glyph-name="uni1F9B" unicode="&#x1f9b;" horiz-adv-x="703" 
d="M82 0v680h106v-303h327v303h106v-680h-106v283h-327v-283h-106zM294 -59h102v-24q0 -29 10.5 -37t32.5 -8h18v-80q-16 -3 -50 -3q-63 0 -88 28.5t-25 92.5v31zM16 496l-57 181h-116l95 -181h78zM-216 595q-11 0 -23 6q-8 -5 -8 -19q0 -32 53 -51l-14 -41q-47 10 -74.5 37
t-27.5 69q0 39 22 61.5t58 22.5q22 0 36.5 -12t14.5 -35q0 -19 -11.5 -28.5t-25.5 -9.5z" />
    <glyph glyph-name="uni1F9C" unicode="&#x1f9c;" horiz-adv-x="703" 
d="M82 0v680h106v-303h327v303h106v-680h-106v283h-327v-283h-106zM294 -59h102v-24q0 -29 10.5 -37t32.5 -8h18v-80q-16 -3 -50 -3q-63 0 -88 28.5t-25 92.5v31zM-162 496l57 181h116l-95 -181h-78zM-270 595q-14 0 -25.5 9.5t-11.5 28.5q0 23 14.5 35t36.5 12
q36 0 58 -22.5t22 -61.5q0 -42 -27.5 -69t-74.5 -37l-14 41q53 19 53 51q0 14 -8 19q-12 -6 -23 -6z" />
    <glyph glyph-name="uni1F9D" unicode="&#x1f9d;" horiz-adv-x="703" 
d="M82 0v680h106v-303h327v303h106v-680h-106v283h-327v-283h-106zM294 -59h102v-24q0 -29 10.5 -37t32.5 -8h18v-80q-16 -3 -50 -3q-63 0 -88 28.5t-25 92.5v31zM-160 499l57 181h116l-95 -181h-78zM-209 598q-11 0 -23 6q-8 -5 -8 -19q0 -32 53 -51l-14 -41
q-47 10 -74.5 37t-27.5 69q0 39 22 61.5t58 22.5q22 0 36.5 -12t14.5 -35q0 -19 -11.5 -28.5t-25.5 -9.5z" />
    <glyph glyph-name="uni1F9E" unicode="&#x1f9e;" horiz-adv-x="703" 
d="M82 0v680h106v-303h327v303h106v-680h-106v283h-327v-283h-106zM294 -59h102v-24q0 -29 10.5 -37t32.5 -8h18v-80q-16 -3 -50 -3q-63 0 -88 28.5t-25 92.5v31zM-66 657q15 0 36 29l44 -34q-28 -56 -81 -56q-23 0 -52 11q-31 11 -43 11q-21 0 -37 -30l-48 37q34 55 86 55
q21 0 48 -11q34 -12 47 -12zM-130 481q-14 0 -25.5 9.5t-11.5 28.5q0 23 14.5 35t36.5 12q36 0 58 -22.5t22 -61.5q0 -42 -27.5 -69t-74.5 -37l-14 41q53 19 53 51q0 14 -8 19q-12 -6 -23 -6z" />
    <glyph glyph-name="uni1F9F" unicode="&#x1f9f;" horiz-adv-x="703" 
d="M82 0v680h106v-303h327v303h106v-680h-106v283h-327v-283h-106zM294 -59h102v-24q0 -29 10.5 -37t32.5 -8h18v-80q-16 -3 -50 -3q-63 0 -88 28.5t-25 92.5v31zM-66 658q15 0 36 29l44 -34q-28 -56 -81 -56q-23 0 -52 11q-31 11 -43 11q-21 0 -37 -30l-48 37q34 55 86 55
q21 0 48 -11q34 -12 47 -12zM-83 482q-11 0 -23 6q-8 -5 -8 -19q0 -32 53 -51l-14 -41q-47 10 -74.5 37t-27.5 69q0 39 22 61.5t58 22.5q22 0 36.5 -12t14.5 -35q0 -19 -11.5 -28.5t-25.5 -9.5z" />
    <glyph glyph-name="uni1FA0" unicode="&#x1fa0;" horiz-adv-x="663" 
d="M331 80q-14 -43 -46 -66t-74 -23q-84 0 -126 59t-42 143q0 93 52.5 160t151.5 76v-88q-101 -21 -101 -146q0 -49 18 -83t59 -34q26 0 42 19.5t16 50.5v130h101v-130q0 -31 16.5 -50.5t41.5 -19.5q41 0 59 34t18 83q0 124 -101 146v88q98 -9 151 -76t53 -160
q0 -84 -42 -143t-126 -59q-90 0 -121 89zM273 -59h102v-24q0 -29 10.5 -37t32.5 -8h18v-80q-17 -3 -50 -3q-63 0 -88 28.5t-25 92.5v31zM296 602q-14 0 -25.5 9.5t-11.5 28.5q0 23 14.5 35t36.5 12q36 0 58 -22.5t22 -61.5q0 -42 -27.5 -69t-74.5 -37l-14 41q53 19 53 51
q0 14 -8 19q-12 -6 -23 -6z" />
    <glyph glyph-name="uni1FA1" unicode="&#x1fa1;" horiz-adv-x="663" 
d="M331 80q-14 -43 -46 -66t-74 -23q-84 0 -126 59t-42 143q0 93 52.5 160t151.5 76v-88q-101 -21 -101 -146q0 -49 18 -83t59 -34q26 0 42 19.5t16 50.5v130h101v-130q0 -31 16.5 -50.5t41.5 -19.5q41 0 59 34t18 83q0 124 -101 146v88q98 -9 151 -76t53 -160
q0 -84 -42 -143t-126 -59q-90 0 -121 89zM273 -59h102v-24q0 -29 10.5 -37t32.5 -8h18v-80q-17 -3 -50 -3q-63 0 -88 28.5t-25 92.5v31zM342 603q-11 0 -23 6q-8 -5 -8 -19q0 -32 53 -51l-14 -41q-47 10 -74.5 37t-27.5 69q0 39 22 61.5t58 22.5q22 0 36.5 -12t14.5 -35
q0 -19 -11.5 -28.5t-25.5 -9.5z" />
    <glyph glyph-name="uni1FA2" unicode="&#x1fa2;" horiz-adv-x="663" 
d="M331 80q-14 -43 -46 -66t-74 -23q-84 0 -126 59t-42 143q0 93 52.5 160t151.5 76v-88q-101 -21 -101 -146q0 -49 18 -83t59 -34q26 0 42 19.5t16 50.5v130h101v-130q0 -31 16.5 -50.5t41.5 -19.5q41 0 59 34t18 83q0 124 -101 146v88q98 -9 151 -76t53 -160
q0 -84 -42 -143t-126 -59q-90 0 -121 89zM273 -59h102v-24q0 -29 10.5 -37t32.5 -8h18v-80q-17 -3 -50 -3q-63 0 -88 28.5t-25 92.5v31zM475 502l-57 181h-116l95 -181h78zM195 601q-14 0 -25.5 9.5t-11.5 28.5q0 23 14.5 35t36.5 12q36 0 58 -22.5t22 -61.5
q0 -42 -27.5 -69t-74.5 -37l-14 41q53 19 53 51q0 14 -8 19q-12 -6 -23 -6z" />
    <glyph glyph-name="uni1FA3" unicode="&#x1fa3;" horiz-adv-x="663" 
d="M331 80q-14 -43 -46 -66t-74 -23q-84 0 -126 59t-42 143q0 93 52.5 160t151.5 76v-88q-101 -21 -101 -146q0 -49 18 -83t59 -34q26 0 42 19.5t16 50.5v130h101v-130q0 -31 16.5 -50.5t41.5 -19.5q41 0 59 34t18 83q0 124 -101 146v88q98 -9 151 -76t53 -160
q0 -84 -42 -143t-126 -59q-90 0 -121 89zM273 -59h102v-24q0 -29 10.5 -37t32.5 -8h18v-80q-17 -3 -50 -3q-63 0 -88 28.5t-25 92.5v31zM482 502l-57 181h-116l95 -181h78zM250 601q-11 0 -23 6q-8 -5 -8 -19q0 -32 53 -51l-14 -41q-47 10 -74.5 37t-27.5 69q0 39 22 61.5
t58 22.5q22 0 36.5 -12t14.5 -35q0 -19 -11.5 -28.5t-25.5 -9.5z" />
    <glyph glyph-name="uni1FA4" unicode="&#x1fa4;" horiz-adv-x="663" 
d="M331 80q-14 -43 -46 -66t-74 -23q-84 0 -126 59t-42 143q0 93 52.5 160t151.5 76v-88q-101 -21 -101 -146q0 -49 18 -83t59 -34q26 0 42 19.5t16 50.5v130h101v-130q0 -31 16.5 -50.5t41.5 -19.5q41 0 59 34t18 83q0 124 -101 146v88q98 -9 151 -76t53 -160
q0 -84 -42 -143t-126 -59q-90 0 -121 89zM273 -59h102v-24q0 -29 10.5 -37t32.5 -8h18v-80q-17 -3 -50 -3q-63 0 -88 28.5t-25 92.5v31zM342 503l57 181h116l-95 -181h-78zM234 602q-14 0 -25.5 9.5t-11.5 28.5q0 23 14.5 35t36.5 12q36 0 58 -22.5t22 -61.5
q0 -42 -27.5 -69t-74.5 -37l-14 41q53 19 53 51q0 14 -8 19q-12 -6 -23 -6z" />
    <glyph glyph-name="uni1FA5" unicode="&#x1fa5;" horiz-adv-x="663" 
d="M331 80q-14 -43 -46 -66t-74 -23q-84 0 -126 59t-42 143q0 93 52.5 160t151.5 76v-88q-101 -21 -101 -146q0 -49 18 -83t59 -34q26 0 42 19.5t16 50.5v130h101v-130q0 -31 16.5 -50.5t41.5 -19.5q41 0 59 34t18 83q0 124 -101 146v88q98 -9 151 -76t53 -160
q0 -84 -42 -143t-126 -59q-90 0 -121 89zM273 -59h102v-24q0 -29 10.5 -37t32.5 -8h18v-80q-17 -3 -50 -3q-63 0 -88 28.5t-25 92.5v31zM325 503l57 181h116l-95 -181h-78zM276 602q-11 0 -23 6q-8 -5 -8 -19q0 -32 53 -51l-14 -41q-47 10 -74.5 37t-27.5 69q0 39 22 61.5
t58 22.5q22 0 36.5 -12t14.5 -35q0 -19 -11.5 -28.5t-25.5 -9.5z" />
    <glyph glyph-name="uni1FA6" unicode="&#x1fa6;" horiz-adv-x="663" 
d="M331 80q-14 -43 -46 -66t-74 -23q-84 0 -126 59t-42 143q0 93 52.5 160t151.5 76v-88q-101 -21 -101 -146q0 -49 18 -83t59 -34q26 0 42 19.5t16 50.5v130h101v-130q0 -31 16.5 -50.5t41.5 -19.5q41 0 59 34t18 83q0 124 -101 146v88q98 -9 151 -76t53 -160
q0 -84 -42 -143t-126 -59q-90 0 -121 89zM273 -59h102v-24q0 -29 10.5 -37t32.5 -8h18v-80q-17 -3 -50 -3q-63 0 -88 28.5t-25 92.5v31zM358 774q15 0 36 29l44 -34q-28 -56 -81 -56q-23 0 -52 11q-31 11 -43 11q-21 0 -37 -30l-48 37q34 55 86 55q21 0 48 -11
q34 -12 47 -12zM294 598q-14 0 -25.5 9.5t-11.5 28.5q0 23 14.5 35t36.5 12q36 0 58 -22.5t22 -61.5q0 -42 -27.5 -69t-74.5 -37l-14 41q53 19 53 51q0 14 -8 19q-12 -6 -23 -6z" />
    <glyph glyph-name="uni1FA7" unicode="&#x1fa7;" horiz-adv-x="663" 
d="M331 80q-14 -43 -46 -66t-74 -23q-84 0 -126 59t-42 143q0 93 52.5 160t151.5 76v-88q-101 -21 -101 -146q0 -49 18 -83t59 -34q26 0 42 19.5t16 50.5v130h101v-130q0 -31 16.5 -50.5t41.5 -19.5q41 0 59 34t18 83q0 124 -101 146v88q98 -9 151 -76t53 -160
q0 -84 -42 -143t-126 -59q-90 0 -121 89zM273 -59h102v-24q0 -29 10.5 -37t32.5 -8h18v-80q-17 -3 -50 -3q-63 0 -88 28.5t-25 92.5v31zM362 774q15 0 36 29l44 -34q-28 -56 -81 -56q-23 0 -52 11q-31 11 -43 11q-21 0 -37 -30l-48 37q34 55 86 55q21 0 48 -11
q34 -12 47 -12zM345 598q-11 0 -23 6q-8 -5 -8 -19q0 -32 53 -51l-14 -41q-47 10 -74.5 37t-27.5 69q0 39 22 61.5t58 22.5q22 0 36.5 -12t14.5 -35q0 -19 -11.5 -28.5t-25.5 -9.5z" />
    <glyph glyph-name="uni1FA8" unicode="&#x1fa8;" 
d="M752 340q0 -78 -35 -143t-95 -104h124v-93h-281v86q82 31 130.5 98t48.5 156q0 109 -68.5 181.5t-174.5 72.5q-105 0 -173.5 -72.5t-68.5 -181.5q0 -89 49 -156t131 -98v-86h-281v93h124q-61 39 -96 104t-35 143q0 150 101.5 249.5t248.5 99.5q149 0 250 -99.5
t101 -249.5zM356 -59h102v-24q0 -29 10.5 -37t32.5 -8h18v-80q-16 -3 -50 -3q-63 0 -88 28.5t-25 92.5v31zM-74 595q-14 0 -25.5 9.5t-11.5 28.5q0 23 14.5 35t36.5 12q36 0 58 -22.5t22 -61.5q0 -42 -27.5 -69t-74.5 -37l-14 41q53 19 53 51q0 14 -8 19q-12 -6 -23 -6z" />
    <glyph glyph-name="uni1FA9" unicode="&#x1fa9;" 
d="M752 340q0 -78 -35 -143t-95 -104h124v-93h-281v86q82 31 130.5 98t48.5 156q0 109 -68.5 181.5t-174.5 72.5q-105 0 -173.5 -72.5t-68.5 -181.5q0 -89 49 -156t131 -98v-86h-281v93h124q-61 39 -96 104t-35 143q0 150 101.5 249.5t248.5 99.5q149 0 250 -99.5
t101 -249.5zM356 -59h102v-24q0 -29 10.5 -37t32.5 -8h18v-80q-16 -3 -50 -3q-63 0 -88 28.5t-25 92.5v31zM-17 595q-11 0 -23 6q-8 -5 -8 -19q0 -32 53 -51l-14 -41q-47 10 -74.5 37t-27.5 69q0 39 22 61.5t58 22.5q22 0 36.5 -12t14.5 -35q0 -19 -11.5 -28.5t-25.5 -9.5z
" />
    <glyph glyph-name="uni1FAA" unicode="&#x1faa;" 
d="M752 340q0 -78 -35 -143t-95 -104h124v-93h-281v86q82 31 130.5 98t48.5 156q0 109 -68.5 181.5t-174.5 72.5q-105 0 -173.5 -72.5t-68.5 -181.5q0 -89 49 -156t131 -98v-86h-281v93h124q-61 39 -96 104t-35 143q0 150 101.5 249.5t248.5 99.5q149 0 250 -99.5
t101 -249.5zM356 -59h102v-24q0 -29 10.5 -37t32.5 -8h18v-80q-16 -3 -50 -3q-63 0 -88 28.5t-25 92.5v31zM21 496l-57 181h-116l95 -181h78zM-259 595q-14 0 -25.5 9.5t-11.5 28.5q0 23 14.5 35t36.5 12q36 0 58 -22.5t22 -61.5q0 -42 -27.5 -69t-74.5 -37l-14 41
q53 19 53 51q0 14 -8 19q-12 -6 -23 -6z" />
    <glyph glyph-name="uni1FAB" unicode="&#x1fab;" 
d="M752 340q0 -78 -35 -143t-95 -104h124v-93h-281v86q82 31 130.5 98t48.5 156q0 109 -68.5 181.5t-174.5 72.5q-105 0 -173.5 -72.5t-68.5 -181.5q0 -89 49 -156t131 -98v-86h-281v93h124q-61 39 -96 104t-35 143q0 150 101.5 249.5t248.5 99.5q149 0 250 -99.5
t101 -249.5zM356 -59h102v-24q0 -29 10.5 -37t32.5 -8h18v-80q-16 -3 -50 -3q-63 0 -88 28.5t-25 92.5v31zM21 496l-57 181h-116l95 -181h78zM-211 595q-11 0 -23 6q-8 -5 -8 -19q0 -32 53 -51l-14 -41q-47 10 -74.5 37t-27.5 69q0 39 22 61.5t58 22.5q22 0 36.5 -12
t14.5 -35q0 -19 -11.5 -28.5t-25.5 -9.5z" />
    <glyph glyph-name="uni1FAC" unicode="&#x1fac;" 
d="M752 340q0 -78 -35 -143t-95 -104h124v-93h-281v86q82 31 130.5 98t48.5 156q0 109 -68.5 181.5t-174.5 72.5q-105 0 -173.5 -72.5t-68.5 -181.5q0 -89 49 -156t131 -98v-86h-281v93h124q-61 39 -96 104t-35 143q0 150 101.5 249.5t248.5 99.5q149 0 250 -99.5
t101 -249.5zM356 -59h102v-24q0 -29 10.5 -37t32.5 -8h18v-80q-16 -3 -50 -3q-63 0 -88 28.5t-25 92.5v31zM-117 496l57 181h116l-95 -181h-78zM-225 595q-14 0 -25.5 9.5t-11.5 28.5q0 23 14.5 35t36.5 12q36 0 58 -22.5t22 -61.5q0 -42 -27.5 -69t-74.5 -37l-14 41
q53 19 53 51q0 14 -8 19q-12 -6 -23 -6z" />
    <glyph glyph-name="uni1FAD" unicode="&#x1fad;" 
d="M752 340q0 -78 -35 -143t-95 -104h124v-93h-281v86q82 31 130.5 98t48.5 156q0 109 -68.5 181.5t-174.5 72.5q-105 0 -173.5 -72.5t-68.5 -181.5q0 -89 49 -156t131 -98v-86h-281v93h124q-61 39 -96 104t-35 143q0 150 101.5 249.5t248.5 99.5q149 0 250 -99.5
t101 -249.5zM356 -59h102v-24q0 -29 10.5 -37t32.5 -8h18v-80q-16 -3 -50 -3q-63 0 -88 28.5t-25 92.5v31zM-115 499l57 181h116l-95 -181h-78zM-164 598q-11 0 -23 6q-8 -5 -8 -19q0 -32 53 -51l-14 -41q-47 10 -74.5 37t-27.5 69q0 39 22 61.5t58 22.5q22 0 36.5 -12
t14.5 -35q0 -19 -11.5 -28.5t-25.5 -9.5z" />
    <glyph glyph-name="uni1FAE" unicode="&#x1fae;" 
d="M752 340q0 -78 -35 -143t-95 -104h124v-93h-281v86q82 31 130.5 98t48.5 156q0 109 -68.5 181.5t-174.5 72.5q-105 0 -173.5 -72.5t-68.5 -181.5q0 -89 49 -156t131 -98v-86h-281v93h124q-61 39 -96 104t-35 143q0 150 101.5 249.5t248.5 99.5q149 0 250 -99.5
t101 -249.5zM356 -59h102v-24q0 -29 10.5 -37t32.5 -8h18v-80q-16 -3 -50 -3q-63 0 -88 28.5t-25 92.5v31zM-61 657q15 0 36 29l44 -34q-28 -56 -81 -56q-23 0 -52 11q-31 11 -43 11q-21 0 -37 -30l-48 37q34 55 86 55q21 0 48 -11q34 -12 47 -12zM-125 481q-14 0 -25.5 9.5
t-11.5 28.5q0 23 14.5 35t36.5 12q36 0 58 -22.5t22 -61.5q0 -42 -27.5 -69t-74.5 -37l-14 41q53 19 53 51q0 14 -8 19q-12 -6 -23 -6z" />
    <glyph glyph-name="uni1FAF" unicode="&#x1faf;" 
d="M752 340q0 -78 -35 -143t-95 -104h124v-93h-281v86q82 31 130.5 98t48.5 156q0 109 -68.5 181.5t-174.5 72.5q-105 0 -173.5 -72.5t-68.5 -181.5q0 -89 49 -156t131 -98v-86h-281v93h124q-61 39 -96 104t-35 143q0 150 101.5 249.5t248.5 99.5q149 0 250 -99.5
t101 -249.5zM356 -59h102v-24q0 -29 10.5 -37t32.5 -8h18v-80q-16 -3 -50 -3q-63 0 -88 28.5t-25 92.5v31zM-61 658q15 0 36 29l44 -34q-28 -56 -81 -56q-23 0 -52 11q-31 11 -43 11q-21 0 -37 -30l-48 37q34 55 86 55q21 0 48 -11q34 -12 47 -12zM-78 482q-11 0 -23 6
q-8 -5 -8 -19q0 -32 53 -51l-14 -41q-47 10 -74.5 37t-27.5 69q0 39 22 61.5t58 22.5q22 0 36.5 -12t14.5 -35q0 -19 -11.5 -28.5t-25.5 -9.5z" />
    <glyph glyph-name="uni1FB0" unicode="&#x1fb0;" horiz-adv-x="578" 
d="M267 80q55 0 88.5 36t33.5 95q0 57 -33.5 92.5t-88.5 35.5q-54 0 -86.5 -35.5t-32.5 -92.5q0 -59 32 -95t87 -36zM498 -4q-40 0 -67.5 21.5t-35.5 58.5l-1 6q-21 -42 -61.5 -66.5t-92.5 -24.5q-82 0 -139 63t-57 157t56 156t138 62q105 0 151 -87l-3 78h101v-286
q0 -55 43 -55h18v-80q-16 -3 -50 -3zM270 514q-63 0 -101 35t-45 92l79 13q12 -64 67 -64t67 64l79 -13q-7 -57 -45 -92t-101 -35z" />
    <glyph glyph-name="uni1FB1" unicode="&#x1fb1;" horiz-adv-x="578" 
d="M267 80q55 0 88.5 36t33.5 95q0 57 -33.5 92.5t-88.5 35.5q-54 0 -86.5 -35.5t-32.5 -92.5q0 -59 32 -95t87 -36zM498 -4q-40 0 -67.5 21.5t-35.5 58.5l-1 6q-21 -42 -61.5 -66.5t-92.5 -24.5q-82 0 -139 63t-57 157t56 156t138 62q105 0 151 -87l-3 78h101v-286
q0 -55 43 -55h18v-80q-16 -3 -50 -3zM147 520v76h246v-76h-246z" />
    <glyph glyph-name="uni1FB2" unicode="&#x1fb2;" horiz-adv-x="578" 
d="M267 80q55 0 88.5 36t33.5 95q0 57 -33.5 92.5t-88.5 35.5q-54 0 -86.5 -35.5t-32.5 -92.5q0 -59 32 -95t87 -36zM498 -4q-40 0 -67.5 21.5t-35.5 58.5l-1 6q-21 -42 -61.5 -66.5t-92.5 -24.5q-82 0 -139 63t-57 157t56 156t138 62q105 0 151 -87l-3 78h101v-286
q0 -55 43 -55h18v-80q-16 -3 -50 -3zM212 -59h102v-24q0 -29 10.5 -37t32.5 -8h18v-80q-17 -3 -50 -3q-63 0 -88 28.5t-25 92.5v31zM249 681l57 -181h-78l-95 181h116z" />
    <glyph glyph-name="uni1FB3" unicode="&#x1fb3;" horiz-adv-x="578" 
d="M267 80q55 0 88.5 36t33.5 95q0 57 -33.5 92.5t-88.5 35.5q-54 0 -86.5 -35.5t-32.5 -92.5q0 -59 32 -95t87 -36zM498 -4q-40 0 -67.5 21.5t-35.5 58.5l-1 6q-21 -42 -61.5 -66.5t-92.5 -24.5q-82 0 -139 63t-57 157t56 156t138 62q105 0 151 -87l-3 78h101v-286
q0 -55 43 -55h18v-80q-16 -3 -50 -3zM212 -59h102v-24q0 -29 10.5 -37t32.5 -8h18v-80q-17 -3 -50 -3q-63 0 -88 28.5t-25 92.5v31z" />
    <glyph glyph-name="uni1FB4" unicode="&#x1fb4;" horiz-adv-x="578" 
d="M267 80q55 0 88.5 36t33.5 95q0 57 -33.5 92.5t-88.5 35.5q-54 0 -86.5 -35.5t-32.5 -92.5q0 -59 32 -95t87 -36zM498 -4q-40 0 -67.5 21.5t-35.5 58.5l-1 6q-21 -42 -61.5 -66.5t-92.5 -24.5q-82 0 -139 63t-57 157t56 156t138 62q105 0 151 -87l-3 78h101v-286
q0 -55 43 -55h18v-80q-16 -3 -50 -3zM212 -59h102v-24q0 -29 10.5 -37t32.5 -8h18v-80q-17 -3 -50 -3q-63 0 -88 28.5t-25 92.5v31zM230 499l57 181h116l-95 -181h-78z" />
    <glyph glyph-name="uni1FB6" unicode="&#x1fb6;" horiz-adv-x="578" 
d="M267 80q55 0 88.5 36t33.5 95q0 57 -33.5 92.5t-88.5 35.5q-54 0 -86.5 -35.5t-32.5 -92.5q0 -59 32 -95t87 -36zM498 -4q-40 0 -67.5 21.5t-35.5 58.5l-1 6q-21 -42 -61.5 -66.5t-92.5 -24.5q-82 0 -139 63t-57 157t56 156t138 62q105 0 151 -87l-3 78h101v-286
q0 -55 43 -55h18v-80q-16 -3 -50 -3zM313 566q15 0 36 29l44 -34q-28 -56 -81 -56q-23 0 -52 11q-31 11 -43 11q-21 0 -37 -30l-48 37q34 55 86 55q21 0 48 -11q34 -12 47 -12z" />
    <glyph glyph-name="uni1FB7" unicode="&#x1fb7;" horiz-adv-x="578" 
d="M267 80q55 0 88.5 36t33.5 95q0 57 -33.5 92.5t-88.5 35.5q-54 0 -86.5 -35.5t-32.5 -92.5q0 -59 32 -95t87 -36zM498 -4q-40 0 -67.5 21.5t-35.5 58.5l-1 6q-21 -42 -61.5 -66.5t-92.5 -24.5q-82 0 -139 63t-57 157t56 156t138 62q105 0 151 -87l-3 78h101v-286
q0 -55 43 -55h18v-80q-16 -3 -50 -3zM212 -59h102v-24q0 -29 10.5 -37t32.5 -8h18v-80q-17 -3 -50 -3q-63 0 -88 28.5t-25 92.5v31zM313 566q15 0 36 29l44 -34q-28 -56 -81 -56q-23 0 -52 11q-31 11 -43 11q-21 0 -37 -30l-48 37q34 55 86 55q21 0 48 -11q34 -12 47 -12z
" />
    <glyph glyph-name="uni1FB8" unicode="&#x1fb8;" horiz-adv-x="659" 
d="M29 0l291 687h12l298 -687h-110l-50 124h-289l-50 -124h-102zM217 212h215l-74 185q-28 68 -34 100l-2 -7q-2 -8 -5.5 -18.5t-7.5 -23t-9 -26.5t-9 -25zM329 759q-63 0 -101 35t-45 92l79 13q12 -64 67 -64t67 64l79 -13q-7 -57 -45 -92t-101 -35z" />
    <glyph glyph-name="uni1FB9" unicode="&#x1fb9;" horiz-adv-x="659" 
d="M29 0l291 687h12l298 -687h-110l-50 124h-289l-50 -124h-102zM217 212h215l-74 185q-28 68 -34 100l-2 -7q-2 -8 -5.5 -18.5t-7.5 -23t-9 -26.5t-9 -25zM206 755v76h246v-76h-246z" />
    <glyph glyph-name="uni1FBA" unicode="&#x1fba;" horiz-adv-x="659" 
d="M29 0l291 687h12l298 -687h-110l-50 124h-289l-50 -124h-102zM217 212h215l-74 185q-28 68 -34 100l-2 -7q-2 -8 -5.5 -18.5t-7.5 -23t-9 -26.5t-9 -25zM141 499l-57 181h-116l95 -181h78z" />
    <glyph glyph-name="uni1FBB" unicode="&#x1fbb;" horiz-adv-x="659" 
d="M29 0l291 687h12l298 -687h-110l-50 124h-289l-50 -124h-102zM217 212h215l-74 185q-28 68 -34 100l-2 -7q-2 -8 -5.5 -18.5t-7.5 -23t-9 -26.5t-9 -25zM-33 499l57 181h116l-95 -181h-78z" />
    <glyph glyph-name="uni1FBC" unicode="&#x1fbc;" horiz-adv-x="659" 
d="M29 0l291 687h12l298 -687h-110l-50 124h-289l-50 -124h-102zM217 212h215l-74 185q-28 68 -34 100l-2 -7q-2 -8 -5.5 -18.5t-7.5 -23t-9 -26.5t-9 -25zM275 -59h102v-24q0 -29 10.5 -37t32.5 -8h18v-80q-17 -3 -50 -3q-63 0 -88 28.5t-25 92.5v31z" />
    <glyph glyph-name="uni1FBD" unicode="&#x1fbd;" horiz-adv-x="500" 
d="M221 598q-14 0 -25.5 9.5t-11.5 28.5q0 23 14.5 35t36.5 12q36 0 58 -22.5t22 -61.5q0 -42 -27.5 -69t-74.5 -37l-14 41q53 19 53 51q0 14 -8 19q-12 -6 -23 -6z" />
    <glyph glyph-name="uni1FBE" unicode="&#x1fbe;" horiz-adv-x="500" 
d="M168 -59h102v-24q0 -29 10.5 -37t32.5 -8h18v-80q-17 -3 -50 -3q-63 0 -88 28.5t-25 92.5v31z" />
    <glyph glyph-name="uni1FBF" unicode="&#x1fbf;" horiz-adv-x="500" 
d="M221 598q-14 0 -25.5 9.5t-11.5 28.5q0 23 14.5 35t36.5 12q36 0 58 -22.5t22 -61.5q0 -42 -27.5 -69t-74.5 -37l-14 41q53 19 53 51q0 14 -8 19q-12 -6 -23 -6z" />
    <glyph glyph-name="uni1FC0" unicode="&#x1fc0;" horiz-adv-x="500" 
d="M300 532q15 0 36 29l44 -34q-28 -56 -81 -56q-23 0 -52 11q-31 11 -43 11q-21 0 -37 -30l-48 37q34 55 86 55q21 0 48 -11q34 -12 47 -12z" />
    <glyph glyph-name="uni1FC1" unicode="&#x1fc1;" horiz-adv-x="500" 
d="M174 511q-20 0 -35.5 15t-15.5 36q0 20 15.5 35t35.5 15t35.5 -15t15.5 -35q0 -21 -15 -36t-36 -15zM337 511q-20 0 -35.5 15t-15.5 36q0 20 15.5 35t35.5 15t35.5 -15t15.5 -35q0 -21 -15 -36t-36 -15zM293 702q15 0 36 29l44 -34q-28 -56 -81 -56q-23 0 -52 11
q-31 11 -43 11q-21 0 -37 -30l-48 37q34 55 86 55q21 0 48 -11q34 -12 47 -12z" />
    <glyph glyph-name="uni1FC2" unicode="&#x1fc2;" horiz-adv-x="523" 
d="M64 -59h102v-24q0 -29 10.5 -37t32.5 -8h18v-80q-16 -3 -50 -3q-63 0 -88 28.5t-25 92.5v31zM64 0v420h101l-2 -78q19 41 57 64t85 23q71 0 114 -48t43 -132v-461h-101v453q0 95 -87 95q-50 0 -79.5 -28.5t-29.5 -79.5v-228h-101zM235 681l57 -181h-78l-95 181h116z" />
    <glyph glyph-name="uni1FC3" unicode="&#x1fc3;" horiz-adv-x="523" 
d="M64 -59h102v-24q0 -29 10.5 -37t32.5 -8h18v-80q-16 -3 -50 -3q-63 0 -88 28.5t-25 92.5v31zM64 0v420h101l-2 -78q19 41 57 64t85 23q71 0 114 -48t43 -132v-461h-101v453q0 95 -87 95q-50 0 -79.5 -28.5t-29.5 -79.5v-228h-101z" />
    <glyph glyph-name="uni1FC4" unicode="&#x1fc4;" horiz-adv-x="523" 
d="M64 -59h102v-24q0 -29 10.5 -37t32.5 -8h18v-80q-16 -3 -50 -3q-63 0 -88 28.5t-25 92.5v31zM64 0v420h101l-2 -78q19 41 57 64t85 23q71 0 114 -48t43 -132v-461h-101v453q0 95 -87 95q-50 0 -79.5 -28.5t-29.5 -79.5v-228h-101zM216 499l57 181h116l-95 -181h-78z" />
    <glyph glyph-name="uni1FC6" unicode="&#x1fc6;" horiz-adv-x="523" 
d="M64 0v420h101l-2 -78q19 41 57 64t85 23q71 0 114 -48t43 -132v-461h-101v453q0 95 -87 95q-50 0 -79.5 -28.5t-29.5 -79.5v-228h-101zM299 566q15 0 36 29l44 -34q-28 -56 -81 -56q-23 0 -52 11q-31 11 -43 11q-21 0 -37 -30l-48 37q34 55 86 55q21 0 48 -11
q34 -12 47 -12z" />
    <glyph glyph-name="uni1FC7" unicode="&#x1fc7;" horiz-adv-x="523" 
d="M64 -59h102v-24q0 -29 10.5 -37t32.5 -8h18v-80q-16 -3 -50 -3q-63 0 -88 28.5t-25 92.5v31zM64 0v420h101l-2 -78q19 41 57 64t85 23q71 0 114 -48t43 -132v-461h-101v453q0 95 -87 95q-50 0 -79.5 -28.5t-29.5 -79.5v-228h-101zM299 566q15 0 36 29l44 -34
q-28 -56 -81 -56q-23 0 -52 11q-31 11 -43 11q-21 0 -37 -30l-48 37q34 55 86 55q21 0 48 -11q34 -12 47 -12z" />
    <glyph glyph-name="uni1FC8" unicode="&#x1fc8;" horiz-adv-x="587" 
d="M82 0v680h432v-93h-326v-200h289v-91h-289v-203h340v-93h-446zM16 499l-57 181h-116l95 -181h78z" />
    <glyph glyph-name="uni1FC9" unicode="&#x1fc9;" horiz-adv-x="587" 
d="M82 0v680h432v-93h-326v-200h289v-91h-289v-203h340v-93h-446zM-158 499l57 181h116l-95 -181h-78z" />
    <glyph glyph-name="uni1FCA" unicode="&#x1fca;" horiz-adv-x="703" 
d="M82 0v680h106v-303h327v303h106v-680h-106v283h-327v-283h-106zM16 499l-57 181h-116l95 -181h78z" />
    <glyph glyph-name="uni1FCB" unicode="&#x1fcb;" horiz-adv-x="703" 
d="M82 0v680h106v-303h327v303h106v-680h-106v283h-327v-283h-106zM-158 499l57 181h116l-95 -181h-78z" />
    <glyph glyph-name="uni1FCC" unicode="&#x1fcc;" horiz-adv-x="703" 
d="M82 0v680h106v-303h327v303h106v-680h-106v283h-327v-283h-106zM294 -59h102v-24q0 -29 10.5 -37t32.5 -8h18v-80q-16 -3 -50 -3q-63 0 -88 28.5t-25 92.5v31z" />
    <glyph glyph-name="uni1FCD" unicode="&#x1fcd;" horiz-adv-x="500" 
d="M408 499l-57 181h-116l95 -181h78zM128 598q-14 0 -25.5 9.5t-11.5 28.5q0 23 14.5 35t36.5 12q36 0 58 -22.5t22 -61.5q0 -42 -27.5 -69t-74.5 -37l-14 41q53 19 53 51q0 14 -8 19q-12 -6 -23 -6z" />
    <glyph glyph-name="uni1FCE" unicode="&#x1fce;" horiz-adv-x="500" 
d="M236 499l57 181h116l-95 -181h-78zM128 598q-14 0 -25.5 9.5t-11.5 28.5q0 23 14.5 35t36.5 12q36 0 58 -22.5t22 -61.5q0 -42 -27.5 -69t-74.5 -37l-14 41q53 19 53 51q0 14 -8 19q-12 -6 -23 -6z" />
    <glyph glyph-name="uni1FCF" unicode="&#x1fcf;" horiz-adv-x="500" 
d="M300 774q15 0 36 29l44 -34q-28 -56 -81 -56q-23 0 -52 11q-31 11 -43 11q-21 0 -37 -30l-48 37q34 55 86 55q21 0 48 -11q34 -12 47 -12zM236 598q-14 0 -25.5 9.5t-11.5 28.5q0 23 14.5 35t36.5 12q36 0 58 -22.5t22 -61.5q0 -42 -27.5 -69t-74.5 -37l-14 41
q53 19 53 51q0 14 -8 19q-12 -6 -23 -6z" />
    <glyph glyph-name="uni1FD0" unicode="&#x1fd0;" horiz-adv-x="261" 
d="M67 112v308h101v-287q0 -54 43 -54h18v-79q-21 -3 -50 -3q-49 0 -80.5 27t-31.5 88zM120 514q-63 0 -101 35t-45 92l79 13q12 -64 67 -64t67 64l79 -13q-7 -57 -45 -92t-101 -35z" />
    <glyph glyph-name="uni1FD1" unicode="&#x1fd1;" horiz-adv-x="261" 
d="M67 112v308h101v-287q0 -54 43 -54h18v-79q-21 -3 -50 -3q-49 0 -80.5 27t-31.5 88zM-3 520v76h246v-76h-246z" />
    <glyph glyph-name="uni1FD2" unicode="&#x1fd2;" horiz-adv-x="261" 
d="M67 112v308h101v-287q0 -54 43 -54h18v-79q-21 -3 -50 -3q-49 0 -80.5 27t-31.5 88zM229 508q-21 0 -36 15t-15 36q0 20 15.5 35t35.5 15t35.5 -15t15.5 -35q0 -21 -15.5 -36t-35.5 -15zM109 677l49 -167h-78l-87 167h116zM-35 508q-21 0 -36 15t-15 36q0 20 15.5 35
t35.5 15t35.5 -15t15.5 -35q0 -21 -15.5 -36t-35.5 -15z" />
    <glyph glyph-name="uni1FD3" unicode="&#x1fd3;" horiz-adv-x="261" 
d="M67 112v308h101v-287q0 -54 43 -54h18v-79q-21 -3 -50 -3q-49 0 -80.5 27t-31.5 88zM10 508q-20 0 -35.5 15t-15.5 36q0 20 15.5 35t35.5 15t35.5 -15t15.5 -35q0 -21 -15 -36t-36 -15zM81 510l49 167h116l-87 -167h-78zM274 508q-20 0 -35.5 15t-15.5 36q0 20 15.5 35
t35.5 15t35.5 -15t15.5 -35q0 -21 -15 -36t-36 -15z" />
    <glyph glyph-name="uni1FD6" unicode="&#x1fd6;" horiz-adv-x="261" 
d="M67 112v308h101v-287q0 -54 43 -54h18v-79q-21 -3 -50 -3q-49 0 -80.5 27t-31.5 88zM163 566q15 0 36 29l44 -34q-28 -56 -81 -56q-23 0 -52 11q-31 11 -43 11q-21 0 -37 -30l-48 37q34 55 86 55q21 0 48 -11q34 -12 47 -12z" />
    <glyph glyph-name="uni1FD7" unicode="&#x1fd7;" horiz-adv-x="261" 
d="M67 112v308h101v-287q0 -54 43 -54h18v-79q-21 -3 -50 -3q-49 0 -80.5 27t-31.5 88zM40 504q-20 0 -35.5 15t-15.5 36q0 20 15.5 35t35.5 15t35.5 -15t15.5 -35q0 -21 -15 -36t-36 -15zM203 504q-20 0 -35.5 15t-15.5 36q0 20 15.5 35t35.5 15t35.5 -15t15.5 -35
q0 -21 -15 -36t-36 -15zM159 695q15 0 36 29l44 -34q-28 -56 -81 -56q-23 0 -52 11q-31 11 -43 11q-21 0 -37 -30l-48 37q34 55 86 55q21 0 48 -11q34 -12 47 -12z" />
    <glyph glyph-name="uni1FD8" unicode="&#x1fd8;" horiz-adv-x="276" 
d="M86 0v680h105v-680h-105zM138 759q-63 0 -101 35t-45 92l79 13q12 -64 67 -64t67 64l79 -13q-7 -57 -45 -92t-101 -35z" />
    <glyph glyph-name="uni1FD9" unicode="&#x1fd9;" horiz-adv-x="276" 
d="M86 0v680h105v-680h-105zM15 755v76h246v-76h-246z" />
    <glyph glyph-name="uni1FDA" unicode="&#x1fda;" horiz-adv-x="276" 
d="M86 0v680h105v-680h-105zM1 499l-57 181h-116l95 -181h78z" />
    <glyph glyph-name="uni1FDB" unicode="&#x1fdb;" horiz-adv-x="276" 
d="M86 0v680h105v-680h-105zM-173 499l57 181h116l-95 -181h-78z" />
    <glyph glyph-name="uni1FDD" unicode="&#x1fdd;" horiz-adv-x="500" 
d="M413 499l-57 181h-116l95 -181h78zM181 598q-11 0 -23 6q-8 -5 -8 -19q0 -32 53 -51l-14 -41q-47 10 -74.5 37t-27.5 69q0 39 22 61.5t58 22.5q22 0 36.5 -12t14.5 -35q0 -19 -11.5 -28.5t-25.5 -9.5z" />
    <glyph glyph-name="uni1FDE" unicode="&#x1fde;" horiz-adv-x="500" 
d="M235 499l57 181h116l-95 -181h-78zM186 598q-11 0 -23 6q-8 -5 -8 -19q0 -32 53 -51l-14 -41q-47 10 -74.5 37t-27.5 69q0 39 22 61.5t58 22.5q22 0 36.5 -12t14.5 -35q0 -19 -11.5 -28.5t-25.5 -9.5z" />
    <glyph glyph-name="uni1FDF" unicode="&#x1fdf;" horiz-adv-x="500" 
d="M300 774q15 0 36 29l44 -34q-28 -56 -81 -56q-23 0 -52 11q-31 11 -43 11q-21 0 -37 -30l-48 37q34 55 86 55q21 0 48 -11q34 -12 47 -12zM283 598q-11 0 -23 6q-8 -5 -8 -19q0 -32 53 -51l-14 -41q-47 10 -74.5 37t-27.5 69q0 39 22 61.5t58 22.5q22 0 36.5 -12
t14.5 -35q0 -19 -11.5 -28.5t-25.5 -9.5z" />
    <glyph glyph-name="uni1FE0" unicode="&#x1fe0;" horiz-adv-x="497" 
d="M245 -10q-92 0 -142 52t-50 145v233h101v-230q0 -111 94 -111t94 111v230h102v-233q0 -92 -53 -144.5t-146 -52.5zM248 514q-63 0 -101 35t-45 92l79 13q12 -64 67 -64t67 64l79 -13q-7 -57 -45 -92t-101 -35z" />
    <glyph glyph-name="uni1FE1" unicode="&#x1fe1;" horiz-adv-x="497" 
d="M245 -10q-92 0 -142 52t-50 145v233h101v-230q0 -111 94 -111t94 111v230h102v-233q0 -92 -53 -144.5t-146 -52.5zM125 520v76h246v-76h-246z" />
    <glyph glyph-name="uni1FE2" unicode="&#x1fe2;" horiz-adv-x="497" 
d="M245 -10q-92 0 -142 52t-50 145v233h101v-230q0 -111 94 -111t94 111v230h102v-233q0 -92 -53 -144.5t-146 -52.5zM357 508q-21 0 -36 15t-15 36q0 20 15.5 35t35.5 15t35.5 -15t15.5 -35q0 -21 -15.5 -36t-35.5 -15zM237 677l49 -167h-78l-87 167h116zM93 508
q-21 0 -36 15t-15 36q0 20 15.5 35t35.5 15t35.5 -15t15.5 -35q0 -21 -15.5 -36t-35.5 -15z" />
    <glyph glyph-name="uni1FE3" unicode="&#x1fe3;" horiz-adv-x="497" 
d="M245 -10q-92 0 -142 52t-50 145v233h101v-230q0 -111 94 -111t94 111v230h102v-233q0 -92 -53 -144.5t-146 -52.5zM138 508q-20 0 -35.5 15t-15.5 36q0 20 15.5 35t35.5 15t35.5 -15t15.5 -35q0 -21 -15 -36t-36 -15zM209 510l49 167h116l-87 -167h-78zM402 508
q-20 0 -35.5 15t-15.5 36q0 20 15.5 35t35.5 15t35.5 -15t15.5 -35q0 -21 -15 -36t-36 -15z" />
    <glyph glyph-name="uni1FE4" unicode="&#x1fe4;" horiz-adv-x="537" 
d="M152 59v-271h-101v422q0 97 62 157.5t157 60.5q97 0 160.5 -62.5t63.5 -156.5q0 -93 -60.5 -155.5t-143.5 -62.5q-90 0 -138 68zM149 209q0 -59 33 -95t88 -36q53 0 86.5 36.5t33.5 94.5q0 59 -32.5 95.5t-86.5 36.5t-88 -37t-34 -95zM242 602q-14 0 -25.5 9.5
t-11.5 28.5q0 23 14.5 35t36.5 12q36 0 58 -22.5t22 -61.5q0 -42 -27.5 -69t-74.5 -37l-14 41q53 19 53 51q0 14 -8 19q-12 -6 -23 -6z" />
    <glyph glyph-name="uni1FE5" unicode="&#x1fe5;" horiz-adv-x="537" 
d="M152 59v-271h-101v422q0 97 62 157.5t157 60.5q97 0 160.5 -62.5t63.5 -156.5q0 -93 -60.5 -155.5t-143.5 -62.5q-90 0 -138 68zM149 209q0 -59 33 -95t88 -36q53 0 86.5 36.5t33.5 94.5q0 59 -32.5 95.5t-86.5 36.5t-88 -37t-34 -95zM288 603q-11 0 -23 6q-8 -5 -8 -19
q0 -32 53 -51l-14 -41q-47 10 -74.5 37t-27.5 69q0 39 22 61.5t58 22.5q22 0 36.5 -12t14.5 -35q0 -19 -11.5 -28.5t-25.5 -9.5z" />
    <glyph glyph-name="uni1FE6" unicode="&#x1fe6;" horiz-adv-x="497" 
d="M245 -10q-92 0 -142 52t-50 145v233h101v-230q0 -111 94 -111t94 111v230h102v-233q0 -92 -53 -144.5t-146 -52.5zM291 566q15 0 36 29l44 -34q-28 -56 -81 -56q-23 0 -52 11q-31 11 -43 11q-21 0 -37 -30l-48 37q34 55 86 55q21 0 48 -11q34 -12 47 -12z" />
    <glyph glyph-name="uni1FE7" unicode="&#x1fe7;" horiz-adv-x="497" 
d="M245 -10q-92 0 -142 52t-50 145v233h101v-230q0 -111 94 -111t94 111v230h102v-233q0 -92 -53 -144.5t-146 -52.5zM168 504q-20 0 -35.5 15t-15.5 36q0 20 15.5 35t35.5 15t35.5 -15t15.5 -35q0 -21 -15 -36t-36 -15zM331 504q-20 0 -35.5 15t-15.5 36q0 20 15.5 35
t35.5 15t35.5 -15t15.5 -35q0 -21 -15 -36t-36 -15zM287 695q15 0 36 29l44 -34q-28 -56 -81 -56q-23 0 -52 11q-31 11 -43 11q-21 0 -37 -30l-48 37q34 55 86 55q21 0 48 -11q34 -12 47 -12z" />
    <glyph glyph-name="uni1FE8" unicode="&#x1fe8;" horiz-adv-x="623" 
d="M264 0v249l-237 431h119l131 -245l41 -97q22 59 41 97l128 245h109l-226 -424v-256h-106zM318 759q-63 0 -101 35t-45 92l79 13q12 -64 67 -64t67 64l79 -13q-7 -57 -45 -92t-101 -35z" />
    <glyph glyph-name="uni1FE9" unicode="&#x1fe9;" horiz-adv-x="623" 
d="M264 0v249l-237 431h119l131 -245l41 -97q22 59 41 97l128 245h109l-226 -424v-256h-106zM195 755v76h246v-76h-246z" />
    <glyph glyph-name="uni1FEA" unicode="&#x1fea;" horiz-adv-x="623" 
d="M264 0v249l-237 431h119l131 -245l41 -97q22 59 41 97l128 245h109l-226 -424v-256h-106zM-11 499l-57 181h-116l95 -181h78z" />
    <glyph glyph-name="uni1FEB" unicode="&#x1feb;" horiz-adv-x="623" 
d="M264 0v249l-237 431h119l131 -245l41 -97q22 59 41 97l128 245h109l-226 -424v-256h-106zM-185 499l57 181h116l-95 -181h-78z" />
    <glyph glyph-name="uni1FEC" unicode="&#x1fec;" horiz-adv-x="591" 
d="M82 0v680h219q111 0 179 -55.5t68 -163.5q0 -107 -68 -163.5t-179 -56.5h-113v-241h-106zM188 334h109q143 0 143 127q0 126 -143 126h-109v-253zM-22 595q-11 0 -23 6q-8 -5 -8 -19q0 -32 53 -51l-14 -41q-47 10 -74.5 37t-27.5 69q0 39 22 61.5t58 22.5q22 0 36.5 -12
t14.5 -35q0 -19 -11.5 -28.5t-25.5 -9.5z" />
    <glyph glyph-name="uni1FED" unicode="&#x1fed;" horiz-adv-x="500" 
d="M382 511q-21 0 -36 15t-15 36q0 20 15.5 35t35.5 15t35.5 -15t15.5 -35q0 -21 -15.5 -36t-35.5 -15zM262 680l49 -167h-78l-87 167h116zM118 511q-21 0 -36 15t-15 36q0 20 15.5 35t35.5 15t35.5 -15t15.5 -35q0 -21 -15.5 -36t-35.5 -15z" />
    <glyph glyph-name="uni1FEE" unicode="&#x1fee;" horiz-adv-x="500" 
d="M118 511q-20 0 -35.5 15t-15.5 36q0 20 15.5 35t35.5 15t35.5 -15t15.5 -35q0 -21 -15 -36t-36 -15zM189 513l49 167h116l-87 -167h-78zM382 511q-20 0 -35.5 15t-15.5 36q0 20 15.5 35t35.5 15t35.5 -15t15.5 -35q0 -21 -15 -36t-36 -15z" />
    <glyph glyph-name="uni1FEF" unicode="&#x1fef;" horiz-adv-x="500" 
d="M279 680l57 -181h-78l-95 181h116z" />
    <glyph glyph-name="uni1FF2" unicode="&#x1ff2;" horiz-adv-x="663" 
d="M331 80q-14 -43 -46 -66t-74 -23q-84 0 -126 59t-42 143q0 93 52.5 160t151.5 76v-88q-101 -21 -101 -146q0 -49 18 -83t59 -34q26 0 42 19.5t16 50.5v130h101v-130q0 -31 16.5 -50.5t41.5 -19.5q41 0 59 34t18 83q0 124 -101 146v88q98 -9 151 -76t53 -160
q0 -84 -42 -143t-126 -59q-90 0 -121 89zM273 -59h102v-24q0 -29 10.5 -37t32.5 -8h18v-80q-17 -3 -50 -3q-63 0 -88 28.5t-25 92.5v31zM301 681l57 -181h-78l-95 181h116z" />
    <glyph glyph-name="uni1FF3" unicode="&#x1ff3;" horiz-adv-x="663" 
d="M331 80q-14 -43 -46 -66t-74 -23q-84 0 -126 59t-42 143q0 93 52.5 160t151.5 76v-88q-101 -21 -101 -146q0 -49 18 -83t59 -34q26 0 42 19.5t16 50.5v130h101v-130q0 -31 16.5 -50.5t41.5 -19.5q41 0 59 34t18 83q0 124 -101 146v88q98 -9 151 -76t53 -160
q0 -84 -42 -143t-126 -59q-90 0 -121 89zM273 -59h102v-24q0 -29 10.5 -37t32.5 -8h18v-80q-17 -3 -50 -3q-63 0 -88 28.5t-25 92.5v31z" />
    <glyph glyph-name="uni1FF4" unicode="&#x1ff4;" horiz-adv-x="663" 
d="M331 80q-14 -43 -46 -66t-74 -23q-84 0 -126 59t-42 143q0 93 52.5 160t151.5 76v-88q-101 -21 -101 -146q0 -49 18 -83t59 -34q26 0 42 19.5t16 50.5v130h101v-130q0 -31 16.5 -50.5t41.5 -19.5q41 0 59 34t18 83q0 124 -101 146v88q98 -9 151 -76t53 -160
q0 -84 -42 -143t-126 -59q-90 0 -121 89zM273 -59h102v-24q0 -29 10.5 -37t32.5 -8h18v-80q-17 -3 -50 -3q-63 0 -88 28.5t-25 92.5v31zM282 499l57 181h116l-95 -181h-78z" />
    <glyph glyph-name="uni1FF6" unicode="&#x1ff6;" horiz-adv-x="663" 
d="M331 80q-14 -43 -46 -66t-74 -23q-84 0 -126 59t-42 143q0 93 52.5 160t151.5 76v-88q-101 -21 -101 -146q0 -49 18 -83t59 -34q26 0 42 19.5t16 50.5v130h101v-130q0 -31 16.5 -50.5t41.5 -19.5q41 0 59 34t18 83q0 124 -101 146v88q98 -9 151 -76t53 -160
q0 -84 -42 -143t-126 -59q-90 0 -121 89zM365 566q15 0 36 29l44 -34q-28 -56 -81 -56q-23 0 -52 11q-31 11 -43 11q-21 0 -37 -30l-48 37q34 55 86 55q21 0 48 -11q34 -12 47 -12z" />
    <glyph glyph-name="uni1FF7" unicode="&#x1ff7;" horiz-adv-x="663" 
d="M331 80q-14 -43 -46 -66t-74 -23q-84 0 -126 59t-42 143q0 93 52.5 160t151.5 76v-88q-101 -21 -101 -146q0 -49 18 -83t59 -34q26 0 42 19.5t16 50.5v130h101v-130q0 -31 16.5 -50.5t41.5 -19.5q41 0 59 34t18 83q0 124 -101 146v88q98 -9 151 -76t53 -160
q0 -84 -42 -143t-126 -59q-90 0 -121 89zM273 -59h102v-24q0 -29 10.5 -37t32.5 -8h18v-80q-17 -3 -50 -3q-63 0 -88 28.5t-25 92.5v31zM365 566q15 0 36 29l44 -34q-28 -56 -81 -56q-23 0 -52 11q-31 11 -43 11q-21 0 -37 -30l-48 37q34 55 86 55q21 0 48 -11
q34 -12 47 -12z" />
    <glyph glyph-name="uni1FF8" unicode="&#x1ff8;" 
d="M402 -9q-148 0 -249.5 99t-101.5 250t101.5 250t249.5 99q147 0 248.5 -99t101.5 -250t-101.5 -250t-248.5 -99zM402 86q106 0 174 72.5t68 181.5t-68 181.5t-174 72.5t-174.5 -72.5t-68.5 -181.5t68.5 -181.5t174.5 -72.5zM40 499l-57 181h-116l95 -181h78z" />
    <glyph glyph-name="uni1FF9" unicode="&#x1ff9;" 
d="M402 -9q-148 0 -249.5 99t-101.5 250t101.5 250t249.5 99q147 0 248.5 -99t101.5 -250t-101.5 -250t-248.5 -99zM402 86q106 0 174 72.5t68 181.5t-68 181.5t-174 72.5t-174.5 -72.5t-68.5 -181.5t68.5 -181.5t174.5 -72.5zM-104 499l57 181h116l-95 -181h-78z" />
    <glyph glyph-name="uni1FFA" unicode="&#x1ffa;" 
d="M752 340q0 -78 -35 -143t-95 -104h124v-93h-281v86q82 31 130.5 98t48.5 156q0 109 -68.5 181.5t-174.5 72.5q-105 0 -173.5 -72.5t-68.5 -181.5q0 -89 49 -156t131 -98v-86h-281v93h124q-61 39 -96 104t-35 143q0 150 101.5 249.5t248.5 99.5q149 0 250 -99.5
t101 -249.5zM21 499l-57 181h-116l95 -181h78z" />
    <glyph glyph-name="uni1FFB" unicode="&#x1ffb;" 
d="M752 340q0 -78 -35 -143t-95 -104h124v-93h-281v86q82 31 130.5 98t48.5 156q0 109 -68.5 181.5t-174.5 72.5q-105 0 -173.5 -72.5t-68.5 -181.5q0 -89 49 -156t131 -98v-86h-281v93h124q-61 39 -96 104t-35 143q0 150 101.5 249.5t248.5 99.5q149 0 250 -99.5
t101 -249.5zM-113 499l57 181h116l-95 -181h-78z" />
    <glyph glyph-name="uni1FFC" unicode="&#x1ffc;" 
d="M752 340q0 -78 -35 -143t-95 -104h124v-93h-281v86q82 31 130.5 98t48.5 156q0 109 -68.5 181.5t-174.5 72.5q-105 0 -173.5 -72.5t-68.5 -181.5q0 -89 49 -156t131 -98v-86h-281v93h124q-61 39 -96 104t-35 143q0 150 101.5 249.5t248.5 99.5q149 0 250 -99.5
t101 -249.5zM356 -59h102v-24q0 -29 10.5 -37t32.5 -8h18v-80q-16 -3 -50 -3q-63 0 -88 28.5t-25 92.5v31z" />
    <glyph glyph-name="uni1FFD" unicode="&#x1ffd;" horiz-adv-x="500" 
d="M163 499l57 181h116l-95 -181h-78z" />
    <glyph glyph-name="uni1FFE" unicode="&#x1ffe;" horiz-adv-x="500" 
d="M278 598q-11 0 -23 6q-8 -5 -8 -19q0 -32 53 -51l-14 -41q-47 10 -74.5 37t-27.5 69q0 39 22 61.5t58 22.5q22 0 36.5 -12t14.5 -35q0 -19 -11.5 -28.5t-25.5 -9.5z" />
    <glyph glyph-name="endash" unicode="&#x2013;" horiz-adv-x="400" 
d="M33 165v90h334v-90h-334z" />
    <glyph glyph-name="emdash" unicode="&#x2014;" horiz-adv-x="640" 
d="M33 165v90h574v-90h-574z" />
    <glyph glyph-name="quoteleft" unicode="&#x2018;" horiz-adv-x="220" 
d="M110 445q-27 0 -46.5 19t-19.5 46q0 26 21 63l57 107h51l-36 -109q16 -6 27.5 -22.5t11.5 -37.5q0 -28 -19.5 -47t-46.5 -19z" />
    <glyph glyph-name="quoteright" unicode="&#x2019;" horiz-adv-x="220" 
d="M46 452l36 109q-16 6 -27 22.5t-11 37.5q0 28 19.5 47t45.5 19q27 0 47 -19t20 -46q0 -26 -21 -63l-58 -107h-51z" />
    <glyph glyph-name="quotesinglbase" unicode="&#x201a;" horiz-adv-x="220" 
d="M46 -102l36 109q-16 6 -27 22.5t-11 37.5q0 27 19.5 46.5t45.5 19.5q27 0 47 -19.5t20 -46.5q0 -23 -21 -62l-58 -107h-51z" />
    <glyph glyph-name="quotedblleft" unicode="&#x201c;" horiz-adv-x="406" 
d="M297 445q-27 0 -47 19t-20 46q0 24 22 63l57 107h51l-36 -109q16 -6 27.5 -22.5t11.5 -37.5q0 -28 -19.5 -47t-46.5 -19zM110 445q-27 0 -46.5 19t-19.5 46q0 26 21 63l57 107h51l-36 -109q16 -6 27.5 -22.5t11.5 -37.5q0 -28 -19.5 -47t-46.5 -19z" />
    <glyph glyph-name="quotedblright" unicode="&#x201d;" horiz-adv-x="406" 
d="M233 452l36 109q-16 6 -27.5 22.5t-11.5 37.5q0 28 20 47t46 19q27 0 47 -19t20 -46q0 -23 -21 -63l-58 -107h-51zM46 452l36 109q-16 6 -27 22.5t-11 37.5q0 28 19.5 47t45.5 19q27 0 47 -19t20 -46q0 -26 -21 -63l-58 -107h-51z" />
    <glyph glyph-name="quotedblbase" unicode="&#x201e;" horiz-adv-x="406" 
d="M233 -102l36 109q-16 6 -27.5 22.5t-11.5 37.5q0 27 20 46.5t46 19.5q27 0 47 -19.5t20 -46.5q0 -23 -21 -62l-58 -107h-51zM46 -102l36 109q-16 6 -27 22.5t-11 37.5q0 27 19.5 46.5t45.5 19.5q27 0 47 -19.5t20 -46.5q0 -23 -21 -62l-58 -107h-51z" />
    <glyph glyph-name="dagger" unicode="&#x2020;" horiz-adv-x="349" 
d="M128 261v234h-91v84h91v101h93v-101h91v-84h-91v-234h-93z" />
    <glyph glyph-name="daggerdbl" unicode="&#x2021;" horiz-adv-x="349" 
d="M128 261v101h-91v76h91v65h-91v76h91v101h93v-101h91v-76h-91v-65h91v-76h-91v-101h-93z" />
    <glyph glyph-name="bullet" unicode="&#x2022;" horiz-adv-x="278" 
d="M139 169q-41 0 -71 29.5t-30 71.5q0 43 30 72t71 29t71 -29t30 -72q0 -42 -30.5 -71.5t-70.5 -29.5z" />
    <glyph glyph-name="ellipsis" unicode="&#x2026;" horiz-adv-x="674" 
d="M563 -6q-28 0 -49 20t-21 49t21 48.5t49 19.5t48 -19.5t20 -48.5t-20 -49t-48 -20zM337 -6q-28 0 -48.5 20t-20.5 49t20.5 48.5t48.5 19.5t48.5 -19.5t20.5 -48.5t-20.5 -49t-48.5 -20zM112 -6q-28 0 -48.5 20t-20.5 49t20.5 48.5t48.5 19.5t48 -19.5t20 -48.5t-20 -49
t-48 -20z" />
    <glyph glyph-name="perthousand" unicode="&#x2030;" horiz-adv-x="1166" 
d="M183 218q-64 0 -110 43t-46 108t46 108.5t110 43.5t110 -43.5t46 -108.5t-46 -108t-110 -43zM193 0l322 513h101l-322 -513h-101zM983 -9q-65 0 -110.5 43t-45.5 109q0 65 45.5 108.5t110.5 43.5q64 0 110 -43.5t46 -108.5q0 -66 -46 -109t-110 -43zM626 -9
q-64 0 -110 43t-46 109q0 65 46 108.5t110 43.5t110 -43.5t46 -108.5q0 -66 -46 -109t-110 -43zM183 295q29 0 50 20.5t21 53.5t-21 54t-50 21t-50 -21t-21 -54t21 -53.5t50 -20.5zM983 69q29 0 50 20.5t21 53.5t-21 53.5t-50 20.5t-49.5 -20.5t-20.5 -53.5t20.5 -53.5
t49.5 -20.5zM626 69q29 0 50 20.5t21 53.5t-21 53.5t-50 20.5t-49.5 -20.5t-20.5 -53.5t20.5 -53.5t49.5 -20.5z" />
    <glyph glyph-name="guilsinglleft" unicode="&#x2039;" horiz-adv-x="265" 
d="M129 35l-94 163v8l94 161h101l-97 -165l97 -167h-101z" />
    <glyph glyph-name="guilsinglright" unicode="&#x203a;" horiz-adv-x="265" 
d="M35 35l97 165l-97 167h100l95 -163v-8l-95 -161h-100z" />
    <glyph glyph-name="fraction" unicode="&#x2044;" horiz-adv-x="437" 
d="M-38 0l412 680h101l-411 -680h-102z" />
    <glyph glyph-name="Euro" unicode="&#x20ac;" horiz-adv-x="610" 
d="M98 283h-65v72h81q29 75 96.5 120.5t151.5 45.5q129 0 201 -92l-71 -59q-48 64 -130 64q-97 0 -141 -79h174v-72h-196q-1 -8 -1 -26q0 -5 0.5 -14t0.5 -13h196v-72h-173q44 -79 140 -79q87 0 134 70l76 -55q-36 -53 -86.5 -78t-123.5 -25q-84 0 -150.5 45.5t-96.5 121.5
h-82v72h65q-1 9 -1 27t1 26z" />
    <glyph glyph-name="trademark" unicode="&#x2122;" horiz-adv-x="718" 
d="M344 381v303h9l145 -154l146 154h9v-303h-72v156l-78 -92h-9l-79 92v-156h-71zM127 381v239h-85v60h243v-60h-85v-239h-73z" />
    <glyph glyph-name="Omega" unicode="&#x2126;" 
d="M752 340q0 -78 -35 -143t-95 -104h124v-93h-281v86q82 31 130.5 98t48.5 156q0 109 -68.5 181.5t-174.5 72.5q-105 0 -173.5 -72.5t-68.5 -181.5q0 -89 49 -156t131 -98v-86h-281v93h124q-61 39 -96 104t-35 143q0 150 101.5 249.5t248.5 99.5q149 0 250 -99.5
t101 -249.5z" />
    <glyph glyph-name="Delta" unicode="&#x2206;" horiz-adv-x="659" 
d="M625 0h-591v11l286 676h12l293 -676v-11zM291 397l-124 -308h316l-125 308q-7 17 -15 40.5t-13.5 41t-5.5 18.5l-2 -7q-2 -8 -5.5 -18.5t-7.5 -23t-9 -26.5t-9 -25z" />
    <glyph glyph-name="minus" unicode="&#x2212;" horiz-adv-x="391" 
d="M352 214h-313v89h313v-89z" />
    <glyph glyph-name="space_uni0326" horiz-adv-x="500" 
d="M192 -269l31 98q-15 6 -25.5 22t-10.5 35q0 27 19 45.5t44 18.5q26 0 45 -18t19 -45t-18 -60l-53 -96h-51z" />
    </font>
</defs>
</svg>
